<?xml version="1.0" encoding="UTF-8"?>
<svg id="_주방4" xmlns="http://www.w3.org/2000/svg" version="1.1" xmlns:xlink="http://www.w3.org/1999/xlink" viewBox="0 0 600 540">
  <!-- Generator: Adobe Illustrator 29.6.1, SVG Export Plug-In . SVG Version: 2.1.1 Build 9)  -->
  <defs>
    <style>
      .st0 {
        fill: #6093a8;
      }

      .st0, .st1, .st2, .st3, .st4, .st5, .st6, .st7, .st8, .st9, .st10, .st11, .st12, .st13, .st14, .st15, .st16, .st17, .st18, .st19 {
        stroke-miterlimit: 10;
      }

      .st0, .st1, .st2, .st3, .st4, .st5, .st6, .st7, .st9, .st10, .st11, .st14, .st15, .st16, .st17, .st18 {
        stroke-width: 2px;
      }

      .st0, .st2, .st3, .st7, .st10, .st15, .st16, .st18 {
        stroke: #231f20;
      }

      .st1 {
        fill: #ffe799;
      }

      .st1, .st5, .st20, .st11, .st12, .st19 {
        stroke: #4c241e;
      }

      .st21 {
        opacity: .16;
      }

      .st21, .st22 {
        fill: #231f20;
        isolation: isolate;
      }

      .st2 {
        fill: #89b5c7;
      }

      .st23 {
        fill: #b2ac96;
      }

      .st3 {
        fill: #de5969;
      }

      .st4 {
        fill: #a3cd39;
      }

      .st4, .st6, .st8, .st9, .st14, .st17 {
        stroke: #000;
      }

      .st5 {
        fill: #ffd899;
      }

      .st24 {
        fill: #fff;
      }

      .st25 {
        fill: #2e6318;
      }

      .st6, .st18 {
        fill: #c9c9c9;
      }

      .st26 {
        fill: #d8c0a4;
      }

      .st7 {
        fill: #f3deaf;
      }

      .st20 {
        stroke-miterlimit: 10;
        stroke-width: 2px;
      }

      .st20, .st11, .st27 {
        fill: #dd9e59;
      }

      .st8 {
        fill: #f68831;
        stroke-width: 1.5px;
      }

      .st28 {
        fill: #f9c403;
      }

      .st29 {
        fill: #cf3903;
      }

      .st30 {
        fill: #89aedb;
      }

      .st31, .st32, .st13 {
        fill: none;
      }

      .st9 {
        fill: #ededed;
      }

      .st10, .st17 {
        fill: #787878;
      }

      .st33 {
        fill: #4cb168;
      }

      .st32 {
        stroke: #303030;
        stroke-linejoin: round;
        stroke-width: 1.9px;
      }

      .st32, .st13 {
        stroke-linecap: round;
      }

      .st34 {
        fill: #d7e7e9;
      }

      .st35 {
        fill: #ffde17;
      }

      .st36 {
        clip-path: url(#clippath-1);
      }

      .st37 {
        fill: #cec5ae;
      }

      .st38 {
        fill: #430000;
      }

      .st39 {
        fill: #a77147;
      }

      .st40 {
        fill: #109059;
      }

      .st12, .st41 {
        fill: #4c241e;
      }

      .st13 {
        stroke: #c17b46;
      }

      .st13, .st19 {
        stroke-width: 2.19px;
      }

      .st42 {
        clip-path: url(#clippath-3);
      }

      .st43 {
        fill: #fdf6e7;
      }

      .st14, .st15 {
        fill: #adadad;
      }

      .st44 {
        fill: #798fa8;
      }

      .st45 {
        fill: #919191;
      }

      .st46 {
        fill: #93a001;
      }

      .st47 {
        fill: #f2d58b;
      }

      .st48 {
        fill: #f9b43e;
      }

      .st16 {
        fill: #35434d;
      }

      .st49 {
        fill: #b57c4a;
      }

      .st50 {
        fill: #ffe6c2;
      }

      .st51 {
        clip-path: url(#clippath-2);
      }

      .st22 {
        opacity: .14;
      }

      .st52 {
        fill: #af844a;
      }

      .st53 {
        fill: #4c8e86;
      }

      .st54 {
        clip-path: url(#clippath);
      }

      .st19 {
        fill: #e9c883;
      }

      .st55 {
        fill: #6e9e64;
      }
    </style>
    <clipPath id="clippath">
      <rect class="st31" x="210.6" y="107.96" width="31" height="112"/>
    </clipPath>
    <clipPath id="clippath-1">
      <rect class="st31" x="250.71" y="106.96" width="32" height="107"/>
    </clipPath>
    <clipPath id="clippath-2">
      <rect class="st31" x="278.42" y="207.04" width="75" height="88"/>
    </clipPath>
    <clipPath id="clippath-3">
      <rect class="st31" x="145.3" y="192.07" width="38.92" height="61.84"/>
    </clipPath>
  </defs>
  <g>
    <g>
      <path class="st37" d="M230.28,285.95c-.34,0-.68-.03-1.02-.1-.24-.05-.48-.1-.7-.18-.52-.17-.95-.54-1.21-1.05-.26-.51-.31-1.1-.15-1.65.27-.91,1.06-1.52,1.97-1.52.21,0,.41.03.61.1.07.02.13.04.2.05.1.02.19.03.29.03.42,0,.84-.17,1.21-.48.53-.45.91-1.13,1.03-1.91.14-.79,0-1.56-.35-2.17-.31-.53-.75-.87-1.26-.97-.1-.02-.2-.03-.3-.03-.33,0-.67.11-.98.32-.33.22-.7.33-1.09.33-.71,0-1.37-.38-1.75-1.02-.29-.49-.38-1.07-.26-1.64.12-.56.45-1.04.92-1.35.96-.64,2.07-.97,3.17-.97.33,0,.68.03,1,.1,1.68.31,3.13,1.37,4.06,2.98.88,1.52,1.2,3.35.89,5.18s-1.21,3.44-2.53,4.55c-.87.72-1.88,1.2-2.93,1.35-.28.04-.56.06-.84.06h.02,0Z"/>
      <path d="M230.63,272.75c.28,0,.56.03.84.07,1.41.26,2.62,1.15,3.4,2.5.76,1.31,1.03,2.9.76,4.48-.26,1.58-1.04,2.98-2.18,3.92-.75.62-1.59,1.01-2.47,1.14-.23.03-.46.05-.69.05-.28,0-.57-.03-.85-.08-.2-.03-.39-.09-.59-.15-.58-.19-.9-.83-.72-1.44.15-.49.58-.81,1.04-.81.11,0,.22.01.32.05.1.03.21.06.32.08.15.03.31.04.46.04.63,0,1.26-.24,1.81-.7.72-.6,1.22-1.5,1.39-2.53s0-2.05-.48-2.88c-.46-.78-1.13-1.29-1.92-1.44-.15-.03-.31-.04-.46-.04-.52,0-1.02.16-1.5.47-.18.12-.38.18-.58.18-.37,0-.72-.19-.93-.54-.32-.54-.16-1.25.35-1.58.82-.53,1.74-.82,2.66-.82M230.63,270.72c-1.29,0-2.57.39-3.69,1.12-1.42.93-1.85,2.89-.96,4.38.55.94,1.52,1.5,2.57,1.5.57,0,1.12-.17,1.6-.48.17-.11.33-.16.48-.16.04,0,.08,0,.12.01.3.05.5.3.61.5.23.41.32.92.23,1.46-.09.54-.33.99-.69,1.29-.2.17-.41.26-.61.26-.04,0-.08,0-.12-.01-.03,0-.06-.01-.09-.02-.29-.09-.59-.14-.89-.14-1.33,0-2.5.9-2.89,2.24-.24.81-.16,1.67.21,2.42.38.75,1.01,1.31,1.78,1.56.26.09.54.16.82.21.39.07.79.11,1.19.11.32,0,.65-.03.97-.07,1.22-.19,2.39-.72,3.39-1.56,1.51-1.26,2.54-3.09,2.88-5.16.35-2.07,0-4.16-1.02-5.89-1.07-1.85-2.75-3.08-4.71-3.44-.39-.08-.78-.11-1.17-.11h0v-.02h-.01Z"/>
      <path class="st37" d="M228.25,270.03v8.92c0,7.42-7.12,13.44-15.9,13.44s-15.9-6.02-15.9-13.44v-8.92h31.8,0Z"/>
      <path d="M212.35,293.41c-9.3,0-16.86-6.49-16.86-14.46v-8.92c0-.56.43-1.01.97-1.01h31.79c.53,0,.96.45.96,1.01v8.92c0,7.97-7.57,14.46-16.86,14.46h0ZM197.43,271.05v7.91c0,6.85,6.7,12.43,14.93,12.43s14.93-5.58,14.93-12.43v-7.91h-29.86,0Z"/>
    </g>
    <g>
      <path class="st37" d="M118.93,253.6v40.43h6.95v-34.21h139.17v34.21h6.95v-40.43H118.92h.01Z"/>
      <path d="M272.02,295.05h-6.95c-.53,0-.96-.45-.96-1.02v-33.2H126.87v33.2c0,.56-.43,1.02-.96,1.02h-6.95c-.53,0-.96-.45-.96-1.02v-40.43c0-.56.43-1.01.96-1.01h153.08c.53,0,.96.45.96,1.01v40.43c0,.56-.43,1.02-.96,1.02h-.02ZM266.03,293.01h5.02v-38.4H119.9v38.4h5.02v-33.2c0-.56.43-1.02.97-1.02h139.17c.53,0,.96.45.96,1.02v33.2h.01Z"/>
    </g>
    <g>
      <path class="st37" d="M183.14,285.95c-.34,0-.68-.03-1.02-.1-.24-.05-.47-.1-.7-.18-.52-.17-.95-.55-1.21-1.06-.26-.51-.31-1.1-.15-1.65.27-.91,1.06-1.52,1.97-1.52.21,0,.41.03.61.09.06.02.13.04.2.05.1.02.19.03.29.03.42,0,.84-.17,1.21-.48.53-.45.91-1.13,1.04-1.91.14-.79,0-1.56-.35-2.17-.31-.53-.75-.87-1.26-.97-.1-.02-.2-.03-.3-.03-.33,0-.67.11-.98.32-.33.22-.7.32-1.09.32-.71,0-1.37-.38-1.75-1.02-.29-.49-.38-1.07-.26-1.64.12-.56.45-1.04.92-1.35.96-.64,2.07-.97,3.17-.97.33,0,.67.03,1,.1,1.69.31,3.13,1.37,4.06,2.98.88,1.52,1.2,3.36.89,5.18-.31,1.83-1.21,3.44-2.53,4.55-.87.72-1.89,1.2-2.93,1.35-.28.04-.56.06-.84.06h0v.02h0Z"/>
      <path d="M183.48,272.75c.28,0,.56.03.84.07,1.41.26,2.62,1.15,3.4,2.5.76,1.31,1.03,2.9.76,4.48-.26,1.58-1.04,2.98-2.18,3.92-.75.62-1.59,1.01-2.47,1.14-.23.03-.46.05-.7.05-.28,0-.57-.03-.85-.08-.2-.03-.39-.09-.58-.15-.58-.19-.9-.83-.72-1.44.15-.49.58-.81,1.04-.81.11,0,.22.01.32.05.1.03.21.06.32.08.15.03.31.04.46.04.63,0,1.26-.24,1.82-.7.72-.6,1.21-1.5,1.39-2.53.17-1.03,0-2.05-.48-2.88-.46-.78-1.13-1.29-1.92-1.44-.15-.03-.31-.04-.46-.04-.52,0-1.02.16-1.5.47-.18.12-.38.18-.58.18-.37,0-.72-.19-.93-.54-.32-.54-.16-1.25.35-1.58.82-.53,1.74-.82,2.66-.82M183.48,270.72c-1.29,0-2.57.39-3.69,1.12-1.42.93-1.85,2.89-.96,4.38.55.94,1.52,1.5,2.57,1.5.57,0,1.12-.17,1.6-.48.17-.11.33-.16.48-.16.04,0,.08,0,.12.01.3.05.49.3.61.5.23.41.31.92.22,1.46-.09.54-.33.99-.69,1.29-.2.17-.41.26-.61.26-.04,0-.08,0-.12-.01-.03,0-.06-.01-.09-.02-.29-.09-.59-.14-.89-.14-1.33,0-2.5.9-2.89,2.24-.24.81-.16,1.67.21,2.42.38.75,1.01,1.31,1.78,1.56.26.09.54.16.82.21.39.07.79.11,1.19.11.32,0,.65-.03.97-.07,1.22-.19,2.39-.72,3.39-1.56,1.51-1.26,2.54-3.09,2.88-5.16.35-2.07,0-4.16-1.02-5.89-1.07-1.85-2.75-3.08-4.71-3.44-.39-.08-.78-.11-1.17-.11h0v-.02h0Z"/>
      <path class="st37" d="M181.11,270.03v8.92c0,7.42-7.11,13.44-15.9,13.44s-15.9-6.02-15.9-13.44v-8.92h31.8,0Z"/>
      <path d="M165.21,293.41c-9.3,0-16.86-6.49-16.86-14.46v-8.92c0-.56.43-1.01.97-1.01h31.79c.53,0,.96.45.96,1.01v8.92c0,7.97-7.57,14.46-16.86,14.46h0ZM150.29,271.05v7.91c0,6.85,6.7,12.43,14.93,12.43s14.93-5.58,14.93-12.43v-7.91h-29.86Z"/>
    </g>
    <g class="st54">
      <g>
        <path class="st9" d="M222.91,152.61c0-1.76,1.43-3.18,3.2-3.18s3.2,1.42,3.2,3.18v40.51c0,1.76-1.43,3.18-3.2,3.18s-3.2-1.42-3.2-3.18v-40.51h0Z"/>
        <path class="st9" d="M210.99,203.98v15.59h30.21v-15.59c0-8.31-6.76-15.05-15.11-15.05s-15.1,6.73-15.1,15.05ZM236.85,201.35v13.48c0,1.12-.91,2.03-2.03,2.03s-2.03-.91-2.03-2.03v-13.49c0-1.12.91-2.03,2.03-2.03s2.03.91,2.03,2.03h0ZM228.14,201.35v13.48c0,1.12-.91,2.03-2.03,2.03s-2.03-.91-2.03-2.03v-13.49c0-1.12.91-2.03,2.03-2.03s2.03.91,2.03,2.03h0ZM219.42,201.35v13.48c0,1.12-.91,2.03-2.03,2.03s-2.03-.91-2.03-2.03v-13.49c0-1.12.91-2.03,2.03-2.03s2.03.91,2.03,2.03h0Z"/>
        <path class="st4" d="M226.1,161.13c3.21,0,5.81-2.59,5.81-5.79v-41.2c0-3.2-2.6-5.79-5.81-5.79s-5.81,2.59-5.81,5.79v41.2c0,3.19,2.6,5.79,5.81,5.79ZM226.1,111.53c1.45,0,2.62,1.17,2.62,2.6s-1.17,2.6-2.62,2.6-2.61-1.16-2.61-2.6,1.17-2.6,2.61-2.6Z"/>
      </g>
    </g>
    <g class="st36">
      <g>
        <path class="st32" d="M266.71,135.23v78.01"/>
        <path class="st32" d="M266.71,141.13s22.99,72.11,0,72.11"/>
        <path class="st32" d="M266.71,141.13s34.38,72.11,0,72.11"/>
        <path class="st32" d="M266.71,141.13s11.14,72.11,0,72.11"/>
        <path class="st32" d="M266.71,141.13s-22.99,72.11,0,72.11"/>
        <path class="st32" d="M266.71,141.13s-34.38,72.11,0,72.11"/>
        <path class="st32" d="M266.71,141.13s-11.14,72.11,0,72.11"/>
        <path class="st8" d="M271.79,151.21v-38.84c0-2.78-2.28-5.04-5.08-5.04s-5.08,2.26-5.08,5.04v38.84h10.17-.01ZM266.71,110.11c1.27,0,2.29,1.02,2.29,2.27s-1.02,2.27-2.29,2.27-2.29-1.02-2.29-2.27,1.02-2.27,2.29-2.27Z"/>
      </g>
    </g>
    <g>
      <g>
        <path class="st39" d="M85.4,108.46h-7.15v223.41h7.15V108.46h0Z"/>
        <path d="M85.39,332.89h-7.15c-.53,0-.96-.45-.96-1.02V108.46c0-.56.43-1.02.96-1.02h7.15c.53,0,.96.45.96,1.02v223.41c0,.56-.43,1.02-.96,1.02h0ZM79.21,330.87h5.22V109.48h-5.22v221.39Z"/>
      </g>
      <g>
        <path class="st39" d="M529.82,331.88h7.15V108.47h-7.15v223.41Z"/>
        <path d="M536.97,332.89h-7.15c-.53,0-.97-.45-.97-1.02V108.46c0-.56.43-1.02.97-1.02h7.15c.53,0,.97.45.97,1.02v223.41c0,.56-.43,1.02-.97,1.02h0ZM530.79,330.87h5.22V109.48h-5.22v221.39Z"/>
      </g>
      <g>
        <path class="st48" d="M540.57,294.29H74.65v148.99h465.93v-148.99h-.01Z"/>
        <path d="M540.57,444.29H74.65c-.53,0-.96-.45-.96-1.02v-148.98c0-.56.43-1.02.96-1.02h465.93c.53,0,.97.45.97,1.02v148.98c0,.56-.43,1.02-.97,1.02h-.01ZM75.61,442.26h464v-146.96H75.61v146.96Z"/>
      </g>
      <g>
        <path class="st33" d="M62.96,25.98h43.43l-18.59,84.74h-47.57L62.96,25.98h0Z"/>
        <path d="M87.8,111.73h-47.57c-.3,0-.59-.15-.77-.4-.18-.26-.25-.58-.16-.89L62.03,25.69c.12-.44.5-.74.93-.74h43.43c.3,0,.57.14.75.39.18.24.25.56.19.86l-18.6,84.74c-.1.46-.49.79-.94.79h.01ZM41.51,109.7h45.52l18.15-82.71h-41.49l-22.19,82.71h0Z"/>
        <path class="st24" d="M106.4,25.98h43.43l-14.46,84.74h-47.57l18.59-84.74s.01,0,.01,0Z"/>
        <path d="M135.37,111.73h-47.57c-.3,0-.57-.14-.75-.39-.18-.24-.25-.56-.19-.86l18.6-84.74c.1-.46.49-.79.94-.79h43.43c.28,0,.56.14.74.36.19.23.26.54.21.83l-14.46,84.75c-.08.48-.48.84-.95.84h0ZM89.01,109.7h45.55l14.11-82.71h-41.51l-18.15,82.71h0Z"/>
        <path class="st33" d="M149.83,25.98h43.43l-10.33,84.74h-47.56l14.46-84.74h0Z"/>
        <path d="M182.93,111.73h-47.57c-.28,0-.56-.14-.74-.37-.19-.23-.26-.53-.21-.83l14.46-84.74c.08-.48.48-.83.95-.83h43.43c.28,0,.54.13.73.35.18.22.27.51.23.8l-10.33,84.74c-.07.51-.47.89-.96.89h.01ZM136.52,109.7h45.57l10.08-82.71h-41.53l-14.11,82.71h0Z"/>
        <path class="st24" d="M193.26,25.98h43.43l-6.19,84.74h-47.57l10.32-84.74s0,0,0,0Z"/>
        <path d="M230.5,111.73h-47.57c-.28,0-.54-.13-.73-.35-.18-.22-.27-.51-.23-.8l10.32-84.75c.07-.51.47-.89.96-.89h43.43c.27,0,.53.11.71.33.18.21.28.49.26.76l-6.19,84.75c-.04.53-.46.93-.96.93h0v.02h0ZM184.03,109.7h45.57l6.04-82.71h-41.54l-10.08,82.71h0Z"/>
        <path class="st33" d="M236.69,25.98h43.43l-2.05,84.74h-47.57s6.19-84.74,6.19-84.74Z"/>
        <path d="M278.07,111.73h-47.57c-.27,0-.53-.11-.71-.32-.18-.21-.28-.49-.26-.76l6.19-84.75c.04-.53.46-.94.96-.94h43.43c.26,0,.51.11.69.3.18.2.28.46.28.73l-2.05,84.74c-.01.55-.44.99-.96.99h0ZM231.54,109.7h45.59l2.01-82.71h-41.55l-6.04,82.71h-.01Z"/>
        <path class="st24" d="M280.12,25.98h43.43l2.08,84.74h-47.57l2.05-84.74h.01Z"/>
        <path d="M325.64,111.73h-47.57c-.26,0-.51-.11-.69-.3-.18-.2-.28-.46-.28-.73l2.05-84.75c.01-.55.44-.99.96-.99h43.43c.52,0,.95.44.96.99l2.08,84.75c0,.27-.09.54-.28.74s-.43.31-.69.31h0l.03-.02h0ZM279.06,109.7h45.59l-2.03-82.71h-41.55l-2.01,82.71h0Z"/>
        <path class="st33" d="M323.55,25.98h43.43l6.22,84.74h-47.57s-2.08-84.74-2.08-84.74Z"/>
        <path d="M373.2,111.73h-47.57c-.52,0-.95-.44-.96-.99l-2.08-84.74c0-.27.09-.54.28-.74.19-.2.43-.3.69-.3h43.43c.5,0,.93.41.96.93l6.22,84.74c.02.28-.07.56-.26.76-.18.21-.44.33-.71.33h0ZM326.58,109.7h45.59l-6.07-82.71h-41.55l2.03,82.71h0Z"/>
        <path class="st24" d="M366.98,25.98h43.43l10.36,84.74h-47.57l-6.22-84.74h0Z"/>
        <path d="M420.77,111.73h-47.57c-.5,0-.93-.41-.96-.93l-6.22-84.74c-.02-.28.07-.56.26-.76.18-.21.44-.33.71-.33h43.43c.48,0,.89.38.96.89l10.35,84.74c.03.29-.05.58-.23.8-.18.22-.44.35-.73.35h0v-.02h0ZM374.1,109.7h45.57l-10.11-82.71h-41.54l6.07,82.71h0Z"/>
        <path class="st33" d="M410.42,25.98h43.43l14.49,84.74h-47.57l-10.36-84.74s.01,0,.01,0Z"/>
        <path d="M468.34,111.73h-47.57c-.48,0-.89-.38-.96-.89l-10.35-84.74c-.03-.29.05-.58.23-.8.18-.22.44-.35.73-.35h43.43c.47,0,.87.35.95.83l14.49,84.74c.05.3-.03.6-.21.83-.19.23-.46.37-.74.37h0ZM421.62,109.7h45.56l-14.14-82.71h-41.53l10.11,82.71h0Z"/>
        <path class="st24" d="M453.85,25.98h43.43l18.62,84.74h-47.56l-14.49-84.74h0Z"/>
        <path d="M515.9,111.73h-47.57c-.47,0-.87-.35-.95-.83l-14.49-84.75c-.05-.3.03-.6.21-.83.19-.23.46-.36.74-.36h43.43c.45,0,.84.33.94.79l18.62,84.74c.06.3,0,.61-.19.86-.18.24-.46.39-.75.39h.01ZM469.14,109.7h45.55l-18.18-82.71h-41.51l14.14,82.71Z"/>
        <path class="st33" d="M497.4,25.98h43.43l22.73,84.74h-47.57l-18.59-84.74h0Z"/>
        <path d="M563.56,111.73h-47.57c-.45,0-.84-.32-.94-.79l-18.6-84.74c-.06-.3,0-.62.19-.86.18-.24.46-.39.75-.39h43.43c.43,0,.81.3.93.74l22.74,84.75c.08.3.03.64-.16.89-.18.26-.47.4-.77.4h0ZM516.76,109.7h45.52l-22.19-82.71h-41.49l18.15,82.71h0Z"/>
        <path class="st40" d="M63.74,140.52c13.15,0,23.81-9.8,23.81-21.87v-7.88h-47.62v7.88c0,12.08,10.66,21.87,23.81,21.87Z"/>
        <path d="M63.74,141.54c-13.66,0-24.77-10.27-24.77-22.89v-7.88c0-.56.43-1.01.96-1.01h47.62c.53,0,.96.45.96,1.01v7.88c0,12.62-11.12,22.89-24.78,22.89h0ZM40.9,111.78v6.86c0,11.5,10.25,20.86,22.84,20.86s22.85-9.36,22.85-20.86v-6.86h-45.69Z"/>
        <path class="st34" d="M111.37,140.52c13.15,0,23.81-9.8,23.81-21.87v-7.88h-47.62v7.88c0,12.08,10.66,21.87,23.81,21.87Z"/>
        <path d="M111.37,141.54c-13.66,0-24.77-10.27-24.77-22.89v-7.88c0-.56.43-1.01.96-1.01h47.62c.53,0,.96.45.96,1.01v7.88c0,12.62-11.12,22.89-24.78,22.89h0ZM88.52,111.78v6.86c0,11.5,10.25,20.86,22.84,20.86s22.85-9.36,22.85-20.86v-6.86h-45.69Z"/>
        <path class="st40" d="M158.99,140.52c13.15,0,23.81-9.8,23.81-21.87v-7.88h-47.62v7.88c0,12.08,10.66,21.87,23.81,21.87h0Z"/>
        <path d="M158.99,141.54c-13.66,0-24.77-10.27-24.77-22.89v-7.88c0-.56.43-1.01.96-1.01h47.62c.53,0,.96.45.96,1.01v7.88c0,12.62-11.12,22.89-24.77,22.89h0ZM136.15,111.78v6.86c0,11.5,10.25,20.86,22.85,20.86s22.85-9.36,22.85-20.86v-6.86h-45.7Z"/>
        <path class="st34" d="M206.61,140.52c13.15,0,23.81-9.8,23.81-21.87v-7.88h-47.62v7.88c0,12.08,10.66,21.87,23.81,21.87Z"/>
        <path d="M206.61,141.54c-13.66,0-24.78-10.27-24.78-22.89v-7.88c0-.56.43-1.01.96-1.01h47.62c.53,0,.96.45.96,1.01v7.88c0,12.62-11.12,22.89-24.77,22.89h0ZM183.77,111.78v6.86c0,11.5,10.25,20.86,22.85,20.86s22.84-9.36,22.84-20.86v-6.86h-45.69Z"/>
        <path class="st40" d="M254.24,140.52c13.15,0,23.81-9.8,23.81-21.87v-7.88h-47.62v7.88c0,12.08,10.66,21.87,23.81,21.87h0Z"/>
        <path d="M254.24,141.54c-13.66,0-24.78-10.27-24.78-22.89v-7.88c0-.56.43-1.01.96-1.01h47.62c.53,0,.96.45.96,1.01v7.88c0,12.62-11.12,22.89-24.77,22.89h.01ZM231.39,111.78v6.86c0,11.5,10.25,20.86,22.85,20.86s22.84-9.36,22.84-20.86v-6.86h-45.69Z"/>
        <path class="st34" d="M301.85,140.52c13.15,0,23.81-9.8,23.81-21.87v-7.88h-47.62v7.88c0,12.08,10.66,21.87,23.81,21.87Z"/>
        <path d="M301.85,141.54c-13.66,0-24.77-10.27-24.77-22.89v-7.88c0-.56.43-1.01.96-1.01h47.62c.53,0,.96.45.96,1.01v7.88c0,12.62-11.12,22.89-24.77,22.89h0ZM279.01,111.78v6.86c0,11.5,10.25,20.86,22.85,20.86s22.85-9.36,22.85-20.86v-6.86h-45.7Z"/>
        <path class="st40" d="M349.48,140.52c13.15,0,23.81-9.8,23.81-21.87v-7.88h-47.62v7.88c0,12.08,10.66,21.87,23.81,21.87Z"/>
        <path d="M349.48,141.54c-13.66,0-24.77-10.27-24.77-22.89v-7.88c0-.56.43-1.01.96-1.01h47.62c.53,0,.96.45.96,1.01v7.88c0,12.62-11.12,22.89-24.78,22.89h.01ZM326.63,111.78v6.86c0,11.5,10.25,20.86,22.85,20.86s22.84-9.36,22.84-20.86v-6.86h-45.69Z"/>
        <path class="st34" d="M397.1,140.52c13.15,0,23.81-9.8,23.81-21.87v-7.88h-47.62v7.88c0,12.08,10.66,21.87,23.81,21.87Z"/>
        <path d="M397.1,141.54c-13.66,0-24.77-10.27-24.77-22.89v-7.88c0-.56.43-1.01.96-1.01h47.62c.53,0,.96.45.96,1.01v7.88c0,12.62-11.12,22.89-24.77,22.89h0ZM374.26,111.78v6.86c0,11.5,10.25,20.86,22.85,20.86s22.85-9.36,22.85-20.86v-6.86h-45.7Z"/>
        <path class="st40" d="M444.72,140.52c13.15,0,23.81-9.8,23.81-21.87v-7.88h-47.62v7.88c0,12.08,10.66,21.87,23.81,21.87Z"/>
        <path d="M444.72,141.54c-13.66,0-24.77-10.27-24.77-22.89v-7.88c0-.56.43-1.01.96-1.01h47.62c.53,0,.96.45.96,1.01v7.88c0,12.62-11.12,22.89-24.77,22.89h0ZM421.87,111.78v6.86c0,11.5,10.25,20.86,22.84,20.86s22.84-9.36,22.84-20.86v-6.86h-45.69.01Z"/>
        <path class="st34" d="M492.35,140.52c13.15,0,23.81-9.8,23.81-21.87v-7.88h-47.62v7.88c0,12.08,10.66,21.87,23.81,21.87h0Z"/>
        <path d="M492.35,141.54c-13.66,0-24.77-10.27-24.77-22.89v-7.88c0-.56.43-1.01.97-1.01h47.62c.53,0,.97.45.97,1.01v7.88c0,12.62-11.12,22.89-24.78,22.89h-.01ZM469.5,111.78v6.86c0,11.5,10.25,20.86,22.84,20.86s22.85-9.36,22.85-20.86v-6.86h-45.69Z"/>
        <path class="st40" d="M539.96,140.52c13.15,0,23.81-9.8,23.81-21.87v-7.88h-47.62v7.88c0,12.08,10.66,21.87,23.81,21.87Z"/>
        <path d="M539.96,141.54c-13.66,0-24.77-10.27-24.77-22.89v-7.88c0-.56.43-1.01.96-1.01h47.62c.53,0,.97.45.97,1.01v7.88c0,12.62-11.12,22.89-24.78,22.89h0ZM517.12,111.78v6.86c0,11.5,10.25,20.86,22.84,20.86s22.85-9.36,22.85-20.86v-6.86h-45.69Z"/>
      </g>
    </g>
    <g>
      <path class="st55" d="M96.65,430.62c-1.24.84-4.56,1.11-5.74.17-.78-.63-3.86-4.74.34-7.15-3.55-1.64-.34-9.08,3.86-6.49-.26-2.93,2.77-5.61,5.46-4.84,1.27-3.22,5.43-4.74,8.33-3.04,2.21-2.18,6.49-.91,7.28,2.16,1.51-.71,3.51.14,4.13,1.75,2.07-2.25,5.98-2.16,7.95.19,2.37-1.67,6.17.55,6.07,3.55,2.24-.04,3.8,3.19,2.45,5.07,1.65.22,2.36,2.63,1.52,4.15s-2.61,2.18-4.27,2.33c-1.35,2.02-4.48,2.31-6.15.58-1.12,2.5-4.88,3.04-6.59.93.17,1.97-2.43,3.47-3.92,2.25.69,1.6-.4,3.73-2.05,4.03-1.65.29-3.34-1.35-3.19-3.1-1.92,1.79-5.48.78-6.3-1.77.69,2.15-9.32,4.82-9.19-.74h.01v-.03h0Z"/>
      <path class="st47" d="M108.93,405.29c-.9.27-1.63,1.1-1.83,2.06-.05-.76-.73-1.35-1.44-1.44-2.07-.27-4,2.61-2.36,4.36-.81-.09-1.63.51-1.85,1.33-.7,2.63,3.28,3.08,4.48,1.5.22,1.12,1.33,1.96,2.41,1.83,1.14-.14,1.14-1.26,1.93-1.64.83-.41,1.53.51,2.34-.5.88-1.1.68-2.96-.4-3.82,1.77-1.91-1.63-4.17-3.27-3.67h-.01Z"/>
      <path class="st47" d="M129.75,412.81c1.27.67,2.15-2.69.28-3.34-.63-.22-1.37,0-1.8.52.1-1.88-1.65-2.16-2.89-1.33-.86.57-1.29,1.82-.89,2.81-.22-.23-.57-.3-.86-.18-.66.9-.82,2.25-.22,3.19.61.94,2.05,1.23,2.82.44-.01.51.37.97.84,1.14.46.17.96.11,1.43-.02.7-.2,1.39-.59,1.74-1.25s.19-1.64-.45-1.98h0Z"/>
      <path class="st47" d="M96.97,421.4c-1.2-.09-2.39.92-2.54,2.18-.16,1.26.74,2.56,1.92,2.79-.18.55.12,1.18.55,1.56.64.57,1.56.75,2.36.47.79-.28,1.43-1.01,1.61-1.87.77-.09,1.47-.68,1.7-1.47s-.02-1.69-.62-2.22c.48-1.04-.59-2.43-1.65-2.17-.88-.83-2.46-.59-3.08.47"/>
      <path class="st47" d="M114.3,423.76c-.2.26-.35.56-.42.88-1.02,4.38,4.45,3.88,4.31,3.24.3,1.37,1.89,2.26,3.13,1.75,1.25-.51,1.84-2.3,1.17-3.52.95,1.03,2.88.64,3.4-.68s-.58-3.03-1.94-3.01c-.01-1-.37-2.07-1.17-2.6-.87-.58-2.21.05-2.99-.05-1.06-.13-1.57-1.17-2.85-.44-1.19.68-1.63,2.49-.89,3.68-.66-.14-1.32.2-1.75.76h0Z"/>
      <path class="st44" d="M137.47,428.02h-46.97l.11,6.31h3.08l3.53,44.68h33.53l3.53-44.68h3.08l.11-6.31h0Z"/>
      <path d="M130.76,480.03h-33.53c-.5,0-.92-.41-.96-.93l-3.46-43.75h-2.19c-.53,0-.96-.45-.96-.99l-.11-6.31c0-.27.1-.53.28-.73s.43-.3.69-.3h46.97c.26,0,.51.11.69.3.18.2.28.45.28.73l-.11,6.31c0,.56-.44.99-.96.99h-2.19l-3.46,43.75c-.04.53-.46.93-.96.93h-.02,0ZM98.11,478h31.76l3.46-43.75c.04-.53.46-.93.96-.93h2.14l.07-4.28h-45l.07,4.28h2.14c.5,0,.92.41.96.93l3.46,43.75h-.02Z"/>
    </g>
    <g>
      <path class="st52" d="M477.71,500.74h-7.72l6.43-54.12h7.72l-6.43,54.12Z"/>
      <path d="M477.71,501.76h-7.72c-.28,0-.54-.12-.72-.35-.18-.22-.27-.51-.23-.8l6.43-54.12c.06-.51.47-.89.96-.89h7.72c.28,0,.54.12.72.35.18.22.27.51.23.8l-6.43,54.12c-.06.51-.47.89-.96.89ZM471.08,499.72h5.78l6.19-52.09h-5.78l-6.19,52.09Z"/>
      <path class="st52" d="M563.27,500.74h7.72l-6.43-54.12h-7.72l6.43,54.12Z"/>
      <path d="M570.99,501.76h-7.72c-.49,0-.89-.38-.96-.89l-6.43-54.12c-.03-.29.05-.58.23-.8s.44-.35.72-.35h7.72c.49,0,.89.38.96.89l6.43,54.12c.03.29-.05.58-.23.8s-.44.35-.72.35ZM564.12,499.72h5.78l-6.19-52.09h-5.78l6.19,52.09Z"/>
      <path class="st52" d="M569.76,308.3h-95.86v133.95h95.86v-133.95Z"/>
      <path d="M569.76,443.26h-95.86c-.53,0-.97-.45-.97-1.02v-133.95c0-.56.43-1.02.97-1.02h95.86c.53,0,.96.45.96,1.02v133.95c0,.56-.43,1.02-.96,1.02h0ZM474.86,441.23h93.93v-131.92h-93.93v131.92h0Z"/>
      <path class="st25" d="M561.75,316.18h-79.84v118.18h79.84v-118.18Z"/>
      <path d="M561.75,435.38h-79.84c-.53,0-.97-.45-.97-1.02v-118.18c0-.56.43-1.02.97-1.02h79.84c.53,0,.97.45.97,1.02v118.18c0,.56-.43,1.02-.97,1.02ZM482.87,433.35h77.91v-116.15h-77.91v116.15h0Z"/>
      <path class="st24" d="M503.13,330.87h1.52c.19,0,.41.36.68,1.07,0,.62-.4.98-1.19,1.07l-1.7-.36c-.75.12-1.48.18-2.21.18h-.17l.17.89v2.14c0,1.01.17,3.03.51,6.08-.34.46-.51.76-.51.89-1.02,0-1.53-1.43-1.53-4.28l-.34-4.11.17-.35-.17-1.08c-1.47.12-2.55.3-3.22.53-.71-.24-1.11-.53-1.19-.89v-.53c0-.19.28-.49.85-.89.12,0,.29.06.51.18,3.66-.36,6.27-.53,7.82-.53h0Z"/>
      <path class="st24" d="M512.49,330.51c1.56.25,2.8.96,3.74,2.14.56,1.29.84,2.48.84,3.57-.4,3.71-1.53,5.79-3.39,6.25,0,.26-.51.45-1.53.54-2.7,0-4.45-.89-5.26-2.68-.46-1.35-.68-2.24-.68-2.68v-1.07c0-1.35.91-2.96,2.72-4.82.67-.6,1.86-1.02,3.56-1.25h0ZM507.74,336.76c.53,2.85,1.38,4.28,2.55,4.28,0,.12.34.24,1.02.36l.34-.18.34.18c1.39,0,2.46-1.02,3.22-3.03l.17-1.08v-1.24c0-2.15-1.3-3.46-3.9-3.93-1.51,0-2.76,1.49-3.74,4.46v.18h0Z"/>
      <path class="st24" d="M520.83,330.69v.18c.22-.12.39-.18.52-.18,2.98,0,4.97,1.02,5.94,3.04.46,1.02.68,1.66.68,1.96v.18c0,2.38-1.7,4.88-5.1,7.5l-.85.18c-1.13-.29-1.7-.77-1.7-1.43-.45-1.76-1.07-4.91-1.87-9.47-.16,0-.33-.18-.51-.53,0-.08.12-.49.34-1.24h1.7l.84-.18h0ZM520.16,332.47v.18c.45,2.83,1.07,5.81,1.86,8.94h.34c2.71-2.47,4.07-4.26,4.07-5.36-.44-1.59-1.24-2.72-2.37-3.39-1.07-.24-1.92-.36-2.55-.36h-1.36,0Z"/>
      <path class="st24" d="M533.42,330.34c1.83,0,3.18,1.37,4.07,4.1h-.17c.17.26.33,1.04.51,2.32,0,.12-.06.18-.17.18.11.62.17.98.17,1.07,0,2.38-.28,3.57-.85,3.57h-.33c-.18,0-.41-.24-.68-.72.22-1.74.34-2.69.34-2.85v-.18h-.34c-.26,0-.48.06-.68.18-.2-.11-.71-.24-1.53-.36-.12,0-.29.06-.51.18-.77-.12-1.4-.18-1.87-.18h-.85l-.17,2.15v1.07c-.11.36-.45.53-1.02.53,0-.36-.17-.53-.51-.53,0-.11.06-.18.17-.18,0-.12-.06-.18-.17-.18l.17-.89v-.71c.04-2.03.15-3.04.34-3.04-.11-.23-.17-.4-.17-.53.4-1.66,1.31-3.26,2.71-4.82l1.52-.18h.02,0ZM530.71,335.33c.12.23.17.41.17.53.11,0,.17-.06.17-.17l.85.17h2.21c.25,0,.48.06.68.18.11-.12.57-.18,1.36-.18-.35-2.38-1.31-3.57-2.88-3.57-.93,0-1.72,1.01-2.37,3.03h-.19,0Z"/>
      <path class="st24" d="M539.05,330.51c.11,0,.17.06.17.18l.34-.18c.5,0,.89,1.07,1.19,3.21.7,1.43,1.38,2.14,2.03,2.14,1.26,0,2.51-1.07,3.74-3.21l1.18-.35h.17c.17,0,.34.24.51.71-.31,1.39-1.78,3.07-4.42,5.01-.11,1.55-.17,2.8-.17,3.75v1.43c0,.61-.17.97-.51,1.07h-.51c-.18,0-.4-.24-.67-.71v-.36c0-1.19.06-2.98.17-5.36-1.15,0-2.28-1.55-3.4-4.65-.11-.46-.17-.93-.17-1.43v-.54c.22-.28.34-.52.34-.71h0Z"/>
      <path class="st52" d="M574.21,439.18h-107.44v10.82h107.44v-10.82Z"/>
      <path d="M574.21,451.02h-107.44c-.53,0-.97-.45-.97-1.02v-10.82c0-.56.43-1.01.97-1.01h107.44c.53,0,.96.45.96,1.01v10.82c0,.56-.43,1.02-.96,1.02ZM467.74,448.99h105.51v-8.79h-105.51v8.79Z"/>
    </g>
    <g>
      <path class="st49" d="M144.62,430.69h-13.63v69.72h13.63v-69.72Z"/>
      <path d="M144.62,501.43h-13.62c-.53,0-.96-.45-.96-1.01v-69.72c0-.56.43-1.02.96-1.02h13.62c.53,0,.96.45.96,1.02v69.72c0,.56-.43,1.01-.96,1.01ZM131.96,499.4h11.7v-67.69h-11.7v67.69Z"/>
      <path class="st49" d="M376.28,500.41h13.63v-69.72h-13.63v69.72h0Z"/>
      <path d="M389.9,501.43h-13.63c-.53,0-.96-.45-.96-1.01v-69.72c0-.56.43-1.02.96-1.02h13.63c.53,0,.96.45.96,1.02v69.72c0,.56-.43,1.01-.96,1.01ZM377.24,499.4h11.7v-67.69h-11.7v67.69Z"/>
      <path class="st43" d="M398.9,400.98H121.99l-7.35,54.55h294.27l-10.02-54.55h.01Z"/>
      <path d="M408.92,456.54H114.65c-.28,0-.55-.13-.73-.35-.19-.22-.26-.51-.23-.8l7.35-54.55c.07-.5.48-.87.96-.87h276.91c.46,0,.86.34.95.83l10.01,54.55c.05.3-.02.6-.21.84-.18.23-.46.37-.75.37v-.02h0ZM115.76,454.51h291.99l-9.64-52.52H122.83l-7.07,52.52h0Z"/>
    </g>
    <g>
      <path class="st53" d="M365.78,266.92c-.92-4.04,3.13-10.39,6.91-10.17.42.03.7-.45.56-.87-1.22-3.81,1.77-8.23,5.08-10.7,4.65-3.48,10.46-5.55,16.12-4.72,2.59.39,5.08,1.36,7.37,2.67,0,0,5.08-3.27,9.91-1.04,0,0,5.2-3.67,10.39-.5,0,0,5.58.45,8.38,5.66,0,0,7.36-2.12,9.48,2.71,2.15-2.71,7.97-3.85,10.13,0,2.88-2.65,7.62,1.81,5.89,6.18,0,0,6.59,2.89,1.13,10.77h-91.35Z"/>
      <path class="st22" d="M454.25,259.03c-2.44-1.29-8.15-2.85-9.37,3.57-2.44-6.42-9.08-5.82-15.19-4.53,0-5.14-1.59-4.46-4.68-6.73-4.64-1.93-7.53,2.88-8.75,1.6-7.32-7.7-20.12-7.62-28.07-2.56-2.44,1.28-3.66,3.85-3.66,7.7-6.11-3.85-12.2,1.28-14.65,7.7,0,.39-.03.78-.06,1.16h87.29c.21-.3.4-.6.57-.89-.79-2.35-2.6-7.01-3.43-7.01h0Z"/>
      <path class="st23" d="M462.57,263.93h-100.46v4.2h2.27v25.71h95.93v-25.71h2.26v-4.2Z"/>
      <path d="M460.31,294.85h-95.93c-.53,0-.96-.45-.96-1.02v-24.69h-1.3c-.53,0-.96-.45-.96-1.02v-4.2c0-.56.43-1.02.96-1.02h100.46c.53,0,.96.45.96,1.02v4.2c0,.56-.43,1.02-.96,1.02h-1.3v24.69c0,.56-.43,1.02-.96,1.02h-.01ZM365.34,292.83h94v-24.69c0-.56.43-1.02.96-1.02h1.3v-2.17h-98.53v2.17h1.3c.53,0,.96.45.96,1.02v24.69h.01Z"/>
      <path class="st21" d="M460.31,267.71h-95.93v4.44h95.93v-4.44Z"/>
      <path class="st35" d="M454.08,255.41c-.27.45-.84.58-1.28.28l-.71-.49-.46.76c-.27.45-.84.58-1.28.28-.42-.3-.55-.9-.27-1.35l.46-.74-.72-.49c-.42-.29-.55-.89-.27-1.35.17-.28.48-.45.78-.45.17,0,.35.05.51.16l.71.49.46-.76c.27-.45.84-.58,1.28-.29.27.18.42.49.42.82,0,.18-.05.36-.15.53l-.46.74.72.49c.42.28.55.89.27,1.35h0v.02h-.01Z"/>
      <path class="st35" d="M383.32,252.16c-.28.45-.86.57-1.29.29l-.71-.49-.47.76c-.28.45-.86.59-1.29.29-.43-.3-.55-.91-.28-1.36l.47-.75-.73-.49c-.43-.29-.56-.9-.28-1.36.17-.29.48-.45.79-.45.17,0,.35.05.51.16l.71.49.47-.76c.28-.45.85-.59,1.29-.29.28.18.43.49.43.83,0,.18-.05.37-.15.54l-.47.75.73.49c.43.29.56.9.28,1.36h-.01Z"/>
      <path class="st35" d="M400.67,248.39c-.27.45-.84.57-1.28.28l-.71-.49-.46.76c-.27.45-.84.58-1.28.28-.43-.3-.55-.9-.27-1.35l.46-.74-.72-.49c-.42-.28-.55-.89-.27-1.35.17-.28.48-.45.78-.45.17,0,.35.05.51.16l.71.49.46-.76c.27-.45.84-.58,1.28-.28.27.18.42.49.42.82,0,.18-.05.36-.15.53l-.46.74.72.49c.42.28.55.89.27,1.35h-.01Z"/>
      <path class="st35" d="M444.71,257.39c.3.42.2,1.02-.21,1.34l-.68.51.49.72c.3.42.21,1.02-.21,1.34-.41.3-.98.2-1.27-.22l-.48-.72-.68.52c-.4.31-.97.22-1.27-.22-.19-.27-.23-.62-.12-.91.07-.17.17-.32.32-.43l.68-.51-.49-.72c-.3-.42-.21-1.02.21-1.34.26-.2.58-.24.86-.12.16.07.3.18.4.34l.48.72.68-.52c.4-.31.97-.22,1.27.22h.02Z"/>
      <path class="st35" d="M415.52,258.86c-.27.45-.84.57-1.28.28l-.71-.49-.46.76c-.27.45-.84.58-1.28.28-.42-.3-.55-.9-.27-1.35l.46-.74-.72-.49c-.42-.28-.55-.89-.27-1.35.17-.29.48-.45.78-.45.17,0,.35.05.51.16l.71.49.46-.76c.27-.45.84-.58,1.28-.28.27.18.42.49.42.82,0,.18-.05.37-.15.53l-.46.74.72.49c.43.28.55.89.27,1.35h-.01Z"/>
      <path class="st35" d="M434.05,257.02c-.26.43-.8.54-1.22.27l-.68-.47-.44.72c-.26.43-.8.56-1.22.27-.41-.28-.51-.85-.26-1.28l.44-.71-.68-.47c-.4-.27-.53-.85-.26-1.28.17-.27.45-.43.74-.43.17,0,.33.05.48.16l.67.47.44-.72c.26-.43.8-.55,1.22-.27.26.18.4.47.4.78,0,.18-.04.35-.15.5l-.44.71.68.47c.41.27.53.85.26,1.28h.02Z"/>
      <path class="st35" d="M427.65,246.09c.14.52-.16,1.06-.66,1.21l-.83.23.23.88c.14.52-.15,1.06-.66,1.21-.5.14-1.01-.18-1.15-.69l-.22-.87-.84.24c-.49.15-1.01-.15-1.15-.69-.09-.33,0-.68.2-.92.12-.14.27-.24.46-.29l.83-.23-.23-.88c-.14-.52.15-1.06.66-1.21.32-.09.64,0,.88.21.14.12.23.28.28.48l.22.87.84-.24c.49-.15,1.01.16,1.15.69h-.01Z"/>
      <path class="st35" d="M392.61,261.15c-.49.11-.98-.24-1.09-.77l-.16-.87-.84.18c-.49.11-.98-.23-1.09-.77-.1-.53.23-1.03.73-1.15l.83-.17-.17-.89c-.1-.52.22-1.04.73-1.15.31-.07.64.04.85.27.12.13.21.3.24.49l.16.88.84-.18c.5-.11.98.23,1.09.76.06.33-.03.66-.26.89-.12.13-.28.22-.47.26l-.83.17.17.89c.1.52-.22,1.04-.73,1.15h0Z"/>
      <path class="st35" d="M409.44,250.51c-.46.23-1,0-1.23-.47l-.35-.81-.78.38c-.46.23-1.01.02-1.23-.47-.21-.49,0-1.07.45-1.29l.77-.37-.36-.82c-.22-.48-.02-1.06.45-1.29.29-.14.63-.11.89.05.15.09.27.24.35.42l.35.81.78-.38c.46-.23,1.01-.02,1.23.47.14.3.12.66-.05.93-.09.16-.23.28-.4.37l-.77.37.36.82c.22.48.02,1.06-.45,1.29h-.01Z"/>
      <path class="st35" d="M375.8,262.52c-.47.21-1.02-.04-1.22-.54l-.32-.84-.8.34c-.47.21-1.02-.03-1.22-.54-.19-.51.05-1.07.52-1.28l.8-.34-.33-.85c-.2-.49.02-1.08.51-1.28.3-.13.64-.08.89.1.15.11.26.26.33.44l.32.84.8-.35c.47-.21,1.02.03,1.22.54.12.32.08.66-.1.94-.1.16-.24.28-.42.35l-.8.34.33.85c.2.49-.03,1.08-.51,1.29h0Z"/>
    </g>
    <g>
      <path class="st46" d="M467.38,220.39c.15.7.43,1.3.59,2.02.17.26.21.61.3.94.48,1.5.92,3.65,1.08,5.01.08,1.12.55,2.84.55,3.89.04.34.15.74.1,1.04-.04.3.28,1.56.23,2.12-.07.84-.4-1.47-.64-2.22-.25-.78-.2-.93-.3-1.39-.51-2.12-1.13-4.34-1.88-6.41-.09-.32-.12-.66-.28-.93-.42-1.39-1.01-2.86-1.43-4.16-.63-1.8-1.47-3.96-2.15-5.8-.18-.25-.07-.27-.37-.89s-.81-1.79-.93-2.09c-1.36-2.79-2.36-4.63-4.1-7.29-.16-.32-.53-.91-1-1.56-.49-.62-1.02-1.35-1.51-1.93-.98-1.16-1.62-1.96-.54-1.13,1.71,1.23,4.3,4.26,6.61,8.14,2.32,3.87,4.35,8.55,5.68,12.62h0v.02h0Z"/>
      <path class="st46" d="M494.15,227.21c-.29.35-.39.76-.66,1.14-.02.2-.17.37-.27.55-.42.9-1.11,2.09-1.6,2.82-.48.56-.82,1.66-1.27,2.19-.12.2-.19.45-.35.59-.15.13-.39.95-.66,1.23-.41.41.24-.97.35-1.47.11-.53.23-.58.34-.86.48-1.35,1-2.75,1.47-4.13.1-.2.24-.36.26-.59.4-.86.76-1.85,1.23-2.63.58-1.12,1.37-2.43,2.18-3.44.05-.21.14-.12.39-.51s.78-1.04.95-1.18c.65-.8,1.26-1.41,1.89-2.01.33-.28.66-.57,1.02-.87.38-.26.77-.56,1.22-.86.24-.07.64-.29,1.11-.56.48-.22,1.03-.49,1.52-.67,1-.31,1.66-.46.86.08-1.24.77-3.38,2.05-5.21,4.11-.94,1.01-1.79,2.21-2.6,3.41-.79,1.22-1.51,2.48-2.15,3.65h.01-.03Z"/>
      <path class="st46" d="M473.91,216.15c.09.99.29,1.89.37,2.9.13.4.15.89.2,1.35.13,1.09.26,2.39.33,3.66.05,1.27.08,2.5.06,3.44-.06.77-.05,1.78-.03,2.76.02.99-.02,1.96-.11,2.67-.03.48,0,1.05-.1,1.44-.11.39-.06,2.21-.24,2.94-.26,1.11-.07-2.12-.13-3.2-.1-1.14-.02-1.33-.03-1.97-.03-1.52-.17-3.07-.28-4.63-.17-1.55-.32-3.11-.58-4.61-.05-.46-.04-.93-.16-1.35-.11-1-.3-2.04-.48-3.07-.17-1.03-.35-2.04-.51-2.98-.12-.66-.24-1.35-.37-2.06-.15-.7-.3-1.43-.44-2.15-.28-1.46-.62-2.9-.88-4.25-.17-.39-.04-.39-.32-1.31-.28-.93-.69-2.65-.81-3.1-1.21-4.18-2.16-6.95-3.8-11.11-.26-.99-1.45-3.63-2.39-5.57-.95-1.93-1.54-3.25-.46-1.68,1.7,2.39,4.21,7.33,6.34,13.24,2.18,5.89,3.89,12.76,4.83,18.64h0Z"/>
      <path class="st46" d="M495.35,217.55c-.39.68-.58,1.38-.96,2.08-.06.33-.27.66-.39,1-.28.82-.7,1.77-1.05,2.7-.34.94-.74,1.84-1,2.54-.25.56-.49,1.33-.73,2.09-.22.76-.4,1.53-.63,2.06-.11.37-.21.83-.35,1.12-.15.29-.31,1.77-.56,2.35-.38.88.17-1.74.23-2.63.11-.93.23-1.07.34-1.58.21-1.23.54-2.47.82-3.72.14-.62.33-1.24.49-1.85.17-.61.31-1.24.5-1.83.14-.36.33-.68.37-1.05.13-.39.28-.79.41-1.19.15-.4.31-.8.46-1.2.3-.8.61-1.59.96-2.28.23-.49.48-1.01.73-1.54.26-.53.55-1.05.84-1.58.55-1.08,1.21-2.09,1.81-3.02.12-.33.18-.26.59-.92s1.21-1.86,1.45-2.14c.51-.71.98-1.37,1.44-2,.48-.6.94-1.18,1.4-1.76.44-.59.96-1.12,1.47-1.72.26-.29.52-.6.8-.91.29-.3.59-.62.9-.94.62-.53,2.24-2.21,3.55-3.35,1.33-1.14,2.23-1.86,1.24-.64-1.56,1.83-4.59,4.99-7.5,8.96-1.49,1.96-2.89,4.15-4.21,6.37-1.32,2.21-2.44,4.49-3.44,6.6l.02-.02h0Z"/>
      <path class="st46" d="M476.8,222.49c.08-.35.02-.66.09-1.01-.08-.14-.03-.31-.02-.47-.03-.38.02-.83.03-1.27s.05-.88.11-1.22c.15-.57-.08-1.42.04-1.99-.01-.18-.08-.37-.02-.54s-.18-.79-.11-1.12c.11-.5.31.73.49,1.1.19.39.12.48.15.72.11.55.26,1.12.35,1.69.08.57.21,1.14.31,1.7,0,.18-.06.35.02.5.06.74.14,1.56.1,2.26-.03.98-.08,2.17-.3,3.15.05.16-.05.14-.06.49-.02.35-.14.99-.17,1.16-.23,1.56-.39,2.62-.7,4.22-.17.34-.32,1.39-.5,2.16-.17.78-.36,1.3-.44.51-.15-1.18,0-3.15.19-5.36.18-2.21.36-4.63.44-6.67h0Z"/>
      <path class="st46" d="M507.77,218.95c.57-.24,1.03-.56,1.61-.79.19-.19.48-.28.75-.38.61-.27,1.34-.6,2.08-.81.75-.2,1.45-.41,2.03-.47.48-.03,1.06-.16,1.64-.28.58-.11,1.17-.17,1.6-.16.28-.02.62-.12.86-.04s1.3-.14,1.75-.04c.67.16-1.22.28-1.83.45-.64.22-.76.16-1.13.22-.88.17-1.74.48-2.62.77-.44.14-.86.35-1.28.52-.42.19-.84.36-1.23.6-.25.11-.53.15-.73.33-.27.13-.55.25-.82.4-.26.16-.53.31-.8.47-.54.31-1.07.62-1.54.92-.34.21-.69.43-1.05.66-.35.24-.71.51-1.07.77-.73.49-1.41,1.07-2.09,1.55-.15.22-.21.11-.62.53-.4.43-1.22,1.12-1.41,1.33-.45.49-.86.93-1.25,1.36-.37.45-.71.89-1.06,1.32-.36.43-.66.91-1,1.39-.17.24-.35.49-.52.76-.16.27-.34.56-.51.85-.42.46-1.22,2.06-1.74,3.29-.51,1.23-.89,2.04-.69.84.24-1.89,1.54-5.2,3.88-8.38,1.14-1.62,2.57-3.14,4.08-4.52,1.51-1.38,3.18-2.52,4.76-3.45v-.02h-.05,0Z"/>
      <path class="st46" d="M484.14,210.59c.07-.67-.01-1.28.06-1.97-.08-.28-.02-.61-.01-.92-.02-1.47.11-3.52.3-4.8.21-1.03.19-2.71.42-3.67.04-.32.04-.72.15-.97.11-.26.08-1.49.26-1.99.26-.75.06,1.44.11,2.18.05.78-.03.9-.04,1.33,0,2.06.02,4.23.19,6.31,0,.32-.07.63.01.93.02,1.37.14,2.88.12,4.19.01,1.82.03,4.04-.13,5.91.07.29-.04.26-.05.93,0,.66-.1,1.88-.13,2.2-.21,2.98-.41,4.99-.86,8.05-.09.34-.22.99-.33,1.76-.12.76-.24,1.63-.38,2.36-.26,1.48-.48,2.43-.52,1.09-.04-2.08.37-5.81.62-10.03.12-2.1.19-4.33.23-6.53.03-2.2,0-4.38.01-6.37h-.03Z"/>
      <path class="st46" d="M463.66,226.83c.12.45.36.78.47,1.23.14.14.17.37.24.57.39.9.73,2.23.84,3.09.04.72.44,1.75.44,2.43.04.22.13.45.08.66s.27.95.22,1.33c-.07.57-.39-.87-.6-1.3-.23-.46-.18-.57-.26-.84-.46-1.27-.96-2.6-1.59-3.8-.07-.2-.08-.41-.23-.55-.34-.82-.82-1.66-1.16-2.42-.51-1.05-1.22-2.25-1.79-3.29-.15-.12-.06-.16-.33-.49-.26-.33-.69-.96-.82-1.12-1.19-1.45-2.08-2.35-3.56-3.61-.51-.77-4.12-2.85-2.46-2.35,1.29.37,3.4,1.58,5.47,3.47,1.03.94,2.03,2.07,2.9,3.28.88,1.2,1.57,2.51,2.13,3.73v-.02h.01Z"/>
      <path class="st46" d="M492.22,211.8c-.3,1.02-.44,1.99-.75,3.03-.02.45-.2.94-.32,1.43-.52,2.29-1.4,5.39-2.04,7.29-.58,1.53-1.16,4.12-1.72,5.55-.15.49-.29,1.1-.48,1.47s-.59,2.29-.91,3.04c-.5,1.12.41-2.27.62-3.42.21-1.22.34-1.39.52-2.06.74-3.19,1.51-6.55,2.12-9.79.12-.49.3-.95.33-1.43.48-2.11.91-4.47,1.36-6.47.61-2.81,1.27-6.22,1.92-9.09.01-.46.12-.4.28-1.43s.52-2.91.61-3.4c.39-2.31.66-4.26.91-6.22.24-1.96.45-3.95.6-6.36.18-1.08.24-4.21.02-6.48-.04-.58-.14-1.08-.17-1.5-.07-.42-.14-.74-.15-.94-.04-.41.06-.32.4.62.5,1.47.82,3.77.86,6.51.05,2.74-.12,5.93-.48,9.3-.71,6.74-2.08,14.16-3.49,20.35h-.04,0Z"/>
      <path class="st46" d="M466.83,208.58c.08.52.3.95.39,1.49.14.18.15.45.21.68.33,1.1.61,2.68.68,3.69,0,.84.34,2.08.28,2.87.02.26.1.55.04.77s.19,1.14.11,1.56c-.12.63-.32-1.06-.49-1.6-.2-.56-.14-.68-.2-1.01-.37-1.54-.82-3.16-1.39-4.65-.06-.24-.06-.49-.2-.68-.29-1.01-.74-2.08-1.03-3.03-.43-1.33-1.04-2.89-1.47-4.26-.14-.18-.03-.2-.25-.66-.22-.45-.53-1.33-.62-1.55-.91-2.08-1.58-3.45-2.69-5.51-.29-1.05-3.24-5.08-1.74-3.69,1.18,1.06,2.87,3.41,4.44,6.31,1.59,2.88,3.02,6.3,3.94,9.28h0Z"/>
      <path class="st46" d="M480.5,221.83c-.06.71.05,1.36,0,2.08.08.29.04.64.03.97,0,.78-.05,1.71-.12,2.6-.1.89-.23,1.76-.35,2.42-.26,1.07-.4,2.81-.69,3.78-.08.33-.12.74-.26.99-.14.26-.24,1.54-.46,2.03-.34.74.09-1.49.12-2.26.03-.81.13-.93.17-1.37.18-2.13.3-4.38.18-6.53,0-.33.08-.65,0-.95.01-.7-.03-1.45-.09-2.18-.05-.73-.08-1.45-.13-2.12-.08-.93-.14-1.96-.28-2.99-.06-.51-.12-1.03-.17-1.54-.08-.51-.14-1-.2-1.47-.12-.28,0-.28-.15-.93-.17-.66-.41-1.87-.48-2.19-.78-2.94-1.47-4.88-2.8-7.69-.2-.69-1.22-2.43-2.02-3.69-.84-1.23-1.37-2.08-.41-1.16,1.51,1.4,3.8,4.62,5.38,8.82,1.67,4.16,2.54,9.19,2.75,13.41v-.02h-.02Z"/>
      <path class="st46" d="M484.8,205.71c-.12.93-.1,1.79-.24,2.74.05.4-.03.84-.09,1.28-.1,1.03-.23,2.25-.43,3.42-.21,1.17-.42,2.3-.64,3.15-.22.69-.4,1.61-.58,2.52-.2.9-.42,1.79-.65,2.41-.12.43-.2.97-.39,1.29-.18.32-.49,2-.8,2.63-.46.95.34-1.95.49-2.96.13-1.06.24-1.22.37-1.8.52-2.79.9-5.77,1.05-8.63.05-.43.15-.85.12-1.27.1-.94.14-1.93.17-2.91.04-.98.07-1.94.11-2.83.02-.62.03-1.28.05-1.95v-2.06c.02-1.39-.04-2.79-.03-4.07-.08-.39.03-.37-.06-1.27-.1-.91-.15-2.57-.2-3-.1-1.01-.21-1.95-.3-2.84-.12-.89-.24-1.74-.36-2.6-.11-.86-.28-1.71-.44-2.6-.15-.9-.34-1.85-.56-2.88-.08-.95-.76-3.6-1.31-5.55-.57-1.96-.9-3.27-.14-1.64,1.22,2.5,2.78,7.49,3.76,13.33,1.04,5.83,1.38,12.51,1.1,18.1h0Z"/>
      <path class="st46" d="M496.52,207.3c-.34.66-.5,1.33-.83,2-.04.32-.22.64-.35.95-.55,1.54-1.43,3.61-2.03,4.89-.57,1.01-1.06,2.81-1.56,3.77-.13.34-.24.76-.42,1.01-.19.24-.45,1.62-.74,2.13-.43.78.26-1.62.44-2.43.16-.86.28-.97.42-1.44.65-2.21,1.33-4.51,1.99-6.78.12-.33.3-.64.33-.98.51-1.43,1-3.06,1.54-4.39.71-1.89,1.6-4.17,2.5-6.04.06-.32.15-.25.4-.94.27-.68.84-1.89.99-2.21.67-1.5,1.23-2.76,1.84-4.01.3-.63.61-1.26.93-1.92.34-.66.7-1.35,1.1-2.1.23-.31.61-.95,1.04-1.7.41-.76.97-1.56,1.41-2.27,1.02-1.35,1.76-2.2,1.05-.84-1.12,2.04-2.91,5.71-4.74,10.02-1.82,4.3-3.72,9.17-5.32,13.28h-.01.02Z"/>
      <path class="st28" d="M477.38,190.38c-.95,2.89.17,6.33,2.46,8.21,2.29,1.89,5.54,2.28,8.29,1.25.99-.37,1.94-.92,2.7-1.68,2.21-2.19,2.58-6.07,1.02-8.81-2.99-5.22-12.44-5.14-14.47,1.02h0Z"/>
      <path class="st29" d="M484.65,190.37c-1.41.19-2.45,1.94-1.89,3.32.56,1.37,2.62,1.72,3.49.54s-.12-3.27-1.53-3.16"/>
      <path class="st28" d="M500.36,186.05c.17,2.15,1.65,4.05,3.54,4.9,1.88.85,4.08.75,6,0,.96-.37,1.9-.92,2.53-1.77.86-1.14,1.06-2.72.79-4.14-.4-2.07-1.79-3.91-3.62-4.78-3.7-1.75-9.61.97-9.24,5.78h0Z"/>
      <path class="st29" d="M506.69,182.96c-1.66.22-2.68,2.59-1.69,4.01s3.52,1.04,4.03-.64-1.44-3.54-2.96-2.79"/>
      <path class="st28" d="M490.45,176.25c1.54-2.38,4.68-3.46,7.26-2.48,2.57.99,4.32,3.97,3.95,6.83-1.38,10.63-17,4.57-11.21-4.35h0Z"/>
      <path class="st29" d="M496.34,180.99c-.5.55-1.42.34-1.91-.22-.76-.86-.63-2.43.29-3.1.92-.67,2.4-.19,2.76.93.36,1.12-.6,2.46-1.72,2.37"/>
      <path class="st28" d="M481.62,169.97c-2.55-.76-5.53.62-6.7,3.13-1.17,2.51-.42,5.83,1.71,7.5.7.54,1.52.92,2.38.98.81.05,1.61-.18,2.37-.45,1.8-.64,3.61-1.64,4.59-3.35.89-1.54.98-3.56.23-5.18s-2.32-2.79-4.02-3"/>
      <path class="st29" d="M479.46,173.55c-.74,1.11.16,2.94,1.45,2.91,1.29-.02,2.12-1.93,1.26-2.95-.85-1.02-2.79-.33-2.86,1.03"/>
      <path class="st28" d="M462.43,200.66c1.35,2.79,4.68,4.34,7.55,3.53,2.88-.81,5.01-3.91,4.85-7.04-.59-11.35-17.04-6.05-12.4,3.51h0Z"/>
      <path class="st29" d="M467.77,195.84c-1.42.57-1.87,2.84-.78,3.94,1.09,1.12,3.23.57,3.73-.93.49-1.51-.88-3.32-2.39-3.15"/>
      <path class="st28" d="M488.2,213.87c1.68.74,3.6.57,5.4.22.6-.11,1.2-.26,1.72-.59.6-.4,1.03-1.05,1.33-1.73.87-1.92.89-4.25.02-6.17-5.18-11.46-17.9,4.09-8.47,8.27h0Z"/>
      <path class="st29" d="M489.54,206.25c-.69.97-.64,2.47.17,3.33s2.3.89,3.1.02c.8-.87.67-2.5-.29-3.17-.96-.67-2.49-.08-2.76,1.1"/>
      <path class="st28" d="M504.35,196.33c-1.29-.11-2.16,1.36-2.58,2.65-.44,1.36-.76,2.82-.49,4.23.58,3.06,4.12,4.93,6.94,3.95,2.82-.97,4.61-4.27,4.38-7.39-.06-.76-.22-1.52-.57-2.17-1.25-2.3-4.35-2.55-6.8-1.92"/>
      <path class="st29" d="M505.86,199.23c-1.13.78-1.04,2.85.14,3.54,1.18.69,2.89-.34,2.93-1.75.04-1.41-1.61-2.55-2.83-1.93"/>
      <path class="st28" d="M448.15,213.68c-.52,2.22.39,4.64,1.94,6.26,2.22,2.31,5.78,3.13,8.68,1.88,7.34-3.15,5.68-14.74-2.32-14.79-3.76-.02-7.39,2.79-8.3,6.65h0Z"/>
      <path class="st29" d="M455.29,211.92c-1,.85-1.45,2.4-.98,3.65.48,1.25,1.94,2.04,3.15,1.59,1.27-.47,1.93-2.23,1.29-3.48-.63-1.25-2.39-1.66-3.47-.81"/>
      <path class="st28" d="M450.47,201.49c7.86,4.4,13.18-9.69,6.34-14.18-7.38-4.85-13.65,10.1-6.34,14.18h0Z"/>
      <path class="st29" d="M452.83,191.87c-1.07.97-.83,3.1.44,3.77,1.27.68,3.04-.36,3.15-1.85.12-1.49-1.47-2.82-2.83-2.37-.82.28-1.45,1.43-.88,2.11"/>
      <path class="st28" d="M462.56,172.18c9.58-2.46,11.11,11.39,2.48,13.96-9.6,2.87-11.95-11.53-2.48-13.96Z"/>
      <path class="st29" d="M465.36,177.08c6.4,2.67-7.57,7.95-3.69,1.63.5-.82,1.37-1.3,2.26-1.58.46-.14.97-.24,1.43-.05h0Z"/>
      <path class="st28" d="M469.89,212.21c.28,3.54,3.64,6.55,6.99,6.05,3.35-.5,5.79-4.64,4.55-7.95-2.67-7.09-12.2-6.62-11.54,1.89h0Z"/>
      <path class="st29" d="M475.36,210.77c-.6.39-.99,1.12-1,1.86-.02,1.21,1.11,2.33,2.25,2.12,1.13-.21,1.81-1.83,1.11-2.79-.7-.96-2.48-.57-2.66.62"/>
      <path class="st28" d="M496.95,220.05c.48,3.39,3.4,6.22,6.65,6.43,6.61.43,9.99-8.39,5.26-13.09-4.6-4.57-12.83.14-11.91,6.66h0Z"/>
      <path class="st29" d="M504.58,216.31c-.92-.22-1.76.45-1.88,2.88-.05,1.16.82,2.37,1.93,2.38,4.32.04,1.96-4.76-.06-5.26h.01Z"/>
      <path class="st28" d="M514.62,219.37c.73.99,1.81,1.65,2.95,2,2.64.83,5.74-.03,7.52-2.25,1.78-2.21,2.03-5.7.44-8.06-4.97-7.37-15.7,1.75-10.9,8.31h-.01Z"/>
      <path class="st29" d="M522.2,214.12c-.75-1.72-3.29-2.76-4.79-.53-2.01,2.98,1.28,5.6,3.87,3.6,1.2-.93,1.35-2.11.93-3.08h-.01Z"/>
      <path class="st26" d="M517,227.11h-69.47v9.74h4.3l4.41,51.71c.26,2.98,2.63,5.27,5.48,5.27h41.09c2.85,0,5.23-2.29,5.48-5.27l4.41-51.71h4.3v-9.74Z"/>
      <path d="M502.81,294.85h-41.09c-3.37,0-6.14-2.66-6.45-6.2l-4.33-50.78h-3.42c-.53,0-.97-.45-.97-1.02v-9.74c0-.56.43-1.01.97-1.01h69.47c.53,0,.96.45.96,1.01v9.74c0,.56-.43,1.02-.96,1.02h-3.42l-4.33,50.78c-.3,3.53-3.07,6.2-6.45,6.2h.02ZM448.49,235.83h3.34c.5,0,.91.4.96.93l4.41,51.71c.21,2.48,2.15,4.35,4.52,4.35h41.09c2.37,0,4.31-1.87,4.52-4.35l4.41-51.71c.05-.52.46-.93.96-.93h3.34v-7.71h-67.54v7.71h0Z"/>
    </g>
    <g>
      <path class="st52" d="M130.16,173.74l-91.19,4.77,3.67,77.42,91.19-4.77-3.67-77.42h0Z"/>
      <path d="M42.6,256.96c-.24,0-.47-.09-.65-.26-.19-.18-.3-.43-.31-.7l-3.66-77.42c-.03-.56.39-1.03.91-1.06l91.19-4.77c.54-.02.98.41,1.01.96l3.66,77.42c0,.27-.08.53-.25.73s-.41.32-.67.33l-91.19,4.77h-.04ZM39.95,179.49l3.56,75.4,89.26-4.67-3.56-75.4s-89.26,4.67-89.26,4.67Z"/>
      <path class="st25" d="M123.4,181.23l-76.98,4.03,2.99,63.19,76.98-4.03-2.99-63.19h0Z"/>
      <path d="M49.36,249.47c-.51,0-.94-.42-.96-.97l-2.99-63.18c0-.27.08-.53.25-.73s.41-.32.67-.33l76.99-4.03c.54-.03.98.41,1.01.96l2.99,63.18c0,.27-.08.53-.25.73s-.41.32-.67.33l-76.98,4.03h-.06,0ZM47.38,186.23l2.9,61.16,75.06-3.92-2.9-61.16s-75.06,3.92-75.06,3.92Z"/>
      <path class="st24" d="M75.4,205.09c.48-.04.76-.06.84-.06.04,0,.22.02.54.06.62.1,1.02.36,1.2.78.06.2.06.4,0,.6-.08.26-.3.59-.66.99-.84.98-1.26,1.5-1.26,1.56,0,.18.24.5.72.96.22.2.45.33.69.39.42.12.8.26,1.14.42.16.08.28.12.36.12.1,0,.22.05.36.15.16.08.3.19.42.33.14.12.24.24.3.36.2.52.06.9-.42,1.14l-.27.15-.39-.12c-.52-.14-1.19-.41-2.01-.81-.8-.42-1.38-.78-1.74-1.08-.26-.22-.46-.29-.6-.21-.12.08-.59.52-1.41,1.32-.92.94-1.53,1.49-1.83,1.65-.34.18-.63.26-.87.24-.22-.04-.46-.18-.72-.42-.34-.34-.51-.64-.51-.9,0-.32.35-.68,1.05-1.08.56-.24.91-.42,1.05-.54.16-.12.37-.32.63-.6.22-.28.39-.48.51-.6.1-.12.26-.33.48-.63.22-.34.57-.75,1.05-1.23.36-.4.53-.62.51-.66-.04-.06-.54-.08-1.5-.06l-1.44.06-.24-.18c-.12-.1-.24-.21-.36-.33s-.21-.23-.27-.33c-.04-.12-.07-.24-.09-.36,0-.14,0-.26.03-.36.06-.2.16-.35.3-.45l.21-.15.69.03c.48.04.81.07.99.09.16.02.31,0,.45-.09s.4-.1.78-.06c.38,0,.81-.03,1.29-.09h0ZM78.67,215.17c.84-.04,1.35-.03,1.53.03.4.12.69.38.87.78.12.22.17.47.15.75,0,.24-.07.46-.21.66-.18.22-.36.35-.54.39-.16.04-.43,0-.81-.12-.34-.14-.99-.21-1.95-.21-.78,0-1.25.02-1.41.06-.16.02-.26.11-.3.27-.06.1-.06.55,0,1.35.04.72.06,1.48.06,2.28.04.72.07,1.17.09,1.35s0,.39-.06.63-.14.42-.24.54c-.14.12-.33.18-.57.18-.22,0-.39-.02-.51-.06-.1-.06-.24-.2-.42-.42-.16-.2-.24-.32-.24-.36,0-.02-.05-.14-.15-.36-.08-.18-.09-.4-.03-.66.02-.24.02-.48,0-.72,0-.24,0-.42.03-.54.08-.12.1-.65.06-1.59-.04-.96-.11-1.52-.21-1.68-.06-.1-.23-.12-.51-.06-.32.02-.55.06-.69.12-.12.04-.34.06-.66.06-.38-.02-.81,0-1.29.03-.52.06-1,.06-1.44,0-.46-.06-.75-.11-.87-.15-.16-.04-.35-.17-.57-.39-.2-.22-.31-.4-.33-.54-.08-.36,0-.64.21-.84l.18-.21,1.92.03c1.3,0,2.08-.02,2.34-.06.28-.06.5-.08.66-.06.18.04.32.03.42-.03.26-.08,1.31-.16,3.15-.24.56-.02.97-.06,1.23-.12.22-.04.59-.07,1.11-.09h0ZM96.38,205.69c.18-.08.32-.12.42-.12.08,0,.23.05.45.15.22.1.36.2.42.3.16.2.26.37.3.51.04.12.07.49.09,1.11l.09,1.17.18.15c.22.16.53.19.93.09.18-.06.38-.05.6.03.24.04.39.06.45.06.16,0,.45.16.87.48.1.08.19.21.27.39.08.16.08.32,0,.48-.04.12-.12.22-.24.3-.12.18-.29.29-.51.33-.22.02-.67,0-1.35-.06-.5-.04-.84-.04-1.02,0-.16.02-.25.11-.27.27-.06.3-.03,1.1.09,2.4.04.52.02.85-.06.99-.04.16-.14.31-.3.45-.14.1-.31.15-.51.15-.38-.06-.7-.27-.96-.63-.06-.1-.12-.23-.18-.39-.04-.18-.08-.36-.12-.54s-.07-.35-.09-.51c0-.18.02-.32.06-.42.02-.16.02-.41,0-.75-.04-.34-.05-.6-.03-.78.02-.14.02-.92,0-2.34-.02-1.44-.05-2.25-.09-2.43-.08-.36.09-.64.51-.84h0ZM86.9,206.02l.21-.21.51.03c.34.02.58.08.72.18.24.16.38.33.42.51.04.16.06.55.06,1.17,0,.76.04,1.18.12,1.26l.06.15,1.29-.03c.78-.02,1.22-.07,1.32-.15.12-.08.16-.41.12-.99-.02-.98.1-1.6.36-1.86.14-.16.31-.23.51-.21.24,0,.47.08.69.24.24.16.4.34.48.54.02.14.03.55.03,1.23,0,2.38.03,4.39.09,6.03.02.4-.14.71-.48.93-.14.1-.63.18-1.47.24-.86.06-1.37.11-1.53.15-.38.1-.83.12-1.35.06-.62-.08-1.06-.21-1.32-.39-.12-.08-.2-.12-.24-.12s-.13-.09-.27-.27c-.16-.2-.25-.41-.27-.63-.06-.24-.1-.42-.12-.54-.06-.14-.07-.3-.03-.48.06-.18.05-.39-.03-.63-.04-.18-.06-.59-.06-1.23s.02-1.11.06-1.41c.16-.74.15-1.35-.03-1.83-.12-.42-.15-.87-.09-1.35.04-.1.12-.23.24-.39h0ZM91.73,212.11c.04-.46.02-.71-.06-.75-.08-.06-.28-.09-.6-.09-1.3.02-2.02.08-2.16.18-.06.02-.09.27-.09.75,0,.7.1,1.08.3,1.14.5.1,1.05.1,1.65,0,.46-.06.73-.15.81-.27.1-.12.15-.44.15-.96h0ZM94.25,215.77c.12-.06.3-.07.54-.03.16.06.31.06.45,0,.3-.08.71,0,1.23.27.2.1.33.15.39.15.04,0,.1.04.18.12.1.06.23.13.39.21.1.02.3.18.6.48s.49.53.57.69l.24.36c.08.06.12.15.12.27,0,.08.04.17.12.27.08.12.14.35.18.69.08.62.02,1.21-.18,1.77-.08.3-.12.48-.12.54,0,.16-.22.47-.66.93-.36.4-.8.69-1.32.87-.34.12-.8.18-1.38.18s-.98-.03-1.14-.09c-.14-.06-.28-.11-.42-.15-.1-.02-.24-.08-.42-.18-.16-.08-.29-.12-.39-.12-.08,0-.2-.07-.36-.21-.08-.04-.21-.14-.39-.3-.18-.12-.38-.3-.6-.54s-.33-.38-.33-.42c-.06-.12-.13-.23-.21-.33-.1-.12-.15-.2-.15-.24s-.04-.11-.12-.21c-.08-.12-.14-.35-.18-.69-.06-.44-.06-.94,0-1.5.02-.4.08-.68.18-.84.32-.46.57-.74.75-.84.16-.08.29-.17.39-.27.1-.08.19-.12.27-.12s.18-.05.3-.15c.14-.12.25-.18.33-.18s.2-.03.36-.09c.1-.08.23-.14.39-.18.14-.02.27-.06.39-.12h0ZM95.81,217.78c-.08,0-.2,0-.36-.03-.16-.04-.25-.07-.27-.09-.16-.02-.44.05-.84.21-.38.14-.69.29-.93.45-.2.18-.35.44-.45.78-.1.32-.12.61-.06.87.12.36.23.62.33.78.1.14.28.28.54.42.24.16.62.26,1.14.3.54.04.94.02,1.2-.06.08-.04.2-.11.36-.21.16-.12.3-.24.42-.36.14-.14.23-.25.27-.33.06-.14.1-.42.12-.84.02-.4-.03-.75-.15-1.05-.24-.44-.68-.72-1.32-.84h0Z"/>
      <path d="M66.69,178.29c-.17,0-.34-.05-.5-.15-.46-.29-.6-.91-.33-1.39l12.58-21.82c1.67-2.89,3.32-2.81,4.15-2.51.86.31,1.38,1.07,1.74,1.57l14.23,20.39c.31.45.22,1.09-.21,1.42s-1.04.24-1.35-.22l-14.23-20.39c-.23-.33-.53-.75-.81-.85-.56-.2-1.34.72-1.87,1.64l-12.58,21.82c-.18.32-.5.49-.82.49h0Z"/>
      <path class="st45" d="M81.66,154.72c1.51,0,2.73-1.28,2.73-2.87s-1.22-2.87-2.73-2.87-2.73,1.29-2.73,2.87,1.22,2.87,2.73,2.87Z"/>
      <path d="M81.66,155.73c-2.03,0-3.69-1.74-3.69-3.88s1.65-3.88,3.69-3.88,3.69,1.74,3.69,3.88-1.65,3.88-3.69,3.88ZM81.66,150c-.97,0-1.76.83-1.76,1.85s.79,1.85,1.76,1.85,1.76-.83,1.76-1.85-.79-1.85-1.76-1.85Z"/>
    </g>
    <g class="st51">
      <g>
        <path class="st15" d="M305.71,261.41c1.88.83,2.75,3.05,1.92,4.95-.83,1.9-3.02,2.77-4.9,1.94l-21.25-9.34c-1.88-.83-2.75-3.05-1.92-4.95s3.02-2.77,4.91-1.94l21.24,9.34h0Z"/>
        <path class="st15" d="M323.55,209.92c-14.61,0-26.45,11.91-26.45,26.61s11.84,26.61,26.45,26.61,26.45-11.91,26.45-26.61-11.84-26.61-26.45-26.61h0ZM323.55,259.24c-12.47,0-22.58-10.17-22.58-22.72s10.11-22.72,22.58-22.72,22.58,10.17,22.58,22.72-10.11,22.72-22.58,22.72Z"/>
        <path class="st18" d="M346.94,289.74c3.56-5.5,5.66-12.22,5.66-19.48,0-18.63-13.78-33.73-30.78-33.73s-30.78,15.1-30.78,33.73c0,7.26,2.1,13.98,5.66,19.48h50.24Z"/>
        <path class="st16" d="M347.81,238.29c-2.09,0-3.88-1.6-4.09-3.75-1-10.49-9.67-18.4-20.16-18.4s-19.16,7.91-20.16,18.4c-.21,2.28-2.23,3.95-4.48,3.72-2.26-.22-3.91-2.24-3.69-4.52,1.41-14.74,13.59-25.87,28.34-25.87s26.93,11.13,28.34,25.88c.21,2.27-1.44,4.29-3.69,4.52-.13.02-.26.02-.4.02h-.01,0Z"/>
        <path class="st10" d="M350.64,289.74c0,2.47-1.99,4.47-4.43,4.47h-47.85c-2.45,0-4.43-2.01-4.43-4.47s1.98-1.96,4.43-1.96h47.85c2.45,0,4.43-.51,4.43,1.96Z"/>
      </g>
    </g>
    <g class="st42">
      <g>
        <path class="st0" d="M179.22,206.16c0,2.26-2.14,1.11-4.78,1.11h-19.36c-2.64,0-4.78.57-4.78-1.68v-7.44c0-2.25,2.14.95,4.78.95h19.36c2.64,0,4.78-2.92,4.78-.66v7.73h0Z"/>
        <path class="st3" d="M181.73,193.07h-33.95v7.49h33.95v-7.49Z"/>
        <path class="st2" d="M183.22,242.85c0,5.56-4.51,10.07-10.07,10.07h-16.78c-5.56,0-10.07-4.51-10.07-10.07v-31.59c0-5.56,4.51-8.07,10.07-8.07h16.78c5.56,0,10.07,2.51,10.07,8.07v31.59Z"/>
        <path class="st7" d="M148.89,225.59v15.18c0,4.78,3.88,8.66,8.66,8.66h14.43c4.78,0,8.66-3.88,8.66-8.66v-15.18h-31.75Z"/>
      </g>
    </g>
    <g>
      <path class="st30" d="M172.07,393.26c-.66,0-1.33-.09-1.99-.28-.31-.09-.6-.2-.89-.33-1.29-.57-1.89-2.13-1.35-3.48s2.02-2,3.31-1.42c.1.04.19.08.3.11,1.88.55,4.12-1.39,4.88-4.26.76-2.86-.2-5.74-2.09-6.3-1.18-.35-2.25.34-2.77.77-1.1.91-2.69.7-3.55-.45-.86-1.16-.67-2.83.43-3.73,2.18-1.8,4.83-2.42,7.25-1.71,4.61,1.35,7.13,7.12,5.61,12.85-1.3,4.92-5.15,8.24-9.13,8.24h0Z"/>
      <path d="M172.07,394.27c-.76,0-1.52-.11-2.24-.32-.35-.1-.69-.23-1.01-.37-1.78-.79-2.62-2.94-1.87-4.81.36-.91,1.04-1.61,1.9-1.98s1.81-.37,2.68.01c.06.03.11.05.18.07,1.2.35,3.04-1.09,3.7-3.55.31-1.17.3-2.41-.03-3.41-.29-.87-.79-1.47-1.39-1.64-.77-.23-1.54.28-1.92.6-1.52,1.25-3.72.97-4.91-.62-1.19-1.6-.92-3.91.6-5.16,2.43-2,5.39-2.69,8.11-1.89,2.51.74,4.54,2.63,5.72,5.34,1.16,2.65,1.35,5.76.56,8.77-1.4,5.29-5.54,8.98-10.06,8.98h0l-.02-.02h0ZM170.17,388.54c-.2,0-.4.04-.59.12-.39.17-.69.48-.85.89-.33.84.04,1.81.84,2.16.25.11.51.21.79.28.56.16,1.15.25,1.73.25,3.6,0,7.05-3.15,8.2-7.5.68-2.54.51-5.16-.45-7.37-.94-2.15-2.54-3.65-4.48-4.23-2.13-.62-4.46-.07-6.4,1.53-.68.56-.8,1.6-.26,2.31.53.72,1.52.84,2.2.28.68-.55,2.04-1.41,3.63-.95,1.21.35,2.19,1.42,2.7,2.93.46,1.4.49,3.04.07,4.62-.91,3.45-3.64,5.67-6.07,4.96-.14-.04-.28-.09-.41-.15-.2-.09-.4-.13-.61-.13h-.04Z"/>
      <path class="st30" d="M142.08,367.72h27.67v26.29c0,3.79-2.93,6.88-6.54,6.88h-14.58c-3.61,0-6.54-3.09-6.54-6.88v-26.29h-.01Z"/>
      <path d="M163.21,401.91h-14.58c-4.14,0-7.51-3.55-7.51-7.9v-26.29c0-.56.43-1.02.96-1.02h27.67c.53,0,.97.45.97,1.02v26.29c0,4.36-3.37,7.9-7.51,7.9h0ZM143.04,368.73v25.28c0,3.23,2.5,5.86,5.58,5.86h14.59c3.07,0,5.58-2.63,5.58-5.86v-25.28h-25.75Z"/>
    </g>
    <g>
      <path class="st30" d="M218.1,393.26c-.66,0-1.33-.09-1.99-.28-.31-.09-.61-.2-.89-.33-1.29-.57-1.89-2.13-1.35-3.48s2.02-2,3.31-1.42c.1.04.19.08.3.11,1.88.55,4.12-1.39,4.88-4.26.76-2.86-.2-5.74-2.09-6.3-1.18-.35-2.25.34-2.77.77-1.1.91-2.69.7-3.55-.45-.86-1.16-.67-2.83.43-3.73,2.18-1.8,4.83-2.42,7.25-1.71,4.61,1.35,7.13,7.12,5.61,12.85-1.3,4.92-5.15,8.24-9.13,8.24h0Z"/>
      <path d="M218.1,394.27c-.76,0-1.52-.11-2.25-.32-.35-.1-.69-.22-1.01-.37-1.78-.79-2.62-2.94-1.87-4.81.36-.91,1.04-1.61,1.9-1.98s1.82-.37,2.68.01c.06.03.11.05.18.07,1.21.36,3.04-1.09,3.7-3.55.6-2.25-.08-4.65-1.42-5.05-.77-.23-1.54.28-1.92.6-1.52,1.25-3.72.97-4.91-.62-1.19-1.6-.92-3.91.6-5.16,2.43-2,5.39-2.69,8.11-1.89,2.51.74,4.54,2.63,5.72,5.34,1.16,2.65,1.35,5.76.56,8.77-1.4,5.29-5.54,8.98-10.06,8.98h0v-.02h0ZM216.19,388.54c-.2,0-.4.04-.59.12-.39.17-.69.48-.85.89-.34.84.04,1.81.84,2.16.25.11.51.21.78.28.56.16,1.15.25,1.73.25,3.6,0,7.05-3.15,8.2-7.5.68-2.54.51-5.16-.45-7.37-.94-2.15-2.54-3.65-4.48-4.23-2.13-.62-4.46-.07-6.4,1.53-.68.56-.8,1.6-.26,2.31.53.72,1.52.84,2.2.28.67-.55,2.04-1.41,3.63-.95,2.44.71,3.67,4.1,2.77,7.55-.91,3.45-3.64,5.68-6.07,4.96-.14-.04-.28-.09-.41-.15-.19-.09-.4-.13-.6-.13h-.04Z"/>
      <path class="st30" d="M188.11,367.72h27.67v26.29c0,3.79-2.93,6.88-6.54,6.88h-14.58c-3.61,0-6.54-3.09-6.54-6.88v-26.29h-.01Z"/>
      <path d="M209.24,401.91h-14.58c-4.14,0-7.51-3.55-7.51-7.9v-26.29c0-.56.43-1.02.96-1.02h27.67c.53,0,.96.45.96,1.02v26.29c0,4.36-3.37,7.9-7.51,7.9h0,0ZM189.07,368.73v25.28c0,3.23,2.5,5.86,5.58,5.86h14.58c3.08,0,5.58-2.63,5.58-5.86v-25.28h-25.74Z"/>
    </g>
    <g>
      <path class="st30" d="M263.56,393.26c-.66,0-1.33-.09-1.99-.28-.31-.09-.6-.2-.89-.33-1.29-.57-1.89-2.13-1.35-3.48s2.02-2,3.31-1.42c.1.04.19.08.3.11,1.89.55,4.12-1.39,4.88-4.26.76-2.86-.2-5.74-2.09-6.3-1.18-.35-2.24.34-2.77.77-1.1.91-2.69.7-3.55-.45-.86-1.16-.67-2.83.43-3.73,2.18-1.8,4.83-2.42,7.25-1.71,4.61,1.35,7.13,7.12,5.61,12.85-1.3,4.92-5.15,8.24-9.13,8.24h0Z"/>
      <path d="M263.56,394.27c-.76,0-1.52-.11-2.24-.32-.35-.1-.69-.23-1.01-.37-1.78-.79-2.62-2.94-1.87-4.81.36-.91,1.04-1.61,1.9-1.98s1.82-.37,2.68.01c.06.03.12.05.18.07,1.21.36,3.04-1.09,3.7-3.55.31-1.17.3-2.41-.03-3.41-.29-.87-.79-1.47-1.39-1.64-.77-.23-1.54.28-1.92.6-1.52,1.25-3.72.97-4.91-.63s-.92-3.91.6-5.16c2.43-2,5.38-2.68,8.11-1.89,2.51.74,4.54,2.63,5.72,5.34,1.16,2.65,1.35,5.76.56,8.77-1.4,5.29-5.54,8.98-10.05,8.98h-.03,0ZM261.66,388.54c-.2,0-.4.04-.59.12-.39.17-.69.48-.85.89-.33.84.04,1.81.84,2.16.25.11.52.21.79.28.56.16,1.14.25,1.73.25,3.6,0,7.05-3.15,8.2-7.49.68-2.54.52-5.16-.45-7.37-.94-2.15-2.53-3.65-4.48-4.23-2.13-.62-4.46-.07-6.4,1.53-.68.56-.8,1.6-.26,2.31.53.72,1.52.84,2.2.28.68-.55,2.04-1.41,3.63-.95,1.21.35,2.19,1.42,2.69,2.93.46,1.4.49,3.04.07,4.62-.91,3.45-3.64,5.67-6.07,4.96-.14-.04-.28-.09-.41-.15-.2-.09-.41-.13-.61-.13h-.03Z"/>
      <path class="st30" d="M233.58,367.72h27.67v26.29c0,3.79-2.93,6.88-6.54,6.88h-14.58c-3.61,0-6.54-3.09-6.54-6.88v-26.29h-.01Z"/>
      <path d="M254.7,401.91h-14.58c-4.14,0-7.51-3.55-7.51-7.9v-26.29c0-.56.43-1.02.96-1.02h27.67c.53,0,.96.45.96,1.02v26.29c0,4.36-3.37,7.9-7.51,7.9h0,0ZM234.54,368.73v25.28c0,3.23,2.5,5.86,5.58,5.86h14.58c3.08,0,5.58-2.63,5.58-5.86v-25.28h-25.74Z"/>
    </g>
  </g>
  <g>
    <g>
      <path class="st11" d="M261.98,457.82c-6.95-7.6-16.02-1.23-20.77,12.3-3.96,11.31-9.66,27.97-3.94,32.03,1.22,1.26,3.15,2.66,6.04,4.43,5.94,3.65,13.04,5.06,15.78.27,2.34-4.1,3.81-11.94-2.22-14.28,2.39-2.66,4.48-5.58,5.97-8.45,5.5-10.66,4.12-20.86-.86-26.3h0Z"/>
      <path class="st1" d="M282.2,415.62c-1.01-1.68-2.19-3.35-3.55-4.96-7.95-9.37-18.87-13.23-24.38-8.62-5.51,4.61-3.54,15.94,4.42,25.31,5.88,6.93,13.37,10.84,19.11,10.55,2.54.31,5.34.24,8.22-.28,9.8-1.79,16.84-8.17,15.73-14.23-1.1-6.02-9.83-9.48-19.55-7.77h0Z"/>
      <path class="st41" d="M137.8,352.48c-34.78-16.55-67.73-13.31-73.63,7.23-5.89,20.54,17.52,50.61,52.29,67.16,7.42,3.53,14.74,6.15,21.74,7.9,15.3,17.38,34.22,29.49,49.15,29.95,21.53.67,26.59-23.12,11.31-53.12-6.25-12.28-14.94-23.69-24.51-32.94-9.25-9.96-21.79-19.25-36.33-26.17h0Z"/>
      <ellipse class="st20" cx="221.81" cy="433.6" rx="51.01" ry="43.6" transform="translate(-264.6 408.9) rotate(-60)"/>
    </g>
    <g>
      <path class="st5" d="M281.36,354.85c-3.52-3.38-6.57-7.23-9.52-11.12-1.4-1.85-2.96-3.58-4.66-5.19-1.58-1.5-1.78-3.88-.53-5.66,1.13-1.62,2.04-3.8,2.85-6.14,2.7-7.9-2.06-9.92-5.78-10.29s-7.17,3.63-7.71,8.95v.06c-.21,2.16-2.4,3.52-4.37,2.62-10.51-4.79-26.41-8.43-40.7,2.88-1.03.82-2.56.18-2.73-1.12v-.02c-.23-1.72-.57-3.43-1.01-5.11-.41-1.57-.95-3.2-2.04-4.45-.49-.56-1.11-.99-1.8-1.26-.83-.32-1.76-.31-2.62-.13-1.56.34-3,1.3-4.12,2.41-1.06,1.06-1.88,2.33-2.45,3.71-1.14,2.75-1.08,5.86.2,8.55.57,1.2,1.37,2.29,2.34,3.21,1.55,1.47,1.57,3.93.21,5.58-2.92,3.54-5.26,7.52-6.88,11.8-1.25,3.32-3.26,6.28-5.59,8.95-3.55,4.07-5.57,8.74-5.57,13.7,0,12.03,11.86,22.33,28.71,26.65,7.47,4.74,16.51,7.51,26.26,7.51,15.67,0,29.51-7.17,37.91-18.13,10.41-5.28,17.06-13.32,17.06-22.33,0-5.76-2.73-11.12-7.41-15.62h-.05Z"/>
      <path class="st12" d="M235.37,352.32c-.02-.24-.05-.49-.09-.73,0-.07-.04-.14-.05-.22-.03-.19-.07-.37-.12-.55-.14-.42-.35-.78-.63-1.12-.24-.28-.54-.52-.87-.68-.19-.09-.38-.17-.58-.22-.2-.06-.41-.08-.62-.11-.75-.08-1.51.12-2.16.49-.36.2-.69.47-.98.76h0s-.09.07-.13.1c-.41.36-.77.77-1.13,1.18-.38.44-.77.89-1.09,1.38-.17.27-.31.55-.42.85-.11.28-.16.57-.19.87-.05.44.02.92.21,1.33.04.2.11.39.21.57.08.13.17.25.27.36h0c.38.65,1.01,1.11,1.7,1.38.07.06.15.1.24.14.35.12.72.2,1.09.22s.74-.02,1.11-.08c.68-.11,1.34-.37,1.92-.75.63-.41,1.16-.94,1.55-1.57.4-.64.63-1.36.72-2.11,0-.09,0-.19,0-.28,0-.03,0-.07.02-.1.02-.15.03-.31.03-.46v-.05c0-.2,0-.39,0-.59h-.02Z"/>
      <path class="st41" d="M260.57,345.98c-.24-.06-.48-.12-.72-.15-.07-.01-.15-.01-.22-.02-.19-.04-.37-.06-.56-.06-.44,0-.85.07-1.27.23-.34.13-.67.34-.93.6-.15.15-.29.3-.4.47-.12.17-.22.36-.31.55-.32.68-.38,1.46-.25,2.2.08.4.21.8.39,1.17h0c.02.06.03.12.05.17.21.5.47.98.74,1.45.29.51.58,1.02.94,1.48.2.25.42.47.66.68.23.19.48.34.75.47.4.19.87.28,1.32.24.2.02.41.03.61,0,.15-.03.29-.08.43-.14h0c.74-.14,1.38-.59,1.87-1.15.08-.04.15-.1.21-.18.23-.29.43-.61.56-.95.14-.35.23-.71.29-1.08.12-.68.09-1.39-.07-2.06-.18-.73-.51-1.4-.97-1.98-.48-.59-1.08-1.04-1.75-1.38-.09-.04-.18-.07-.26-.11-.03-.02-.06-.03-.09-.05-.14-.07-.28-.13-.43-.18-.02,0-.03-.02-.05-.02-.18-.08-.37-.14-.56-.19h.02Z"/>
      <ellipse id="_오른반사광" class="st24" cx="232.26" cy="350.78" rx="1.57" ry="1.5"/>
      <ellipse id="_왼반사광" class="st24" cx="258.34" cy="348.49" rx="1.57" ry="1.5" transform="translate(-62.05 56.03) rotate(-11.06)"/>
      <ellipse class="st38" cx="202.25" cy="329.3" rx="3.64" ry="5.63" transform="translate(-105.07 94.99) rotate(-21.12)"/>
      <ellipse class="st38" cx="261.76" cy="326.95" rx="5.63" ry="3.64" transform="translate(-152.26 390.17) rotate(-60)"/>
      <ellipse class="st50" cx="208.8" cy="378.61" rx="20.33" ry="19.4"/>
      <ellipse class="st50" cx="273.74" cy="368.81" rx="13.79" ry="13.55"/>
      <path id="_주둥이" class="st27" d="M268.81,372.45c-.83,9.49-10.13,17.18-20.78,17.18s-18.6-7.69-17.77-17.18,10.13-17.18,20.78-17.18,18.6,7.69,17.77,17.18Z"/>
      <path class="st41" d="M263.27,372.67c0-.1-.14-.23-.25-.28-.12-.05-.24-.07-.38-.05-.31.03-.52.22-.57.45-.02.08-.03.17-.05.25-.02.07-.05.14-.07.22.01-.04.02-.09.04-.13-.08.27-.21.53-.36.78-.17.25-.38.49-.61.71-.25.21-.52.4-.81.58-.27.14-.55.26-.85.36-.28.08-.57.14-.86.18-.3.02-.59.02-.88,0-.34-.04-.67-.11-.98-.21-.31-.11-.6-.24-.86-.4-.25-.17-.48-.36-.68-.56-.16-.19-.29-.39-.39-.6-.02-.06-.05-.12-.07-.19,0-.03-.03-.06-.05-.09.14-.25.28-.5.38-.75.32-.76.48-1.54.52-2.32.02-.43,0-.86-.04-1.28-.04-.38-.09-.77-.2-1.15-.05-.17-.1-.33-.15-.5,3.46-.6,6.2-2.7,6.46-5.2.31-2.97-2.97-5.38-7.32-5.38s-8.14,2.41-8.45,5.38,2.97,5.38,7.32,5.38c.26,0,.52,0,.78-.03v.04c.07.36.12.73.17,1.09.03.19.05.37.07.56,0,.05,0,.09,0,.14h0v.02c0,.09,0,.19,0,.28,0,.37,0,.75-.05,1.12-.02.18-.05.36-.09.54-.02.09-.04.19-.06.28,0,.02-.04.14-.02.07.02-.07,0,.01,0,.03,0,.03-.02.05-.02.08-.09.31-.22.61-.37.91-.07.15-.15.29-.24.43-.02.03-.04.06-.06.09,0,0-.02.03-.03.05-.04.06-.08.12-.12.17-.2.27-.42.54-.67.79-.06.06-.12.12-.18.17-.03.03-.06.05-.08.08.13-.12,0,0-.03.02-.14.12-.28.23-.43.34s-.3.21-.46.31c-.03.02-.07.04-.1.06,0,0-.02.01-.03.02-.08.04-.15.08-.23.12-.17.08-.34.16-.52.23-.08.03-.16.06-.25.09-.04.01-.08.03-.13.04h-.02c-.36.11-.74.19-1.12.24-.04,0-.07,0-.11.01h0c-.1,0-.19.01-.29.02h-.57c-.09,0-.17,0-.26-.01h-.13c-.18-.02-.36-.05-.54-.09-.08-.02-.16-.04-.24-.06-.04-.01-.09-.02-.13-.04-.02,0-.05-.02-.08-.03-.14-.05-.28-.1-.41-.17-.07-.03-.14-.07-.21-.11-.04-.02-.07-.04-.11-.06-.02,0-.03-.02-.05-.03t.02.01c-.12-.08-.24-.17-.34-.26-.05-.04-.1-.09-.14-.14-.02-.03-.05-.06-.07-.09-.08-.11-.16-.22-.22-.34,0-.03-.03-.05-.04-.08,0,0,0-.03-.02-.05,0-.02,0-.03-.02-.04,0-.03-.02-.06-.03-.09-.04-.12-.08-.25-.1-.38,0-.06-.02-.12-.02-.18h0v-.09c0-.13,0-.26.03-.39,0-.06.02-.12.04-.18v-.03s0-.05.02-.07c.04-.12.09-.24.16-.36.03-.05.06-.11.09-.16h0s.05-.07.07-.1c.08-.11.18-.22.28-.32,0,0,0-.01.02-.02.02-.02.05-.04.07-.06.06-.05.12-.1.19-.14.25-.18.3-.51.07-.68-.24-.18-.61-.18-.89,0-1.28.84-1.71,2.23-1.34,3.38.18.58.55,1.13,1.11,1.53.61.44,1.38.74,2.22.87.86.13,1.76.11,2.64-.05.89-.16,1.7-.48,2.45-.91.69-.39,1.29-.88,1.78-1.43.23.36.54.69.92.96.66.47,1.48.82,2.39.94.46.06.93.09,1.4.05.54-.05,1.04-.15,1.55-.32.9-.3,1.68-.81,2.27-1.41.33-.33.6-.71.78-1.1.21-.42.29-.87.25-1.3l-.02.02Z"/>
    </g>
  </g>
  <path class="st17" d="M359.72,421.27c0,3.42-2.77,6.19-6.19,6.19h-76.03c-3.42,0-6.19-2.77-6.19-6.19s2.77-6.19,6.19-6.19h76.03c3.42,0,6.19,2.77,6.19,6.19Z"/>
  <g>
    <g>
      <path class="st19" d="M361.88,384.54c.28-.34.22-.88-.13-1.16-2.17-1.69-9.53-6.82-19.25-6.87-11.6-.07-24.65,1.94-49.77,12.09-.15.06-.31.07-.47.02l-9.53-2.97c-.53-.17-1.02.32-.9.9l4.36,20.79c.12.57.74.83,1.17.49l6.24-4.95c.15-.12.35-.17.54-.14,2.83.49,25.02,4.09,38.59.14s13.21-3.26,30.23-12.36c.57-.31.5-1.21-.12-1.44l-2.54-.97c-.5-.19-.68-.86-.33-1.27l1.9-2.28v-.02Z"/>
      <ellipse cx="354.62" cy="384.66" rx="1.52" ry="1.82" transform="translate(-80.96 94.86) rotate(-13.69)"/>
    </g>
    <g>
      <path class="st13" d="M341.67,379.98s4.11,4.62,2.75,11.28"/>
      <path class="st13" d="M314.23,386.57s-5.65-.65-1.47,4.14c0,0-4.26,3.06,1.43,4.66,0,0-1.95,5.48,2.83,2.65"/>
      <path class="st13" d="M306.75,388.39s-5.65-.65-1.47,4.14c0,0-4.26,3.06,1.43,4.66,0,0-1.95,5.48,2.83,2.65"/>
      <line class="st13" x1="290.33" y1="391.57" x2="284.97" y2="388.51"/>
      <line class="st13" x1="291.31" y1="396.06" x2="286.06" y2="397.34"/>
      <line class="st13" x1="291.87" y1="400.66" x2="287.37" y2="404.32"/>
    </g>
  </g>
  <g>
    <path class="st14" d="M246.14,312.95c1.63,1.53,1.72,4.1.19,5.74s-4.1,1.72-5.74.19-1.72-4.1-.19-5.74,4.1-1.72,5.74-.19Z"/>
    <path class="st6" d="M303.88,313.32c-17.15-14.02-42.75-12.26-58.47,4.51-15.71,16.77-15.81,42.43-.71,58.64l59.18-63.14h0Z"/>
    <path class="st14" d="M309.78,307.01c1.13,1.06,1.19,2.84.13,3.97l-67.15,71.65c-1.06,1.13-2.84,1.19-3.97.13s-1.19-2.84-.13-3.97l67.14-71.64c1.06-1.13,2.84-1.19,3.97-.13h.01Z"/>
  </g>
  <path class="st1" d="M215.46,400.33c-10.62,3.29-19.92,10.61-19.92,10.61-8.94,8.09-8.1,17.12-5.36,21.61,4.05,6.65,20.97,9.34,32.27-.29,0,0,16.28-13.56,23.9-32.98,4.38-11.16,3.37-22.41-3.9-25.84-7.27-3.43-17.31,2.58-22.43,13.42,0,0-4.41,9.96-4.49,20.18"/>
  <path class="st11" d="M223.75,485.27c1.3-4.01,1.8-8.28,1.2-12.45-1.2-8.27-5.95-14.23-11.93-16.67-11.13-4.55-18.92,5.62-18.78,21.04.12,12.88.46,31.79,8.7,33.37,1.98.68,4.84,1.2,8.92,1.68,8.37.99,16.83-.54,17.32-6.05.39-4.38-1.72-11.43-8.26-12.21l2.83-8.71Z"/>
</svg>