<?xml version="1.0" encoding="UTF-8"?>
<svg id="Layer_1" xmlns="http://www.w3.org/2000/svg" version="1.1" viewBox="0 0 97 143.3">
  <!-- Generator: Adobe Illustrator 29.6.1, SVG Export Plug-In . SVG Version: 2.1.1 Build 9)  -->
  <defs>
    <style>
      .st0 {
        stroke: #c17b46;
      }

      .st0, .st1, .st2, .st3, .st4, .st5 {
        stroke-miterlimit: 10;
      }

      .st0, .st2 {
        fill: none;
        stroke-linecap: round;
      }

      .st0, .st2, .st4, .st5 {
        stroke-width: 2px;
      }

      .st1 {
        stroke-width: 1.95px;
      }

      .st1, .st2, .st3, .st4, .st5 {
        stroke: #4c241e;
      }

      .st1, .st3, .st5 {
        fill: #efefef;
      }

      .st3 {
        stroke-width: 2.02px;
      }

      .st4 {
        fill: #e9c883;
      }
    </style>
  </defs>
  <path class="st4" d="M1.38,127.91c-.43-.29-.51-.88-.17-1.27,2.03-2.35,9.08-9.68,20.28-12.25,13.37-3.07,29-4.3,60.84-.04.19.03.38,0,.54-.1l10.16-5.61c.57-.31,1.27.08,1.29.72l.81,23.16c.02.63-.62,1.07-1.21.82l-8.6-3.64c-.21-.09-.45-.09-.66,0-3.12,1.24-27.72,10.79-44.5,10.11-17.44-.71-16.16-.04-38.36-5.29-.75-.18-.92-1.15-.26-1.56l2.66-1.68c.53-.33.54-1.09.03-1.43l-2.84-1.93h0Z"/>
  <path d="M11.99,124.93c1,0,1.81-.8,1.81-1.79s-.81-1.79-1.81-1.79-1.81.8-1.81,1.79.81,1.79,1.81,1.79Z"/>
  <path class="st5" d="M34.84,92.61c2.59.55,8.01,2.15,11.42,6.26,1.18-6.67-.66-10.56-.66-10.56l-1.48-1.4c-3.84-3.03-10.02-4.18-12.06-2.17-1.84,2.88.13,6.28,1.4,7.98.43-.17.91-.21,1.38-.11h0Z"/>
  <path class="st1" d="M45.61,76.01c-1.21-.51-3.58-1.58-4.71-2.3-3.76-2.4-9.02-3.02-9.5,2.41-.36,4.17.58,7.02,1.31,8.62,1.94-2.02,7.85-.87,11.52,2.17.52.43,1,.9,1.41,1.4,1.52-4.1.93-11.3-.07-12.19l.05-.11Z"/>
  <path class="st5" d="M46.1,117.06c-3.92-3.27-10.95-3.18-12.16-3.14-3.74,2.4-6.54,7.47-6.93,13.34-.54,8.19,3.82,14.82,9.75,14.82s11.17-6.64,11.71-14.82c.26-3.9-.6-7.44-2.2-10.09-.06-.03-.12-.06-.17-.11Z"/>
  <path class="st5" d="M46.59,107.2c.42.37.76.76,1.06,1.16.43-.21.77-.64.82-1.18.31-3.61-.76-6.39-1.08-7.12-.05-.12-.11-.23-.18-.33-.29-.45-.62-.88-.95-1.28-3.41-4.12-8.83-5.72-11.42-6.26-.47-.1-.95-.06-1.38.11-.45.18-.84.48-1.09.91-2.3,3.82.46,8.68,1.79,10.65.13-.03.26-.04.4-.04h.21c.76-.62,1.49-.64,1.49-.64,0,0,4.7-1.01,10.34,4.03h0Z"/>
  <path class="st0" d="M22,122.29s-3.45,5.37,0,11.42"/>
  <path class="st0" d="M55.53,119.14s6.34-1.93,2.86,3.61c0,0,5.77,1.93-.34,4.79,0,0,3.79,4.79-2.52,3.19"/>
  <path class="st0" d="M66.58,118.4s6.34-1.93,2.86,3.61c0,0,5.77,1.93-.34,4.79,0,0,3.79,4.79-2.52,3.19"/>
  <path class="st2" d="M85.18,118.07l5.32-4.16"/>
  <path class="st0" d="M85.18,121.35h6.43"/>
  <path class="st2" d="M85.84,125.55l6.23,2.45"/>
  <path class="st5" d="M47.16,107.7c-.3-.4-.65-.79-1.06-1.16-5.98-4.26-10.34-4.03-10.34-4.03,0,0-.73.02-1.49.64-1.23,1-2.54,3.55-1,10.11,0,0,.07,0,.18,0,1.2-.04,8.23-.12,12.16,3.14.06.05.11.08.17.11,1.58.75,4.83-5.73,1.38-8.81h0Z"/>
  <path class="st3" d="M33.88,52.18c2.64.55,8.17,2.15,11.65,6.26,1.21-6.67-.68-10.56-.68-10.56l-1.5-1.4c-3.91-3.03-10.22-4.18-12.3-2.17-1.87,2.88.13,6.28,1.42,7.98.44-.17.93-.21,1.41-.11h0Z"/>
  <path class="st3" d="M45.85,66.78q1.04.74,1.08,1.16c.44-.21.78-.64.83-1.18.31-3.61-.78-6.39-1.1-7.12-.05-.12-.12-.23-.18-.33-.3-.45-.63-.88-.97-1.28-3.48-4.12-9.01-5.72-11.65-6.26-.48-.1-.97-.06-1.41.11-.46.18-.85.48-1.12.91-2.34,3.82.46,8.68,1.82,10.65.13-.03.27-.04.41-.04h.21c.77-.62,1.52-.64,1.52-.64,0,0,4.95-.24,10.54,4.03h0Z"/>
  <path class="st3" d="M46.94,67.93c-.31-.4-.66-.79-1.08-1.16-6.1-4.26-10.54-4.03-10.54-4.03,0,0-.74.02-1.52.64-1.25,1-2.59,3.55-1.02,10.11,0,0,.07,0,.19,0,1.23-.04,8.39-.12,12.4,3.14.06.05.12.08.18.11,1.62.75,4.92-5.73,1.4-8.81h0Z"/>
  <path class="st1" d="M44.33,35.23c-1.21-.51-3.58-1.58-4.71-2.3-3.76-2.4-9.02-3.02-9.5,2.41-.36,4.17.58,7.02,1.31,8.62,1.94-2.02,7.85-.87,11.52,2.17.52.43,1,.9,1.41,1.4,1.52-4.1.93-11.3-.07-12.19l.05-.11Z"/>
  <path class="st3" d="M32.59,11.4c2.64.55,8.17,2.15,11.65,6.26,1.21-6.67-.68-10.56-.68-10.56l-1.5-1.4c-3.91-3.03-10.22-4.18-12.3-2.17-1.87,2.88.13,6.28,1.42,7.98.44-.17.93-.21,1.41-.11h0Z"/>
  <path class="st3" d="M44.57,25.99q1.04.74,1.08,1.16c.44-.21.78-.64.83-1.18.31-3.61-.78-6.39-1.1-7.12-.05-.12-.12-.23-.18-.33-.3-.45-.63-.88-.97-1.28-3.48-4.12-9.01-5.72-11.65-6.26-.48-.1-.97-.06-1.41.11-.46.18-.85.48-1.12.91-2.34,3.82.46,8.68,1.82,10.65.13-.03.27-.04.41-.04h.21c.77-.62,1.52-.64,1.52-.64,0,0,4.95-.24,10.54,4.03h0Z"/>
  <path class="st3" d="M45.65,27.15c-.31-.4-.66-.79-1.08-1.16-6.1-4.26-10.54-4.03-10.54-4.03,0,0-.74.02-1.52.64-1.25,1-2.59,3.55-1.02,10.11,0,0,.07,0,.19,0,1.23-.04,8.39-.12,12.4,3.14.06.05.12.08.18.11,1.62.75,4.92-5.73,1.4-8.81h0Z"/>
</svg>