<?xml version="1.0" encoding="UTF-8"?>
<svg id="Layer_1" xmlns="http://www.w3.org/2000/svg" version="1.1" xmlns:xlink="http://www.w3.org/1999/xlink" viewBox="0 0 60 60">
  <!-- Generator: Adobe Illustrator 29.6.1, SVG Export Plug-In . SVG Version: 2.1.1 Build 9)  -->
  <defs>
    <style>
      .st0 {
        stroke: #4b241e;
        stroke-width: .37px;
      }

      .st0, .st1 {
        stroke-miterlimit: 10;
      }

      .st0, .st2 {
        fill: #4b241e;
      }

      .st1 {
        fill: #ffd899;
        stroke: #4c241e;
        stroke-width: 2px;
      }

      .st3 {
        fill: #fde4c0;
      }

      .st4 {
        fill: #fff;
      }

      .st5 {
        fill: #db9c59;
      }

      .st6 {
        fill: none;
      }

      .st7 {
        clip-path: url(#clippath);
      }
    </style>
    <clipPath id="clippath">
      <rect class="st6" width="60" height="60"/>
    </clipPath>
  </defs>
  <g class="st7">
    <path class="st1" d="M43.32,12.96c.55-.39,1.62-1.26,2.27-2.76,1.01-2.32.29-4.44.1-4.95-.29-.8-.73-1.54-1.28-2.14-.58-.65-1.32-1.2-2.14-1.4-.45-.11-.93-.11-1.37.08-.36.16-.68.41-.93.73-.59.75-.86,1.73-1.08,2.65-.25,1.07-.43,2.15-.55,3.25-.04.41-.08.83-.11,1.24,0,.23-.01.45-.03.67-2.57-.96-5.34-1.49-8.23-1.49-4.86,0-9.38,1.49-13.17,4.04-.03-.5-.07-1.01-.13-1.51-.13-1.1-.32-2.17-.6-3.25-.2-.81-.48-1.64-.99-2.29-.26-.32-.58-.57-.93-.73-.44-.18-.92-.18-1.37-.08-.81.19-1.56.75-2.14,1.4-.55.62-.97,1.35-1.28,2.14-.6,1.59-.57,3.39.1,4.95.6,1.4,1.67,2.53,2.94,3.13-2.95,3.23-5.06,7.27-5.99,11.75-3.13,2.82-5,6.34-5,10.17,0,6.98,6.16,12.95,14.92,15.45,3.88,2.74,8.58,4.35,13.64,4.35,8.14,0,15.32-4.15,19.68-10.51,5.41-3.07,8.85-7.72,8.85-12.95,0-3.91-1.95-7.51-5.19-10.35-.84-.73-1.57-1.61-2.11-2.64-.05-.09-.1-.18-.15-.27-1.65-2.91-4.09-5.92-7.76-8.67Z"/>
  </g>
  <path class="st3" d="M35.08,40.94h.46c.74,0,1.34.6,1.34,1.34v1.82c0,.31-.25.56-.56.56h-2.04c-.31,0-.56-.25-.56-.56v-1.82c0-.74.6-1.34,1.34-1.34Z" transform="translate(6.51 -4.63) rotate(8.25)"/>
  <path class="st0" d="M40.23,23.86c.57-.17,1.21-.09,1.74.16.44.21.82.51,1.11.89.1.1.2.2.28.32.06.1.12.2.17.3,0,.02,0,.03.02.05.05.1.08.2.11.31.02.05.03.11.04.16.01.08.02.17.02.25,0,.02,0,.03,0,.05,0,.05.01.1.01.15,0,.14-.03.28-.07.41-.03.1-.08.2-.13.29,0,0,0,0,0,.01,0,.01-.02.02-.02.03-.02.02-.03.05-.04.07,0,0,0,0-.01.01-.16.23-.39.41-.65.51-.37.14-.75.15-1.13.16-.54,0-1.08,0-1.61-.16-.56-.16-1.07-.53-1.32-1.07-.25-.53-.25-1.19,0-1.72.14-.3.34-.56.6-.77.27-.21.57-.36.89-.45Z"/>
  <path class="st0" d="M19.53,28.84c-.03.14-.04.28-.05.42,0,.04,0,.08,0,.13-.01.11-.02.22-.01.32.02.25.08.48.19.71.09.19.23.36.38.5.09.08.18.15.29.21.1.06.21.11.33.15.4.15.85.15,1.26.04.23-.06.45-.16.65-.28,0,0,0,0,0,0,.03-.01.06-.02.09-.04.28-.14.54-.31.79-.49.27-.19.55-.38.8-.6.13-.12.25-.26.36-.41.1-.14.17-.29.23-.45.09-.23.12-.51.08-.76,0-.12,0-.23-.03-.34-.02-.08-.06-.16-.1-.24,0,0,0,0,0,0-.11-.41-.4-.76-.74-1.01-.03-.04-.07-.08-.11-.11-.17-.12-.37-.22-.57-.28-.2-.06-.41-.1-.63-.12-.39-.04-.79.01-1.16.14-.4.13-.77.35-1.08.64-.31.3-.54.66-.7,1.06-.02.05-.03.1-.05.15,0,.02-.02.04-.02.05-.03.08-.06.17-.08.25,0,0,0,.02-.01.03-.03.11-.06.22-.08.33Z"/>
  <ellipse id="_오른반사광" data-name="오른반사광" class="st4" cx="22.94" cy="27.73" rx=".9" ry=".86"/>
  <ellipse id="_왼반사광" data-name="왼반사광" class="st4" cx="40.43" cy="25.05" rx=".9" ry=".86"/>
  <ellipse class="st3" cx="16.19" cy="41.57" rx="10.77" ry="10.27"/>
  <ellipse class="st3" cx="49" cy="35.87" rx="7.86" ry="7.72"/>
  <path id="_주둥이" data-name="주둥이" class="st5" d="M43.96,39.65c-.47,5.41-5.77,9.79-11.84,9.79s-10.6-4.38-10.13-9.79,5.77-9.79,11.84-9.79,10.6,4.38,10.13,9.79Z"/>
  <path class="st2" d="M40.8,38.55c0-.05-.08-.11-.14-.14-.07-.02-.14-.03-.22-.03-.18.02-.3.11-.32.22,0,.04-.02.08-.03.12-.01.04-.03.07-.04.11,0-.02.01-.04.02-.06-.04.13-.12.26-.21.38-.1.12-.21.24-.35.35-.14.1-.3.2-.46.28-.15.07-.31.13-.48.18-.16.04-.32.07-.49.09-.17.01-.34.01-.5,0-.19-.02-.38-.05-.56-.1-.18-.05-.34-.12-.49-.2-.14-.08-.27-.18-.39-.28-.09-.09-.17-.19-.22-.3-.01-.03-.03-.06-.04-.09,0-.02-.02-.03-.03-.04.08-.12.16-.25.22-.37.18-.37.27-.76.3-1.14.01-.21,0-.42-.02-.63-.02-.19-.05-.38-.11-.56-.03-.08-.06-.16-.09-.25,1.97-.29,3.53-1.33,3.68-2.56.18-1.46-1.69-2.64-4.17-2.64s-4.64,1.18-4.82,2.64,1.69,2.64,4.17,2.64c.15,0,.3,0,.44-.01,0,0,0,.01,0,.02.04.18.07.36.1.54.02.09.03.18.04.27,0,.02,0,.05,0,.07,0,0,0,0,0,0,0,0,0,0,0,0,0,.05,0,.09,0,.14,0,.18,0,.37-.03.55-.01.09-.03.18-.05.27-.01.05-.02.09-.04.14,0,0-.02.07-.01.03.01-.04,0,0,0,.02,0,.01,0,.03-.01.04-.05.15-.12.3-.21.45-.04.07-.09.14-.14.21-.01.02-.02.03-.03.04,0,0-.01.02-.02.02-.02.03-.04.06-.07.08-.11.13-.24.27-.38.39-.03.03-.07.06-.1.08-.02.01-.03.03-.05.04.07-.06,0,0-.02.01-.08.06-.16.11-.24.17-.08.05-.17.1-.26.15-.02.01-.04.02-.06.03,0,0-.01,0-.02,0-.04.02-.09.04-.13.06-.1.04-.2.08-.3.11-.05.02-.09.03-.14.04-.02,0-.05.01-.07.02,0,0,0,0,0,0-.21.05-.42.09-.64.12-.02,0-.04,0-.06,0,0,0,0,0,0,0-.05,0-.38.01-.49.01-.05,0-.1,0-.15,0-.01,0-.05,0-.06,0,0,0-.02,0-.02,0-.1-.01-.21-.03-.31-.05-.05,0-.09-.02-.14-.03-.02,0-.05-.01-.07-.02-.01,0-.03,0-.04-.01-.08-.03-.16-.05-.23-.08-.04-.02-.08-.03-.12-.05-.02,0-.04-.02-.06-.03,0,0-.02,0-.03-.01,0,0,0,0,.01,0-.07-.04-.13-.08-.19-.13-.03-.02-.05-.05-.08-.07-.01-.01-.03-.03-.04-.04-.05-.05-.09-.11-.13-.17,0-.01-.02-.02-.02-.04,0,0,0-.01-.01-.02,0,0,0-.02,0-.02,0-.02-.01-.03-.02-.05-.02-.06-.04-.12-.06-.19,0-.03-.01-.06-.01-.09,0,0,0,0,0,0,0-.01,0-.03,0-.04,0-.06,0-.13.02-.19,0-.03.01-.06.02-.09,0,0,0,0,0-.01,0-.01,0-.02.01-.03.02-.06.05-.12.09-.18.02-.03.03-.05.05-.08,0,0,0,0,0,0,.01-.02.03-.03.04-.05.05-.05.1-.11.16-.15,0,0,0,0,0,0,.01,0,.03-.02.04-.03.03-.02.07-.05.11-.07.14-.09.17-.25.04-.33-.14-.09-.35-.09-.51,0-.73.41-.97,1.09-.77,1.66.1.28.31.55.63.75.35.22.79.36,1.27.43.49.06,1,.06,1.5-.02.51-.08.97-.24,1.39-.45.39-.19.73-.43,1.01-.7.13.18.31.34.52.47.37.23.84.4,1.36.46.26.03.53.05.8.02.31-.02.59-.08.88-.16.51-.15.96-.4,1.29-.69.19-.16.34-.35.45-.54.12-.21.16-.43.14-.64Z"/>
  <path class="st2" d="M37.41,40.35c-.52-.06-.99-.24-1.36-.46-.22-.13-.39-.29-.52-.47-.28.27-.62.51-1.01.7-.42.21-.89.36-1.39.45-.5.08-1.01.09-1.5.02-.12-.02-.23-.05-.35-.08.41,3.47,1.97,10.89,7.23-.17-.1.01-.19.03-.29.04-.27.02-.54,0-.8-.02Z"/>
</svg>