<?xml version="1.0" encoding="UTF-8"?>
<svg xmlns="http://www.w3.org/2000/svg" version="1.1" viewBox="0 0 252 116.61">
  <!-- Generator: Adobe Illustrator 29.6.1, SVG Export Plug-In . SVG Version: 2.1.1 Build 9)  -->
  <defs>
    <style>
      .st0 {
        fill: #fff;
      }

      .st1 {
        display: none;
      }

      .st2, .st3 {
        fill: #4c241e;
      }

      .st3 {
        font-family: 'Ownglyph_2022_UWY_Si_Woo-Rg', 'Ownglyph 2022 UWY Si Woo';
        font-size: 69.67px;
      }
    </style>
  </defs>
  <g id="Layer_1">
    <g>
      <path class="st0" d="M244.76,44.58c0-.31-.27-.63-.28-.94s-1.3-.59-1.31-.9,1.76-.7,1.74-1.02-.08-.64-.1-.95-.14-.63-.17-.94-.29-.61-.33-.92-.21-.61-.26-.92.31-.7.26-1.01-1.38-.37-1.44-.68,1.21-.92,1.13-1.23-.73-.47-.82-.77-.85-.39-.95-.69.24-.73.13-1.03.59-.91.48-1.2-1.56-.03-1.69-.32.07-.7-.07-.99.7-1.07.55-1.35-1.2-.06-1.35-.33.01-.74-.15-1.01-1.03-.06-1.21-.32.14-.85-.05-1.1-.94-.05-1.13-.29-.54-.33-.74-.57.68-1.43.47-1.66-1.2.28-1.42.06-.73-.11-.96-.33.25-1.16.01-1.37-.13-.81-.38-1.01-1.24.53-1.49.33.05-1.07-.2-1.26-.55-.31-.8-.5-.63-.19-.89-.36-.48-.4-.75-.57-.78.09-1.05-.08.01-1.23-.26-1.39-1.2.84-1.47.69.07-1.42-.21-1.57-.99.54-1.27.39-.58-.2-.87-.34,0-1.43-.29-1.56-.94.53-1.22.4-.49-.44-.77-.56-.37-.74-.66-.86-1.17,1.22-1.46,1.1-.18-1.23-.47-1.34-.72.16-1.02.05-.37-.79-.67-.89-.78.35-1.08.24-.43-.67-.72-.77-.83.53-1.13.43-.25-1.25-.55-1.34-.67.05-.97-.04-.72.25-1.02.16-.37-.94-.67-1.02-.87.81-1.17.73-.31-1.23-.61-1.32-.93,1.09-1.23,1.02-.26-1.5-.56-1.58-.82.71-1.12.64-.68.2-.99.13-.48-.65-.79-.72-.73.43-1.04.36-.5-.6-.81-.66-.46-.81-.77-.88-.72.39-1.02.33-.53-.5-.84-.56-.59-.24-.9-.3-.87,1.28-1.18,1.22-.33-1.63-.64-1.69-.74.6-1.05.55-.59-.21-.9-.27-.6-.21-.9-.26-.59-.26-.9-.31-.72.59-1.03.54-.51-.73-.82-.78-.82,1.29-1.13,1.24-.43-1.35-.74-1.39-.61-.15-.92-.2-.55-.55-.86-.59-.65.13-.96.09-.69.43-1,.39-.63,0-.94-.04-.74.94-1.05.9-.57-.43-.88-.47-.6-.25-.91-.28-.58-.42-.89-.45-.57-.48-.89-.51-.61-.16-.92-.19-.75,1.23-1.07,1.2-.57-.51-.88-.54-.67.45-.98.42-.51-1.2-.82-1.23-.59-.42-.9-.45-.66.37-.97.34-.64.16-.95.13-.64.22-.96.2-.62-.04-.93-.07-.62-.01-.93-.04-.55-.88-.87-.9-.66.44-.97.41-.57-.69-.88-.71-.68.77-.99.75-.65.46-.97.44-.56-.9-.87-.92-.61-.18-.92-.2-.62,0-.94-.02-.61-.29-.92-.31-.68.96-.99.94-.62-.12-.93-.13-.57-.91-.89-.93-.69,1.28-1,1.27-.62-.12-.93-.14-.61-.24-.93-.25-.57-1.21-.88-1.23-.68,1.17-.99,1.15-.56-1.42-.88-1.44-.68,1.23-.99,1.22-.62-.15-.93-.17-.61-.44-.92-.45-.65.78-.97.77-.59-1.14-.9-1.15-.64.43-.95.42-.62.05-.94.04-.59-1.02-.91-1.03-.64.6-.96.59-.64.42-.95.41-.64.53-.95.52-.63.14-.94.14-.62-.11-.94-.11-.63.04-.94.03-.6-1.52-.91-1.53-.65,1.3-.97,1.29-.62-.65-.93-.66-.62-.64-.93-.64-.64.73-.95.72-.63.72-.95.71-.61-1.37-.92-1.37-.64,1.02-.95,1.02-.63-.11-.94-.11-.63.03-.94.03-.62-.58-.94-.58-.63.08-.94.08-.63.21-.95.2-.63-.12-.95-.12-.63.62-.95.62-.63-.6-.95-.6-.64.03-.95.03-.63-.67-.94-.67-.63.68-.94.69-.63.26-.94.27-.63-1.24-.95-1.24-.62,1.5-.93,1.51-.63-.83-.94-.83-.62,1.1-.93,1.11-.63-.36-.94-.36-.63-.14-.94-.14-.64-.75-.95-.74-.61,1.18-.93,1.19-.64-1.3-.96-1.3-.62.47-.93.47-.63-.38-.95-.38-.62.59-.93.6-.64-.7-.95-.69-.63-.16-.94-.15-.63-.02-.94-.02-.61.95-.92.95-.65-.82-.96-.81-.62.23-.93.24-.6,1.18-.91,1.19-.62.05-.94.06-.66-1.14-.97-1.13-.6.78-.91.79-.64-.35-.95-.33-.63,0-.94.02-.59.89-.91.9-.66-.8-.97-.79-.61.43-.92.44-.65-.65-.97-.64-.64-.19-.95-.17-.58.96-.9.98-.65-.5-.96-.48-.62.08-.93.1-.61.32-.92.33-.69-1.13-1-1.11-.55,1.38-.86,1.4-.62.12-.93.14-.68-.89-.99-.87-.55,1.22-.86,1.24-.64-.29-.96-.27-.61.21-.92.23-.61.17-.93.19-.65-.34-.96-.31-.61.2-.92.23-.66-.51-.97-.48-.56.93-.87.95-.75-1.6-1.06-1.58-.58.58-.89.61-.67-.54-.98-.52-.48,1.75-.79,1.78-.66-.43-.97-.4-.72-.95-1.03-.93-.65-.16-.96-.13-.53,1.09-.84,1.12-.58.51-.89.54-.73-1.03-1.04-1-.58.52-.88.56-.61.22-.91.25-.69-.52-1-.48-.62.12-.93.15-.56.62-.87.66-.55.69-.85.73-.68-.45-.99-.41-.54.73-.84.77-.73-.75-1.04-.7-.68-.34-.99-.3-.65-.09-.96-.04-.53.73-.84.78-.55.6-.85.64-.64-.03-.95.01-.67-.21-.98-.16-.6.24-.91.29-.72-.48-1.02-.43-.51.77-.81.83-.85-1.19-1.15-1.14-.54.59-.84.65-.46.97-.77,1.03-.53.57-.83.63-.64,0-.94.05-.95-1.54-1.26-1.48-.47.85-.77.92-.45.9-.75.96-.74-.46-1.05-.4-.52.53-.82.6-.62.09-.92.16-.76-.49-1.06-.41-.39,1.02-.69,1.1-.82-.69-1.12-.62-.58.25-.88.33-.5.53-.8.61-.84-.65-1.13-.57-.54.42-.83.5-.58.27-.87.36-.44.71-.73.8-.82-.51-1.12-.42-.17,1.47-.46,1.57-1.16-1.45-1.45-1.35-.18,1.36-.47,1.46-.96-.78-1.25-.67-.05,1.6-.34,1.71-1.09-1.06-1.38-.94-.03,1.55-.32,1.67-1.19-1.18-1.47-1.05-.36.75-.64.88-.69,0-.97.14-.71-.01-.99.12.01,1.42-.26,1.56-.89-.36-1.17-.21-.4.58-.66.74-.21.88-.48,1.03-1.21-.79-1.48-.63-.7.1-.96.27-.39.58-.64.75-.56.32-.81.5.25,1.39,0,1.58-.32.58-.56.77-1.11-.38-1.35-.18-.7.16-.93.37.09,1.01-.13,1.23-.38.49-.59.71-.39.47-.6.7-.54.34-.74.57-.75.19-.94.43-.72.25-.91.5.73,1.28.55,1.53-.97.1-1.13.36-.63.36-.79.62-.03.7-.18.98.2.79.07,1.07-.12.61-.25.89-1.22.16-1.33.45.19.74.09,1.04.55.82.46,1.12-1.06.32-1.14.62-.79.45-.86.75.37.74.31,1.04.59.74.54,1.05-.08.6-.12.91.32.65.28.96-1.33.47-1.36.78-.4.6-.43.91.03.64.02.95,1.11.67,1.1.98-.36.6-.37.92-.31.62-.31.93.61.62.62.93-.21.62-.2.94-1.13.68-1.11.99,1.85.5,1.88.81-1.77.78-1.73,1.09,1.53.46,1.57.77-.48.69-.43,1,.4.56.45.87.42.54.49.84-1.14.9-1.07,1.21.31.58.39.88.96.37,1.05.67.12.61.23.9.87.32.98.61.12.59.25.88-.97,1.13-.84,1.41.71.35.86.63-.13.8.03,1.07,0,.76.16,1.03,1.12.03,1.29.29-.19.91,0,1.17,1.35-.26,1.55-.01.03.77.24,1.01-.33,1.14-.11,1.37.87.06,1.09.28,1.24-.39,1.47-.17-.24,1.16,0,1.37.17.77.41.97,1.04-.28,1.28-.08-.05,1.09.2,1.28.7.12.96.3.25.75.51.92.62.21.89.38,1.35-.98,1.62-.81.5.33.77.49-.04,1.3.24,1.46.68.06.96.21.2.96.48,1.1.68.06.96.19.43.55.72.69,1.22-1.16,1.51-1.03.22,1.03.51,1.15.59.19.88.32.41.65.7.77.55.32.84.43,1.05-1,1.34-.89.02,1.76.31,1.86.92-.74,1.22-.63.73-.23,1.03-.13.31,1.02.61,1.12.82-.54,1.12-.45.37.89.67.98.82-.59,1.12-.5.54.33.84.41.73-.34,1.03-.25.43.76.73.84.6.14.9.21.55.35.85.43.57.25.88.33.48.67.78.75.87-1.02,1.18-.95.27,1.63.57,1.7.99-1.61,1.29-1.54.42.97.73,1.04.52.54.83.6.75-.58,1.06-.52.55.43.85.49.64-.04.95.02.57.31.88.37.72-.51,1.03-.46.56.37.87.43.55.49.85.54.49.84.8.89.68-.33.99-.29.76-.82,1.06-.77.51.8.82.84.62.06.93.1.5.91.81.95.8-1.25,1.11-1.21.58.33.89.37.61.14.92.18.72-.72,1.03-.68.6.23.91.27.46,1.4.77,1.44.63,0,.94.04.74-1,1.05-.96.47,1.4.78,1.43.6.22.92.26.67-.43.98-.4.71-.87,1.03-.84.54.87.85.9.58.44.9.47.7-.75,1.01-.72.63-.05.94-.02.63-.04.94,0,.66-.38.97-.36.58.51.89.54.59.36.9.39.57.63.89.65.72-1.34,1.03-1.32.6.27.91.29.59.44.9.46.65-.42.96-.4.51,1.64.83,1.66.63-.12.95-.1.68-.83.99-.81.64-.34.96-.33.55,1.36.86,1.37.67-.89.99-.88.64-.22.95-.21.58.9.89.92.67-.93.98-.91.65-.45.96-.44.57,1.25.88,1.26.63-.05.94-.03.66-.78.97-.77.59.93.9.94.63-.21.95-.2.63-.2.95-.18.59.94.91.95.63-.16.95-.15.64-.4.95-.39.62-.02.94-.01.65-.89.96-.88.6.72.92.73.62.07.94.07.64-.51.95-.5.59,1.49.9,1.5.64-.5.95-.49.62.35.93.36.63-.4.95-.39.64-.78.96-.77.61.77.93.77.63-.29.95-.29.61.85.93.85.64-.76.95-.76.62.49.93.49.64-1.37.96-1.36.62.41.94.42.62,1.02.94,1.02.64-1.08.95-1.08.63.1.94.1.62,1.26.94,1.26.63-.07.95-.07.63-1.48.95-1.48.63.65.95.65.64-.66.95-.66.62,1.37.94,1.37.62-1.52.93-1.53.63,1.03.94,1.03.62.1.93.09.62-.28.93-.28.62-.79.93-.8.63,1.42.94,1.42.63.27.94.26.61-1.19.92-1.2.62.25.93.24.62-.32.93-.32.61-.55.92-.56.64,1.35.95,1.34.61-.86.92-.87.64,1.2.95,1.19.59-1.77.9-1.77.64.77.94.77.6-.77.91-.77.62-.04.93-.04.62.13.93.12.65,1.06.96,1.05.62.12.93.12.63.19.93.18.58-1.39.89-1.4.67,1.59.98,1.58.6-.67.91-.68.63.14.94.13.57-1.34.88-1.35.66,1.07.97,1.05.61-.24.92-.25.62-.09.92-.1.59-.62.9-.63.66.98.97.97.65.57.95.56.54-1.56.85-1.58.63.25.94.23.63.22.94.2.62-.05.93-.07.61-.24.91-.26.67.91.98.89.56-.91.87-.93.65.61.96.59.59-.46.9-.48.66.67.97.65.54-1.12.84-1.14.71,1.29,1.01,1.27,1.17-1.24,1.47-1.27c-.2.25-1.62.27-1.83.51s-.33.54-.54.78.31,1.13.09,1.36-.04.84-.26,1.07-1.32-.38-1.55-.15.18,1.07-.05,1.3-.67.24-.9.46-.22.7-.45.92-1.24-.39-1.48-.18.53,1.52.29,1.74-.79.08-1.03.29-1.34-.56-1.58-.35-.34.57-.59.78-.48.41-.72.62.34,1.41.1,1.61-1.01-.22-1.25-.02c-.24.2-.17.78-.41.97s-.47.41-.71.61-.7.13-.94.32-.69.13-.93.32-.74.06-.99.25-.35.56-.6.75.12,1.16-.13,1.35-.79,0-1.03.19-.2.76-.45.95-.96-.24-1.21-.05-.06.96-.31,1.15-.36.56-.61.74-.84-.09-1.09.09-.92-.21-1.17-.03.24,1.4,0,1.58-.45.44-.7.62-1.19-.6-1.44-.42-.48.4-.73.58-.44.45-.7.63-.19.81-.45.99-.8-.07-1.06.11-.38.55-.63.73-.95-.3-1.21-.13-.27.71-.53.89-.48.4-.74.57-.36.58-.62.75-.91-.26-1.17-.09.3,1.61.04,1.78-.61.2-.88.37-1.04-.48-1.3-.31-.71.03-.98.19.2,1.49-.07,1.66-1.28-.14-1.55.02c.31-.05.96-.41,1.27-.47s.69.33,1,.27.44-1.05.75-1.1.78.73,1.08.67.73.43,1.04.37.42-1.04.72-1.11.84.88,1.15.81.48-.7.79-.78.62-.13.92-.21.45-.75.76-.83.5-.54.8-.63.71.22,1.01.13.43-.76.73-.84.96,1.02,1.26.92.54-.39.83-.49.28-1.15.58-1.25,1.15,1.47,1.44,1.37.59-.23.89-.34.13-1.51.43-1.61.71.13,1,.02.97.8,1.27.69.5-.46.79-.57.58-.26.87-.38.04-1.56.33-1.68,1,.77,1.29.65.83.33,1.12.21.26-.98.54-1.1.3-.84.59-.97.58-.22.87-.35.83.29,1.11.15.29-.83.57-.96.7,0,.98-.13.47-.44.75-.59.6-.2.88-.34.36-.65.63-.8.69-.03.96-.19.74.03,1.01-.12.24-.83.51-.99.64-.14.91-.3.83.17,1.1,0,.52-.35.79-.52.92.29,1.19.12.33-.67.59-.84.46-.46.72-.63.57-.28.83-.45.61-.22.87-.4-.08-1.22.18-1.39.82.07,1.07-.11.35-.59.6-.77.24-.73.49-.92.89.15,1.14-.04.25-.7.5-.89.83.05,1.08-.14.13-.85.37-1.04.61-.23.86-.43,1.02.26,1.26.06.32-.6.56-.8-.07-1.05.17-1.25,1.01.21,1.24,0-.14-1.1.1-1.31.56-.3.8-.51,1.31.5,1.54.29-.28-1.23-.05-1.44,1.11.26,1.33.04-.24-1.15-.01-1.37.92.04,1.14-.18.82-.07,1.04-.29.12-.77.34-.99.49-.41.7-.63.05-.84.27-1.07c.31-.04.61-.35.92-.4s.8,1.1,1.11,1.05.51-.84.82-.89.55-.58.86-.63.56-.49.87-.54.75.68,1.06.63.57-.43.87-.48.65.08.96.02.53-.6.84-.66.68.2.98.15.77.69,1.08.63.45-.98.76-1.04.8.77,1.1.7.44-.99.74-1.05.72.34,1.02.28.68.13.98.07.36-1.25.66-1.32.92,1.16,1.22,1.09.52-.54.82-.61.41-.94.71-1.01.58-.23.88-.31.93,1.06,1.23.98.53-.47.83-.55.74.3,1.04.22.57-.29.87-.38.47-.62.77-.71.54-.38.84-.47.57-.27.86-.37.51-.45.8-.55.47-.54.76-.64,1.14,1.32,1.43,1.22.23-1.19.52-1.3.86.48,1.15.37.51-.43.8-.54.41-.66.69-.78.46-.52.74-.64.81.28,1.09.15.39-.65.67-.78.56-.27.84-.4.84.28,1.12.14.1-1.15.37-1.3.88.31,1.15.16.52-.36.79-.52.25-.8.51-.97.39-.53.65-.7.58-.24.83-.41.9.21,1.16.03.11-.89.36-1.08,1.35.71,1.59.52-.37-1.44-.13-1.64.53-.32.76-.52.54-.33.76-.54.45-.42.67-.64.81-.09,1.02-.32.54-.38.74-.61-.6-1.3-.41-1.54.76-.17.94-.42.71-.25.89-.5.79-.24.95-.5.03-.73.19-.99.34-.54.48-.81.29-.56.43-.84.92-.29,1.04-.57.01-.7.13-.99.09-.65.2-.95-.9-.95-.8-1.25.12-.59.21-.89.03-.61.1-.91,1.07-.38,1.13-.69.5-.54.56-.85.41-.58.46-.89-.79-.75-.75-1.05.17-.6.2-.91.46-.59.49-.9-1.11-.69-1.09-1,1.49-.55,1.5-.87-1.26-.66-1.25-.97,1.19-.61,1.19-.92Z"/>
      <path class="st2" d="M125.94,116.15l6.09-3.76c.27-.17.61-.28,1.17-.46.05-.47.22-1.06.82-1.44.59-.37,1.2-.28,1.55-.21.13-.03.26-.05.39-.06.11-.3.31-.59.66-.81.27-.17.55-.25.8-.29.13-.29.33-.6.69-.83.25-.16.49-.24.73-.26.09-.36.28-.7.68-.96.45-.3.92-.34,1.2-.36h0c.4-.18.8-.17,1.14-.09-.04-.57.06-1.21.69-1.65.46-.32.94-.34,1.32-.29.11-.14.26-.29.44-.42.09-.06.16-.13.24-.2.07-.06.14-.12.21-.18.1-.29.29-.77.77-1.11.49-.35,1.01-.35,1.42-.28.1-.12.23-.25.39-.36.29-.21.59-.3.86-.34.11-.27.29-.56.6-.79.05-.04.09-.09.14-.14.13-.14.31-.33.54-.51.09-.07.18-.15.27-.23.14-.13.29-.25.44-.36.49-.37,1.01-.37,1.45-.27-.03-.52.06-1.13.63-1.57.63-.49,1.33-.37,1.73-.29.24-.07.5-.08.66-.09.01-.02.02-.03.03-.05.02-.42.08-1.1.69-1.59.39-.31.79-.39,1.16-.38.1-.19.25-.39.46-.56.16-.13.32-.22.48-.28.02-.39.14-.82.51-1.17l.03-.06c.11-.2.29-.5.6-.77.44-.38.95-.44,1.25-.47.3-.17.6-.23.79-.28.31-.2.63-.28.85-.33.04-.04.09-.09.13-.13.02-.02.04-.04.06-.06.05-.33.18-.83.61-1.23.14-.13.3-.23.45-.3-.02-.42.09-.88.49-1.26l.57-.59c.08-.15.18-.37.35-.59-.22.16-.49.27-.83.29-.47.02-.83-.13-1.12-.37-.21.12-.45.21-.75.23-.49.03-.88-.16-1.17-.37-.2.09-.43.16-.7.17-.3.02-.55-.04-.77-.14-.26.24-.61.43-1.07.45-.71.04-1.17-.35-1.48-.71-.12.03-.26.05-.41.06-.14,0-.28.02-.42.03-.17.01-.34.02-.51.03-.46.01-.79-.11-1.03-.19l-.06-.02s-.04,0-.06,0c-.26.61-.69,1.3-1.61,1.33-.76.03-1.22-.39-1.49-.63-.29-.09-.52-.25-.71-.43-.18.08-.39.13-.63.14-.11,0-.21.02-.32.03-.17.02-.34.04-.51.05l-.08.03c-.22.08-.54.21-.95.22-.3.02-.56-.06-.78-.17-.26.25-.61.44-1.07.45-.22,0-.4-.02-.56-.05-.28.27-.7.57-1.3.58-.46,0-.82-.16-1.09-.4-.21.13-.47.21-.78.21-.41,0-.72-.09-.94-.16-.03,0-.06-.02-.08-.03-.28,0-.53-.06-.71-.09-.06-.01-.11-.03-.17-.03-.9,0-1.4-.69-1.68-1.15-.02,0-.03,0-.04,0-.06-.01-.11-.03-.16-.03-.09,0-.22,0-.34.02-.27.32-.75.78-1.48.79-.13,0-.25-.01-.36-.03-.28.54-.72,1.02-1.5,1.02-.5.02-.9-.21-1.18-.49-.2.09-.43.15-.69.15-.7.04-1.17-.4-1.46-.85-.06.01-.13.03-.19.04h-.03c-.23.13-.62.32-1.12.33-.13-.02-.23,0-.33-.02-.29.46-.75.96-1.54.97-.47,0-.84-.16-1.06-.25l-.05-.02c-.55-.05-.92-.35-1.18-.71-.11.04-.23.06-.35.07l-.05.02c-.22.1-.6.26-1.06.26-.24,0-.47-.03-.7-.07-.31-.05-.61-.05-.85-.15-.28.34-.68.6-1.25.6h0c-.68,0-1.11-.37-1.39-.78-.14.04-.31.05-.47.06-.15,0-.29-.02-.41-.05-.29.46-.74.84-1.47.86-.1,0-.19.01-.29.02-.21.02-.43.04-.64.04-.74,0-1.18-.46-1.47-.91-.3.33-.72.6-1.31.61-.69-.01-1.13-.41-1.42-.79-.3.39-.74.7-1.37.7-.27,0-.51-.07-.71-.16-.28.23-.62.42-1.16.41-.6-.01-1.02-.33-1.31-.64-.16.04-.35.06-.54.06-.36,0-.66-.13-.9-.28-.17.11-.38.2-.61.24-.24.15-.67.45-1.29.41-.31,0-.57-.09-.79-.18-.27.17-.64.32-1.07.3-.78-.03-1.21-.52-1.49-1.04-.11.02-.22.02-.33.02-.2,0-.39-.03-.59-.05-.11-.01-.23-.03-.34-.03-.3-.01-.55-.09-.76-.21-.28.21-.63.37-1.1.35-.12,0-.24,0-.36,0-.08,0-.17,0-.25,0-.26.16-.69.4-1.27.38.05,0,0,.02-.04.03-.21.05-.53.13-.89.11-.68-.03-1.11-.43-1.39-.8-.1.01-.2.02-.31.02l-.07.02c-.23.07-.58.19-.99.16-.41-.02-.73-.17-.98-.38-.24.13-.53.21-.87.19-.09,0-.19,0-.29.01-.22.01-.43.02-.65.01-.59-.03-.98-.34-1.25-.69-.31.37-.78.81-1.54.75-.56-.03-.95-.32-1.22-.63-.31.37-.8.8-1.57.77-.66-.05-1.07-.43-1.33-.85-.31.31-.77.63-1.44.59.02,0-.03.02-.08.03-.21.04-.51.09-.85.07-.86-.07-1.27-.69-1.5-1.28-.08,0-.17,0-.25,0-.51-.04-.89-.29-1.13-.47-.33.52-.86,1.06-1.71.99-.69-.06-1.12-.5-1.37-.77-.26-.09-.47-.22-.61-.31h-.02c-.28-.07-.51-.2-.69-.32-.25.1-.56.18-.92.14-.08,0-.16,0-.24,0-.23,0-.46.02-.69,0-.06,0-.14,0-.21,0-.03,0-.06,0-.1,0-.31.31-.85.79-1.64.71-.58-.06-.98-.38-1.2-.55-.19-.06-.35-.14-.49-.25-.18.11-.39.19-.62.22-.28.17-.78.46-1.42.38-.34-.04-.61-.15-.81-.23-.05-.02-.1-.04-.15-.05-.45-.06-.77-.28-1-.57-.22.08-.47.11-.76.08-.1-.01-.2-.01-.31-.02-.21,0-.42-.01-.62-.04-.86-.12-1.24-.79-1.45-1.35-.31.2-.72.35-1.21.28-.21-.03-.4-.08-.6-.13-.1-.03-.21-.05-.31-.07-.09-.01-.17-.03-.24-.05-.37.48-.9.99-1.77.85-.73-.12-1.12-.65-1.35-1.04-.12-.01-.24-.03-.36-.05-.29-.05-.53-.17-.73-.31-.22.12-.47.21-.76.23-.27.13-.77.35-1.37.24-.79-.15-1.18-.78-1.38-1.14-.24-.14-.41-.3-.53-.41-.11-.04-.22-.09-.31-.14-.32.17-.76.31-1.27.21-.39-.08-.68-.25-.88-.37h-.03s-.04-.01-.06-.01c-.21,0-.51.02-.85-.05-.23-.05-.42-.14-.59-.23-.33.18-.78.34-1.32.21-.58-.14-.95-.53-1.15-.75,0,0,0,0-.01,0-.4.43-.93.76-1.67.57-.5-.13-.8-.42-1-.77-.22.04-.46.04-.72-.03-.63-.17-.97-.63-1.17-.93-.09-.04-.17-.08-.26-.12-.06-.03-.12-.06-.19-.09-.38-.11-.66-.31-.84-.43l-.07-.05c-.09-.03-.19-.05-.28-.08-.18-.05-.36-.1-.54-.15-.39-.12-.67-.36-.86-.6-.26.04-.56.04-.89-.07-.16-.05-.31-.12-.43-.19-.38.21-.93.4-1.55.18-.35-.12-.6-.33-.78-.56-.3.07-.64.08-1.01-.06-.48-.18-.76-.53-.93-.87-.42.29-1.12.69-1.93.34-.48-.21-.74-.55-.88-.93-.23,0-.48-.03-.74-.15-.21-.1-.42-.23-.62-.36-.07-.05-.13-.1-.2-.13-.51-.24-.77-.66-.93-.93,0,0-.02,0-.03-.01-.2-.08-.39-.16-.57-.25-.16-.09-.3-.19-.41-.3-.46.24-1.02.35-1.61,0-.37-.21-.6-.5-.75-.72-.24-.04-.56-.12-.89-.32-.5-.31-.71-.79-.8-1.19-.18-.06-.37-.14-.55-.27-.5-.35-.67-.83-.71-1.28-.55.23-1.22.35-1.85-.16,0,0-.05-.01-.1-.03-.21-.1-.5-.23-.77-.47-.35-.3-.51-.67-.6-.97-.23-.09-.51-.22-.76-.47-.29-.28-.43-.61-.48-.92-.31-.07-.62-.22-.89-.51-.43-.48-.49-1.05-.51-1.37-.09-.17-.13-.34-.16-.51-.21-.05-.41-.13-.6-.27-.36-.08-1-.23-1.41-.84-.45-.67-.27-1.36-.08-1.84-.47-.08-.97-.3-1.28-.88-.15-.29-.2-.57-.2-.83-.34-.16-.69-.42-.89-.88-.23-.55-.15-1.05-.1-1.35h0c-.06-.29-.04-.54,0-.76-.21-.2-.43-.47-.55-.85-.27-.89.25-1.54.7-1.96-.29-.22-.59-.56-.7-1.07-.03-.14-.05-.28-.06-.42-.38-.23-.9-.63-1.01-1.35,0-.01-.03-.06-.05-.11-.08-.21-.19-.49-.24-.83-.1-.82.39-1.34.85-1.69,0-.04-.02-.08-.03-.12v-.02c-.14-.23-.37-.61-.39-1.12,0-.14,0-.27.02-.39-.5-.28-.99-.72-1-1.49,0-.4.11-.71.3-.96-.19-.25-.31-.56-.3-.96.01-.93.72-1.39,1.22-1.65-.19-.29-.37-.69-.33-1.18.04-.51.27-.89.41-1.11v-.02c.03-.07.04-.14.07-.2-.38-.35-.75-.86-.64-1.59.01-.09.01-.19.02-.28,0-.24.02-.47.06-.69.09-.54.4-.9.58-1.12l.02-.02c.21-.58.69-.87,1.14-1.03,0-.13.03-.26.06-.39l.08-.31s.01-.06.02-.09c-.17-.28-.37-.71-.34-1.22-.12-.32-.32-.91-.07-1.55.28-.72.91-1,1.27-1.15.14-.15.3-.26.46-.35-.01-.17,0-.36.05-.55-.04-.31-.1-.87.21-1.42.39-.69,1.06-.84,1.58-.87-.03-.32-.04-.77.21-1.22v-.03c.05-.27.13-.72.46-1.14.34-.44.79-.61,1.05-.72h.02c.09-.09.18-.15.28-.2-.08-.47-.03-1.01.42-1.47.42-.44.95-.55,1.24-.61.38-.26.79-.32,1.05-.35.18-.12.35-.2.48-.26.04-.02.08-.04.12-.06.02-.03.1-.1.18-.18.15-.14.3-.29.46-.42.06-.05.12-.11.17-.17.02-.03.05-.05.07-.07,0-.44.09-1.17.73-1.64.43-.32.89-.38,1.16-.41h.03c.39-.2.78-.2,1.12-.14-.02-.58.07-1.33.81-1.78.17-.11.36-.2.56-.29.06-.03.12-.06.18-.09l.02-.02c.16-.21.4-.53.81-.75.42-.23.84-.26,1.09-.28h.06c.52-.21.99-.11,1.39.09.07-.06.14-.12.22-.18v-.02c.17-.22.45-.58.93-.8.2-.09.39-.14.57-.15.12-.44.38-.88.94-1.12.48-.2.92-.17,1.19-.15h.03c.19-.05.37-.08.53-.08.18-.28.47-.61.93-.79.41-.16.77-.14,1.09-.02.17-.22.4-.4.72-.52.34-.12.64-.12.92-.06.17-.28.44-.52.84-.65.31-.1.6-.11.86-.05.18-.29.46-.55.89-.69.52-.17.96-.06,1.31.17.16-.14.36-.26.61-.33.43-.13.82-.06,1.14.06.19-.16.42-.31.72-.39.07-.02.14-.06.22-.09.17-.08.34-.15.52-.21l.05-.03c.2-.15.51-.38.94-.49.56-.14,1.03.02,1.38.23.16-.09.34-.18.55-.23.08-.02.16-.05.23-.09.21-.09.43-.17.66-.22.36-.09.68-.04.95.06.21-.23.49-.42.87-.5.68-.16,1.22.14,1.55.36.03,0,.07,0,.1-.01.02,0,.04,0,.06,0,.21-.21.57-.51,1.09-.62.31-.06.59-.04.83.03.1-.11.22-.22.36-.31.2-.35.59-1,1.39-1.15,1.09-.2,1.67.65,2.06,1.3.08-.06.16-.13.26-.19.17-.35.45-.89,1.04-1.15.22-.24.62-.65,1.25-.75.64-.11,1.11.16,1.46.49.14-.07.31-.13.5-.15.58-.09,1.03.12,1.34.31.16-.06.35-.11.57-.15.49-.07.91.06,1.16.15h.02c.16,0,.3,0,.43,0,.15-.15.35-.32.61-.45.23-.32.65-.84,1.4-.94.35-.04.66,0,.88.03.05,0,.1.02.14.02.52-.08,1,.17,1.26.31.28.03.52.12.73.25.21-.14.46-.25.77-.28.34-.04.63.02.87.11.14-.11.29-.22.48-.29.24-.26.66-.7,1.34-.77.11-.01.23-.03.34-.06.19-.03.38-.07.58-.09.57-.06,1.01.16,1.31.37.06-.02.14-.04.21-.06.24-.21.65-.56,1.25-.62.56-.05.97.16,1.29.43.25-.45.67-1,1.46-1.07.41-.04.75.05.97.11l.08.02c.61-.02.99.26,1.29.56.25-.5.65-.93,1.37-.99.4-.03.73.08,1,.22.23-.14.51-.27.86-.29.7-.04,1.15.3,1.47.73.13-.05.28-.08.43-.09.53-.04.97.18,1.26.38.17-.05.38-.1.61-.11.49-.02.88.13,1.14.27.19-.05.44-.12.73-.13-.03,0,.02-.02.06-.04.21-.07.49-.17.85-.19.13,0,.25,0,.36.01.27-.45.7-.93,1.45-.97.53-.03.95.19,1.25.46.26-.52.69-1.07,1.51-1.11.78-.05,1.23.41,1.54.83.11-.02.23-.04.35-.05.11,0,.22-.02.34-.03.19-.03.39-.05.59-.06.24-.01.45.03.64.09.27-.29.66-.55,1.2-.57.41-.01.74.08.96.15.03,0,.06.02.08.03.44,0,.79.18,1.05.37.2-.09.44-.16.71-.17.37-.01.66.09.91.23.25-.18.56-.32.95-.33.17,0,.34,0,.51,0h.42c.24-.02.45.02.64.08.28-.26.67-.52,1.21-.53.63-.04,1.09.32,1.4.69.27-.38.67-.75,1.29-.79.03,0,.05-.02.08-.03.22-.08.54-.2.95-.21.34,0,.62.08.86.22.26-.2.58-.35,1-.35.18,0,.37,0,.56.01.13,0,.25,0,.38,0,.36.01.65.07.86.13.05.01.09.03.14.03.37,0,.71.13.96.31.23-.12.5-.21.82-.21.36,0,.65.09.88.2.25-.15.58-.28.98-.29.41-.02.76.14,1.02.35.23-.14.5-.24.84-.24h.01c.77,0,1.25.48,1.53.81.07.01.14.03.2.04.06.01.11.03.16.03.16-.03.27.01.39.04.29-.39.73-.79,1.42-.79.14,0,.35.03.5.07.29-.4.71-.74,1.36-.74.73,0,1.19.44,1.48.87.29-.27.72-.58,1.33-.58.68,0,1.13.37,1.41.66.15,0,.31,0,.46,0,.37,0,.67.11.91.25.25-.15.56-.27.95-.27h0c.3,0,.56.05.75.09.04,0,.08.02.13.03.02,0,.04-.01.06-.02.22-.07.56-.16.94-.18h0c.08,0,.17-.02.25-.03.22-.03.41-.04.67-.05.62,0,1.06.33,1.34.57.18,0,.35-.01.53-.01.1,0,.2,0,.3.02.29-.42.76-.93,1.54-.93h.02c.61,0,1.02.31,1.3.67.28-.3.75-.74,1.47-.74h.03c.7.01,1.15.42,1.42.7.3-.38.74-.69,1.37-.69,1.02.02,1.46.87,1.71,1.5.04,0,.07,0,.11,0,.23,0,.46.04.69.08.08.01.16.03.24.04,0,0,.05-.02.1-.03.11-.02.23-.05.38-.07.22-.18.56-.44,1.03-.52.17-.11.43-.28.77-.37.28-.26.77-.69,1.48-.65.79.02,1.24.54,1.51.97.27-.17.68-.41,1.25-.4.5.02.87.24,1.13.51.21-.09.44-.14.72-.13.52.02.91.26,1.16.43.3-.49.8-1.05,1.65-1.03.46.02.8.2,1.05.45.22-.11.48-.18.79-.16,1.01.05,1.45.9,1.68,1.41.04.02.08.03.12.05l.08.03s.05,0,.08,0c.3-.52.81-1.19,1.74-1.14.65.03,1.07.41,1.34.76.31-.34.76-.67,1.44-.64.45.03.8.2,1.02.31h.03c.08.01.16.01.23.01.19,0,.37,0,.56.01.32.02.58.1.78.16.06.02.11.03.17.05.49.03.85.28,1.12.55.28-.32.83-.86,1.66-.81.44.03.77.22,1.02.42.23-.09.5-.14.81-.12.74.06,1.17.55,1.42.92.12,0,.24,0,.35.02l.41.03c.12,0,.23.02.35.03h.02c.21-.08.55-.2.98-.19l.09-.02c.16-.04.37-.09.62-.11.26-.15.72-.4,1.31-.34.56.05.95.34,1.18.51.47.13.78.45.99.78.15-.03.32-.04.5-.02.13.01.25.04.37.08.34-.42.82-.81,1.57-.73.23.03.45.08.67.14.08.02.16.05.23.05.59.07.99.39,1.21.58.36.11.63.3.81.43.24.06.44.14.59.2.04.02.09.04.13.05.13.02.26.05.38.09.34-.32.81-.62,1.46-.53.1.01.18,0,.27,0,.08,0,.17,0,.25,0,.28-.17.74-.41,1.3-.37.03,0,.06-.01.09-.02.23-.04.57-.11.97-.05.59.08.98.44,1.21.67.09.02.17.04.26.06.1.03.19.05.29.07.33.05.59.18.79.35.29-.17.64-.27,1.06-.2.35.06.63.2.84.38.28-.12.61-.2,1-.13.35.06.62.18.82.27.04.02.09.04.13.06.17.03.4.1.63.18.07.02.14.05.21.07.15.03.31.07.45.12.33-.24.85-.51,1.49-.39.42.08.72.28.93.54.25-.1.54-.14.88-.07.3.06.55.16.73.24.06.02.12.05.18.07.31.06.56.19.75.34.29-.11.66-.19,1.09-.1.77.17,1.13.76,1.33,1.12.08.05.14.1.21.15.29-.11.65-.17,1.06-.07.43.1.74.34.96.57.03,0,.06,0,.09-.01.34-.29.99-.82,1.85-.59.41.1.69.32.88.58.26-.08.56-.11.9-.01.4.11.68.33.87.59.27-.08.57-.09.9,0,.5.14.81.47,1.01.79.18-.01.36,0,.56.04h.07c.25-.02.61-.05,1.03.09.5.16.79.49.98.84.22-.02.46,0,.71.08.33.11.57.3.75.49.3-.07.67-.09,1.06.06.44.16.71.45.9.73.24,0,.51.02.79.13.22.09.39.2.53.34.4-.22.88-.31,1.42-.08.61.26.89.77,1.04,1.08,0,0,.02.01.02.02.41-.19.99-.35,1.6-.05.68.33.89.94.95,1.48.42-.16.94-.23,1.5.07.33.18.54.43.67.7.32-.04.67,0,1.03.22.54.32.74.82.81,1.27.17.05.35.12.52.24.18.12.35.26.52.39.06.05.12.1.18.15.03,0,.05.02.08.02.22.07.56.17.89.41.08.06.16.1.25.15.2.12.4.23.57.37.23.17.38.38.48.59.41-.03.84.04,1.24.39.51.44.62,1.04.67,1.37.19.3.25.62.25.92.53-.11,1.3-.16,1.88.49.57.63.45,1.34.23,1.91.39.07.87.24,1.22.71.18.25.28.52.31.77.35.11.72.32.98.74.11.18.18.35.22.53.47.09,1,.3,1.31.9.35.67.15,1.28-.09,1.74.53.1,1.07.36,1.33,1.04.33.84-.11,1.53-.37,1.92,0,.03,0,.07,0,.1.19.13.38.3.53.54.31.2.86.56,1.03,1.28.11.44.03.8-.13,1.11.21.21.38.49.44.86.09.52-.06.96-.18,1.24.06.17.13.39.18.64.01.03.03.05.04.08.11.22.27.55.31.97,0,.09.03.17.05.27.05.23.1.47.12.7,0,.11.02.23.04.35.03.21.05.42.06.62.03.59-.22,1-.57,1.3.06.14.11.3.13.47l.02.05c.1.22.27.6.27,1.07,0,.1.01.21.02.31.02.22.04.43.03.64-.02.96-.77,1.42-1.27,1.68h0c.11.25.27.64.23,1.14,0,.13-.02.25-.03.38.32.32.75.86.65,1.61-.09.7-.54,1.09-.99,1.32.01.15,0,.31-.02.48-.07.41-.25.72-.37.92l-.04.08c-.02.07-.04.13-.06.19.43.4.9,1.02.67,1.86-.14.51-.45.81-.8,1,.04.24.03.51-.07.8-.19.56-.6.88-.84,1.05-.02.04-.04.08-.06.11.22.42.45,1.06.13,1.74-.22.46-.57.73-.78.9l-.04.03c-.27.41-.64.62-.87.75h0c-.39.47-.93.6-1.36.64-.05.11-.11.22-.19.33-.04.06-.07.11-.1.17.24.52.54,1.35-.06,2.12-.01.02-.03.08-.06.13-.08.17-.19.4-.36.62l-.03.07c-.08.25-.21.62-.52.97-.49.54-1.12.6-1.54.6-.11.11-.23.23-.34.34-.15.15-.31.28-.46.42-.03.03-.06.05-.09.08-.09.28-.25.71-.66,1.06-.51.44-1.11.46-1.45.46-.37.17-.72.2-.95.21-.02.01-.04.02-.06.03.02.53-.1,1.15-.7,1.57-.28.19-.55.3-.74.37-.05.02-.11.04-.16.07-.5.33-1.04.31-1.39.27-.07.04-.14.09-.22.13l-.27.16c-.27.16-.52.25-.71.32-.06.02-.12.04-.18.07-.06.03-.12.06-.17.09.02.62-.06,1.47-.9,1.91-.62.33-1.18.19-1.64-.06-.11.1-.25.19-.4.27-.66.32-1.29.12-1.66-.03-.07.02-.14.04-.2.05-.03,0-.06.01-.09.02h0c-.1.11-.24.25-.43.38-.15.33-.43.86-1.07,1.13-.1.04-.19.09-.29.14-.19.1-.37.19-.57.27-.26.11-.51.13-.74.12-.17.33-.45.65-.92.82-.63.23-1.18.04-1.53-.11l-.16.06c-.19.25-.51.63-1.04.81-.48.16-.91.08-1.23-.03-.08.06-.18.13-.29.18-.18.24-.49.64-1.03.84-.03.02-.05.03-.07.05-.19.13-.47.33-.86.45-.27.08-.53.08-.76.04-.2.32-.5.61-.98.74-.9.24-1.51-.28-1.94-.81-.01,0-.03,0-.04.01l-.04.03c-.19.15-.52.4-.97.51-.08.02-.16.06-.24.09-.19.07-.37.14-.57.2-.03.02-.05.03-.08.05-.13.08-.3.18-.51.27-.21.24-.57.64-1.17.77-.05.01-.1.04-.16.07-.18.08-.43.19-.73.25-.45.1-.83,0-1.13-.1-.19.13-.44.26-.75.32-.75.15-1.3-.22-1.67-.61-.18.27-.45.55-.84.71-.21.2-.59.56-1.17.66-.45.08-.82-.02-1.12-.2-.2.17-.45.29-.76.35-.46.08-.86-.02-1.1-.08h-.05c-.17,0-.34-.01-.49-.04-.24.32-.59.62-1.13.71-.39.06-.72-.01-.99-.14-.22.19-.5.35-.87.41-.83.13-1.42-.39-1.73-.69-.05,0-.1-.02-.15-.03-.13.11-.29.23-.48.33-.14.1-.27.18-.38.25-.08.26-.22.63-.53.95-.38.39-.84.51-1.23.53-.03.07-.07.13-.11.2-.03.21-.07.5-.21.81.03.4.06,1.16-.53,1.73-.55.53-1.21.5-1.73.38-.05.35-.17.86-.62,1.27-.16.14-.33.27-.5.39,0,0,0,0,0,0-.08.31-.22.78-.64,1.15-.51.45-1.11.47-1.45.47-.08.04-.16.07-.24.09-.05.38-.2.79-.6,1.12-.26.21-.53.32-.79.36-.07.33-.24.67-.58.95-.64.51-1.34.37-1.86.17-.05.4-.22.85-.66,1.18-.29.22-.6.31-.89.34-.09.25-.24.51-.48.72l-.03.06c-.13.21-.34.54-.7.8-.67.48-1.41.3-1.83.16-.1.35-.3.77-.75,1.07-.36.24-.74.31-1.05.31-.13.21-.32.43-.59.61-.39.25-.78.3-1.11.28-.11.16-.25.32-.43.46l-.03.04c-.14.2-.37.54-.78.79-.18.11-.37.18-.54.22-.08.43-.29.89-.81,1.19-.3.18-.59.26-.8.31-.05.01-.1.03-.15.05-.15.09-.36.18-.57.26-.08.03-.17.06-.25.11-.03.02-.07.06-.12.1-.1.09-.23.21-.39.32-.15.26-.4.68-.9.95-.62.33-1.22.19-1.62.05-.13.07-.25.14-.38.21-.61.31-1.19.18-1.55.08-.05.01-.1.03-.14.03-.15.34-.41.75-.91.99-.52.25-1.03.19-1.31.16-.2.06-.39.08-.56.09-.17.23-.43.51-.81.68-.22.1-.46.17-.69.22-.07.02-.14.03-.21.06.03-.01,0,.02-.03.05-.17.14-.42.34-.76.49-.25.11-.49.15-.7.16-.18.31-.45.64-.93.83-.62.25-1.19.07-1.54-.07,0,0,0,0-.01,0-.1.22-.26.49-.5.71-.14.41-.4,1.13-1.2,1.42-.71.25-1.32-.02-1.66-.19-.06,0-.11,0-.17-.01-.17.36-.46.68-.96.84-.12.04-.23.08-.35.13-.14.05-.27.1-.41.15l-.05.04c-.19.15-.49.39-.91.52-.68.21-1.23-.06-1.63-.36-.17.46-.49.9-1.13,1.07-.12.03-.24.07-.36.11-.18.06-.36.12-.55.16-.66.17-1.17-.07-1.56-.44-.11.06-.22.11-.36.16-.02.01-.05.03-.07.05-.2.13-.49.31-.89.41-.62.15-1.12-.09-1.49-.4-.14.08-.3.14-.48.18-.37.08-.71.03-.97-.04-.1.08-.22.16-.36.23-.22.31-.6.82-1.32.95-.18.03-.37.06-.55.09l-.38.06c-.18.03-.63.07-1.07.1-.3.02-.59.04-.72.06l-7.1,1.03ZM136.6,114.03s-.01,0-.02,0c0,0,.01,0,.02,0ZM141.26,113.46h0,0ZM150.35,110.98s-.01,0-.02,0c0,0,.01,0,.02,0ZM135.12,110.48s0,0-.01,0c0,0,0,0,.01,0ZM142.8,109.86s.04.04.06.06c.01-.03.03-.06.04-.09-.04,0-.07.02-.11.02ZM145.36,109.04c.49,0,.9.23,1.21.48.1-.05.2-.09.32-.13.03,0,.05-.02.08-.03.07-.66.23-1.59,1.2-1.92.95-.32,1.65.29,2.05.64.09-.13.2-.26.33-.37.15-.35.44-.95,1.14-1.21.17-.07.35-.12.53-.17.11-.03.22-.06.34-.11.34-.13.66-.14.94-.1.17-.23.41-.44.75-.58.4-.16.78-.16,1.04-.14.16-.13.39-.3.68-.43.21-.09.42-.15.64-.21.16-.25.44-.6.9-.81.45-.2.87-.19,1.13-.19h.02c.19-.06.37-.09.53-.1.16-.29.4-.6.82-.8.34-.17.66-.22.88-.25.03,0,.06,0,.1-.01.52-.23,1.01-.15,1.35-.07.14-.08.29-.17.44-.25.46-.24.9-.23,1.26-.15.13-.15.3-.3.52-.42.02-.02.07-.06.11-.1.15-.13.35-.31.62-.46.19-.11.39-.19.59-.27.08-.03.17-.06.25-.11.09-.06.19-.1.28-.14.04-.51.19-1.16.85-1.55.41-.24.83-.27,1.15-.25.07-.08.14-.16.23-.24.11-.29.33-.78.84-1.1.39-.25.79-.29,1.13-.27.13-.18.3-.37.53-.52.29-.19.59-.27.86-.29.12-.27.31-.54.63-.76.32-.22.64-.31.85-.38.03,0,.06-.02.09-.03.44-.27.89-.29,1.27-.22.02-.46.13-1.09.72-1.53.26-.2.54-.29.79-.32.09-.3.26-.61.59-.86.27-.2.52-.32.71-.4.05-.02.1-.04.14-.07.32-.25.68-.33.99-.32.09-.23.25-.46.49-.66.27-.22.56-.33.84-.36.08-.29.24-.59.53-.84.58-.49,1.25-.44,1.64-.39.14-.06.28-.09.41-.11.1-.24.25-.5.51-.73.13-.12.28-.23.43-.34.05-.31.15-.75.48-1.12l.02-.05c.1-.22.26-.58.59-.89.4-.37.84-.46,1.26-.44.02-.05.05-.11.08-.16.03-.26.09-.68.36-1.07.06-.28.17-.77.58-1.18.39-.4.87-.5,1.27-.51.08-.15.18-.31.33-.46.25-.27.53-.43.73-.54.05-.03.09-.05.14-.08l.36-.38h.15c.25-.25.62-.56,1.18-.65.52-.08.93.07,1.19.16h.02c.29,0,.47.06.67.14.22-.21.51-.39.9-.45.38-.06.7.01.98.14.21-.19.49-.35.84-.41.59-.09,1.06.11,1.36.27.21-.47.58-.99,1.3-1.12.66-.13,1.15.16,1.52.51.22-.37.58-.78,1.21-.9.09-.02.18-.05.26-.08.21-.07.41-.14.62-.18.77-.15,1.32.24,1.69.64.09-.04.19-.07.3-.09.53-.11.98.03,1.28.17.08-.03.16-.07.25-.1.2-.23.53-.58,1.06-.74.03-.02.05-.03.08-.05.19-.12.47-.29.85-.38.09-.02.17-.06.25-.09.15-.06.31-.12.46-.17l.03-.02c.15-.11.38-.29.68-.42.2-.2.53-.52,1.06-.66.59-.16,1.06.02,1.43.31.14-.09.3-.17.48-.22.59-.17,1.09.01,1.44.21.03-.02.07-.04.11-.06.16-.22.44-.57.9-.78l.02-.02c.18-.17.49-.46.95-.61.41-.13.78-.09,1.08,0,.17-.16.4-.32.69-.42l.86-.3c.23-.08.45-.1.65-.1.17-.34.44-.67.91-.85.61-.23,1.14-.07,1.52.09.14-.3.39-.72.87-.98l.04-.04c.17-.17.42-.43.82-.61.22-.1.45-.16.68-.22.06-.02.12-.03.18-.05.33-.15.65-.18.94-.15.15-.22.36-.44.67-.59.34-.17.66-.2.95-.16.13-.24.33-.46.64-.63.21-.11.43-.2.64-.27.06-.02.13-.04.19-.07.25-.14.49-.23.67-.29.06-.02.12-.04.17-.06l.28-.17c.16-.09.31-.19.47-.28.41-.26.83-.3,1.16-.28-.05-.56.01-1.25.66-1.72.51-.37,1.05-.37,1.38-.37.34-.15.67-.17.89-.19.23-.11.46-.17.66-.2.1-.2.24-.42.45-.62.11-.1.22-.2.33-.29.11-.1.23-.2.33-.3.21-.2.42-.42.62-.62.38-.39.84-.51,1.22-.55.07-.15.17-.32.3-.47,0,0,.02-.04.03-.08-.23-.5-.55-1.33,0-2.09.07-.09.12-.19.17-.28.08-.15.17-.29.27-.44,0-.02.02-.06.04-.11.06-.17.15-.41.31-.66.48-.77,1.29-.83,1.78-.85.15-.11.29-.2.4-.26.03-.04.06-.08.09-.12-.17-.39-.27-.89-.03-1.44.08-.2.19-.38.3-.57.04-.07.09-.13.12-.2.04-.11.1-.22.15-.31-.28-.39-.5-.92-.3-1.55.12-.39.35-.66.62-.84-.05-.22-.06-.47,0-.75.09-.38.26-.66.38-.84l.04-.06c.05-.19.12-.36.19-.5-.13-.28-.26-.67-.19-1.14.08-.5.34-.84.65-1.07-.05-.18-.07-.38-.05-.61l.03-.32c.01-.12.03-.23.04-.35-.11-.24-.27-.62-.24-1.11.01-.2.04-.4.08-.61.02-.09.04-.18.04-.27.03-.85.64-1.3,1.12-1.57,0-.01,0-.03,0-.04l-.02-.04s-.05-.1-.07-.16c-.53-.24-1.47-.67-1.5-1.73-.04-1.12.92-1.58,1.65-1.87,0,0,0,0,0,0,0-.09-.03-.19-.05-.28-.04-.17-.07-.34-.09-.5-.01-.02-.02-.05-.04-.07-.1-.21-.25-.52-.3-.91,0-.03-.03-.09-.06-.15-.06-.18-.15-.43-.2-.72-.02-.11-.02-.22-.02-.32-.49-.2-.99-.55-1.14-1.26-.12-.6.09-1.06.39-1.42-.35-.19-.78-.51-.96-1.1-.18-.57-.03-1.08.07-1.37,0-.02,0-.05,0-.07-.43-.13-.83-.39-1.06-.92-.21-.49-.17-.94-.14-1.21-.06-.24-.06-.46-.03-.68-.22-.13-.43-.32-.59-.6-.1-.17-.16-.34-.2-.5-.37-.09-.78-.28-1.08-.72-.17-.25-.25-.5-.28-.74-.25-.09-.51-.23-.73-.47l-.06-.03c-.19-.11-.47-.29-.72-.59-.32-.38-.4-.79-.37-1.17-.05-.03-.11-.05-.16-.08-.37-.06-.84-.17-1.24-.56-.51-.5-.54-1.12-.48-1.6-.38.04-.82-.03-1.22-.36-.56-.45-.65-1.07-.65-1.53-.06-.04-.12-.08-.18-.11l-.08-.03c-.21-.06-.54-.16-.86-.38-.14-.1-.29-.22-.43-.33-.33.03-.81.02-1.28-.28-.22-.14-.39-.31-.51-.5-.35.08-.74.05-1.14-.18-.43-.24-.64-.6-.75-.96-.21-.02-.42-.07-.64-.19-.07-.04-.15-.06-.23-.09-.2-.07-.4-.15-.6-.24-.47-.23-.7-.6-.82-.99-.2-.01-.4-.06-.61-.16-.34-.16-.58-.38-.74-.53-.02-.02-.05-.04-.07-.07-.05-.03-.11-.06-.15-.09-.47.38-1.08.69-1.83.38-.6-.25-.86-.73-1-1.17-.14-.02-.28-.05-.42-.11-.35-.13-.59-.35-.77-.57-.27.05-.59.05-.92-.07-.25-.09-.45-.22-.61-.37-.33.12-.74.18-1.18.03-.7-.23-.99-.8-1.13-1.29-.3.1-.79.23-1.34.07-.27-.08-.49-.22-.66-.38-.32.14-.7.21-1.14.08-.29-.08-.52-.22-.69-.4-.31.15-.68.21-1.1.1-.55-.15-.87-.5-1.06-.89-.09,0-.19,0-.28,0-.27.08-.72.21-1.26.08-.33-.08-.59-.24-.78-.41-.28.09-.61.15-1,.06-.62-.14-.98-.56-1.18-.8-.22-.11-.4-.27-.54-.42-.23.06-.51.08-.8.02-.46-.1-.79-.34-1-.54-.38.51-.97,1.07-1.86.9-.7-.14-1.05-.61-1.25-1.11-.13,0-.26,0-.4-.03-.23-.04-.46-.12-.68-.2-.07-.03-.14-.06-.2-.07-.22-.04-.45-.11-.67-.19-.07-.03-.14-.05-.21-.07-.18-.03-.35-.08-.49-.14-.33.23-.8.47-1.4.36-.15-.02-.29-.07-.41-.12-.35.37-.84.68-1.51.57-.97-.15-1.32-1.01-1.5-1.57-.04,0-.07-.02-.11-.02-.48-.07-.82-.31-1.06-.52-.09.01-.18.02-.28.03-.29.18-.78.45-1.42.37-.06,0-.13,0-.2,0-.33.4-.89.98-1.77.87-.54-.07-.91-.35-1.14-.52-.23-.06-.41-.13-.56-.19-.04-.02-.09-.04-.13-.05-.46-.05-.83-.32-1.06-.49h0c-.35-.1-.62-.28-.81-.43-.33.49-.87,1.06-1.74.97-.34-.04-.62-.16-.83-.3-.26.12-.59.23-1,.18-1.02-.1-1.4-.99-1.61-1.49-.01,0-.03-.01-.04-.02-.23.1-.52.18-.88.18l-.08.02c-.19.05-.49.11-.79.11h-.04c-.23.09-.61.22-1.08.19l-.92-.07c-.13-.01-.25-.01-.38-.02-.18,0-.36,0-.54-.02-.51-.04-.87-.29-1.13-.56-.2.06-.42.09-.67.07-.31-.02-.56-.12-.78-.25-.17.11-.37.2-.61.25-.27.19-.75.5-1.41.47-.82-.06-1.27-.66-1.51-1.05-.04-.01-.08-.02-.11-.03-.06-.02-.11-.04-.17-.05-.09,0-.21,0-.34,0-.19,0-.37,0-.56-.01-.14,0-.28-.03-.4-.06-.32.36-.8.73-1.49.69-.21-.01-.43-.05-.65-.09-.09-.02-.18-.04-.27-.04-.23-.01-.43-.07-.61-.15-.3.3-.71.52-1.25.49-.22-.01-.45-.05-.67-.1-.08-.02-.16-.04-.24-.04-.39-.02-.71-.15-.92-.23-.03-.01-.05-.02-.08-.03-.33-.03-.59-.15-.8-.32-.25.16-.55.28-.94.25-.43-.02-.76-.18-1-.41-.23.13-.52.2-.83.19-.3-.01-.56-.08-.75-.13-.06-.01-.12-.03-.18-.04-.23,0-.43-.06-.61-.13-.3.25-.69.47-1.24.45-.65-.03-1.07-.39-1.35-.77-.14.03-.3.05-.47.05-.1,0-.2,0-.3.01-.21.02-.42.03-.63.02-.53-.02-.91-.26-1.18-.55-.09.03-.18.06-.27.07-.18.12-.46.3-.82.38-.27.22-.79.57-1.42.57,0,0-.05.02-.1.03-.21.05-.5.11-.83.1-.23,0-.45-.04-.68-.08-.08-.01-.16-.03-.24-.04-.11,0-.22,0-.34.01-.2.01-.39.02-.59.02-.46-.01-.79-.18-1.05-.43-.22.12-.45.19-.79.19-.75-.02-1.22-.48-1.48-.76-.1-.04-.19-.08-.28-.13-.11.08-.24.14-.37.2-.28.31-.78.8-1.58.83-.51,0-.87-.22-1.14-.5-.2.09-.43.15-.7.14-.23,0-.47-.04-.7-.08-.08-.01-.15-.03-.22-.03-.13,0-.26,0-.39.01-.18,0-.37.02-.54.01-.6,0-1.02-.3-1.3-.54-.16.02-.31.03-.47.04-.03,0-.06.02-.08.03-.21.07-.54.18-.93.18-.16,0-.39-.02-.55-.05-.28.26-.73.55-1.32.55-.63,0-1.07-.34-1.35-.59-.17,0-.34.01-.51.01-.37,0-.68-.12-.93-.27-.21.13-.47.24-.78.27l-.05.02c-.23.1-.58.25-1.04.25-.29,0-.54-.07-.76-.18-.27.26-.62.44-1.1.44-.33.02-.53-.07-.74-.17-.27.25-.63.43-1.11.44h-.01c-.54,0-.95-.23-1.19-.37-.21-.02-.39-.06-.53-.09-.05-.01-.11-.03-.16-.03-.19,0-.42-.04-.6-.11-.28.3-.67.55-1.21.55h-.02c-.72,0-1.17-.43-1.46-.87-.12.03-.24.04-.38.04-.3-.01-.56-.07-.78-.16-.26.19-.61.36-1.07.37-.76,0-1.25-.46-1.52-.76-.11-.02-.2-.05-.28-.07-.05-.01-.09-.03-.14-.03-.06,0-.14,0-.23,0-.28.4-.74.92-1.53.93-.5,0-.91-.21-1.2-.46-.27.48-.73,1.05-1.56,1.07-.12,0-.25.01-.38.02-.18.01-.36.03-.54.03-.55,0-.93-.21-1.22-.5-.19.08-.4.14-.64.14-.49.03-.94-.19-1.19-.33h-.07c-.27.38-.72.88-1.49.91-.55.04-.96-.22-1.26-.48-.18.07-.38.12-.6.12-.68.03-1.13-.32-1.42-.59-.28.36-.7.72-1.35.75-.6.02-1.03-.24-1.31-.45-.13.02-.25.03-.38.04h-.02c-.22.13-.59.32-1.07.34-.3.02-.57-.05-.8-.16-.25.24-.58.42-1.04.44-.09,0-.17.03-.25.04-.22.04-.44.08-.67.09-.29.02-.54-.04-.75-.13-.26.26-.6.46-1.07.49-.46.02-.81-.11-1.06-.22-.2.07-.47.15-.79.17-.03,0-.09.03-.15.04-.19.05-.45.13-.77.15-.48.04-.85-.12-1.11-.25-.19.06-.44.13-.74.15-.26.01-.49-.02-.69-.09-.26.27-.63.51-1.13.54-.83.07-1.34-.47-1.66-1.03-.08.02-.17.03-.26.04-.1,0-.19,0-.28,0-.24.6-.64,1.18-1.48,1.25-.63.05-1.11-.25-1.38-.42-.49-.09-.84-.39-1.1-.68-.2.27-.47.52-.85.65-.23.2-.65.56-1.26.62-.64.06-1.1-.24-1.43-.57-.14.05-.3.09-.47.11,0,0-.05.02-.1.04-.2.07-.47.17-.81.2-.61.06-1.08-.21-1.38-.43-.03,0-.05,0-.07.01-.17.18-.41.41-.74.56-.24.3-.65.78-1.38.87-.31.03-.6-.02-.84-.1-.24.21-.55.39-.97.44-.85.11-1.42-.45-1.72-.77-.25-.06-.46-.17-.6-.24-.08,0-.15,0-.21-.01-.18.21-.42.44-.77.59-.23.25-.63.66-1.29.75-.3.04-.57.02-.76.01-.06,0-.11-.01-.18,0-.44.06-.81-.04-1.06-.12,0,0,0,0,0,0-.19.07-.45.17-.76.22-.33.05-.63,0-.88-.09-.23.21-.53.39-.93.46-.63.09-1.09-.15-1.44-.48-.18.31-.45.66-.89.85-.21.23-.6.62-1.22.73-.3.05-.57.04-.76.04-.06,0-.12,0-.18,0-.66.12-1.14-.16-1.5-.55-.22.35-.59.77-1.21.89-.45.09-.83,0-1.13-.15-.19.13-.42.25-.7.31-.2.04-.39.07-.59.09-.11.01-.22.02-.32.05-.27.06-.52.05-.75,0-.21.28-.52.54-.98.64-.71.16-1.26-.16-1.62-.45-.02,0-.04.01-.06.02-.21.21-.54.54-1.07.67-.62.15-1.11-.06-1.47-.3-.13.07-.28.13-.45.18-.08.02-.15.06-.22.09-.07.03-.14.06-.21.09-.2.3-.53.75-1.15.92-.18.05-.35.06-.5.07-.17.44-.48.85-1.07,1.03-.56.17-1.01.03-1.38-.23-.14.11-.3.2-.5.26-.22.07-.43.09-.62.08-.16.38-.45.72-.95.89-.34.12-.64.12-.91.05-.17.25-.41.46-.76.59-.74.28-1.34-.03-1.79-.42-.08.05-.16.09-.25.13-.44.18-.85.16-1.1.15h-.04s-.06.02-.09.02c-.07.54-.29,1.18-1,1.5-.49.22-.95.17-1.31.05,0,0,0,0,0,0-.11.38-.33.98-.99,1.31-.96.48-1.8-.14-2.26-.5-.01,0-.03,0-.04,0-.15.19-.36.43-.68.61-.04.03-.09.05-.14.08.04.54,0,1.3-.61,1.79l-.02.03c-.13.19-.34.52-.72.77-.66.44-1.33.27-1.8.09-.08.35-.25.72-.63,1.01-.07.05-.12.12-.18.18-.14.15-.29.3-.45.43-.1.08-.19.17-.28.26-.12.11-.23.22-.35.33-.27.23-.54.36-.73.45-.03.01-.06.03-.09.04-.37.31-.79.41-1.08.46.13.51.15,1.11-.34,1.65-.52.58-1.24.6-1.64.59-.08.05-.16.09-.23.12-.03.11-.06.23-.11.36.04.34.08.91-.28,1.44,0,0-.01.05-.03.1-.06.18-.15.43-.31.69-.28.45-.67.66-1.06.75.16.39.3.95.02,1.54-.39.82-1.19.97-1.66,1.05-.06.05-.11.09-.17.13,0,.05,0,.1.01.15.22.35.56.96.33,1.7-.05.15-.08.29-.11.43,0,.02-.01.05-.02.07.12.33.23.76.11,1.24-.25,1.03-1.25,1.27-1.8,1.4-.03.05-.07.09-.1.13.44.34,1.02.89.92,1.77-.06.52-.32.89-.48,1.11-.03.13-.07.24-.12.35.19.28.36.66.34,1.15-.02.41-.15.72-.24.93l-.03.07c-.01.12-.04.22-.07.32.41.28.72.69.72,1.33,0,.5-.19.86-.48,1.13.09.18.15.4.16.65.02.47-.15.84-.33,1.11.05.12.1.27.13.42h0c.14.22.38.59.42,1.1.07.71-.29,1.19-.69,1.52.31.23.62.58.71,1.12.02.13.04.25.05.38.34.21.77.56.92,1.18.05.23.08.45.09.68,0,.06,0,.12.02.18.19.69-.09,1.22-.44,1.62.04.08.09.17.12.27.2.59.05,1.12-.05,1.42,0,.03,0,.05,0,.08.39.14.81.39,1.06.91.08.16.12.31.15.46.42.09.85.31,1.14.8.3.53.26,1.06.22,1.37.07.23.08.45.06.66.54-.07,1.31-.06,1.84.61.5.64.37,1.33.22,1.82.34.05.7.18,1.02.51.41.43.49.93.48,1.35.13.07.26.16.39.28.28.25.43.55.52.81.6-.34,1.48-.73,2.29-.1l.31.25c.12.1.24.19.36.29.59.43.7,1.06.68,1.57.09.04.17.09.26.15.48.32.67.77.76,1.15.16.05.32.12.49.22.05.03.09.06.14.09.53-.38,1.25-.72,2.04-.29.63.34.83.95.91,1.39.1.04.2.09.29.14.42.21.68.55.83.81.47-.35,1.14-.71,1.92-.36.57.25.82.7.92,1.17.03,0,.05,0,.08,0,.3-.08.83-.2,1.4.03.38.15.62.39.8.65.26-.04.54-.03.85.09.32.12.56.31.73.51.29-.08.63-.09.99.03.22.08.4.18.55.27.32-.11.77-.2,1.27-.04.61.19.92.65,1.11.98.14.04.29.08.44.12.37.11.65.3.83.43.02.02.05.03.07.05.19.06.38.15.56.24.06.03.13.07.19.09.16.04.3.11.42.18.38-.28.87-.49,1.49-.33.28.07.49.2.66.35.32-.18.69-.26,1.15-.15.82.2,1.15.91,1.32,1.33.32-.15.72-.26,1.19-.15.43.1.74.32.95.49.21,0,.48-.01.79.05.21.05.39.12.55.19.32-.18.77-.35,1.32-.24.45.09.78.33.98.46l.04.03c.46.14.76.42.96.6.3.12.53.32.71.52.34-.35.93-.88,1.78-.72.66.12,1.05.58,1.27.92.14.02.27.03.41.06.2.03.38.1.53.18.34-.29.77-.5,1.35-.41.44.07.75.26.96.39l.04.03c.07.01.15.03.22.05.33-.29.86-.64,1.55-.54.33.05.59.15.79.23.05.02.1.04.15.06.67.09,1.03.54,1.26,1.01.33-.3.78-.55,1.38-.46.97.13,1.33.93,1.53,1.53.09-.04.2-.09.31-.12.31-.37.87-1.01,1.8-.9.79.09,1.21.68,1.44,1.05.31-.23.74-.42,1.25-.36.07,0,.14,0,.21-.01.24-.02.48-.03.72,0,.08,0,.16,0,.24,0,.11,0,.22,0,.33,0,.27-.15.72-.38,1.3-.33.62.06,1.03.42,1.26.63.31.09.55.24.7.34h.02c.06.03.11.04.16.06.33-.42.8-.78,1.51-.72.41.04.73.18.94.28l.07.03c.29.04.53.15.73.26.26-.12.6-.22.98-.19.81.06,1.22.62,1.46,1.18.24-.19.54-.36.92-.41.25-.13.69-.36,1.27-.32.52.04.88.29,1.14.6.15-.05.31-.08.49-.09l.05-.02c.22-.08.59-.21,1.05-.18.34.02.62.14.84.29.17-.11.36-.19.57-.23.27-.18.73-.51,1.38-.45.74.04,1.17.52,1.43.98.3-.27.73-.53,1.3-.49.67.04,1.09.42,1.36.78.1-.02.21-.03.33-.03l.08-.02c.22-.07.55-.17.97-.15.7.03,1.13.46,1.41.83.02,0,.04,0,.06,0,.25-.16.71-.42,1.28-.4.09,0,.18,0,.27,0,.29-.37.79-.91,1.62-.88.71.03,1.16.46,1.43.78,0,0,.02,0,.02,0,.28-.21.7-.49,1.3-.46.78.02,1.21.53,1.49,1.04.1-.02.21-.03.32-.02.35.01.63.11.86.22.09-.05.2-.1.32-.14.27-.32.78-.94,1.62-.87.56.01.97.29,1.25.57.17-.05.37-.08.59-.07.39,0,.71.15.96.33.24-.14.53-.23.88-.22.13,0,.25.02.36.04.3-.47.75-.89,1.51-.9.59.01,1.02.3,1.26.46.2.04.38.12.53.22.26-.19.58-.31.98-.31.22,0,.45.03.68.07.08.01.16.03.24.03.6,0,1,.3,1.29.65.29-.48.75-.96,1.5-.92.37,0,.68.12.92.27.25-.15.55-.26.93-.26h.01c.33,0,.6.09.83.23.26-.22.59-.36,1.03-.37.9,0,1.38.66,1.65,1.11.03,0,.05,0,.08.01.11-.05.25-.11.42-.16.28-.34.76-.89,1.58-.89s1.28.54,1.57,1.06c.28-.31.68-.56,1.23-.56h0c.36,0,.66.09.88.18.14-.06.31-.14.51-.18.26-.23.72-.6,1.39-.61h.01c.58,0,.97.26,1.26.6.17-.07.37-.11.59-.11.22,0,.41.03.58.1.28-.38.68-.66,1.28-.67.38,0,.7.12.95.28.24-.15.54-.27.9-.27.13,0,.27,0,.4-.02.17,0,.35-.02.52-.02.34,0,.6.06.81.1.05.01.11.03.16.03.92.02,1.39.69,1.67,1.14.01,0,.02,0,.03,0,.06.01.11.03.17.03.06,0,.13,0,.19,0,.27-.56.72-1.19,1.61-1.21.77,0,1.23.45,1.53.95.11-.02.22-.04.35-.04.08,0,.15,0,.22,0,.26-.53.72-1.19,1.6-1.21.02,0,.03,0,.05,0,.73,0,1.19.45,1.49.86.11-.02.22-.03.34-.04.1,0,.21-.02.31-.03.05,0,.1-.01.15-.02.27-.26.71-.64,1.37-.66.69-.03,1.16.37,1.47.74.27-.4.68-.74,1.31-.76.48-.01.85.13,1.08.22h.04c.35.03.64.13.84.2h.04c.1,0,.19,0,.29,0,.14,0,.28-.02.41-.03.03,0,.05-.02.08-.03.21-.08.53-.2.92-.22.4-.03.73.1.99.27.23-.16.51-.27.86-.29.47-.03.84.14,1.12.33.2-.1.45-.18.74-.19.25-.02.47.03.67.1.26-.29.63-.54,1.16-.57.3-.01.54.04.75.13.25-.28.59-.48,1.07-.51.76-.05,1.24.39,1.55.86.18-.22.42-.43.74-.55.25-.25.68-.66,1.36-.7.71-.05,1.17.33,1.49.72.25-.13.52-.23.82-.25l3.42-.25-2.16,2.66c-.15.19-.49.6-.72.88-.05.29-.15.73-.5,1.13-.18.2-.37.34-.57.42.02.4-.07.81-.43,1.19-.44.47-.99.57-1.31.62-.53.33-1.13.25-1.6.11-.04.05-.09.11-.15.16l-.08.08c.18.58.37,1.46-.34,2.13-.36.34-.78.45-1.15.46-.09.19-.23.38-.42.55-.09.08-.18.17-.27.26-.13.13-.26.25-.4.37-.41.36-.86.45-1.13.51-.34.22-.67.29-.89.34h0c-.28.18-.57.25-.8.29.07.49.13,1.34-.57,1.91-.29.24-.61.35-.89.4-.11.26-.28.55-.57.79-.31.25-.64.34-.94.37-.09.24-.23.48-.46.69l-.04.07c-.12.2-.31.51-.65.77-.55.43-1.18.41-1.54.37-.02,0-.04.02-.06.02-.02.46-.16.95-.64,1.32-.06.05-.11.11-.17.17-.16.17-.33.34-.52.48-.71.54-1.48.31-2,.09-.06.05-.12.09-.18.14-.05.04-.09.09-.13.14-.06.06-.13.14-.21.22-.08.35-.23.91-.76,1.3-.4.29-.83.36-1.16.36-.12.17-.29.36-.52.53-.42.3-.86.35-1.24.31-.12.18-.27.35-.48.5-.09.06-.16.13-.24.2-.11.1-.23.2-.35.29l-.02.03c-.13.22-.34.57-.73.85-.13.09-.26.16-.39.2.02.43-.07.9-.4,1.27.23.02.42.07.57.11.06,0,.11,0,.17,0ZM144.89,109.1s0,0,0,0c0,0,0,0,0,0ZM147.75,109.08s0,0,0,0c0,0,0,0,0,0ZM153.62,108.98s0,0,0,0c0,0,0,0,0,0ZM140.49,106.85s0,0-.01,0c0,0,0,0,.01,0ZM159.7,106.53s0,0,0,0c0,0,0,0,0,0ZM165.96,104.32s0,0,0,0c0,0,0,0,0,0ZM160.89,102.63s0,0,0,0c0,0,0,0,0,0ZM161,102.59h0ZM170.49,100.88s0,0,0,0c0,0,0,0,0,0ZM155.27,100.27s0,0,0,0c0,0,0,0,0,0ZM156.96,99.38s0,0,0,0c0,0,0,0,0,0ZM177.03,97.11s0,0,0,0c0,0,0,0,0,0ZM161.5,94.69s-.01,0-.02.01c0,0,.01,0,.02-.01ZM162.4,94.35s0,0,0,0c0,0,0,0,0,0ZM158.08,93.43h0s0,0,0,0ZM183.66,91.84s0,0-.01.01c0,0,0,0,.01-.01ZM165.34,90.77l-.02.02.02-.02ZM185.14,90.65s0,0,0,0c0,0,0,0,0,0ZM126.98,88.45h.01-.01ZM151.25,87.69s-.01,0-.02,0c0,0,.01,0,.02,0ZM165.92,87.54s-.01.01-.02.02c0,0,.01-.01.02-.02ZM130.74,87.46h-.01.01ZM148.44,87.43h0,0ZM188.39,87.21s0,0-.01.01c0,0,0,0,.01-.01ZM93.5,87.17s0,0,0,0c0,0,0,0,0,0ZM154.02,86.93h0,0ZM139.12,86.93h-.02.02ZM137.26,86.84h0,0ZM85.18,86.53s.01,0,.02,0c0,0-.01,0-.02,0ZM75.02,85.8s.01,0,.02,0c0,0-.01,0-.02,0ZM117.64,85.59h.01-.01ZM77.85,85.46s0,0,0,0c0,0,0,0,0,0ZM68.53,85.43s0,0,.01,0c0,0,0,0-.01,0ZM66.68,85.34s.02,0,.03,0c-.01,0-.02,0-.03,0ZM142,85.35h0,0ZM105.59,84.91h.03-.03ZM96.36,84.85h.02-.02ZM113.04,84.32h0,0ZM81.63,84.17s.01,0,.02,0c0,0-.01,0-.02,0ZM186.61,84.11s0,0,0,0c0,0,0,0,0,0ZM61.31,83.44s0,0,0,0c0,0,0,0,0,0ZM197.21,83.39h0,0ZM88.15,83.39s0,0,0,0c0,0,0,0,0,0ZM52.9,83.23s0,0,0,0c0,0,0,0,0,0ZM200.92,82.79s0,0,0,0c0,0,0,0,0,0ZM51.1,82.57s.02,0,.03,0c-.01,0-.02,0-.03,0ZM65.16,82.51s0,0,0,0c0,0,0,0,0,0ZM74.42,82.45s.02,0,.02,0c0,0-.02,0-.02,0ZM72.59,82.24s0,0,0,0c0,0,0,0,0,0ZM207.34,81.39s0,0-.01,0c0,0,0,0,.01,0ZM208.31,80.94h0,0ZM192.09,80.74s0,0,0,0c0,0,0,0,0,0ZM209.94,80.18s0,0,0,0c0,0,0,0,0,0ZM39.37,79.79s0,0,.01,0c0,0,0,0-.01,0ZM205.86,79.16s0,0-.01,0c0,0,0,0,.01,0ZM50.87,79.11s0,0,.01,0c0,0,0,0-.01,0ZM44.59,78.04s.02,0,.03,0c0,0-.02,0-.03,0ZM218.94,77.64h-.02s.01,0,.02,0ZM213.8,76.83s0,0,0,0c0,0,0,0,0,0ZM39.47,76.63h0ZM29.68,76.34s.01,0,.02,0c0,0,0,0-.02,0ZM214.53,76.12s-.01,0-.02,0c0,0,.01,0,.02,0ZM221.42,73.82s0,0,0,0c0,0,0,0,0,0ZM234.87,69.37s0,0-.01.01c0,0,0,0,.01-.01ZM232.05,67.28s0,0,0,0c0,0,0,0,0,0ZM239.51,65.72s0,0,0,0c0,0,0,0,0,0ZM15.25,63.55s0,0,.01.02c0,0,0-.01-.01-.02ZM14.04,62.23s0,.01.01.02c0,0,0-.01-.01-.02ZM242.7,60.67s0,0,0,0c0,0,0,0,0,0ZM13.41,60.57s0,.01.01.02c0,0,0-.01-.01-.02ZM239.31,59.88s0,0,0,0c0,0,0,0,0,0ZM8.14,58s0,0,0,.01c0,0,0,0,0-.01ZM243.48,57.78s0,0,0,0c0,0,0,0,0,0ZM244.49,53.05s0,0,0,0c0,0,0,0,0,0ZM6.95,48.36h0s0,0,0,0ZM9.91,48.13h0s0,0,0,0ZM9.75,42.81h0s0,0,0,0ZM243.43,41.84h0s0,0,0,0ZM243.21,40.2h0ZM9.84,40.16h0s0,0,0,0ZM243.18,40.05s0,0,0,0c0,0,0,0,0,0ZM6.89,39.87h0s0,0,0,0ZM245.8,38.8s0,0,0,0c0,0,0,0,0,0ZM6.93,35.99s0,0,0,0c0,0,0,0,0,0ZM11.07,35.1s0,0,0,0c0,0,0,0,0,0ZM244.65,34.04s0,0,0,0c0,0,0,0,0,0ZM8.05,32.26s0,0,0,0c0,0,0,0,0,0ZM11.59,31.65h0s0,0,0,0ZM239.84,30.9s0,0,0,0c0,0,0,0,0,0ZM9.81,28.76s0,0,0,0c0,0,0,0,0,0ZM236.74,26.81s0,0,0,0c0,0,0,0,0,0ZM235.2,24.77h.01s0,0-.01,0ZM13.01,23.88s0,0,0,0c0,0,0,0,0,0ZM13.01,23.88h0ZM234.33,23.11s.02.02.03.03c0,0-.02-.02-.03-.03ZM15.88,21.29h0s0,0,0,0ZM231.68,20.81s0,0,0,0c0,0,0,0,0,0ZM21.06,20.4s0,0,0,0c0,0,0,0,0,0ZM22.95,20.03s0,0,0,0c0,0,0,0,0,0ZM232.52,18.02s0,0,0,0c0,0,0,0,0,0ZM222.96,15.93h0,0ZM227.44,15.39s0,0,.01,0c0,0,0,0-.01,0ZM30.4,14.98s0,0,0,0c0,0,0,0,0,0ZM24.04,14.57s0,0,0,0c0,0,0,0,0,0ZM26.03,14.29s0,0-.01,0c0,0,0,0,.01,0ZM224.28,13.28s0,0,0,0c0,0,0,0,0,0ZM208.41,11.24s0,0,0,0c0,0,0,0,0,0ZM204.87,10.35s.01,0,.02,0c0,0-.01,0-.02,0ZM215.51,9.77s0,0,0,0c0,0,0,0,0,0ZM202.31,9.25s0,0,0,0c0,0,0,0,0,0ZM40.91,8.48s0,0,0,0c0,0,0,0,0,0ZM185.85,7.86s0,0,0,0c0,0,0,0,0,0ZM192.34,7.79s0,0,0,0c0,0,0,0,0,0ZM63.46,7.72s-.02,0-.03,0c0,0,.02,0,.03,0ZM66.15,7.32h0,0ZM66.17,7.32s0,0-.01,0c0,0,0,0,.01,0ZM189.66,7.08s0,0,0,0c0,0,0,0,0,0ZM53.02,7.04s0,0,0,0c0,0,0,0,0,0ZM65.2,7.01h0,0ZM69.83,6.98s0,0,0,0c0,0,0,0,0,0ZM51,6.44s0,0,0,0c0,0,0,0,0,0ZM54.79,6.38s-.03,0-.04,0c.01,0,.03,0,.04,0ZM70.68,6.33h0,0ZM175.87,6.28s0,0,.01,0c0,0,0,0-.01,0ZM178.64,6.26s0,0,0,0c0,0,0,0,0,0ZM159.34,5.64h0,0ZM78,5.39s0,0,0,0c0,0,0,0,0,0ZM55.56,5.37s-.02,0-.03,0c0,0,.02,0,.03,0ZM95.54,4.89s0,0,0,0t0,0ZM120.49,4.84h0,0ZM103.81,4.58h0s.02,0,.03,0h-.03ZM132.58,4.27h0,0ZM184.44,4.17s0,0,.01,0c0,0,0,0-.01,0ZM108.48,4.02s-.02,0-.03,0c0,0,.02,0,.03,0ZM113.08,3.83h-.02.02ZM75.96,3.41s-.02,0-.03,0c0,0,.02,0,.03,0ZM78.78,3.37s-.02,0-.03,0c.01,0,.02,0,.03,0ZM177.07,3.19s0,0,.01,0c0,0,0,0-.01,0ZM160.4,2.93h0,0ZM163.2,2.73s0,0,.01,0c0,0,0,0-.01,0ZM107.48,2.24s0,0-.01,0c0,0,0,0,.01,0ZM166.01,2.24h0,0ZM147.45,1.79s.01,0,.02,0c0,0-.01,0-.02,0ZM119.56,1.73h-.01.02,0ZM139.08,1.54h.03-.03ZM99.11,1.52h0,0ZM127.93,1.43h0,0ZM148.38,1.38s.01,0,.02,0c0,0-.01,0-.02,0Z"/>
    </g>
  </g>
  <g id="_집꾸미기" data-name="집꾸미기" class="st1">
    <text class="st3" transform="translate(37.11 67.28)"><tspan x="0" y="0">집꾸미기</tspan></text>
  </g>
  <g id="_집구하기" data-name="집구하기" class="st1">
    <g>
      <path class="st2" d="M53.17,23.32c1.46.28,2.38.74,2.75,1.39.46.84.77,1.86.91,3.07.14,1.21.07,2.21-.21,3-.37.93-.45,1.61-.24,2.06.21.44.89,1.13,2.06,2.06.84.7,1.56,1.35,2.16,1.95,1.3,1.44,2.34,2.42,3.14,2.93,1.39.98,1.56,1.97.49,3-.37.42-.7.65-.98.7-.28.05-.67-.07-1.18-.35-.37-.19-1.14-.49-2.3-.91-1.67-.56-3.21-1.42-4.6-2.58-.88-.79-1.52-1.18-1.92-1.18s-.78.4-1.15,1.18c-.28.7-.63,1.32-1.04,1.88-.65.88-1.16,1.95-1.53,3.21-.28.88-.72,1.49-1.32,1.81-.6.33-1.18.3-1.74-.07-1.49-.98-2.23-2.07-2.23-3.27s.74-3.21,2.23-5.99c1.21-2.32,1.81-3.74,1.81-4.25,0-.19.23-.74.7-1.67.65-1.3.78-2.09.38-2.37-.4-.28-1.41-.12-3.03.49-.79.33-1.39.49-1.81.49-.33,0-.84.09-1.53.28-1.58.42-2.67.35-3.27-.21-.88-.93-1.1-1.96-.66-3.1.44-1.14,1.31-1.78,2.61-1.92.7-.09,1.6-.3,2.72-.63,1.44-.46,2.79-.81,4.04-1.05,1.72-.23,3.31-.21,4.77.07ZM71.81,22.14c.74.19,1.25.42,1.53.7.65.65,1.04,3.09,1.18,7.32.09,2.88.23,5.02.42,6.41.56,4,.87,6.55.94,7.66.07,1.11-.01,2.02-.24,2.72-.23.74-.37,1.97-.42,3.69-.05,1.72.02,3.46.21,5.23.19,1.81.14,4.58-.14,8.29-.14,1.81-.53,3.07-1.18,3.76-.65.7-1.7,1-3.14.91-.84-.09-1.86.04-3.07.42-1.72.51-2.89.82-3.52.94-.63.12-1.41.13-2.33.03-1.35-.05-2.65-.09-3.9-.14-2.23,0-3.86-.52-4.88-1.57-1.02-1.05-1.67-2.82-1.95-5.33-.14-.98-.3-1.95-.49-2.93-.46-1.77-.69-3.75-.66-5.96.02-2.21.27-4.08.73-5.61.42-1.35,1.6-1.63,3.55-.84.93.37,1.46.76,1.6,1.15.14.4.19,1.61.14,3.66-.05,2.23-.05,3.41,0,3.55.09.14,1.02-.07,2.79-.63,3.25-1.07,5.48-1.65,6.69-1.74.05-.05.93-.16,2.65-.35.79-.09,1.23-.23,1.32-.42.19-.23.22-.78.1-1.64-.12-.86-.34-1.59-.66-2.19-.37-.74-.51-1.33-.42-1.78.09-.44.49-1.01,1.18-1.71.46-.42.69-.88.66-1.39-.02-.51-.27-1.53-.73-3.07-.56-2-.91-3.69-1.05-5.09-.09-1.21-.28-2.16-.56-2.86-.23-.65-.35-1.56-.35-2.72s-.09-2.3-.28-3.27c-.19-1.25-.05-2.38.42-3.38.46-1,1.16-1.64,2.09-1.92.42-.14,1-.12,1.74.07ZM62.82,60.67c-1.3.65-2.42,1.07-3.34,1.25-.79.19-1.32.39-1.6.63-.28.23-.37.58-.28,1.04.09.65.39,1.01.91,1.08.51.07,1.81-.1,3.9-.52,2.74-.51,4.56-.94,5.47-1.29s1.43-.8,1.57-1.36c.37-1.12.25-1.74-.35-1.88-1.67-.46-3.76-.12-6.27,1.04Z"/>
      <path class="st2" d="M113.75,21.3c1.02.46,1.67,1.16,1.95,2.09.09.42.09,1.78,0,4.08-.09,2.3-.21,3.8-.35,4.49-.14.51-.21,1.81-.21,3.9v3.2h3.97c2.18-.05,3.54-.02,4.08.07.53.09.96.37,1.29.84,1.35,1.77,1.63,3.31.84,4.63-.79,1.32-2.25,1.73-4.39,1.22-1.39-.32-3.23-.43-5.5-.31-2.28.12-3.58.38-3.9.8-.23.37-.33,3.04-.28,8.01.05,4.97.21,8.85.49,11.63.19,1.86.13,3.15-.17,3.87-.3.72-1.06,1.38-2.26,1.99-.56.28-1.03.39-1.43.35-.4-.05-.9-.28-1.5-.7-.79-.51-1.24-1.07-1.36-1.67-.12-.6-.15-2.21-.1-4.81.09-3.58.09-8.17,0-13.79-.05-2.97-.16-4.53-.35-4.67-.14-.09-2.6-.07-7.39.07-4.55.09-7.69.05-9.41-.14-1.72-.19-3.02-.63-3.9-1.32-.74-.6-1.17-1.16-1.29-1.67-.12-.51.06-1.11.52-1.81l.07-.07c.37-.56.96-.88,1.78-.98.81-.09,3.45-.14,7.91-.14,10.08-.05,15.56-.3,16.44-.77.14-.09.23-.41.28-.94.05-.53.07-2.22.07-5.05v-3.9c0-.42-.05-.87-.14-1.36-.09-.49-.19-.79-.28-.91-.09-.12-.31-.22-.66-.31-.35-.09-.67-.12-.98-.07-.3.05-.83.12-1.57.21-.46.05-.84.09-1.11.14-1.16.14-3.33.22-6.51.24-3.18.02-5.01-.04-5.47-.17-1.02-.32-1.59-1.04-1.71-2.16-.12-1.11.29-1.95,1.22-2.51.42-.23,2.41-.51,5.99-.84,1.02-.09,2.11-.21,3.27-.35.79-.09,2.37-.21,4.74-.35,2.23-.14,3.6-.28,4.11-.42,1.11-.23,2.18-.12,3.2.35Z"/>
      <path class="st2" d="M149.04,32.76c.77.3,1.1,1.01,1.01,2.12-.09,1.35-.45,2.19-1.08,2.54s-2.2.59-4.7.73c-2.79.14-5.09.44-6.9.91-2.88.74-4.96.93-6.24.56-1.28-.37-1.92-1.35-1.92-2.93,0-.98.22-1.65.66-2.02.44-.37,1.29-.6,2.54-.7,1.25-.09,2.16-.19,2.72-.28,1.3-.23,4.44-.6,9.41-1.11,2.23-.19,3.73-.13,4.49.17ZM142.11,42.1c1.39.26,2.42.62,3.07,1.08.84.6,1.76,1.63,2.79,3.07,1.02,1.44,1.72,2.69,2.09,3.76.93,2.79.43,5.42-1.5,7.91-1.93,2.49-4.68,4.03-8.26,4.63-.61.09-1.23.21-1.88.35-1.25.23-2.57-.02-3.94-.77-1.37-.74-2.38-1.74-3.03-3-.88-1.67-1.15-3.69-.8-6.06s1.22-4.44,2.61-6.2c.37-.51,1.33-1.4,2.89-2.68,1.56-1.28,2.52-1.99,2.89-2.12.65-.23,1.67-.22,3.06.03ZM148.59,24.47c.74.3,1.11.94,1.11,1.92,0,1.53-.67,2.59-2.02,3.17-1.35.58-3.79.87-7.32.87-2.14,0-3.44.05-3.9.14-.51.19-1.36.28-2.54.28s-1.92-.07-2.19-.21c-.88-.46-1.27-1.32-1.15-2.58.12-1.25.66-2.16,1.64-2.72.37-.23,1.43-.44,3.17-.63,1.74-.19,3.4-.28,4.98-.28,1.86-.05,3.23-.09,4.11-.14,2-.19,3.37-.13,4.11.17ZM138.48,48.96c-.6.33-1.18,1.21-1.74,2.65-.74,2-.73,3.53.03,4.6.77,1.07,1.96,1.23,3.59.49.6-.23,1.28-.62,2.02-1.15.74-.53,1.18-.94,1.32-1.22.7-1.44.88-2.61.56-3.52-.33-.91-1.14-1.5-2.44-1.78-1.63-.37-2.74-.39-3.35-.07ZM162.52,24.09c.74.42,1.28,1.04,1.6,1.88.37.84.67,4.18.91,10.03.19,3.9.3,5.9.35,5.99.14.09,1,.12,2.58.07,2-.05,3.45.13,4.36.52.91.4,1.45,1.06,1.64,1.99.23,1.16-.12,2.07-1.04,2.72-.93.65-2.3.98-4.11.98-1.58-.05-2.55-.02-2.93.07l-.56.07.07,3.48c.04,2.37.14,4.04.28,5.02.05.23.09.55.14.94.04.4.09.83.14,1.29.04.46.09.79.14.98.09.98.26,1.97.49,3,.42,1.53.5,2.74.24,3.62-.26.88-.85,1.56-1.78,2.02-1.12.6-2.07.57-2.86-.1-.79-.67-1.25-1.82-1.39-3.45-.14-1.39-.32-2.53-.56-3.41-.23-1.07-.35-1.97-.35-2.72s-.09-1.67-.28-2.79c-.19-1.16-.33-3.92-.42-8.29-.28-10.12-.35-16.67-.21-19.65.14-2.97.58-4.53,1.32-4.67.74-.14,1.48,0,2.23.42Z"/>
      <path class="st2" d="M193.38,31.93c1.62.07,2.74.24,3.34.52,1.39.7,2.07,2.3,2.02,4.81-.05,2.51-.84,6.32-2.37,11.43-.79,2.6-1.18,5.2-1.18,7.8,0,2.28-.48,4.02-1.43,5.23-.95,1.21-2.15,1.6-3.59,1.18-.79-.23-1.3-.57-1.53-1.01-.23-.44-.28-1.17-.14-2.19.09-.6.28-1.9.56-3.9.32-2.6.77-5.11,1.32-7.52.37-1.49.6-2.58.7-3.27.09-.42.25-1.04.49-1.88.74-2.23,1.07-3.95.98-5.16-.05-.14-.14-.22-.28-.24-.14-.02-.51-.01-1.11.03-3.44.28-6.39.74-8.85,1.39-1.67.42-2.95.34-3.83-.24-.88-.58-1.18-1.57-.91-2.96.23-.98.53-1.62.91-1.95.37-.32,1.09-.56,2.16-.7,1.86-.19,3.97-.49,6.34-.91.19,0,.55-.05,1.08-.14.53-.09.89-.14,1.08-.14,1.21-.19,2.62-.24,4.25-.17ZM213.24,27.57c.93.37,1.58.86,1.95,1.46.46.7.7,3.81.7,9.34,0,3.67.18,7.87.56,12.61.37,4.74.77,7.78,1.18,9.13.32,1.16.44,2.02.35,2.58-.09.56-.46,1.09-1.12,1.6-1.35,1.12-2.67,1.43-3.97.94-1.3-.49-1.97-1.54-2.02-3.17-.14-4.83-.28-8.15-.42-9.96-.46-6.22-.77-11.4-.91-15.54-.09-3.58-.05-5.9.14-6.97.19-1.07.65-1.79,1.39-2.16.51-.28,1.23-.23,2.16.14Z"/>
    </g>
  </g>
  <g id="_커뮤니티" data-name="커뮤니티" class="st1">
    <g>
      <path class="st2" d="M59.9,29.66c.56,1.07.84,3.44.84,7.11,0,2.65.09,4,.28,4.04.14.09.74.1,1.81.04,1.07-.07,1.97-.17,2.72-.31.88-.14,2.11-.23,3.69-.28.14,0,.35-.02.63-.07,1.16-.05,1.83-.2,2.02-.45.19-.25.23-1.13.14-2.61v-.84c-.14-3.34-.15-5.49-.04-6.44.12-.95.52-1.75,1.22-2.4.46-.46,1.23-.58,2.3-.35,1.07.23,1.74.65,2.02,1.25.42.88.74,5.02.98,12.4.14,4.88.25,8.08.35,9.61.32,4.32.6,7.29.84,8.92.32,2.23.43,3.69.31,4.39-.12.7-.59,1.35-1.43,1.95-.6.42-1.25.64-1.95.66s-1.3-.15-1.81-.52c-.46-.37-.77-.74-.91-1.11-.14-.37-.26-1.14-.35-2.3,0-.28-.02-.78-.07-1.5-.05-.72-.12-1.61-.21-2.68-.09-1.07-.16-1.93-.21-2.58-.28-3.76-.44-6.2-.49-7.32-.09-1.63-.21-2.53-.35-2.72-.23-.32-2-.23-5.29.28-.79.14-1.98.28-3.55.42-1.72.23-2.65.4-2.79.49-.23.23-.4.81-.49,1.74-.09.93-.07,1.93.07,3,.19,1.72.2,3.5.03,5.33-.16,1.84-.45,3.05-.87,3.66-.42.7-1.03,1.17-1.85,1.43-.81.26-1.52.24-2.12-.04-.79-.37-1.28-.99-1.46-1.85-.19-.86-.3-2.78-.35-5.75v-.35c0-2.41-.09-3.79-.28-4.11-.19-.32-.84-.28-1.95.14-.05,0-.09.02-.14.07-.88.33-2.71.44-5.47.35-2.76-.09-4.56-.32-5.4-.7-.65-.28-1.06-.57-1.22-.87-.16-.3-.24-.85-.24-1.64,0-1.44.25-2.32.77-2.65.51-.32,1.88-.49,4.11-.49,1.67,0,3.6-.05,5.78-.14,2.18-.09,3.44-.21,3.76-.35.28-.05.46-.39.56-1.04.09-.65.19-1.95.28-3.9.09-2.69.14-4.37.14-5.02s-.08-1.03-.24-1.15c-.16-.12-.66-.15-1.5-.1-.84.05-1.46.14-1.88.28-1.9.6-3.59.94-5.05,1.01-1.46.07-2.45-.05-2.96-.35-.51-.3-.77-.92-.77-1.85,0-.98.22-1.68.66-2.12s1.27-.75,2.47-.94c1.16-.19,2.11-.39,2.86-.63.98-.28,2.14-.56,3.48-.84,4.32-.79,7.18.14,8.57,2.79Z"/>
      <path class="st2" d="M127.89,43.6c1.35.46,2.02,1.46,2.02,3,0,1.21-.36,2.07-1.08,2.58-.72.51-1.75.63-3.1.35-.98-.19-1.84-.25-2.58-.21l-1.11.07-.07,1.53c-.09,1.25.09,4,.56,8.22.09,1.16.08,2.75-.03,4.77-.12,2.02-.29,3.31-.52,3.87-.19.51-.73.88-1.64,1.12-.91.23-1.71.18-2.4-.14-.84-.42-1.36-1.11-1.57-2.09s-.27-2.9-.17-5.78c.09-1.86.08-4.05-.03-6.58-.12-2.53-.24-3.96-.38-4.28-.09-.19-.21-.29-.35-.31-.14-.02-.46-.01-.98.03-.88.09-1.49.23-1.81.42-.33.19-.56.53-.7,1.05-.19.6-.29,2.67-.31,6.2-.02,3.53.03,6.32.17,8.36.28,4.13-.77,6.2-3.14,6.2-.79,0-1.41-.28-1.85-.84-.44-.56-.79-1.54-1.05-2.96-.26-1.42-.37-3.33-.35-5.75.02-2.41.1-5.48.24-9.2l.14-2.09h-2.16c-2.23,0-4.85.19-7.87.56-2.93.37-5.18.3-6.76-.21-1.58-.51-2.37-1.44-2.37-2.79,0-1.16.34-1.88,1.01-2.16.67-.28,2.47-.46,5.4-.56,3.16-.05,5.34-.14,6.55-.28.98-.14,3.07-.28,6.27-.42,3.44-.09,5.88-.35,7.32-.77.79-.23,1.53-.39,2.23-.49.98-.14,1.65-.25,2.02-.35.74-.14,1.74-.25,3-.35,3.62-.28,6.11-.19,7.45.28ZM121.55,23.04c.32.7.44,2.67.35,5.92-.09,3.25-.35,5.57-.77,6.97-.7,2.74-3.18,4.13-7.46,4.18-1.86.05-3.37.14-4.53.28-.98.14-3.01.23-6.1.28-3.09.05-4.84,0-5.26-.14-1.39-.32-2.36-1.22-2.89-2.68-.53-1.46-.82-4.03-.87-7.7-.05-3.53-.07-5.46-.07-5.78-.05-1.39.49-2.29,1.6-2.68,1.11-.39,2.21-.08,3.27.94.37.37.64.59.8.66.16.07.59.06,1.29-.04.23,0,.81-.03,1.74-.1.93-.07,1.63-.13,2.09-.17,5.25-.37,8.85-.93,10.8-1.67.65-.23,1.25-.39,1.81-.49,1.95-.28,3.34.46,4.18,2.23ZM112.88,27.12c-1.32-.07-2.06-.04-2.19.1-.14.09-.58.19-1.32.28-.09,0-.43.05-1.01.14-.58.09-.99.16-1.22.21-1.81.28-2.81.44-3,.49-1.77.23-2.82.46-3.17.7-.35.23-.59.84-.73,1.81-.19,1.11-.16,2.09.07,2.93.23.84.58,1.23,1.04,1.18,7.2-.19,11.5-.63,12.89-1.32.46-.23.81-1.21,1.04-2.93.23-1.72.16-2.79-.21-3.21-.14-.19-.87-.31-2.19-.38Z"/>
      <path class="st2" d="M136.95,33.84c.74.28,1.23.8,1.46,1.57.23.77.46,2.5.7,5.19.14,1.49.25,2.69.35,3.62.14,1.02.23,1.86.28,2.51.23,2.6.42,4.23.56,4.88.14.6.79.79,1.95.56.88-.14,1.86-.25,2.93-.35,1.49-.09,3.27-.28,5.36-.56,2.69-.28,4.49-.35,5.4-.21.91.14,1.54.6,1.92,1.39.6,1.21.52,2.22-.24,3.03-.77.81-2.03,1.22-3.8,1.22-.98,0-1.91.09-2.79.28-.79.14-1.74.3-2.86.49-1.21.14-2.11.26-2.72.35-1.25.19-2.93.27-5.02.24-2.09-.02-3.32-.13-3.69-.31-1.72-1.02-2.81-6.57-3.27-16.65-.09-2.65-.1-4.42-.04-5.33.07-.91.29-1.54.66-1.92.56-.6,1.51-.6,2.86,0ZM167.47,27.15c.84.28,1.51.77,2.02,1.46.56.79.84,2.81.84,6.06,0,3.95.19,8.64.56,14.07.37,5.43.74,9.13,1.12,11.08.37,1.9.35,3.3-.07,4.18-.42.88-1.35,1.53-2.79,1.95-.46.14-1.03.09-1.71-.14-.67-.23-1.15-.53-1.43-.91-.14-.23-.28-1.25-.42-3.07-.14-1.81-.19-3.41-.14-4.81,0-.88-.09-2.27-.28-4.18-.19-2.18-.41-5.75-.66-10.69-.26-4.95-.38-8.86-.38-11.74-.05-1.53.37-2.58,1.25-3.14.56-.37,1.25-.42,2.09-.14Z"/>
      <path class="st2" d="M195.51,28.34c1,.33,1.71,1.04,2.12,2.16.46,1.39.31,2.38-.45,2.96-.77.58-2.33.92-4.7,1.01-3.07.09-4.95.51-5.64,1.25-.51.6-.79,2.09-.84,4.46,0,.84.17,1.3.52,1.39.35.09,1.59,0,3.73-.28,3.44-.46,5.63-.66,6.58-.59.95.07,1.68.52,2.2,1.36,1.35,2.14.39,3.44-2.86,3.9-.51.05-1.58.19-3.21.42-.84.09-1.91.3-3.21.63-1.3.33-2.23.49-2.79.49-.65,0-1.03.15-1.15.45-.12.3-.17,1.31-.17,3.03,0,1.53.05,2.52.14,2.96.09.44.3.76.63.94.37.23,1.93.21,4.67-.07,2.74-.28,4.74-.6,5.99-.98,2.04-.65,3.58-.59,4.6.17,1.02.77,1.14,1.89.35,3.38-.51.98-1.09,1.67-1.74,2.09-.65.42-1.53.63-2.65.63-1.35,0-2.3.07-2.86.21-2.14.46-3.69.76-4.67.87-.98.12-2.25.17-3.83.17-2,0-3.45-.35-4.35-1.04s-1.52-1.9-1.85-3.62c-.19-.84-.27-2.87-.24-6.1.02-3.23.15-5.72.38-7.49.28-3.02.41-5.06.38-6.13-.02-1.07-.27-1.93-.73-2.58-.97-1.39-1.22-2.55-.73-3.48.49-.93,1.61-1.46,3.38-1.6,1.16-.09,2.11-.21,2.86-.35,2.28-.37,3.92-.6,4.95-.7,2.46-.28,4.19-.25,5.19.07ZM211.64,25.38c.09-.02.35.04.77.17.46.14,1,.42,1.6.84s.98.74,1.12.98c.23.46.38,1.31.45,2.54.07,1.23.13,4.03.17,8.4.05,10.4.51,17.84,1.39,22.29.28,1.58.28,2.78,0,3.59-.28.81-.91,1.48-1.88,1.99-1.07.56-2.03.66-2.89.31-.86-.35-1.29-1.01-1.29-1.99,0-.56-.09-1.51-.28-2.86-.19-1.44-.33-3.04-.42-4.81-.19-2.69-.3-4.74-.35-6.13-.14-2.28-.23-3.46-.28-3.55-.05-.09-.09-3.37-.14-9.82v-.42c0-5.2.05-8.27.14-9.2.09-.93.49-1.58,1.18-1.95,0-.05.02-.07.07-.07.32-.19.53-.29.63-.31Z"/>
    </g>
  </g>
  <g id="_이사_x2F_청소" data-name="이사_x2F_청소">
    <g>
      <path class="st2" d="M34.72,30.22c.43.22,1.05.26,1.87.13,1.67-.3,3.28-.15,4.83.45,1.54.6,2.57,1.48,3.09,2.64,1.24,3.05,1.69,6.17,1.35,9.36-.34,3.2-1.42,5.55-3.22,7.05-1.37,1.2-3.18,2.17-5.41,2.9-2.23.73-4.12,1.01-5.66.84-1.37-.21-2.69-.91-3.96-2.09-1.27-1.18-2.18-2.58-2.74-4.22-.26-.77-.36-2.21-.32-4.31.04-2.1.24-3.65.58-4.63.69-2.27,1.26-3.7,1.74-4.28.47-.58,1.87-1.68,4.18-3.31.43-.3.9-.51,1.42-.64.9-.26,1.65-.21,2.25.13ZM36.84,36.53c-.47.39-.93.58-1.38.58s-1.04-.19-1.77-.58c-.73-.43-1.29-.47-1.67-.13-.39.34-.77,1.27-1.16,2.77-.52,1.97-.68,3.69-.48,5.15.19,1.46.7,2.4,1.51,2.83,1.24.64,2.47.78,3.67.42,1.2-.36,2.25-.98,3.15-1.83.9-.86,1.55-1.98,1.96-3.38.41-1.39.42-2.8.03-4.22-.13-.52-.22-.94-.26-1.29-.09-.43-.24-.73-.45-.9-.9-.56-1.95-.36-3.15.58ZM59.17,26.43c.69.51,1.1,1.29,1.25,2.32.15,1.03.25,3.82.29,8.37.04,5.15.17,8.82.39,11.01.26,2.45.43,4.33.52,5.66.13,1.5.3,2.66.51,3.48.51,2.02.3,3.39-.64,4.12-1.42,1.03-2.6,1.38-3.54,1.06-.94-.32-1.46-1.28-1.54-2.86-.52-7.77-.88-12.59-1.09-14.48-.17-1.67-.32-6.93-.45-15.77,0-.81.15-1.53.45-2.16.3-.62.71-1.04,1.22-1.26.77-.34,1.65-.17,2.64.52Z"/>
      <path class="st2" d="M83.12,28.26c.73,1.05.79,2.26.19,3.64-.17.47-.41,1.3-.71,2.48-.3,1.18-.58,2.09-.84,2.74-.39,1.12-.28,1.85.32,2.19,2.66,1.59,5.11,4.05,7.34,7.4.77,1.2,1.34,2.01,1.71,2.41.36.41.78.74,1.25,1,.99.56,1.29,1.35.9,2.38-.39,1.03-1.18,1.5-2.38,1.42-.86-.04-2.25-.85-4.18-2.41-1.93-1.57-3.78-3.4-5.54-5.5-.69-.77-1.24-1.3-1.67-1.58-.43-.28-.76-.32-1-.13-.24.19-.42.65-.55,1.38-.13.64-.52,1.65-1.16,3.03-.94,1.89-1.61,3.52-2,4.89-.26.94-.55,1.63-.87,2.06-.32.43-.87.84-1.64,1.22-1.29.69-2.33.54-3.12-.45-.79-.99-.87-2.25-.23-3.8.26-.77.56-1.63.9-2.57.34-.99.71-1.91,1.09-2.77.52-1.12,1.3-2.94,2.35-5.47,1.05-2.53,1.75-4.29,2.09-5.28.17-.51.45-1.16.84-1.93,1.03-1.97,1.59-3.22,1.67-3.73.17-.64.48-1.28.93-1.9.45-.62.98-1.08,1.58-1.38,1.07-.6,1.97-.38,2.7.68ZM102.23,24.43c1.03.39,1.63,1.03,1.8,1.93.21,1.59.41,4.48.58,8.69.13,2.96.23,4.48.32,4.57.13.13,1.29.19,3.48.19s3.54.09,3.93.26c1.67.82,2.29,1.87,1.87,3.15-.43,1.24-1.5,2-3.22,2.25-.6.09-1.22.09-1.87,0-1.89-.26-3.02-.29-3.41-.1-.39.19-.58.93-.58,2.22,0,.86.15,2.8.45,5.82.3,3.02.54,4.95.71,5.76.26,1.16.28,2.07.06,2.74-.21.67-.73,1.23-1.54,1.71-.6.43-1.03.67-1.29.71-.26.04-.6-.02-1.03-.19-.73-.34-1.21-.75-1.45-1.22-.24-.47-.4-1.39-.48-2.77-.26-5.06-.45-7.7-.58-7.92-.09-.09-.17-1.01-.26-2.77-.09-1.42-.19-3.09-.32-5.02-.13-1.5-.22-3.07-.26-4.7-.04-2.06-.11-4.4-.19-7.02-.13-2.96-.14-4.9-.03-5.82.11-.92.4-1.64.87-2.16.6-.6,1.42-.71,2.45-.32Z"/>
      <path class="st2" d="M140.4,23.47c1.07.3,1.65,1.13,1.74,2.48.08,1.35-.37,2.95-1.35,4.79-.04.17-.14.39-.29.64-.15.26-.27.47-.35.64-.09.17-.15.3-.19.39-.17.39-.39.75-.64,1.09-.34.39-.71.99-1.09,1.8-.43.9-.86,1.67-1.29,2.32-.43.73-.64,1.14-.64,1.22-.04.13-.45.73-1.22,1.8-1.07,1.54-1.77,2.59-2.09,3.12-.32.54-.66,1.25-1,2.16-.43,1.12-.96,2.19-1.61,3.22-1.63,2.49-2.96,4.89-3.99,7.21-.43.99-.86,1.93-1.29,2.83-.43.82-.67,1.61-.71,2.38-.13,1.29-.74,2.24-1.83,2.86-1.09.62-2.16.59-3.19-.1-2.32-1.5-2.42-3.8-.32-6.89.73-1.07,1.2-1.89,1.42-2.45,1.12-2.53,1.97-4.14,2.57-4.83.43-.47,1.01-1.42,1.74-2.83.73-1.37,1.54-2.83,2.45-4.38.51-.81.94-1.63,1.29-2.45.64-1.59,1.59-3.26,2.83-5.02.39-.56.77-1.2,1.16-1.93.56-1.03.92-1.69,1.09-2,.39-.64.64-1.12.77-1.42,1.97-4.38,3.39-6.63,4.25-6.76.6-.09,1.2-.06,1.8.06Z"/>
      <path class="st2" d="M177.5,23.18c.97.62,1.45,1.38,1.45,2.29.04.39.11.84.19,1.35.13.47.21,2.68.26,6.63.04,3.99.11,6.56.19,7.72.39,3.82.34,6.39-.13,7.72-.3.86-.44,1.37-.42,1.54.02.17.25.41.68.71,1.16.82,1.95,1.61,2.38,2.38.43.77.64,1.87.64,3.28,0,1.03-.03,1.68-.1,1.96-.06.28-.23.68-.48,1.19-.86,1.54-2.18,2.96-3.96,4.25s-3.66,2.17-5.63,2.64c-.13.04-.97.26-2.51.64-2.45.56-4.33.6-5.66.13-1.67-.56-3.06-1.73-4.15-3.51-1.09-1.78-1.45-3.4-1.06-4.86.17-.64.3-1.29.39-1.93.13-.99.52-1.94,1.19-2.86.67-.92,1.45-1.6,2.35-2.03,2.62-1.29,4.32-2.04,5.12-2.25.79-.21,2.11-.3,3.96-.26,2.06.04,3.13-.06,3.22-.32.04-.13-.06-.45-.32-.97-.64-1.33-1.12-3.71-1.42-7.14-.21-2.15-.46-3.36-.74-3.64-.28-.28-1.06-.14-2.35.42-.9.34-1.54.58-1.93.71-.13.04-.39.14-.77.29-.39.15-.69.25-.9.29-.94.34-1.64.5-2.09.48-.45-.02-.83-.23-1.13-.61-.52-.64-.84-.79-.97-.45-.09.17.58,1.09,2,2.77,1.29,1.54,2.03,2.64,2.22,3.28s-.03,1.2-.68,1.67c-.94.73-1.92.78-2.93.16-1.01-.62-2.37-2.11-4.09-4.47-.3-.43-.54-.62-.71-.58-.3.13-1.25,2-2.83,5.6-.73,1.76-1.41,2.85-2.03,3.28-.62.43-1.32.32-2.09-.32-.47-.43-.83-1.15-1.06-2.16-.24-1.01-.18-1.73.16-2.16.13-.17.28-.58.45-1.22.26-.94.84-2.53,1.74-4.76.34-.86.86-2,1.54-3.41.04-.04.06-.09.06-.13,1.03-2.02,1.39-3.13,1.09-3.35-.3-.21-1.82.04-4.57.77-.09.04-.15.06-.19.06-1.42.34-2.34.55-2.77.61-.43.06-.88.01-1.35-.16-.77-.3-1.23-.92-1.38-1.87-.15-.94.1-1.78.74-2.51.39-.43.94-.74,1.67-.93.73-.19,2.68-.59,5.86-1.19,1.03-.17,2.35-.2,3.96-.1,1.61.11,2.63.29,3.06.55.47.3.8.8,1,1.51.19.71.2,1.41.03,2.09-.47,1.63-.37,2.42.32,2.38,3.3-.21,5.32-.39,6.05-.52,1.24-.3,2.45-.54,3.6-.71.9-.13,1.45-.35,1.64-.68.19-.32.29-1.15.29-2.48-.04-1.42-.11-2.51-.19-3.28-.09-.81.01-1.59.29-2.32.28-.73.68-1.24,1.19-1.54.77-.43,1.64-.33,2.61.29ZM154.88,20.38c.51.09,1.8.17,3.86.26,1.42.04,2.27.09,2.57.13.3.04.56.17.77.39,1.16,1.03,1.14,2.15-.06,3.35-.56.6-1.32.99-2.28,1.16-.97.17-2.37.17-4.22,0-1.42-.13-2.55-.13-3.41,0-1.67.26-2.81.3-3.41.13-.6-.17-1.09-.71-1.48-1.61-.51-1.12-.45-1.95.19-2.51.64-.56,1.93-.9,3.86-1.03,1.76-.13,2.66-.24,2.7-.32.09-.04.39-.02.9.06ZM173.89,54.65c-.67-.06-1.06-.03-1.19.1-.09.09-.75.13-2,.13-1.59.04-2.82.28-3.7.71-.88.43-1.58,1.18-2.09,2.25-.6,1.12-.82,1.98-.64,2.61.17.62.75,1.06,1.74,1.32.64.21,1.6.22,2.86.03,1.27-.19,2.41-.53,3.44-1,.73-.34,1.37-.6,1.93-.77.39-.13,1.01-.55,1.87-1.25.86-.71,1.33-1.19,1.42-1.45.26-.73-.41-1.48-2-2.25-.43-.21-.98-.35-1.64-.42Z"/>
      <path class="st2" d="M210.8,41.49c.21.26.34,1.01.39,2.25,0,1.97.05,4.59.16,7.85.11,3.26.18,4.96.22,5.08.04.17.25.3.61.39s.7.09,1,0c.17-.04.97-.13,2.38-.26,1.37-.09,2.98-.28,4.83-.58,1.89-.3,3.41-.49,4.57-.58,1.2-.09,2.08-.17,2.64-.26,1.42-.17,2.27.64,2.57,2.45.26,1.63,0,2.75-.77,3.35-.77.6-2.38.97-4.83,1.09-2.06.09-4.59.28-7.59.58-1.16.13-4.42.17-9.78.13-5.32,0-8.56.06-9.72.19-3.05.39-5.25.38-6.6-.03-1.35-.41-2.03-1.26-2.03-2.54,0-1.12.35-1.85,1.06-2.22s2.5-.68,5.37-.93c1.2-.09,2.23-.17,3.09-.26,1.07-.13,2.45-.19,4.12-.19h.84c1.33.04,2.08-.25,2.25-.87.17-.62.19-2.84.06-6.66-.09-1.16-.13-2.06-.13-2.7-.09-1.84.12-3.13.61-3.86.49-.73,1.51-1.24,3.06-1.54.86-.17,1.39-.13,1.61.13ZM207.2,24.72c.6.11,1.07.42,1.42.93.21.3.31.6.29.9-.02.3-.18.99-.48,2.06-.21.86-.25,1.41-.1,1.64.15.24.65.46,1.51.68,1.97.47,4.25,1.47,6.82,2.99,2.57,1.52,4.31,2.89,5.21,4.09.6.86.91,1.73.93,2.61.02.88-.25,1.6-.8,2.16-.51.47-1.06.64-1.64.51-.58-.13-1.49-.66-2.74-1.61-1.16-.86-1.77-1.29-1.83-1.29s-.59-.32-1.58-.97-2.06-1.22-3.22-1.74c-1.25-.56-2-.94-2.25-1.16-1.37-1.03-2.53-1.44-3.47-1.22-.34.09-.52.28-.52.58,0,.13-.26.73-.77,1.8-1.5,3.22-2.4,5.13-2.7,5.73-.6,1.42-1.07,2.36-1.42,2.83-.34.47-.82.79-1.42.97-.73.26-1.42.22-2.06-.13-1.12-.56-1.52-1.59-1.22-3.09.3-1.5,1.5-4.44,3.6-8.82.26-.47.65-1.28,1.19-2.41.54-1.14.85-1.77.93-1.9,1.54-3.3,3.03-5.28,4.44-5.92.64-.26,1.27-.33,1.87-.23Z"/>
    </g>
    <text/>
  </g>
</svg>