<?xml version="1.0" encoding="UTF-8"?>
<svg id="Layer_1" data-name="Layer 1" xmlns="http://www.w3.org/2000/svg" xmlns:xlink="http://www.w3.org/1999/xlink" viewBox="0 0 334.93 221.18">
  <defs>
    <style>
      .cls-1 {
        fill: #73b8d6;
      }

      .cls-2 {
        fill: #fff;
        stroke: url(#linear-gradient);
        stroke-miterlimit: 10;
        stroke-width: 3px;
      }

      .cls-3 {
        isolation: isolate;
      }
    </style>
    <linearGradient id="linear-gradient" x1="0" y1="911.55" x2="334.93" y2="911.55" gradientTransform="translate(0 -800.96)" gradientUnits="userSpaceOnUse">
      <stop offset="0" stop-color="#8fd7f2"/>
      <stop offset=".04" stop-color="#69cdef"/>
      <stop offset=".67" stop-color="#89d6f1"/>
      <stop offset="1" stop-color="#98daf3"/>
    </linearGradient>
  </defs>
  <path class="cls-2" d="M183.32,24.16C173.48,5.58,147.77-2.84,127.46,3.69c-16.6,5.34-27.47,20-25.78,35.93-14.11,2.9-38.71,9.74-60.16,26.95-23.18,18.59-54.44,58.73-32.66,87.07,16.47,21.43,53.82,23.81,61.88,24.18.07,1.15,1.96,23.96,26.64,34.55,18.23,7.82,41.18,5.67,57.58-5.53,6.28,3.33,32.99,16.69,67.9,11.75,23.29-3.3,38.83-13.12,45.55-17.97,15.6,7.09,26.17,6.15,31.8,4.84,27.57-6.43,39.4-45.76,30.08-74.63-8.95-27.75-36.48-42.88-46.16-47.68,12.19-18.54,12.63-40.06-.26-54.59-18.74-21.13-64.24-25.35-99.78-2.99l-.77-1.41h0Z"/>
  <g class="cls-3">
    <g class="cls-3">
      <g class="cls-3">
        <path class="cls-1" d="M172.69,115.65c2.33.32,3.49.99,3.49,1.99,0,.24.06.38.18.44.71.41.65,1.53-.18,3.35-.82,1.83-1.68,2.74-2.56,2.74-.24,0-.44.09-.62.27-.12.12-1.25.26-3.4.44-2.15.18-3.84.26-5.08.26-2.71,0-4.21.38-4.5,1.15-.18.35-.21,2.44-.09,6.27.12,5,.04,8.65-.22,10.95-.26,2.29-.75,3.77-1.46,4.41-1.53,1.47-3.13,2.01-4.81,1.63-1.68-.38-2.87-1.52-3.58-3.4-.53-1.47-.79-6.39-.79-14.74,0-2.77-.03-4.4-.09-4.9-.06-.5-.21-.78-.44-.84-.41-.12-3.09-.15-8.03-.09-3.71,0-5.93-.01-6.67-.04-.74-.03-1.31-.16-1.72-.4-1.35-.76-2.18-1.97-2.47-3.62-.3-1.65.06-2.91,1.06-3.8.82-.71,2.77-1.19,5.83-1.46,3.06-.26,11.09-.57,24.1-.93,5.71-.12,9.72-.01,12.05.31ZM157.42,84c2.38.06,3.84.21,4.37.44.82.35,1.5.99,2.03,1.9.53.91.82,1.87.88,2.87,0,.47-.25,1.15-.75,2.03-.5.88-1.07,1.68-1.72,2.38-1.41,1.53-2.06,2.58-1.94,3.13.12.56,1.24,1.54,3.35,2.96,5.65,3.71,7.03,6.97,4.15,9.8-1.12,1.12-2.33,1.54-3.62,1.28-1.3-.26-3.74-1.46-7.33-3.58-1.59-.88-2.59-1.34-3-1.37-.41-.03-1.06.43-1.94,1.37-5.18,5.24-9.3,6.21-12.36,2.91-1-1.06-.96-2.49.13-4.28,1.09-1.79,3.81-5.05,8.17-9.75,1.12-1.18,1.38-1.77.79-1.77-.24,0-.59.06-1.06.18-1.12.35-2.38.54-3.8.57-1.41.03-2.38-.1-2.91-.4-1.53-.71-2.43-1.97-2.69-3.8-.27-1.82.16-3.32,1.28-4.5.53-.47,1.16-.79,1.9-.97.74-.18,2.63-.44,5.69-.79.41,0,.9-.03,1.46-.09.56-.06,1.1-.12,1.63-.18s.88-.12,1.06-.18c1.77-.18,3.84-.23,6.22-.18Z"/>
        <path class="cls-1" d="M189.95,85.5c.65.59,1.04,1.22,1.19,1.9.15.68.22,2.02.22,4.02v3.62h.97c.59,0,1.35-.09,2.3-.26.94-.18,1.49-.32,1.63-.44.15-.12.34-1.06.57-2.83.18-1.35.34-2.29.49-2.83.15-.53.46-1.03.93-1.5,1-1.12,2.1-1.66,3.31-1.63,1.21.03,2.28.57,3.22,1.63.82.94,1.31,1.97,1.46,3.09.15,1.12.19,4.21.13,9.27,0,2.94-.04,5.21-.13,6.8-.09,1.59-.21,3.02-.35,4.28-.15,1.27-.44,2.22-.88,2.87-.44.65-.93,1.18-1.46,1.59-.53.41-1.29.85-2.29,1.32-1.06.41-3.92.68-8.56.79-4.65.12-7.42-.03-8.3-.44-2.18-1-3.24-2.97-3.18-5.92.06-5.35.22-10.42.49-15.18.27-4.77.51-7.39.75-7.86.12-.23.18-.44.18-.62,0-.23.34-.69,1.01-1.37.68-.68,1.25-1.1,1.72-1.28,1.59-.71,3.12-.38,4.59.97ZM205.53,122.27c1.97.15,3.52.43,4.63.84,2.53.88,4.28,1.9,5.25,3.04.97,1.15,1.99,3.43,3.04,6.84.47,1.47.53,3.34.18,5.61-.35,2.27-1,4.13-1.94,5.61-.41.59-1.13,1.38-2.16,2.38-1.03,1-1.69,1.5-1.99,1.5-.18,0-.26.06-.26.18s-.54.44-1.63.97c-1.09.53-1.9.85-2.43.97-.18.06-.5.15-.97.26-.47.12-.79.18-.97.18-.65.18-2.35.29-5.12.35-2.77.06-4.33.03-4.68-.09-.47-.18-1.12-.38-1.94-.62-3-.88-5.36-2.88-7.06-6-1.71-3.12-2.24-6.41-1.59-9.89.41-2.3,1.12-4.19,2.12-5.69,1-1.5,2.44-2.81,4.33-3.93.94-.53,1.47-.79,1.59-.79s.32-.09.62-.27c1.06-.53,2.94-.97,5.65-1.32,1.59-.24,3.37-.28,5.34-.13ZM194.72,104.39c-.29.18-.77.26-1.41.26-1.35,0-2.09.41-2.21,1.24-.18,1.06.09,1.68.79,1.85.41.12,1.25.09,2.52-.09,1.26-.18,1.99-.35,2.16-.53.29-.29.37-.79.22-1.5-.15-.71-.4-1.12-.75-1.24-.41-.18-.85-.18-1.32,0ZM203.15,132.29c-1.32,0-2.25.09-2.78.26-.41.06-.97.21-1.68.44-1.47.41-2.59,1.31-3.35,2.69-.77,1.38-.83,2.58-.18,3.58.82,1.24,2.91,1.81,6.27,1.72,3.35-.09,5.5-.75,6.44-1.99,1.06-1.53,1.43-2.88,1.1-4.06-.32-1.18-1.34-2-3.05-2.47-.53-.12-1.46-.18-2.78-.18ZM218.38,83.73c.82,1.59,1.24,4.47,1.24,8.65,0,2.35.12,3.69.35,4.02.23.32,1.26.52,3.09.57,2.41.12,4.13.47,5.17,1.06,1.03.59,1.54,1.53,1.54,2.83,0,1.65-.66,2.96-1.99,3.93s-3.11,1.46-5.34,1.46c-1.59,0-2.49.18-2.69.53-.21.35-.37,1.8-.49,4.33-.06,3.24-.34,5.37-.84,6.4-.5,1.03-1.58,1.84-3.22,2.43-1.94.65-3.44-.18-4.5-2.47-1.06-2.29-1.38-5.44-.97-9.45.18-1.77.26-5.56.26-11.39,0-4.24.1-7.25.31-9.05.21-1.79.59-3.07,1.15-3.84.56-.76,1.49-1.32,2.78-1.68,1.94-.47,3.32.09,4.15,1.68Z"/>
      </g>
    </g>
  </g>
</svg>