<?xml version="1.0" encoding="UTF-8"?>
<svg id="Layer_1" data-name="Layer 1" xmlns="http://www.w3.org/2000/svg" xmlns:xlink="http://www.w3.org/1999/xlink" viewBox="0 0 334.93 221.18">
  <defs>
    <style>
      .cls-1 {
        fill: #73b8d6;
      }

      .cls-2 {
        fill: #fff;
        stroke: url(#linear-gradient);
        stroke-miterlimit: 10;
        stroke-width: 3px;
      }

      .cls-3 {
        isolation: isolate;
      }
    </style>
    <linearGradient id="linear-gradient" x1="0" y1="911.55" x2="334.93" y2="911.55" gradientTransform="translate(0 -800.96)" gradientUnits="userSpaceOnUse">
      <stop offset="0" stop-color="#8fd7f2"/>
      <stop offset=".04" stop-color="#69cdef"/>
      <stop offset=".67" stop-color="#89d6f1"/>
      <stop offset="1" stop-color="#98daf3"/>
    </linearGradient>
  </defs>
  <path class="cls-2" d="M183.32,24.16C173.48,5.58,147.77-2.84,127.46,3.69c-16.6,5.34-27.47,20-25.78,35.93-14.11,2.9-38.71,9.74-60.16,26.95-23.18,18.59-54.44,58.73-32.66,87.07,16.47,21.43,53.82,23.81,61.88,24.18.07,1.15,1.96,23.96,26.64,34.55,18.23,7.82,41.18,5.67,57.58-5.53,6.28,3.33,32.99,16.69,67.9,11.75,23.29-3.3,38.83-13.12,45.55-17.97,15.6,7.09,26.17,6.15,31.8,4.84,27.57-6.43,39.4-45.76,30.08-74.63-8.95-27.75-36.48-42.88-46.16-47.68,12.19-18.54,12.63-40.06-.26-54.59-18.74-21.13-64.24-25.35-99.78-2.99l-.77-1.41h0Z"/>
  <g class="cls-3">
    <g class="cls-3">
      <g class="cls-3">
        <path class="cls-1" d="M153.54,80.07c1.79.03,3.19.19,4.19.49,2.35.59,4.34,1.88,5.96,3.88,1.62,2,2.54,4.24,2.78,6.71.23,2.47-.18,4.97-1.24,7.5-.41.88-1.25,1.9-2.52,3.05-1.27,1.15-2.4,1.96-3.4,2.43-1.53.65-1.68.97-.44.97,1.53,0,2.68.5,3.44,1.5.76,1,1.21,2.62,1.32,4.86l.18,2.47,3.09.18c2.41.12,4.02.32,4.81.62.79.29,1.37.88,1.72,1.77.65,1.59.21,3.35-1.32,5.3-.59.71-1.21,1.19-1.85,1.46-.65.26-1.68.46-3.09.57-3.47.24-9.31.47-17.52.71-8.21.24-13.14.29-14.79.18-1.88-.12-3.24-.56-4.06-1.32-.82-.76-1.24-1.91-1.24-3.44,0-1.71.5-2.87,1.5-3.49,1-.62,2.83-.96,5.47-1.02,1.65,0,2.62-.07,2.91-.22.29-.15.5-.63.62-1.46.47-3.65.96-5.88,1.46-6.71.5-.82,1.72-1.41,3.66-1.77.76-.12,1.19-.22,1.28-.31.09-.09.01-.16-.22-.22-.18-.06-.47-.15-.88-.26-1.24-.35-2.09-.63-2.56-.84-.47-.21-1.03-.6-1.68-1.19-2.88-2.35-3.88-5.83-3-10.42.06-.23.13-.6.22-1.1.09-.5.16-.81.22-.93.06-.53.16-.82.31-.88.15-.06.22-.26.22-.62,0-1.59,1.03-3.22,3.09-4.9,2.06-1.68,4.33-2.75,6.8-3.22,1.24-.23,2.75-.34,4.55-.31ZM156.8,126.95c4.62.09,7.22.22,7.81.4.82.24,1.54.66,2.16,1.28.62.62,1.04,1.31,1.28,2.07.35,1.29.35,4.65,0,10.06-.35,5.41-.77,8.62-1.24,9.62-.65,1.18-1.74,2.02-3.27,2.52-1.53.5-2.77.4-3.71-.31-1.06-.83-1.68-1.66-1.85-2.52-.18-.85-.21-3.13-.09-6.84.06-3.3.06-5.22,0-5.78-.06-.56-.24-.9-.53-1.01-.41-.06-2.99-.04-7.72.04-4.74.09-8.14.22-10.2.4-2.18.12-3.56.09-4.15-.09-1.59-.71-2.47-1.96-2.65-3.75-.18-1.79.5-3.22,2.03-4.28.65-.53,1.43-.85,2.34-.97.91-.12,3.05-.23,6.4-.35,4.06-.18,6.12-.29,6.18-.35.18-.18,2.57-.22,7.19-.13ZM150.4,89.87c-1.24.38-2.09,1.13-2.56,2.25-.71,1.59-.54,2.74.49,3.44,1.03.71,2.63.79,4.81.26,1.88-.53,2.99-1.49,3.31-2.87.32-1.38-.31-2.34-1.9-2.87-1.53-.53-2.91-.6-4.15-.22ZM150.05,105.54l-1.77-.09c.06.06.15.12.26.18.71.41,1.15,2.33,1.32,5.74l.18,3.27,1.59-.09c1.29,0,2.09-.18,2.38-.53.29-.35.32-1.15.09-2.38-.12-.88.01-2.04.4-3.49.38-1.44.81-2.28,1.28-2.52.18-.12.12-.18-.18-.18-.18,0-.44.03-.79.09-1,.12-1.68.18-2.03.18-.3,0-1.21-.06-2.74-.18Z"/>
        <path class="cls-1" d="M194.28,84c.94.88,1.46,1.97,1.54,3.27.09,1.29-.22,3.88-.93,7.77-.06.47.04.9.31,1.28s1.49,1.75,3.66,4.1c.29.35.68.78,1.15,1.28.47.5.85.91,1.15,1.24.29.32.5.54.62.66,1.12,1.24,1.73,2.46,1.85,3.66.12,1.21-.26,2.22-1.15,3.05-1.94,1.83-4.36,1.71-7.24-.35-.77-.53-2-1.59-3.71-3.18-.88-.82-1.38-1.21-1.5-1.15-.12,0-.57.6-1.37,1.81-.79,1.21-1.19,1.87-1.19,1.99,0,.06-.26.41-.79,1.06-1.18,1.29-2.58,1.94-4.19,1.94s-2.87-.68-3.75-2.03c-.35-.41-.56-1.16-.62-2.25-.06-1.09.03-1.9.26-2.43.06-.06.19-.31.4-.75.21-.44.37-.78.49-1.02.35-.71.97-1.88,1.85-3.53,1.94-3.47,3.21-6,3.8-7.59.35-.88.76-2.24,1.24-4.06.47-1.71.96-2.94,1.46-3.71.5-.76,1.22-1.41,2.16-1.94,1.35-.82,2.85-.53,4.5.88ZM209.99,116.75c1.41.29,2.41.68,3,1.15,1,.88,1.65,1.9,1.94,3.05.29,1.15.41,3.25.35,6.31,0,3.36-.12,5.56-.35,6.62-.24,1.06-.83,2.03-1.77,2.91-.47.47-1.03.9-1.68,1.28-.65.38-1.15.57-1.5.57-.24,0-.44.09-.62.26-.24.24-3.09.47-8.56.71-4.53.18-7.18.35-7.95.53-.77.18-1.06.74-.88,1.68.06.59.54.94,1.46,1.06.91.12,3.78.18,8.61.18,5.65,0,9.24.13,10.77.4,1.53.26,2.56.9,3.09,1.9,1,1.82.56,3.62-1.32,5.38-1.12,1-2.09,1.57-2.91,1.72-.82.15-3.38.31-7.68.49-.71,0-1.68.03-2.91.09-8.89.29-14.08.04-15.58-.75-1.5-.79-2.28-3.69-2.34-8.7v-1.68c0-1.35-.01-2.34-.04-2.96-.03-.62-.01-1.38.04-2.29.06-.91.1-1.54.13-1.9.03-.35.15-.82.35-1.41.21-.59.37-.96.49-1.1.12-.15.41-.4.88-.75.47-.35.85-.56,1.15-.62.29-.06.82-.18,1.59-.35.76-.18,1.41-.29,1.94-.35s1.35-.18,2.47-.35c2.06-.23,5.38-.47,9.98-.71,1.77-.06,2.85-.18,3.27-.35.41-.18.65-.59.71-1.24.06-.53.06-.82,0-.88-.12-.06-2.5.03-7.15.26-4.65.24-8.47.44-11.48.62-2.29.18-3.92-.63-4.86-2.43-.94-1.79-.65-3.49.88-5.08.59-.65,1.37-1.09,2.34-1.32.97-.23,2.9-.47,5.78-.71.29,0,.84-.04,1.63-.13.79-.09,1.5-.15,2.12-.18.62-.03,1.13-.07,1.54-.13,1.65-.18,3.77-.32,6.36-.44,2.65-.18,4.03-.29,4.15-.35.29-.29,1.15-.29,2.56,0ZM214.23,79.98c.82.15,1.41.34,1.77.57.82.59,1.34,1.62,1.54,3.09.21,1.47.37,5.62.49,12.45.29,5.06.35,8.86.18,11.39-.18,2.53-.46,4.12-.84,4.77-.38.65-1.19,1.27-2.43,1.85-2.71,1.24-4.62.65-5.74-1.77-.59-1.18-.91-6.21-.97-15.1-.06-8.89.18-13.68.71-14.39,1-1.41,2.21-2.38,3.62-2.91.29-.12.85-.1,1.68.04Z"/>
      </g>
    </g>
  </g>
</svg>