<svg width="43" height="25" viewBox="0 0 43 25" fill="none" xmlns="http://www.w3.org/2000/svg">
<path d="M34.7914 16.9329C34.4505 16.9329 34.1095 16.899 33.775 16.8382C33.5369 16.7908 33.2989 16.7367 33.0737 16.6555C32.5526 16.4864 32.1216 16.1143 31.8643 15.6002C31.6069 15.0861 31.5555 14.5042 31.7163 13.9495C31.9865 13.0362 32.7778 12.4274 33.6849 12.4274C33.8908 12.4274 34.0966 12.4612 34.2961 12.5221C34.3604 12.5424 34.4312 12.5626 34.4955 12.5762C34.592 12.5965 34.6885 12.6033 34.785 12.6033C35.2032 12.6033 35.6213 12.4342 35.9945 12.123C36.5284 11.6765 36.9016 10.9932 37.0302 10.2152C37.1653 9.43046 37.0367 8.65927 36.6828 8.04366C36.374 7.51599 35.9301 7.17094 35.4219 7.07622C35.3254 7.05593 35.2225 7.04922 35.126 7.04922C34.7914 7.04922 34.4569 7.15744 34.1417 7.36716C33.8136 7.58364 33.4404 7.69186 33.0544 7.69186C32.3403 7.69186 31.6841 7.31302 31.3046 6.67034C31.0151 6.1765 30.925 5.60152 31.0472 5.03326C31.1695 4.47177 31.4976 3.99146 31.9672 3.68704C32.9322 3.05113 34.0323 2.7196 35.1388 2.7196C35.4734 2.7196 35.8143 2.75344 36.1424 2.81432C37.828 3.12551 39.269 4.18764 40.2019 5.79094C41.0832 7.3063 41.3985 9.14632 41.0897 10.9729C40.7809 12.7994 39.8802 14.4096 38.5614 15.519C37.6929 16.2429 36.6764 16.7164 35.6342 16.872C35.3576 16.9126 35.0745 16.9329 34.7979 16.9329H34.7914Z" fill="#CEC5AE"/>
<path d="M35.1398 3.73433C35.4164 3.73433 35.6994 3.76138 35.9761 3.80874C37.385 4.07257 38.5945 4.95876 39.3793 6.31176C40.1385 7.6174 40.4086 9.20725 40.1384 10.7903C39.8747 12.3733 39.0963 13.7668 37.9576 14.7139C37.2113 15.3363 36.3685 15.7219 35.4871 15.8572C35.2555 15.8911 35.024 15.9113 34.7924 15.9113C34.5093 15.9113 34.2262 15.8843 33.9431 15.8302C33.7437 15.7963 33.5507 15.7422 33.3577 15.6813C32.7787 15.4919 32.457 14.8492 32.6372 14.2404C32.7851 13.7466 33.2162 13.4285 33.6794 13.4285C33.7887 13.4285 33.8981 13.4421 34.001 13.4827C34.104 13.5165 34.2133 13.5436 34.3227 13.5639C34.4771 13.591 34.6315 13.6044 34.7795 13.6044C35.41 13.6044 36.0404 13.3609 36.5937 12.9076C37.3142 12.3055 37.8096 11.4058 37.9833 10.3775C38.157 9.34925 37.9833 8.32773 37.5072 7.5024C37.0505 6.72443 36.3749 6.21028 35.5901 6.06145C35.4357 6.03439 35.2813 6.02091 35.1269 6.02091C34.6122 6.02091 34.104 6.18323 33.6279 6.48765C33.4478 6.60266 33.2484 6.66355 33.0489 6.66355C32.6822 6.66355 32.3284 6.47418 32.1225 6.1224C31.8009 5.5812 31.9617 4.87081 32.4699 4.53933C33.287 4.00489 34.2134 3.72079 35.1333 3.72079M35.1398 1.70483C33.8531 1.70483 32.5728 2.09046 31.4535 2.82785C30.0381 3.75465 29.6071 5.71648 30.4885 7.20478C31.0417 8.14512 32.0067 8.70659 33.0553 8.70659C33.6215 8.70659 34.1748 8.53749 34.6508 8.2263C34.8181 8.11806 34.9789 8.06395 35.1269 8.06395C35.1655 8.06395 35.2105 8.06396 35.2491 8.07749C35.545 8.13161 35.7445 8.38191 35.8603 8.5781C36.0919 8.984 36.1755 9.49808 36.0855 10.0393C35.9954 10.5805 35.7509 11.0338 35.3971 11.3314C35.1977 11.5005 34.9853 11.5885 34.7859 11.5885C34.7473 11.5885 34.7023 11.5885 34.6637 11.5749C34.6315 11.5749 34.6058 11.5614 34.5736 11.5546C34.2841 11.4599 33.9817 11.4126 33.6794 11.4126C32.3477 11.4126 31.1833 12.3124 30.7908 13.6518C30.5528 14.4636 30.63 15.3228 31.0031 16.0737C31.3827 16.8246 32.0132 17.3794 32.7852 17.6297C33.0489 17.7176 33.3255 17.7852 33.6022 17.8393C33.9946 17.9138 34.3935 17.9476 34.7924 17.9476C35.114 17.9476 35.4421 17.9206 35.7638 17.8732C36.9797 17.6838 38.1505 17.1493 39.1541 16.3104C40.666 15.0522 41.6889 13.2188 42.0363 11.1487C42.3837 9.07866 42.0234 6.98831 41.0198 5.26323C39.9454 3.40962 38.2728 2.18518 36.3106 1.81987C35.9246 1.74545 35.5322 1.71161 35.1398 1.71161V1.70483Z" fill="black"/>
<path d="M32.7584 1.02148V9.94456C32.7584 17.3658 25.6431 23.3866 16.8616 23.3866C8.0801 23.3866 0.964844 17.3658 0.964844 9.94456V1.02148H32.7519H32.7584Z" fill="#CEC5AE"/>
<path d="M16.8618 24.3946C7.56559 24.3946 0 17.907 0 9.93783V1.01475C0 0.453255 0.431033 0 0.965 0H32.7521C33.286 0 33.7171 0.453255 33.7171 1.01475V9.93783C33.7171 17.907 26.1515 24.3946 16.8553 24.3946H16.8618ZM1.93642 2.03627V9.9446C1.93642 16.7975 8.63353 22.3719 16.8682 22.3719C25.1029 22.3719 31.8 16.7975 31.8 9.9446V2.03627H1.94286H1.93642Z" fill="black"/>
</svg>
