<?xml version="1.0" encoding="UTF-8"?>
<svg id="Layer_1" xmlns="http://www.w3.org/2000/svg" version="1.1" viewBox="0 0 1450 1450">
  <!-- Generator: Adobe Illustrator 29.6.1, SVG Export Plug-In . SVG Version: 2.1.1 Build 9)  -->
  <defs>
    <style>
      .st0 {
        fill: #fff;
      }

      .st1 {
        fill: none;
        stroke: #f80;
        stroke-linecap: round;
        stroke-linejoin: round;
        stroke-width: 60px;
      }
    </style>
  </defs>
  <circle class="st0" cx="725" cy="725" r="725"/>
  <g>
    <polyline class="st1" points="250.78 351.56 400.81 351.56 524.08 867.69"/>
    <path class="st1" d="M896.61,505.36h179.28s43.67,0,36.84,52.11c-4.55,35.15-71.22,286.04-71.22,286.04,0,0-10.2,24.17-50.88,24.17H473.2"/>
    <g>
      <path class="st1" d="M473.27,982.12h534.65"/>
      <path class="st1" d="M473.27,982.12c-31.58,0-57.18-25.6-57.18-57.18s25.6-57.18,57.18-57.18"/>
    </g>
    <line class="st1" x1="682.37" y1="505.36" x2="437.53" y2="505.36"/>
    <circle class="st1" cx="579.44" cy="1130.27" r="71.48"/>
    <circle class="st1" cx="906.55" cy="1130.27" r="71.48"/>
    <line class="st1" x1="783.48" y1="436.75" x2="783.48" y2="676"/>
    <polyline class="st1" points="707.84 647.41 784.13 724.99 859.11 647.41"/>
  </g>
</svg>