<svg width="1934" height="1033" viewBox="0 0 1934 1033" fill="none" xmlns="http://www.w3.org/2000/svg">
<path d="M1934 0H4V1032.02H1934V0Z" fill="url(#paint0_linear_1763_4499)"/>
<path d="M1025.67 626.398L1026.13 622.899L1023.54 619.891L1022.57 616.62L1021.04 613.493L1019.93 610.206L1017.61 607.347L1016.6 603.967L1015.04 600.794L1013.2 597.842L1011.06 595.019L1008.35 592.475L1006.26 589.643L1003.72 587.052L1000.97 584.617L998.183 582.233L995.494 579.792L993.384 576.68L989.44 575.194L986.603 572.614L982.807 571.092L979.282 569.26L975.885 567.217L971.549 566.623L968.101 564.616L964.163 563.429L960.464 561.788L956.559 560.524L952.14 560.153L948.183 558.79L943.982 558.011L940.206 556.117L935.87 555.73L931.617 555.163L927.68 553.532L923.415 553.001L919.22 552.19L914.974 551.54L910.58 551.902L906.354 551.169L902.063 550.947L897.759 551.236L893.448 550.23L889.144 550.586L884.815 550.689L880.247 551.819L880.948 547.97L878.819 544.739L878.677 541.236L877.732 537.84L876.355 534.533L873.84 531.643L872.276 528.392L870.481 525.193L866.834 523.01L865.225 519.63L862.234 517.097L858.779 514.955L855.164 513.036L851.998 510.708L848.511 508.701L844.883 506.864L841.319 504.872L837.182 503.541L833.322 501.647L828.632 501.606L824.618 499.955L820.321 499.031L815.862 498.737L811.494 498.138L807.087 497.689L802.642 497.772L798.222 497.942L793.732 496.915L789.26 497.21L784.944 498.293L780.756 499.583L776.079 499.315L771.897 500.62L768.114 501.621L764.46 500.094L761.745 497.37L758.548 495.022L755.974 492.013L752.417 489.929L748.222 488.654L744.69 486.554L740.753 485.016L736.436 484.227L732.654 482.292L728.24 481.925L723.904 481.559L719.71 480.341L715.322 480.372L710.98 480.775L706.573 480.604L702.468 481.977L698.004 482.163L693.764 483.195L690.56 485.899L686.398 487.493L683.059 484.97L680.203 482.24L676.304 480.625L672.071 479.603L668.571 477.472L664.332 476.647L660.201 475.687L656.258 474.18L651.941 473.783L647.714 473.112L643.61 471.595L639.203 471.853L634.944 470.821L630.544 471.879L626.24 470.872L621.91 471.812L617.684 471.548L613.457 471.492L609.249 471.848L605.036 472.08L600.719 471.744L596.685 473.107L592.471 473.427L588.341 474.159L584.153 474.696L580.267 476.141L576.124 476.863L572.431 478.618L568.333 479.459L564.235 480.413L560.42 481.894L556.605 483.396L553.305 485.62L549.883 487.638L546.19 489.392L543.533 492.137L539.718 493.881L537.453 496.869L534.089 499.041L531.818 501.957L528.53 504.274L527.508 507.824L525.256 510.693L522.226 513.247L520.495 515.801L517.124 514.408L512.987 513.159L508.999 511.72L504.824 510.672L500.848 509.031L496.576 508.128L492.008 508.748L487.711 508.216L483.381 507.313L479.032 508.232L474.613 507.783L470.199 507.968L466.191 509.764L461.984 510.585L457.654 511.23L453.203 512.029L449.439 514.073L445.997 516.452L442.041 518.093L438.567 520.317L434.404 521.88L431.85 524.955L427.527 526.571L425.192 529.734L423.101 532.954L419.839 535.482L417.871 538.707L415.458 541.752L413.451 544.987L412.525 547.799L410.723 545.23L409.385 541.845L407.269 538.712L404.592 535.874L401.433 533.387L398.731 530.534L395.405 528.155L391.481 526.431L388.548 523.485L384.334 522.143L379.991 521.122L375.996 519.579L372.239 517.669L367.987 516.756L363.998 515.26L359.964 513.81L355.686 512.979L351.253 512.659L346.988 511.885L342.62 511.539L338.387 510.533L334.109 509.506L329.689 509.465L325.276 510.239L320.869 509.485L316.61 510.734L312.345 511.312L308.105 512.009L304.007 513.108L299.645 513.851L296.474 516.41L292.601 517.22L289.687 515.316L287.023 512.664L284.984 509.599L281.857 507.256L279.541 504.289L276.575 501.787L273.166 499.686L269.196 498.175L265.838 496.095L262.268 494.248L258.839 492.225L255.506 489.985L251.093 489.397L247.471 487.576L243.81 485.723L239.68 484.794L235.73 483.422L231.639 482.39L227.225 482.493L222.986 482.188L218.881 481.146L214.603 481.265L210.364 480.826L206.066 480.099L201.807 480.79L197.613 481.518L193.392 481.992L188.947 481.688L184.855 482.818L180.957 484.376L176.962 485.568L172.671 486.177L168.804 487.674L164.616 488.654L161.194 490.837L157.925 493.133L154.136 494.722L150.244 496.234L146.924 498.417L143.811 500.786L140.594 503.041L136.869 504.893L134.868 508.118L131.433 510.383L129.471 507.205L126.434 504.8L122.742 503.046L119.666 500.749L116.662 498.216L112.738 496.859L108.839 495.533L104.96 494.191L100.714 493.685L97.0468 491.781L92.4212 491.869L88.3039 490.429L84.0643 489.242L79.664 488.68L75.0706 489.552L70.7474 488.52L66.3084 488.695L61.8822 488.277L57.4046 488.019L53.0493 488.964L48.8419 490.269L44.3836 490.424L40.099 491.291L35.8658 492.313L31.7099 493.546L27.7791 495.182L23.5138 496.358L19.8597 498.422L16.2313 500.497L13.4585 503.376L9.34763 505.068L7.2568 508.361L3.50617 510.512L2.2967 514.145L0 516.157V607.022L1026.25 633.189L1026.84 629.768L1025.67 626.398Z" fill="#7DB29B"/>
<path d="M1930 574.116L1928.28 572.609L1925.75 570.628L1923.9 568.135L1920.79 566.675L1918.36 564.595L1915.03 563.501L1912.42 561.494L1909.38 559.972L1906.06 558.893L1902.58 558.254L1899.01 558.011L1895.56 557.392L1892.03 556.814L1888.55 557.959L1885.02 557.887L1881.45 558.083L1878.01 559.43L1878.48 556.293L1879.09 553.284L1877.61 550.421L1877.16 547.484L1876.33 544.59L1874.38 542.025L1873.47 539.115L1871.77 536.468L1869.22 534.269L1866.84 532.04L1864.48 529.796L1861.94 527.675L1859.59 525.306L1856.69 523.428L1853.38 522.04L1850.2 520.507L1846.5 519.837L1843.19 518.552L1840.04 516.808L1836.29 516.503L1832.85 515.75L1829.33 515.316L1825.84 514.769L1822.31 514.217L1818.74 513.773L1815.18 514.738L1811.54 514.083L1808.04 514.8L1804.47 515.136L1800.9 515.585L1797.82 517.298L1794.13 517.783L1790.86 519.145L1787.49 520.347L1784.94 522.623L1781.91 524.223L1779.15 526.106L1776.13 527.778L1774.01 530.172L1771.25 532.143L1768.83 534.409L1767.64 537.505L1765.82 534.739L1763.17 532.794L1760.32 531.091L1757.78 529.13L1755.44 526.839L1752.34 525.368L1749.13 524.052L1745.75 523.051L1742.04 523.041L1738.79 521.565L1735.12 522.112L1731.72 521.199L1728.33 522.179L1724.89 522.148L1721.46 522.494L1718.16 523.278L1715.19 524.785L1712.07 525.848L1708.62 526.441L1705.84 528.088L1703.39 530.048L1700.34 531.369L1697.92 532.732L1695.6 531.029L1692.89 529.068L1690.23 527.071L1687.3 525.327L1683.93 524.083L1681.23 522.097L1678.11 520.595L1674.82 519.336L1671.47 518.196L1668.41 516.642L1665.4 514.955L1662.24 513.479L1658.83 512.447L1655.55 511.142L1651.87 510.739L1648.24 510.311L1645.05 508.649L1641.24 508.882L1637.96 507.256L1634.3 507.07L1630.61 507.189L1626.99 507.045L1623.5 505.641L1619.86 505.45L1616.2 506.007L1612.57 506.075L1608.94 506.044L1605.31 506.209L1601.71 506.57L1598.22 507.37L1594.49 506.988L1590.93 507.478L1587.43 508.237L1584.02 509.212L1580.83 510.719L1577.05 510.724L1574 512.442L1570.63 513.443L1567.01 513.964L1564.08 515.77L1560.68 516.74L1557.21 517.674L1554.55 519.764L1551.48 521.256L1548.32 522.618L1545.01 523.851L1542.7 526.22L1539.63 527.721L1536.89 529.579L1533.89 531.209L1530.99 532.948L1528.19 534.791L1526.06 537.175L1523.76 539.388L1521.99 541.958L1519.21 543.862L1516.97 546.127L1515.06 548.573L1513.25 551.442L1510.23 549.373L1507.58 547.392L1504.4 546.04L1500.79 545.446L1498 543.418L1494.46 542.784L1491.11 541.783L1487.5 541.566L1484.08 540.621L1480.51 540.374L1476.92 540.73L1473.38 540.714L1469.84 540.745L1466.27 540.854L1462.68 541.008L1459.41 542.314L1455.59 542.386L1452.51 544.172L1449.12 545.271L1445.43 546.009L1442.95 548.393L1439.51 549.59L1437.05 551.84L1434.45 553.888L1431.2 555.426L1428.89 557.732L1426.79 560.152L1424.71 562.573L1422.34 564.848L1420.92 567.583L1419.17 570.163L1417.79 573.311L1414.74 571.092L1412.14 569.028L1409.04 567.506L1405.83 566.149L1402.58 564.858L1399.19 563.826L1395.61 563.295L1392.17 562.438L1388.84 561.086L1385.21 560.756L1381.56 560.746L1378 559.884L1374.35 560.287L1370.71 560.137L1367.06 559.936L1363.55 561.159L1359.89 561.03L1356.18 560.885L1352.72 561.907L1349.35 563.13L1345.55 562.975L1342.03 563.734L1338.82 565.622L1335.07 566.221L1331.6 567.439L1328.43 569.141L1325.12 570.566L1321.24 571.267L1318.57 573.538L1315.71 575.499L1312.59 576.861L1309.98 578.739L1307.72 580.881L1306.01 583.357L1303.51 585.37L1302.06 587.94L1300.25 590.329L1298.63 592.816L1297.37 595.432L1296.66 598.188L1296.39 601L1295.06 603.616L1293.85 606.315L1294.96 609.184L1293.7 611.96L1294.54 614.819L1290.96 615.216L1287.33 614.912L1284.2 616.527L1280.74 617.043L1277.46 618.054L1274.03 618.89L1271.36 620.84L1268.6 622.574L1265.45 623.947L1262.75 625.81L1261.08 628.421L1258.88 630.593L1256.95 632.925L1254.62 635.082L1253.21 637.673L1252.18 640.371L1250.72 642.921L1249.35 645.537L1249.22 648.385L1247.62 651.058L1248.56 653.937L1247.75 656.76L1248.52 659.541L1248.69 662.39L1930 696.178V574.116Z" fill="#8CBAA4"/>
<path d="M1884.24 622.203C1889.05 608.854 1889.48 591.459 1871.93 584.09C1867.44 582.207 1862.91 581.257 1857.84 582.135C1856.1 582.434 1845.79 585.649 1846.81 587.945C1844.89 583.641 1839.01 580.999 1833.31 580.979C1827.61 580.958 1822.18 583.161 1817.85 586.129C1810.85 590.912 1806.17 597.827 1804.98 605.138" fill="#89AC90"/>
<path d="M1788.27 678.154L1871.5 631.713C1875.12 615.262 1863.7 604.648 1854.95 600.603C1846.21 596.557 1834.64 596.815 1826.18 601.253C1825.96 596.134 1821.86 591.242 1816.03 589.147C1810.2 587.047 1802.93 587.842 1798.01 591.113C1803.02 582.274 1797.13 571.102 1786.82 566.025C1776.51 560.947 1763.14 561.174 1751.78 564.533C1741.21 567.655 1730.78 575.272 1732.59 584.188C1720.39 580.757 1705.4 586.438 1700.96 596.175C1698.64 601.242 1695.55 607.564 1697.14 612.806C1693.83 607.682 1686.17 604.622 1679.09 605.587C1676.88 594.514 1665.52 584.993 1651.83 582.733C1638.13 580.473 1623.01 585.628 1615.54 595.107C1606.65 592.878 1596.32 594.88 1589.68 600.117C1586.51 602.62 1584.25 605.819 1583.04 609.246C1581.9 612.471 1583.6 617.817 1581.13 620.185C1579.05 622.187 1571.23 623.286 1568.16 624.912C1563.7 627.275 1559.79 630.325 1556.78 633.87C1550.95 640.738 1548.51 649.417 1550.13 657.627" fill="#79A582"/>
<path d="M1379.08 668.267C1375.43 661.017 1376.37 652.389 1381.53 645.754C1386.69 639.123 1395.94 634.649 1405.66 634.092C1411.42 633.761 1416.85 635.851 1421.12 637.9C1424.63 629.293 1434.49 622.6 1445.85 621.702C1457.1 620.815 1468.73 625.805 1474.05 633.808C1482.56 627.213 1497.87 627.574 1505.88 634.561C1508.62 622.461 1520.36 611.97 1535.06 608.477C1549.77 604.984 1566.74 608.658 1577.25 617.605C1580.68 607.992 1596.33 603.575 1607.83 607.44C1619.32 611.305 1626.26 621.274 1627.63 631.212C1644.38 631.016 1659.61 643.679 1658.75 657.095C1678.1 654.257 1690.51 670.347 1686.42 684.754" fill="#709C7A"/>
<path d="M1240.65 653.014C1241.45 641.419 1235.15 630.681 1222.42 625.154C1230.3 610.722 1217.67 591.676 1198.35 588.843C1195.43 581.464 1187.78 575.401 1178.55 573.14C1169.31 570.886 1158.75 572.495 1151.19 577.32C1140.43 568.92 1124.31 565.178 1109.62 567.671C1094.93 570.163 1082.08 578.817 1076.48 589.993C1065.46 587.057 1052.56 589.302 1044.05 595.633C1035.55 601.965 1031.79 612.115 1034.61 621.145C1035.12 622.76 1030.85 621.718 1028.85 622.172" fill="#7D9E79"/>
<path d="M1724.35 682.401C1724.98 676.317 1735.88 670.961 1744.44 673.396C1745.91 669.402 1748.88 665.424 1754.02 663.349C1759.17 661.275 1766.76 661.843 1769.89 665.346C1762.78 655.862 1771.9 642.492 1786.99 640.279C1792.03 639.541 1798.08 640.181 1800.92 643.153C1795.65 634.179 1805.23 622.843 1818.96 621C1832.69 619.158 1847.06 626.222 1849.7 635.738C1851.72 632.404 1854.76 629.055 1859.6 627.703C1864.44 626.352 1871.2 628.06 1871.96 631.641C1864.81 621.578 1868.9 608.291 1881.35 601.124C1893.8 593.956 1913.41 593.611 1926.37 600.329C1927.65 600.995 1928.87 601.733 1930 602.532C1930 639.205 1930 713.707 1930 713.707" fill="#618C63"/>
<path d="M1741.82 687.406C1745.59 677.855 1745.66 665.635 1737.25 657.56C1731.58 652.116 1722.36 649.185 1713.58 650.042C1717.59 643.726 1714.95 635.191 1707.71 631.119C1700.48 627.048 1689.57 627.951 1683.53 633.127C1675.61 625.908 1661.2 623.942 1650.74 628.648C1640.29 633.354 1634.88 644.247 1638.44 653.432C1628.13 650.62 1615.72 657.931 1615.98 666.667C1606.9 665.217 1596.72 669.944 1593.07 676.771C1592.56 677.715 1593.13 679.408 1594.23 678.881" fill="#63906B"/>
<path d="M1085.3 628.477C1087.54 619.267 1094.91 610.577 1105.72 606.98C1116.53 603.384 1130.55 605.917 1136.96 613.776C1138.58 604.664 1147.82 597.027 1158.8 594.359C1196.25 585.267 1235.09 621.078 1232.21 649.035" fill="#6B8D68"/>
<path d="M1290.4 657.596C1290.97 645.743 1285.84 633.323 1274.54 625.665C1268.34 621.465 1260.24 619.06 1252.15 618.905C1248.28 618.833 1244.39 619.262 1240.74 620.299C1236.94 621.377 1234.61 623.715 1231.2 622.507C1228.5 621.553 1225.89 618.513 1223.06 617.239C1219.86 615.799 1216.38 614.783 1212.81 614.107C1205.79 612.775 1198.18 612.729 1191.24 614.416C1177.64 617.729 1167.32 628.312 1166.58 639.696" fill="#62895D"/>
<path d="M0 1032.27H1930V688.876C1849.37 680.992 1767.62 683.809 1686.85 680.109C1596.11 675.95 1505.41 670.878 1415.02 663.076C1346.9 657.199 1278.62 652.178 1210.84 644.009C1072.43 627.327 934.274 608.843 795.018 597.187C601.948 581.025 407.539 578.135 213.419 578.053C142.099 578.022 70.6766 578.399 0 585.262V1032.27Z" fill="#A3C17E"/>
<path d="M102.612 618.539L0 625.103V539.667C14.9639 539.765 30.1273 546.571 35.8465 557.64C43.187 552.619 54.857 553.382 62.7121 557.882C67.55 560.653 71.1269 564.528 73.7195 568.847C75.3472 571.541 76.5953 574.405 77.5281 577.284C96.5128 582.986 110.866 603.688 102.618 618.544L102.612 618.539Z" fill="#649568"/>
<path d="M237.081 665.171L0 685.909V597.785C11.1683 593.053 26.3574 593.827 33.627 601.98C36.7922 585.798 53.9178 573.342 73.7195 568.847C79.5932 567.511 85.7048 566.876 91.7522 567.052C104.059 567.413 116.521 570.695 125.514 577.444C134.515 584.193 139.52 594.653 136.747 604.271C147.883 598.151 163.233 597.362 175.25 602.295C187.274 607.223 195.47 617.662 195.805 628.493C219.119 627.992 240.086 646.62 237.088 665.176L237.081 665.171Z" fill="#598254"/>
<g opacity="0.86">
<path d="M0.585099 254.584L5.57736 254.873L10.2029 254.373L14.8349 253.939L19.4669 254.135L24.0989 254.842L28.7309 252.438L33.3565 252.639L37.9885 253.49L42.6205 253.418L47.2525 254.419L51.8845 253.139L56.5165 252.758L61.1485 254.878L65.7805 254.311L70.4061 254.46L75.038 253.33L79.67 253.723L84.302 253.64L88.934 254.811L93.566 252.907L98.198 254.708L102.83 252.809L107.462 254.656L112.094 252.598L116.726 253.888L121.358 253.165L125.99 253.728L130.622 253.723L135.254 254.048L139.886 254.553L144.518 252.959L149.15 254.249L153.782 252.572L158.414 252.546L163.046 252.768L167.684 253.568L172.316 254.543L176.948 253.485L181.58 253.537L186.212 254.765L190.838 254.228L195.47 252.309L200.108 254.853L204.734 252.469L209.366 253.237L213.998 253.222L218.63 254.182L223.262 252.278L227.894 253.372L232.526 252.278L237.164 254.533L241.796 252.964L246.428 253.743L251.06 254.3L255.699 253.237L260.331 253.041L264.969 254.641L269.601 253.465L274.233 252.52L278.872 254.146L283.504 253.929L288.136 252.629L292.774 253.604L297.406 253.083L302.038 253.862L306.677 253.176L311.321 254.362L316.365 254.393L314.918 249.718L313.374 245.941L309.662 243.258L307.133 239.857L301.864 238.856L299.31 235.224L294.801 233.758L290.272 232.509L286.077 230.698L281.741 229.037L276.845 229.006L272.323 227.664L267.729 228.381L263.226 227.762L258.53 226.74L254.142 228.242L249.716 229.124L245.168 229.625L241.172 231.699L236.006 230.734L231.973 232.659L227.945 234.517L223.571 235.306L221.113 232.318L219.402 228.902L217.343 225.574L213.889 223.077L209.964 221.054L207.089 218.247L203.943 215.579L200.443 213.169L196.21 211.709L192.298 209.707L187.345 210.078L183.227 208.443L178.673 208.628L174.272 206.683L169.904 208.401L165.175 207.591L161.225 209.753L157.198 211.229L153.428 213.066L149.234 214.284L145.644 216.363L141.089 217.566L139.063 221.08L134.572 222.674L133.523 226.575L130.333 230.203L127.515 226.126L123.623 224.16L119.029 223.799L114.648 223.907L110.151 223.123L106.156 224.867L102.605 226.838L99.1502 228.835L95.9271 231.4L93.09 228.335L90.5938 225.239L88.2071 221.91L82.9639 221.142L80.3262 217.875L76.3505 216.012L71.6413 215.46L67.4081 214.335L63.4516 212.158L59.0191 210.718L54.3099 210.6L49.62 210.868L45.5026 213.365L40.8899 213.499L36.4381 214.346L32.1406 215.646L28.7181 218.19L24.4978 219.697L20.7472 221.812L16.7842 223.835L14.5197 227.2L12.7119 230.683L8.48523 232.762L8.36943 236.901L4.76033 239.501L3.69883 243.072L2.04547 246.478L0.134766 249.95L0.585099 254.584Z" fill="white"/>
</g>
<g opacity="0.82">
<path d="M1771.66 347.497L1767.16 347.513L1762.56 347.213L1757.96 349.071L1753.36 346.847L1748.76 348.091L1744.16 347.286L1739.56 348.581L1734.95 346.831L1730.35 349.035L1725.75 348.467L1721.15 348.823L1716.55 347.028L1711.95 346.924L1707.34 348.777L1702.74 347.446L1698.13 349.04L1693.53 346.94L1688.93 348.122L1684.33 346.888L1679.73 347.089L1675.12 346.759L1670.52 348.947L1665.92 348.183L1661.32 347.44L1656.72 348.292L1652.12 346.666L1647.52 346.981L1642.92 348.065L1638.32 349.019L1633.71 347.827L1629.11 348.689L1624.51 347.962L1619.9 348.41L1615.31 346.672L1610.7 348.668L1606.1 348.483L1601.49 346.991L1596.89 346.981L1592.29 348.416L1587.68 349.004L1583.08 347.807L1578.47 346.971L1573.87 348.581L1569.27 348.287L1564.66 348.06L1560.06 348.374L1555.46 348.488L1550.85 348.756L1546.24 348.818L1541.64 348.736L1537.03 347.126L1532.92 346.697L1534.06 344.365L1535.97 341.104L1538.36 338.09L1539.42 333.952L1544.21 332.621L1547.77 330.299L1551.85 328.585L1555.67 326.067L1560.6 326.248L1564.95 324.586L1569.76 325.701L1574.32 325.505L1579.01 324.648L1583.72 324.772L1588.36 325.417L1592.45 327.569L1596.88 328.869L1599.12 325.711L1600.6 322.058L1605.25 320.685L1608.36 318.157L1611.92 315.943L1615.83 314.003L1620.6 314.302L1624.8 312.79L1629.28 313.569L1633.47 314.648L1638.09 313.709L1642.44 314.503L1645.61 317.424L1650.65 317.45L1652.52 321.248L1656.06 323.203L1659.1 326.067L1660.58 322.811L1660.87 318.931L1663.05 315.628L1666.42 313.017L1669.3 310.05L1673.03 307.749L1677.99 307.47L1682.06 305.984L1686.45 305.189L1690.91 304.147L1695.43 305.484L1700.24 304.937L1705.29 305.019L1709 307.868L1713.29 309.545L1716.6 312.326L1721.61 313.76L1724.65 316.877L1726.18 320.732L1728.37 324.143L1729.45 328.823L1733.97 325.381L1738.6 325.67L1742.97 327.161L1747.26 327.44L1751.67 327.342L1755.91 328.136L1759.51 330.216L1763.07 332.295L1766.99 334.267L1768.86 337.631L1770.91 340.799L1773.29 344.143L1771.66 347.497Z" fill="white"/>
</g>
<path d="M1930 761.892H0V1032.95H1930V761.892Z" fill="#FBEDDC"/>
<path d="M967.966 902.004C960.921 902.004 960.921 902.448 953.87 902.448C946.819 902.448 946.819 900.962 939.775 900.962C932.724 900.962 932.724 901.194 925.679 901.194C922.437 901.194 919.285 900.441 919.343 898.8C919.561 893.098 919.883 893.103 920.102 887.401C920.166 885.786 923.074 884.749 926.278 884.749C933.245 884.749 933.245 883.763 940.212 883.763C947.18 883.763 947.18 883.676 954.147 883.676C961.114 883.676 961.114 885.275 968.082 885.275C971.285 885.275 973.247 885.796 973.241 887.412C973.228 893.114 973.73 893.114 973.717 898.821C973.717 900.467 971.208 902.01 967.966 902.01V902.004Z" fill="#E7D3B8"/>
<path d="M1147.78 902.309C1140.91 902.309 1140.91 901.406 1134.04 901.406C1127.16 901.406 1127.16 901.06 1120.28 901.06C1113.4 901.06 1113.4 902.51 1106.53 902.51C1099.65 902.51 1099.65 901.628 1092.77 901.628C1089.53 901.628 1087.2 900.441 1087.08 898.795C1086.66 893.093 1086.2 893.113 1085.79 887.412C1085.68 885.796 1088.24 885.234 1091.45 885.234C1098.24 885.234 1098.24 885.064 1105.04 885.064C1111.84 885.064 1111.83 885.053 1118.64 885.053C1125.44 885.053 1125.43 885.404 1132.23 885.404C1139.02 885.404 1139.03 884.3 1145.82 884.3C1149.03 884.3 1152.76 885.724 1152.95 887.339C1153.62 893.041 1152.96 893.093 1153.63 898.795C1153.83 900.441 1151.03 902.314 1147.79 902.314L1147.78 902.309Z" fill="#D8C4AB"/>
<path d="M1367.49 917.521C1362.02 917.521 1356.55 917.526 1351.09 917.536C1342.89 917.536 1342.89 917.118 1334.69 917.118C1326.49 917.118 1326.49 918.424 1318.29 918.424C1310.08 918.424 1310.08 919.136 1301.88 919.136C1298.61 919.136 1295.28 916.886 1294.93 915.204C1293.7 909.378 1292.89 909.486 1291.66 903.656C1291.32 902.004 1294.86 901.736 1298.09 901.736C1306.2 901.736 1306.2 901.39 1314.3 901.39C1322.4 901.39 1322.4 899.816 1330.5 899.816C1338.6 899.816 1338.61 900.193 1346.71 900.193C1354.82 900.193 1354.82 900.895 1362.93 900.895C1366.16 900.895 1370.45 901.622 1370.88 903.274C1372.4 909.099 1372.56 909.074 1374.09 914.905C1374.53 916.587 1370.76 917.516 1367.48 917.516L1367.49 917.521Z" fill="#D8C4AB"/>
<path d="M378.01 1008.26C370.457 1008.26 370.457 1008.13 362.911 1008.13C355.364 1008.13 355.358 1008.47 347.812 1008.47C340.265 1008.47 340.259 1007.72 332.712 1007.72C329.238 1007.72 327.682 1007.05 328.454 1005.17C330.225 1000.81 331.992 996.446 333.755 992.084C334.507 990.232 337.274 989.427 340.703 989.427C348.159 989.427 348.159 988.395 355.615 988.395C363.071 988.395 363.071 987.832 370.528 987.832C377.984 987.832 377.984 988.328 385.44 988.328C388.869 988.328 392.009 990.289 391.32 992.136C388.901 998.674 386.83 998.184 384.411 1004.72C383.71 1006.6 381.484 1008.26 378.016 1008.26H378.01Z" fill="#E7D3B8"/>
<path d="M486.263 801.475C478.691 801.475 478.691 801.372 471.119 801.372C463.547 801.372 463.547 801.346 455.975 801.346C448.403 801.346 448.403 802.079 440.831 802.079C433.259 802.079 433.259 802.889 425.687 802.889C422.663 802.889 421.19 801.284 421.762 799.855C423.75 794.881 424.207 794.999 426.188 790.025C426.748 788.616 428.659 786.428 431.65 786.428C439.139 786.428 439.139 787.409 446.627 787.409C454.115 787.409 454.115 787.569 461.604 787.569C469.092 787.569 469.092 787.161 476.587 787.161C484.082 787.161 484.075 788.049 491.57 788.049C494.562 788.049 495.823 788.188 495.334 789.597C494.18 792.913 493.031 796.229 491.886 799.545C491.384 800.98 489.28 801.465 486.256 801.465L486.263 801.475Z" fill="#E7D3B8"/>
<path d="M1593.14 1007.45C1586.18 1007.45 1586.18 1007.33 1579.23 1007.33C1572.29 1007.33 1572.29 1007.3 1565.33 1007.3C1558.38 1007.3 1558.38 1008.14 1551.43 1008.14C1544.47 1008.14 1544.47 1009.08 1537.53 1009.08C1530.57 1009.08 1530.57 1007.92 1523.62 1007.92C1520.15 1007.92 1517.96 1006.64 1517.33 1004.75C1515.13 998.215 1512.88 998.7 1510.68 992.162C1510.06 990.309 1513.44 988.787 1516.87 988.787C1525.45 988.787 1525.45 988.973 1534.03 988.973C1542.62 988.973 1542.62 988.503 1551.2 988.503C1559.78 988.503 1559.78 989.53 1568.36 989.53C1576.94 989.53 1576.94 989.308 1585.53 989.308C1588.95 989.308 1591.46 990.283 1592.17 992.136C1594.71 998.674 1594.17 998.808 1596.71 1005.35C1597.45 1007.23 1596.62 1007.45 1593.15 1007.45L1593.14 1007.45Z" fill="#E7D3B8"/>
<path d="M654.739 993.514C646.124 993.514 646.124 993.395 637.51 993.395C628.896 993.395 628.896 993.364 620.282 993.364C611.667 993.364 611.668 994.185 603.053 994.185C594.439 994.185 594.439 995.093 585.825 995.093C582.383 995.093 580.562 993.044 581.032 991.192C582.64 984.767 583.168 984.85 584.776 978.42C585.233 976.599 587.24 974.06 590.637 974.06C599.142 974.06 599.142 975.159 607.653 975.159C616.164 975.159 616.158 975.34 624.669 975.34C633.181 975.34 633.181 974.886 641.685 974.886C650.19 974.886 650.197 975.882 658.702 975.882C662.098 975.882 663.681 976.315 663.321 978.131C662.467 982.414 661.618 986.699 660.773 990.985C660.406 992.838 658.174 993.514 654.732 993.514H654.739Z" fill="#E7D3B8"/>
<path d="M943.809 930.07C935.542 930.07 935.542 930.834 927.269 930.834C919.002 930.834 919.002 931.68 910.729 931.68C902.456 931.68 902.456 930.633 894.189 930.633C885.916 930.633 885.916 930.23 877.649 930.23C874.348 930.23 870.726 929.647 870.849 927.939C871.26 922.01 872.534 922.067 872.946 916.143C873.062 914.466 875.564 913.46 878.826 913.46C886.996 913.46 886.996 913.037 895.167 913.037C903.337 913.037 903.337 913.966 911.514 913.966C919.691 913.966 919.684 913.764 927.861 913.764C936.038 913.764 936.031 913.749 944.208 913.749C947.47 913.749 948.776 914.44 948.743 916.117C948.634 922.046 950.23 922.062 950.12 927.991C950.088 929.699 947.109 930.07 943.803 930.07H943.809Z" fill="#E7D3B8"/>
<path d="M678.916 875.29C670.945 875.29 670.945 876.126 662.98 876.126C655.01 876.126 655.01 875.089 647.045 875.089C639.074 875.089 639.074 874.692 631.103 874.692C623.132 874.692 623.132 876.359 615.162 876.359C611.977 876.359 609.957 874.284 610.349 872.7C611.726 867.194 611.932 867.225 613.315 861.725C613.708 860.166 616.133 858.773 619.285 858.773C627.16 858.773 627.16 859.691 635.04 859.691C642.921 859.691 642.921 859.495 650.796 859.495C658.67 859.495 658.677 859.48 666.551 859.48C674.425 859.48 674.432 859.882 682.306 859.882C685.452 859.882 688.025 860.13 687.71 861.688C686.61 867.194 687.466 867.303 686.366 872.808C686.05 874.393 682.094 875.296 678.909 875.296L678.916 875.29Z" fill="#E7D3B8"/>
<path d="M916.002 852.751C908.153 852.751 908.153 853.505 900.305 853.505C892.456 853.505 892.456 853.138 884.607 853.138C876.759 853.138 876.759 852.38 868.91 852.38C861.061 852.38 861.061 852.622 853.213 852.622C850.08 852.622 846.773 852.07 846.915 850.527C847.397 845.186 848.562 845.254 849.044 839.913C849.179 838.401 851.514 837.064 854.609 837.064C862.367 837.064 862.367 838.22 870.126 838.22C877.885 838.22 877.885 835.996 885.65 835.996C893.415 835.996 893.408 837.993 901.173 837.993C908.938 837.993 908.932 838.096 916.697 838.096C919.798 838.096 921.059 838.354 921.001 839.866C920.795 845.207 921.702 845.233 921.496 850.574C921.438 852.111 919.142 852.751 916.009 852.751H916.002Z" fill="#E7D3B8"/>
<path d="M264.936 786.738C257.442 786.738 257.442 789.008 249.953 789.008C242.458 789.008 242.458 786.97 234.97 786.97C227.475 786.97 227.475 786.862 219.98 786.862C212.485 786.862 212.485 786.836 204.991 786.836C201.999 786.836 200.487 786.779 201.279 785.376C204.019 780.504 203.093 780.169 205.833 775.298C206.612 773.915 210.298 773.476 213.257 773.476C220.669 773.476 220.669 773.863 228.08 773.863C235.491 773.863 235.491 772.228 242.902 772.228C250.313 772.228 250.313 773.224 257.731 773.224C265.149 773.224 265.142 773.389 272.56 773.389C275.519 773.389 277.417 774.178 276.709 775.556C274.213 780.427 273.178 780.087 270.681 784.958C269.961 786.361 267.921 786.733 264.93 786.733L264.936 786.738Z" fill="#E7D3B8"/>
<path d="M135.794 984.778C128.132 984.778 128.132 985.675 120.464 985.675C112.802 985.675 112.802 983.039 105.133 983.039C97.4645 983.039 97.4645 982.693 89.8024 982.693C82.1338 982.693 82.1338 983.457 74.4717 983.457C66.8032 983.457 66.8032 984.896 59.1411 984.896C51.4726 984.896 51.4726 984.194 43.8105 984.194C36.1419 984.194 36.1419 982.75 28.4734 982.75C20.8049 982.75 20.8049 983.214 13.1363 983.214C9.71381 983.214 6.35561 982.559 7.48144 980.727C11.3865 974.38 13.3872 975.169 17.2923 968.822C18.3988 967.027 21.5318 965.195 24.9093 965.195C32.4814 965.195 32.4814 967.403 40.0534 967.403C47.6254 967.403 47.6254 963.162 55.1975 963.162C62.7695 963.162 62.7695 966.97 70.3415 966.97C77.9136 966.97 77.9136 967.166 85.4856 967.166C93.0576 967.166 93.0576 967.218 100.63 967.218C108.202 967.218 108.202 965.83 115.774 965.83C123.346 965.83 123.346 964.297 130.918 964.297C138.49 964.297 138.49 966.201 146.062 966.201C149.439 966.201 149.632 966.227 148.68 968.023C145.322 974.37 148.828 975.567 145.47 981.914C144.499 983.746 139.21 984.778 135.788 984.778H135.794Z" fill="#E7D3B8"/>
<path d="M1017.91 792.651C1010.39 792.651 1010.39 793.1 1002.88 793.1C995.359 793.1 995.359 791.784 987.845 791.784C980.325 791.784 980.325 791.614 972.804 791.614C965.284 791.614 965.284 791.996 957.763 791.996C954.759 791.996 952.185 791.439 952.211 790.025C952.301 785.123 952.739 785.128 952.829 780.221C952.854 778.833 955.003 778.647 957.975 778.647C965.412 778.647 965.412 778.415 972.849 778.415C980.286 778.415 980.286 777.032 987.723 777.032C995.16 777.032 995.16 777.924 1002.6 777.924C1010.05 777.924 1010.04 777.61 1017.48 777.61C1020.46 777.61 1021.64 778.848 1021.68 780.241C1021.85 785.143 1024.48 785.092 1024.65 789.994C1024.7 791.408 1020.93 792.651 1017.92 792.651H1017.91Z" fill="#E7D3B8"/>
<path d="M1421.35 834.072C1413.61 834.072 1413.61 834.551 1405.87 834.551C1398.12 834.551 1398.12 833.143 1390.38 833.143C1382.64 833.143 1382.64 832.957 1374.89 832.957C1367.15 832.957 1367.15 833.365 1359.4 833.365C1356.31 833.365 1353.31 832.807 1352.92 831.311C1351.55 826.11 1352 826.032 1350.63 820.831C1350.25 819.355 1352.12 819.226 1355.18 819.226C1362.84 819.226 1362.84 818.978 1370.5 818.978C1378.16 818.978 1378.15 817.502 1385.82 817.502C1393.48 817.502 1393.47 818.457 1401.13 818.457C1408.8 818.457 1408.79 818.122 1416.45 818.122C1419.51 818.122 1421.05 819.675 1421.51 821.146C1423.15 826.347 1425.89 825.79 1427.53 830.991C1428 832.487 1424.45 834.072 1421.35 834.072Z" fill="#E7D3B8"/>
<path d="M1730.44 779.184C1722.99 779.184 1722.99 779.658 1715.54 779.658C1708.1 779.658 1708.1 778.26 1700.65 778.26C1693.2 778.26 1693.2 778.074 1685.76 778.074C1678.31 778.074 1678.31 778.477 1670.86 778.477C1667.89 778.477 1664.76 778.033 1664.06 776.645C1661.65 771.836 1662.09 771.696 1659.68 766.887C1658.99 765.525 1660.55 765.514 1663.5 765.514C1670.86 765.514 1670.86 765.267 1678.23 765.267C1685.6 765.267 1685.6 763.796 1692.96 763.796C1700.33 763.796 1700.33 764.746 1707.69 764.746C1715.06 764.746 1715.06 764.415 1722.43 764.415C1725.37 764.415 1727.14 766.051 1727.89 767.413C1730.55 772.223 1733.11 771.309 1735.77 776.124C1736.54 777.507 1733.41 779.184 1730.43 779.184H1730.44Z" fill="#E7D3B8"/>
<path d="M1851.48 799.303C1843.92 799.303 1843.92 799.112 1836.36 799.112C1828.8 799.112 1828.8 799.53 1821.24 799.53C1813.69 799.53 1813.69 800.314 1806.12 800.314C1798.56 800.314 1798.56 799.932 1790.99 799.932C1787.98 799.932 1786.02 798.58 1785.19 797.151C1782.32 792.192 1782.03 792.3 1779.16 787.342C1778.34 785.938 1779.23 784.395 1782.21 784.395C1789.69 784.395 1789.69 785.37 1797.17 785.37C1804.65 785.37 1804.65 785.03 1812.13 785.03C1819.61 785.03 1819.61 786.237 1827.09 786.237C1834.56 786.237 1834.57 783.92 1842.04 783.92C1845.03 783.92 1847.2 786.655 1848.09 788.064C1851.22 793.023 1851.1 793.069 1854.23 798.028C1855.13 799.458 1854.5 799.303 1851.48 799.303Z" fill="#E7D3B8"/>
<path d="M277.996 832.312C270.257 832.312 270.257 832.73 262.517 832.73C254.778 832.73 254.778 833.525 247.039 833.525C239.3 833.525 239.3 833.138 231.554 833.138C223.808 833.138 223.814 832.343 216.069 832.343C212.974 832.343 212.022 832.482 212.826 830.986C215.618 825.79 213.869 825.186 216.667 819.99C217.458 818.519 221.428 817.869 224.484 817.869C232.139 817.869 232.139 817.523 239.788 817.523C247.438 817.523 247.444 818.741 255.1 818.741C262.755 818.741 262.755 816.398 270.411 816.398C278.067 816.398 278.067 818.498 285.722 818.498C288.778 818.498 289.531 818.452 288.817 819.923C286.289 825.119 286.256 825.108 283.728 830.305C283.001 831.801 281.084 832.312 277.99 832.312H277.996Z" fill="#D8C4AB"/>
<path d="M785.046 817.146C777.39 817.146 777.39 818.483 769.741 818.483C762.085 818.483 762.085 818.178 754.436 818.178C746.78 818.178 746.78 817.946 739.125 817.946C731.469 817.946 731.469 818.013 723.813 818.013C720.758 818.013 718.673 816.372 718.943 814.907C719.876 809.824 719.091 809.731 720.024 804.649C720.288 803.209 723.563 803.142 726.586 803.142C734.158 803.142 734.158 801.212 741.724 801.212C749.289 801.212 749.296 801.728 756.861 801.728C764.427 801.728 764.434 802.048 772.006 802.048C779.578 802.048 779.578 801.584 787.15 801.584C790.173 801.584 791.441 803.199 791.254 804.638C790.579 809.721 790.36 809.7 789.684 814.783C789.491 816.249 788.102 817.152 785.046 817.152V817.146Z" fill="#E7D3B8"/>
<path d="M200.122 914.487C191.945 914.487 191.945 913.904 183.774 913.904C175.598 913.904 175.598 913.542 167.427 913.542C159.251 913.542 159.251 914.069 151.074 914.069C142.897 914.069 142.897 912.521 134.72 912.521C131.452 912.521 130.873 912.577 131.812 910.906C135.074 905.116 134.566 904.93 137.828 899.14C138.754 897.5 141.327 895.735 144.55 895.735C152.631 895.735 152.631 896.148 160.705 896.148C168.778 896.148 168.785 896.994 176.865 896.994C184.945 896.994 184.945 896.72 193.026 896.72C201.106 896.72 201.106 895.095 209.186 895.095C212.416 895.095 214.05 897.113 213.207 898.748C210.241 904.538 210.666 904.677 207.7 910.472C206.844 912.144 203.383 914.487 200.115 914.487H200.122Z" fill="#D8C4AB"/>
<path d="M1043.41 948.611C1034.32 948.611 1034.32 949.493 1025.25 949.493C1016.16 949.493 1016.16 949.292 1007.09 949.292C1003.75 949.292 1000.68 947.449 1000.65 945.705C1000.56 939.642 1000.5 939.642 1000.41 933.574C1000.39 931.856 1003.43 930.56 1006.74 930.56C1015.71 930.56 1015.71 930.137 1024.69 930.137C1033.66 930.137 1033.66 931.138 1042.64 931.138C1045.94 931.138 1049.42 931.83 1049.5 933.548C1049.78 939.611 1049.36 939.627 1049.64 945.69C1049.73 947.439 1046.76 948.611 1043.41 948.611H1043.41Z" fill="#E7D3B8"/>
<path d="M399.38 879.826C392.452 879.826 392.452 879.444 385.529 879.444C378.601 879.444 378.601 879.893 371.678 879.893C364.75 879.893 364.75 880.941 357.828 880.941C354.637 880.941 352.005 878.743 352.681 877.148C355.035 871.606 355.248 871.668 357.596 866.126C358.265 864.557 361.739 863.02 364.891 863.02C371.736 863.02 371.736 863.505 378.588 863.505C385.439 863.505 385.433 863.004 392.284 863.004C399.136 863.004 399.129 864.191 405.981 864.191C409.14 864.191 412.048 864.867 411.436 866.436C409.281 871.978 408.805 871.854 406.656 877.396C406.039 878.99 402.578 879.826 399.387 879.826H399.38Z" fill="#E7D3B8"/>
<path d="M279.238 967.971C272.342 967.971 272.342 969.117 265.445 969.117C258.549 969.117 258.549 967.899 251.652 967.899C244.756 967.899 244.756 967.414 237.859 967.414C230.963 967.414 230.963 967.987 224.066 967.987C220.682 967.987 217.556 966.578 218.424 964.787C221.448 958.57 221.802 958.678 224.825 952.46C225.681 950.7 229.824 949.101 233.169 949.101C239.982 949.101 239.982 949.034 246.795 949.034C253.608 949.034 253.608 949.653 260.421 949.653C267.234 949.653 267.234 949.018 274.047 949.018C280.86 949.018 280.86 950.53 287.673 950.53C291.018 950.53 294.151 951.237 293.372 952.997C290.619 959.215 290.014 959.044 287.261 965.262C286.463 967.053 282.622 967.982 279.238 967.982V967.971Z" fill="#E7D3B8"/>
<path d="M785.259 949.059C776.889 949.059 776.889 950.318 768.519 950.318C760.149 950.318 760.149 948.977 751.779 948.977C743.41 948.977 743.41 948.44 735.04 948.44C726.67 948.44 726.67 949.065 718.3 949.065C714.955 949.065 711.211 947.929 711.513 946.18C712.555 940.112 712.967 940.153 714.016 934.085C714.312 932.366 718.095 930.627 721.395 930.627C729.662 930.627 729.662 930.555 737.935 930.555C746.208 930.555 746.202 931.231 754.475 931.231C762.748 931.231 762.748 930.535 771.015 930.535C779.282 930.535 779.288 932.191 787.555 932.191C790.856 932.191 794.6 932.557 794.388 934.276C793.654 940.344 792.959 940.292 792.226 946.361C792.014 948.11 788.604 949.049 785.259 949.049V949.059Z" fill="#D8C4AB"/>
<path d="M512.126 904.259C503.306 904.259 503.306 905.503 494.486 905.503C485.666 905.503 485.666 905.219 476.846 905.219C468.026 905.219 468.026 905.002 459.205 905.002C455.957 905.002 453.268 903.165 453.847 901.514C455.847 895.792 456.542 895.946 458.543 890.219C459.109 888.598 462.01 886.792 465.214 886.792C473.931 886.792 473.931 888.201 482.649 888.201C491.366 888.201 491.366 886.411 500.083 886.411C508.8 886.411 508.8 886.885 517.517 886.885C520.727 886.885 523.005 888.578 522.509 890.198C520.753 895.921 521.274 896.024 519.518 901.752C519.01 903.403 515.368 904.259 512.12 904.259H512.126Z" fill="#E7D3B8"/>
<path d="M1566.95 939.152C1558.63 939.152 1558.63 939.797 1550.31 939.797C1541.99 939.797 1541.99 941.304 1533.67 941.304C1525.36 941.304 1525.36 940.958 1517.03 940.958C1508.71 940.958 1508.71 940.695 1500.39 940.695C1497.06 940.695 1493.25 938.971 1492.67 937.243C1490.65 931.247 1491.49 931.061 1489.47 925.065C1488.9 923.367 1490.9 921.484 1494.19 921.484C1502.41 921.484 1502.41 923.192 1510.63 923.192C1518.85 923.192 1518.85 921.019 1527.07 921.019C1535.3 921.019 1535.3 921.597 1543.52 921.597C1551.74 921.597 1551.74 921.959 1559.96 921.959C1563.24 921.959 1567.16 923.233 1567.82 924.931C1570.14 930.927 1568.32 931.386 1570.65 937.382C1571.32 939.111 1570.28 939.152 1566.95 939.152H1566.95Z" fill="#E7D3B8"/>
<path d="M1668 893.062C1659.94 893.062 1659.94 893.155 1651.88 893.155C1643.82 893.155 1643.82 893.268 1635.76 893.268C1627.7 893.268 1627.7 891.421 1619.63 891.421C1611.57 891.421 1611.57 891.818 1603.5 891.818C1600.28 891.818 1595.78 891.731 1595.09 890.11C1592.74 884.475 1594.6 883.98 1592.25 878.345C1591.59 876.751 1593.12 875.192 1596.3 875.192C1604.27 875.192 1604.27 875.925 1612.24 875.925C1620.2 875.925 1620.21 875.476 1628.17 875.476C1636.14 875.476 1636.14 876.039 1644.12 876.039C1652.09 876.039 1652.09 874.769 1660.06 874.769C1663.24 874.769 1665.81 877.071 1666.56 878.665C1669.2 884.3 1668.57 884.491 1671.21 890.121C1671.97 891.746 1671.21 893.057 1668 893.057L1668 893.062Z" fill="#D8C4AB"/>
<path d="M1731.17 827.327C1723.46 827.327 1723.46 827.761 1715.76 827.761C1708.05 827.761 1708.05 827.219 1700.34 827.219C1692.63 827.219 1692.63 828.442 1684.91 828.442C1677.21 828.442 1677.21 827.142 1669.49 827.142C1666.41 827.142 1664.53 826.068 1663.81 824.587C1661.32 819.432 1660.61 819.654 1658.13 814.499C1657.42 813.039 1658.83 811.006 1661.88 811.006C1669.51 811.006 1669.51 811.331 1677.13 811.331C1684.75 811.331 1684.75 811.579 1692.38 811.579C1700 811.579 1700 811.506 1707.62 811.506C1715.25 811.506 1715.25 812.167 1722.87 812.167C1725.91 812.167 1729.61 812.987 1730.39 814.448C1733.15 819.603 1731.3 820.237 1734.05 825.392C1734.84 826.878 1734.24 827.338 1731.16 827.338L1731.17 827.327Z" fill="#E7D3B8"/>
<path d="M1284.72 985.015C1276.16 985.015 1276.16 985.113 1267.6 985.113C1259.04 985.113 1259.04 985.232 1250.48 985.232C1241.92 985.232 1241.92 983.348 1233.36 983.348C1224.8 983.348 1224.8 983.756 1216.23 983.756C1212.81 983.756 1208.38 983.291 1208.11 981.465C1207.18 975.118 1209.16 974.927 1208.23 968.58C1207.97 966.784 1209.95 964.968 1213.33 964.968C1221.78 964.968 1221.78 965.716 1230.24 965.716C1238.7 965.716 1238.69 965.257 1247.15 965.257C1255.61 965.257 1255.61 965.83 1264.06 965.83C1272.52 965.83 1272.52 964.534 1280.98 964.534C1284.36 964.534 1286.72 966.913 1287.08 968.709C1288.34 975.056 1287.67 975.144 1288.92 981.491C1289.28 983.322 1288.14 985.01 1284.73 985.01L1284.72 985.015Z" fill="#D8C4AB"/>
<path d="M1271.32 881.973C1263.31 881.973 1263.31 882.277 1255.31 882.277C1247.3 882.277 1247.3 882.953 1239.3 882.953C1231.29 882.953 1231.29 883.046 1223.28 883.046C1215.27 883.046 1215.27 883.154 1207.26 883.154C1204.06 883.154 1202.77 881.158 1202.52 879.558C1201.68 874 1201.21 874.047 1200.37 868.489C1200.13 866.916 1201.48 864.656 1204.63 864.656C1212.55 864.656 1212.55 866.152 1220.47 866.152C1228.39 866.152 1228.38 865.357 1236.3 865.357C1244.22 865.357 1244.22 866.059 1252.13 866.059C1260.04 866.059 1260.05 865.631 1267.96 865.631C1271.12 865.631 1273.43 867.086 1273.74 868.66C1274.87 874.217 1276.36 874.021 1277.48 879.584C1277.81 881.183 1274.51 881.983 1271.32 881.983L1271.32 881.973Z" fill="#EAC598"/>
<path d="M1782.68 855.925C1775.54 855.925 1775.54 855.976 1768.41 855.976C1761.28 855.976 1761.28 856.043 1754.15 856.043C1751.01 856.043 1748.62 854.18 1747.8 852.638C1744.95 847.276 1744.69 847.369 1741.84 842.008C1741.04 840.491 1742.33 838.809 1745.44 838.809C1752.49 838.809 1752.49 839.696 1759.54 839.696C1766.59 839.696 1766.59 839.226 1773.64 839.226C1776.75 839.226 1779.73 840.759 1780.58 842.276C1783.58 847.637 1783.87 847.529 1786.87 852.891C1787.73 854.433 1785.81 855.925 1782.68 855.925Z" fill="#E7D3B8"/>
<path d="M1159.76 849.712C1152.65 849.712 1152.65 849.758 1145.55 849.758C1138.45 849.758 1138.45 849.815 1131.35 849.815C1128.22 849.815 1126.35 848.231 1126.19 846.698C1125.65 841.383 1125.4 841.399 1124.85 836.089C1124.7 834.582 1126.54 832.828 1129.63 832.828C1136.65 832.828 1136.65 833.617 1143.67 833.617C1150.69 833.617 1150.7 833.2 1157.72 833.2C1160.81 833.2 1163.27 834.639 1163.46 836.141C1164.15 841.456 1164.43 841.43 1165.12 846.745C1165.32 848.277 1162.88 849.712 1159.75 849.712H1159.76Z" fill="#E7D3B8"/>
<path d="M1776.42 966.289C1768 966.289 1768 966.681 1759.56 966.681C1751.13 966.681 1751.13 967.548 1742.7 967.548C1734.27 967.548 1734.27 967.667 1725.84 967.667C1717.4 967.667 1717.4 967.806 1708.98 967.806C1700.54 967.806 1700.54 965.546 1692.11 965.546C1688.73 965.546 1686.58 965.283 1685.77 963.492C1684.54 960.788 1681.66 961.629 1680.43 958.925C1679.63 957.15 1683.33 955.768 1686.68 955.768C1695.05 955.768 1695.05 954.746 1703.42 954.746C1711.79 954.746 1711.78 955.644 1720.15 955.644C1728.52 955.644 1728.52 955.097 1736.88 955.097C1745.25 955.097 1745.25 955.788 1753.62 955.788C1761.98 955.788 1761.99 954.23 1770.35 954.23C1773.71 954.23 1776.43 956.923 1777.34 958.693C1778.74 961.397 1777.98 961.65 1779.37 964.354C1780.29 966.144 1779.8 966.289 1776.42 966.289Z" fill="#EAC598"/>
<path d="M1918.94 863.52C1912.08 863.52 1912.08 863.603 1905.21 863.603C1898.35 863.603 1898.35 862.241 1891.48 862.241C1884.61 862.241 1884.61 862.535 1877.74 862.535C1874.58 862.535 1870.31 862.282 1869.35 860.724C1866.03 855.311 1867.33 854.8 1864 849.387C1863.06 847.854 1864.47 846.456 1867.6 846.456C1874.38 846.456 1874.38 846.998 1881.17 846.998C1887.96 846.998 1887.96 846.667 1894.75 846.667C1901.54 846.667 1901.54 847.08 1908.33 847.08C1911.45 847.08 1915.46 847.71 1916.46 849.247C1919.98 854.66 1918.88 855.12 1922.4 860.533C1923.41 862.091 1922.1 863.52 1918.95 863.52H1918.94Z" fill="#D8C4AB"/>
<defs>
<linearGradient id="paint0_linear_1763_4499" x1="969" y1="-114.033" x2="969" y2="373.277" gradientUnits="userSpaceOnUse">
<stop offset="0.31" stop-color="#A4E5F9"/>
<stop offset="0.47" stop-color="#B4E9FA"/>
<stop offset="0.79" stop-color="#DFF5FC"/>
<stop offset="1" stop-color="white"/>
</linearGradient>
</defs>
</svg>
