<?xml version="1.0" encoding="UTF-8"?>
<svg id="Layer_1" xmlns="http://www.w3.org/2000/svg" version="1.1" viewBox="0 0 110 220">
  <!-- Generator: Adobe Illustrator 30.1.0, SVG Export Plug-In . SVG Version: 2.1.1 Build 136)  -->
  <defs>
    <style>
      .st0 {
        fill: #2e6318;
      }

      .st1 {
        fill: #af844a;
      }
    </style>
  </defs>
  <path class="st1" d="M12.22,207.2h-7.72l6.43-54.12h7.72l-6.43,54.12Z"/>
  <path d="M12.22,208.22h-7.72c-.28,0-.54-.12-.72-.35-.18-.22-.27-.51-.23-.8l6.43-54.12c.06-.51.47-.89.96-.89h7.72c.28,0,.54.12.72.35.18.22.27.51.23.8l-6.43,54.12c-.06.51-.47.89-.96.89ZM5.6,206.18h5.78l6.19-52.09h-5.78l-6.19,52.09Z"/>
  <path class="st1" d="M97.79,207.2h7.72l-6.43-54.12h-7.72l6.43,54.12Z"/>
  <path d="M105.51,208.22h-7.72c-.49,0-.89-.38-.96-.89l-6.43-54.12c-.03-.29.05-.58.23-.8s.44-.35.72-.35h7.72c.49,0,.89.38.96.89l6.43,54.12c.03.29-.05.58-.23.8s-.44.35-.72.35ZM98.64,206.18h5.78l-6.19-52.09h-5.78l6.19,52.09Z"/>
  <path class="st1" d="M104.28,8.19H8.42v139.98h95.86V8.19Z"/>
  <path d="M104.28,149.17H8.42c-.53,0-.97-.45-.97-1.01V8.18c0-.56.43-1.01.97-1.01h95.86c.53,0,.96.45.96,1.01v139.98c0,.56-.43,1.01-.96,1.01ZM9.37,147.16h93.93V9.2H9.37v137.96Z"/>
  <path class="st0" d="M96.27,16.01H16.43v124.33h79.84V16.01Z"/>
  <path d="M96.27,141.35H16.43c-.53,0-.97-.45-.97-1.01V16.01c0-.56.43-1.01.97-1.01h79.84c.53,0,.97.45.97,1.01v124.33c0,.56-.43,1.01-.97,1.01ZM17.39,139.34h77.91V17.03H17.39v122.31Z"/>
  <path class="st1" d="M108.72,145.64H1.28v10.82h107.44v-10.82Z"/>
  <path d="M108.72,157.48H1.28c-.53,0-.97-.45-.97-1.02v-10.82c0-.56.43-1.01.97-1.01h107.44c.53,0,.96.45.96,1.01v10.82c0,.56-.43,1.02-.96,1.02ZM2.26,155.45h105.51v-8.79H2.26v8.79Z"/>
</svg>