<svg width="150" height="229" viewBox="0 0 150 229" fill="none" xmlns="http://www.w3.org/2000/svg">
<path d="M74.5 3.8479C92.6667 71.3479 129.2 206.748 130 208.348H19C19.8 206.748 56.3333 71.3479 74.5 3.8479Z" fill="white"/>
<path d="M74.5 3.8479L75.4656 3.58801L74.5 8.79765e-05L73.5344 3.58801L74.5 3.8479ZM130 208.348V209.348H131.618L130.894 207.901L130 208.348ZM19 208.348L18.1056 207.901L17.382 209.348H19V208.348ZM74.5 3.8479L73.5344 4.10779C82.6178 37.8581 96.2929 88.5836 107.797 131.072C113.549 152.316 118.759 171.501 122.581 185.476C124.492 192.463 126.056 198.149 127.167 202.138C127.723 204.133 128.166 205.706 128.484 206.806C128.642 207.356 128.77 207.791 128.866 208.104C128.913 208.26 128.954 208.39 128.987 208.491C129.011 208.562 129.055 208.693 129.106 208.795L130 208.348L130.894 207.901C130.92 207.952 130.921 207.968 130.886 207.861C130.86 207.782 130.824 207.67 130.778 207.52C130.688 207.222 130.563 206.799 130.405 206.252C130.091 205.16 129.649 203.594 129.094 201.602C127.984 197.617 126.42 191.934 124.51 184.948C120.689 170.976 115.48 151.793 109.728 130.549C98.2238 88.0622 84.5489 37.3377 75.4656 3.58801L74.5 3.8479ZM130 208.348V207.348H19V208.348V209.348H130V208.348ZM19 208.348L19.8944 208.795C19.9453 208.693 19.9887 208.562 20.0125 208.491C20.046 208.39 20.0869 208.26 20.1345 208.104C20.2299 207.791 20.358 207.356 20.5164 206.806C20.8336 205.706 21.2769 204.133 21.8326 202.138C22.9443 198.149 24.5085 192.463 26.4193 185.476C30.241 171.501 35.4506 152.316 41.2027 131.072C52.7071 88.5836 66.3822 37.8581 75.4656 4.10779L74.5 3.8479L73.5344 3.58801C64.4511 37.3377 50.7762 88.0622 39.2723 130.549C33.5202 151.793 28.3111 170.976 24.4901 184.948C22.5795 191.934 21.0164 197.617 19.906 201.602C19.3508 203.594 18.9094 205.16 18.5947 206.252C18.4372 206.799 18.3125 207.222 18.2216 207.52C18.176 207.67 18.1404 207.782 18.1144 207.861C18.0787 207.968 18.0797 207.952 18.1056 207.901L19 208.348Z" fill="#818181"/>
<rect y="202.848" width="150" height="26" fill="white"/>
</svg>
