<?xml version="1.0" encoding="UTF-8"?>
<svg id="Layer_1" xmlns="http://www.w3.org/2000/svg" version="1.1" viewBox="0 0 907.43 104.13">
  <!-- Generator: Adobe Illustrator 29.6.1, SVG Export Plug-In . SVG Version: 2.1.1 Build 9)  -->
  <defs>
    <style>
      .st0 {
        fill: #fe3b43;
        fill-rule: evenodd;
      }
    </style>
  </defs>
  <path class="st0" d="M45.18,14.03c-27.04,1.48-34.62,4.12-35.45,12.37-.82,9.07,1.65,9.73,34.95,9.56,16.49,0,84.42-1.32,151.03-2.97,87.88-1.98,186.15-2.8,357.79-2.8,215.33-.16,285.41-.99,334.38-4.12,9.4-.66,16.16-1.65,14.84-2.31-5.11-2.8-82.77-5.11-228.85-6.6-85.74-.82-205.93-2.31-267.1-3.3-126.13-1.81-327.45-1.81-361.58.16Z"/>
  <path class="st0" d="M777.74,57.89c-95.96,3.63-254.41,5.44-469.08,5.44-270.73-.16-284.75.33-294.47,10.06-3.96,3.96-3.96,6.76-.16,10.06,5.11,4.45,8.74,4.78,47.98,2.97,21.43-.82,111.62-2.47,200.49-3.3,159.11-1.65,237.92-3.3,317.39-6.6,152.35-6.43,182.69-7.75,248.14-11.71,32.65-1.98,60.02-4.12,60.68-4.78.66-.66-14.84-1.65-34.62-2.14-34.29-1.15-48.64-1.15-76.34,0Z"/>
  <path class="st0" d="M-1354.29,1166.83c-1.48,1.65-3.46,7.42-4.62,12.86-.99,5.44-5.94,25.89-10.72,45.51-10.22,40.56-11.38,48.8-6.92,51.61,6.43,4.12,14.18-7.42,21.27-31.99l4.45-15.66v49.46c.33,92.33-8.24,237.43-18.96,322.17-4.12,33.31-4.29,33.64-.99,37.92,4.29,5.77,11.71,6.43,16.32,1.48,5.94-6.43,10.06-36.77,15.66-120.03,2.31-33.47,2.97-236.44.99-275.35l-1.15-22.26,6.27,16.16c6.6,16.65,12.53,26.88,16.32,28.36,4.62,1.81,5.61-1.15,4.78-13.85-.66-9.89-3.46-19.95-13.19-47.65-6.76-19.29-13.68-36.6-15.17-38.25-3.63-4.12-11.05-4.29-14.34-.49Z"/>
</svg>