<?xml version="1.0" encoding="UTF-8"?>
<svg id="Layer_1" xmlns="http://www.w3.org/2000/svg" version="1.1" viewBox="0 0 351.36 214.66">
  <!-- Generator: Adobe Illustrator 29.6.1, SVG Export Plug-In . SVG Version: 2.1.1 Build 9)  -->
  <defs>
    <style>
      .st0 {
        fill: #fe3b43;
        fill-rule: evenodd;
      }
    </style>
  </defs>
  <path class="st0" d="M121.68,9.93c-.66,3.63-4.12,11.05-7.75,16.49-3.46,5.44-9.4,16.16-13.36,23.58l-6.92,13.85-40.89-1.15c-37.76-1.15-41.05-.99-44.02,1.65-4.95,4.45-4.29,11.87,1.48,16.98,2.64,2.47,16.32,11.54,30.5,20.12,14.18,8.57,25.72,16.49,25.72,17.48s-3.46,9.23-7.58,18.14c-8.9,18.96-25.39,60.68-25.39,64.14,0,3.13,6.1,6.27,9.07,4.62,1.32-.82,7.75-7.42,14.18-14.51,13.52-15.17,37.76-37.43,45.51-41.55l5.11-2.8,9.23,7.91c5.11,4.29,15.66,14.84,23.58,23.41,11.21,12.2,15.33,15.5,18.8,15.5,10.22,0,10.39-8.9.66-49.13-3.3-13.85-5.77-26.22-5.28-27.37.49-1.32,9.89-7.25,20.77-13.19,26.05-14.51,31.82-21.43,25.72-30.17-3.79-5.44-12.37-7.09-37.43-7.09h-22.59l-1.65-6.27c-7.42-28.03-8.24-32.81-7.25-43.03.99-10.06.82-10.39-2.47-9.4-2.31.82-3.96.16-4.95-1.81-1.48-2.31-1.81-1.81-2.8,3.63ZM124.65,57.25q1.15,7.91-3.79,7.91c-2.8,0-4.95-.33-4.95-.66,0-1.32,6.92-15.99,7.25-15.5.33.33.99,3.96,1.48,8.24ZM79.14,93.36c-2.8,6.27-5.77,11.38-6.6,11.38-1.98,0-33.97-22.09-33.31-23.08.33-.49,10.55-.66,22.75-.33l22.26.49-5.11,11.54ZM121.84,83.3h6.76l1.98,10.06c2.47,11.87,3.46,10.39-15.99,22.92-12.2,7.75-14.01,8.57-17.81,6.92-2.14-1.15-4.45-2.97-4.95-4.12-.33-1.15,3.13-10.22,7.75-19.95,7.42-15.66,8.9-17.64,12.04-16.82,1.81.49,6.6.99,10.22.99ZM162.9,84.29c1.98.82.49,2.31-5.77,5.94-4.78,2.64-8.9,4.62-9.23,4.29-.33-.49-1.15-3.13-1.65-5.94l-.99-5.28h7.42c4.12,0,8.74.49,10.22.99ZM142.45,146.45c2.47,10.06,4.29,18.8,3.96,19.13-.66.66-27.7-24.07-28.36-26.05-.49-1.32,18.14-13.36,19.13-12.37.49.33,2.8,9.07,5.28,19.29ZM85.07,137.05c-5.94,4.95-7.75,4.95-5.28.16,3.63-6.92,4.95-7.91,7.58-5.77,1.98,1.48,1.65,2.47-2.31,5.61Z"/>
  <path class="st0" d="M302.06,79.51c-6.27,6.92-24.73,32.15-27.7,37.92-1.81,3.63-2.47,3.63-20.44,2.64-20.77-1.15-27.86.99-29.84,8.41-1.98,7.91,4.12,15.66,21.76,27.37l3.79,2.47-6.92,13.36c-7.42,14.51-7.75,20.45-1.32,23.91,5.11,2.64,9.73.82,21.43-8.24,5.94-4.62,11.38-7.75,12.37-7.09,1.15.66,5.94,5.61,10.55,11.05,17.81,20.77,18.96,21.43,25.39,16.82,4.45-3.3,5.77-12.86,4.12-32.98-.82-10.06-1.15-19.29-.82-20.28s7.09-3.79,14.84-6.27c15.99-5.11,19.46-8.57,15.17-15-2.64-3.96-9.4-5.94-28.36-8.24l-8.57-1.15-1.65-8.24c-1.48-7.75-1.32-8.74,3.96-17.48,5.77-9.4,8.24-18.3,6.6-22.59-1.65-4.62-8.57-2.8-14.34,3.63ZM259.35,140.52c-.16,3.96-2.97,5.77-6.43,3.96-4.95-2.8-4.29-5.11,1.48-5.11,2.8,0,4.95.49,4.95,1.15ZM293.65,146.78c.33,4.45-.49,5.61-9.4,11.05-7.75,4.78-10.22,5.61-11.54,3.96-1.32-1.48-.16-4.62,4.12-11.54,5.44-8.57,6.43-9.4,11.21-8.9,4.29.49,5.11,1.15,5.61,5.44ZM295.63,169.7c0,2.14.49,6.27,1.15,9.4l.99,5.44-6.92-5.77-7.09-5.61,4.78-3.63c5.94-4.78,7.09-4.78,7.09.16Z"/>
</svg>