<?xml version="1.0" encoding="UTF-8"?>
<svg id="Layer_1" xmlns="http://www.w3.org/2000/svg" version="1.1" xmlns:xlink="http://www.w3.org/1999/xlink" viewBox="0 0 1920 797.3">
  <!-- Generator: Adobe Illustrator 30.1.0, SVG Export Plug-In . SVG Version: 2.1.1 Build 136)  -->
  <defs>
    <style>
      .st0, .st1, .st2, .st3, .st4, .st5, .st6, .st7, .st8, .st9, .st10, .st11, .st12, .st13, .st14, .st15, .st16, .st17, .st18, .st19, .st20, .st21, .st22, .st23, .st24, .st25, .st26, .st27, .st28, .st29, .st30, .st31, .st32, .st33, .st34, .st35, .st36, .st37, .st38, .st39 {
        stroke-linecap: round;
        stroke-linejoin: round;
      }

      .st0, .st1, .st2, .st3, .st4, .st40, .st41, .st6, .st42, .st9, .st15, .st16, .st17, .st19, .st21, .st22, .st26, .st29, .st30, .st31, .st43, .st33, .st44, .st37 {
        fill: none;
      }

      .st0, .st45, .st40, .st46, .st7, .st47, .st10, .st11, .st13, .st48, .st14, .st49, .st50, .st51, .st52, .st18, .st19, .st20, .st28, .st32, .st34, .st53, .st54, .st38, .st55 {
        stroke: #4c241e;
      }

      .st0, .st10 {
        stroke-width: 3.89px;
      }

      .st1 {
        stroke-width: 6.71px;
      }

      .st1, .st2, .st3, .st4, .st6, .st9, .st15, .st16, .st17, .st21, .st26, .st29, .st30, .st31, .st33, .st37 {
        stroke: #a5725b;
      }

      .st2 {
        stroke-width: 6.53px;
      }

      .st3 {
        stroke-width: 7.85px;
      }

      .st45 {
        stroke-width: .77px;
      }

      .st45, .st40, .st41, .st46, .st47, .st49, .st50, .st51, .st52, .st53, .st54, .st55 {
        stroke-miterlimit: 10;
      }

      .st45, .st47, .st56, .st32 {
        fill: #4c241e;
      }

      .st4 {
        stroke-width: 6.03px;
      }

      .st5 {
        fill: #925f36;
      }

      .st5, .st40, .st46, .st7, .st8, .st11, .st12, .st13, .st14, .st50, .st51, .st18, .st19, .st20, .st22, .st24, .st25, .st27, .st28, .st32, .st34, .st36, .st53, .st54, .st38, .st39 {
        stroke-width: 2.92px;
      }

      .st5, .st8, .st12, .st22, .st23, .st24, .st25, .st27, .st35, .st36, .st39 {
        stroke: #422918;
      }

      .st41 {
        stroke: #599af2;
        stroke-width: .79px;
      }

      .st57, .st13, .st51, .st55 {
        fill: #fff;
      }

      .st46, .st58 {
        fill: #4c65ba;
      }

      .st6 {
        stroke-width: 6.13px;
      }

      .st7 {
        fill: #bf7249;
      }

      .st59 {
        fill: #3e479b;
      }

      .st8, .st20 {
        fill: #f6d9a1;
      }

      .st47 {
        stroke-width: .83px;
      }

      .st9 {
        stroke-width: 6.76px;
      }

      .st10 {
        fill: #d1997d;
      }

      .st11, .st23, .st25, .st35 {
        fill: #b17f49;
      }

      .st12 {
        fill: #f5f5f5;
      }

      .st48 {
        stroke-miterlimit: 10;
        stroke-width: 2.38px;
      }

      .st48, .st52 {
        fill: #f28393;
      }

      .st14 {
        fill: #8f4f50;
      }

      .st60 {
        fill: #430000;
      }

      .st49 {
        fill: #f7a9b4;
      }

      .st49, .st52, .st55 {
        stroke-width: 2.38px;
      }

      .st15 {
        stroke-width: 6.23px;
      }

      .st50 {
        fill: #ffe799;
      }

      .st16 {
        stroke-width: 6.57px;
      }

      .st17 {
        stroke-width: 6.2px;
      }

      .st61, .st53 {
        fill: #dd9e59;
      }

      .st18 {
        fill: #ffc550;
      }

      .st21 {
        stroke-width: 6.67px;
      }

      .st23 {
        stroke-width: 2.95px;
      }

      .st24 {
        fill: #5d4424;
      }

      .st26 {
        stroke-width: 7px;
      }

      .st27 {
        fill: #683b11;
      }

      .st62 {
        fill: #ffe6c2;
      }

      .st28 {
        fill: #ea6161;
      }

      .st29 {
        stroke-width: 7.45px;
      }

      .st30 {
        stroke-width: 6.7px;
      }

      .st31 {
        stroke-width: 5.92px;
      }

      .st43 {
        stroke-miterlimit: 10;
        stroke-width: 1.59px;
      }

      .st43, .st44 {
        stroke: #f7a9b4;
      }

      .st33 {
        stroke-width: 6.69px;
      }

      .st44 {
        stroke-miterlimit: 10;
        stroke-width: 1.59px;
      }

      .st34 {
        fill: #59804b;
      }

      .st35 {
        stroke-width: 2.68px;
      }

      .st36 {
        fill: #d8a877;
      }

      .st54 {
        fill: #ffd899;
      }

      .st63 {
        clip-path: url(#clippath);
      }

      .st37 {
        stroke-width: 6.05px;
      }

      .st38 {
        fill: #ecd0b9;
      }

      .st39 {
        fill: #c99d66;
      }
    </style>
    <clipPath id="clippath">
      <rect class="st42" y="397.61" width="1920" height="399.69"/>
    </clipPath>
  </defs>
  <g>
    <rect class="st10" y="397.61" width="1920" height="399.69"/>
    <rect class="st0" y="397.61" width="1920" height="399.69"/>
    <g class="st63">
      <g>
        <line class="st9" x1="204.75" y1="398.63" x2="-289.99" y2="533.5"/>
        <line class="st15" x1="344.16" y1="397.81" x2="-277.33" y2="625.48"/>
        <line class="st4" x1="460.98" y1="399" x2="-267.84" y2="740.62"/>
        <line class="st17" x1="599.86" y1="397.35" x2="-51.32" y2="783.89"/>
        <line class="st6" x1="67.04" y1="871.32" x2="703.14" y2="399.7"/>
        <line class="st31" x1="343" y1="849" x2="788.11" y2="399"/>
        <line class="st21" x1="516.06" y1="884.08" x2="866.95" y2="402.05"/>
        <line class="st21" x1="729.65" y1="892.05" x2="932.63" y2="401.19"/>
        <line class="st30" x1="972.86" y1="399.7" x2="972.86" y2="884.08"/>
        <line class="st1" x1="1023.99" y1="398.6" x2="1233.23" y2="892.05"/>
        <line class="st33" x1="1070.07" y1="398.6" x2="1504.51" y2="906.41"/>
        <line class="st16" x1="1145.7" y1="398.29" x2="1654.18" y2="849"/>
        <line class="st3" x1="1844.39" y1="849" x2="1241.15" y2="398.29"/>
        <line class="st29" x1="1968.81" y1="769.73" x2="1345.24" y2="395.4"/>
        <path class="st2" d="M2020.56,649.55c5.05,1.86-557.35-255.13-557.35-255.13"/>
        <line class="st26" x1="2020.59" y1="544.32" x2="1582.22" y2="392.77"/>
        <line class="st37" x1="-314.37" y1="397.61" x2="2056.98" y2="397.61"/>
      </g>
    </g>
  </g>
  <rect class="st0" y="397.61" width="1920" height="399.69"/>
  <g>
    <g>
      <path class="st14" d="M1412.3,635.39c-1.66-63.42-37.63-207.14-41.37-212.47-2.57-3.67-6.11-5.73-9.57-5.7-65.36.51-419.24.51-484.6,0-3.46-.03-7,2.03-9.57,5.7-3.74,5.33-39.7,149.04-41.37,212.47-.21,8.03-.04,17.41,4.01,22.22,2.77,3.3,6.53,3.32,9.99,3.2,16.82-.58,33.64-1.17,50.46-1.75,65.18-2.27,392.37-2.26,457.55,0,16.82.58,33.64,1.17,50.46,1.75,3.46.12,7.22.1,9.99-3.2,4.05-4.81,4.22-14.19,4.01-22.22h.01Z"/>
      <g>
        <g>
          <g>
            <path class="st19" d="M814.58,500.54c11.19-5.78,21.21-7.29,33.11-3.47"/>
            <path class="st19" d="M805.31,529.55c11.85-5,24.88-6.75,37.51-5.04"/>
            <path class="st19" d="M793.1,560.65c14.74-4.94,25.6-6.47,40.82-3.71"/>
            <path class="st19" d="M786.76,596.31c14.12-5.33,27.72-8.48,42.15-4.22"/>
          </g>
          <g>
            <path class="st19" d="M830.65,445.84c9.94-3.43,20.72-4.02,30.93-1.69"/>
            <path class="st19" d="M822.69,473.06c10.35-4.27,21.55-5.56,32.39-3.73"/>
            <path class="st19" d="M838.71,421.39c8.75-3.43,18.25-4.02,27.24-1.69"/>
          </g>
        </g>
        <path class="st19" d="M782.6,627.23c12.32-6.46,28.79-7.38,42.56-6.51"/>
        <path class="st19" d="M783.85,659.78c15.55-4.37,30.31-8.04,45.06-1.3"/>
      </g>
      <g>
        <g>
          <g>
            <path class="st19" d="M1424.78,499.24c-11.19-5.78-21.21-7.29-33.11-3.47"/>
            <path class="st19" d="M1434.05,528.25c-11.85-5-24.88-6.75-37.51-5.04"/>
            <path class="st19" d="M1446.26,559.35c-14.74-4.94-25.6-6.47-40.82-3.71"/>
            <path class="st19" d="M1452.6,595.01c-14.12-5.33-27.72-8.48-42.15-4.22"/>
          </g>
          <g>
            <path class="st19" d="M1408.71,444.54c-9.94-3.43-20.72-4.02-30.93-1.69"/>
            <path class="st19" d="M1416.67,471.76c-10.35-4.27-21.55-5.56-32.39-3.73"/>
            <path class="st19" d="M1400.65,420.08c-8.75-3.43-18.25-4.02-27.24-1.69"/>
          </g>
        </g>
        <path class="st19" d="M1456.76,625.93c-12.32-6.46-28.79-7.38-42.56-6.51"/>
        <path class="st19" d="M1455.51,658.48c-15.55-4.37-30.31-8.04-45.06-1.3"/>
      </g>
    </g>
    <path class="st38" d="M986.22,526.59c-7.94.97-117.68,30.3-149.17,50.41,41.08,27.31,92.47,66.81,147.01,79.82,51.89-23.11,100.96-46.24,136.2-79.82-48.01-19.43-128.3-51.11-134.04-50.41h0Z"/>
    <path class="st18" d="M983.15,542.15c-4.72.58-69.87,18.03-88.56,30,24.39,16.25,54.9,39.76,87.27,47.5,30.8-13.75,59.94-27.52,80.86-47.5-28.5-11.56-76.17-30.42-79.57-30h0Z"/>
    <path class="st38" d="M1267.99,526.59c-7.94.97-117.68,30.3-149.17,50.41,41.08,27.31,92.47,66.81,147.01,79.82,51.89-23.11,100.96-46.24,136.2-79.82-48.01-19.43-128.3-51.11-134.04-50.41h0Z"/>
    <path class="st18" d="M1264.92,542.15c-4.72.58-69.87,18.03-88.56,30,24.39,16.25,54.9,39.76,87.27,47.5,30.8-13.75,59.94-27.52,80.86-47.5-28.5-11.56-76.17-30.42-79.57-30h0Z"/>
    <path class="st38" d="M996.39,424.98c-7.25.72-107.44,22.56-136.18,37.53,37.5,20.33,84.42,49.74,134.21,59.43,47.37-17.2,92.17-34.43,124.34-59.43-43.83-14.47-117.13-38.06-122.37-37.53h0Z"/>
    <path class="st18" d="M993.59,436.57c-4.3.43-63.78,13.42-80.85,22.34,22.26,12.1,50.12,29.6,79.67,35.37,28.12-10.24,54.72-20.49,73.82-35.37-26.02-8.61-69.54-22.65-72.64-22.34h0Z"/>
    <path class="st38" d="M1253.63,424.98c-7.25.72-107.44,22.56-136.18,37.53,37.5,20.33,84.42,49.74,134.21,59.43,47.37-17.2,92.17-34.43,124.34-59.43-43.83-14.47-117.13-38.06-122.37-37.53h0Z"/>
    <path class="st18" d="M1250.82,436.57c-4.3.43-63.78,13.42-80.85,22.34,22.26,12.1,50.12,29.6,79.67,35.37,28.12-10.24,54.72-20.49,73.82-35.37-26.02-8.61-69.54-22.65-72.64-22.34Z"/>
  </g>
  <g>
    <polygon class="st25" points="746.76 446.8 671.91 466.43 671.91 383.68 746.76 364.05 746.76 446.8"/>
    <polygon class="st39" points="674.04 327.45 599.18 347.08 671.91 383.68 746.76 364.05 674.04 327.45"/>
    <polygon class="st27" points="599.18 429.83 671.91 466.43 671.91 383.68 599.18 347.08 599.18 429.83"/>
    <line class="st22" x1="639.49" y1="336.89" x2="709.34" y2="374.25"/>
  </g>
  <g>
    <polygon class="st25" points="634.11 461.88 559.25 481.51 559.25 398.76 634.11 379.13 634.11 461.88"/>
    <polygon class="st39" points="561.38 342.53 486.53 362.16 559.25 398.76 634.11 379.13 561.38 342.53"/>
    <polygon class="st5" points="486.53 444.91 559.25 481.51 559.25 398.76 486.53 362.16 486.53 444.91"/>
    <line class="st22" x1="526.83" y1="351.97" x2="596.68" y2="389.33"/>
  </g>
  <g>
    <polygon class="st39" points="262.78 454.53 343.7 475.74 236.21 531.74 153.77 510.52 262.78 454.53"/>
    <polygon class="st8" points="212.46 522.85 307.51 468.58 285.15 463.01 186.21 515.97 212.46 522.85"/>
    <polygon class="st25" points="153.77 599.98 234.7 621.2 234.7 531.74 153.77 510.52 153.77 599.98"/>
    <path class="st24" d="M182.79,542.43c6.66,1.69,18.21,4.63,23.79,5.96,5.59,1.34,5.69-11.47,0-12.9-5.69-1.43-16.75-4.06-23.79-5.96-7.04-1.9-6.66,11.21,0,12.89h0Z"/>
    <polygon class="st5" points="343.7 557.18 236.21 621.2 236.21 531.74 343.7 475.74 343.7 557.18"/>
    <line class="st22" x1="300.14" y1="464.73" x2="198.94" y2="519.82"/>
    <polygon class="st8" points="205.48 487.39 273.69 509.44 294.03 498.77 223.62 477.9 205.48 487.39"/>
    <polygon class="st8" points="274.8 555.78 273.94 509.44 294.28 498.77 294.28 546.28 274.8 555.78"/>
    <polygon class="st8" points="212.72 522.85 212.72 534.52 186.46 527.15 186.46 515.97 212.72 522.85"/>
    <polygon class="st12" points="305.77 489.43 324.87 479.58 307.78 474.95 289.54 485.05 305.77 489.43"/>
  </g>
  <g>
    <path class="st18" d="M385.1,573.69c-5.66-2.87-8.18-1.53-14.76-2.24-7.67-.83-19.08.03-30.19-.44-12.19-.51-38.54-.33-38.54-.33,0,0-4.89,1.47-7.19,2.52-7.26,3.3-14.55,6.6-21.42,10.53-1.83,1.05-7.82,3.38-6.97,5.61.3.8,4.51,2.31,4.45,1.19.24,3.44.38,6.89.46,10.35.02.69-.01,1.49-.46,1.92-.43.42-1.03.28-1.56.26-1.84-.07-5.28,1.57-3.91,4.25,1.36,2.64,13.07,1.92,15.99,2.09,8.72.53,17.52.06,26.25.42,14.54.6,29.06,1.71,43.63,1.63,4.95-.03,5.69.73,10.64.71,5.87-.03,9.18-2.8,12.58-9.03,3.15-5.76,20.87-22.23,12.11-28.77-.33-.25-.71-.48-1.11-.68h0Z"/>
    <path class="st13" d="M366.99,596.55c-.95-2.48-3.63-2.81-5.87-2.81-11.4-.04-13.35-.08-24.73-.72-12-.68-24.01-1.24-36.03-1.69-6.23-.23-23.34-.77-25.68-.75-1.77.02-4.21-1.43-5.88-.68l.63,13.78c17.05.89,34.12,1.59,51.18,2.34,16.49.73,22.22.87,38.71,1.96,6.3.42,9.85-5.73,7.67-11.42h0Z"/>
    <line class="st19" x1="367.49" y1="590.22" x2="382.01" y2="574.88"/>
  </g>
  <path class="st62" d="M58.46,476"/>
  <g>
    <polygon class="st25" points="1479.06 440.06 1587.36 459.69 1587.36 384.89 1479.06 365.27 1479.06 440.06"/>
    <polygon class="st25" points="1551.79 328.66 1660.09 348.29 1587.36 384.89 1479.06 365.27 1551.79 328.66"/>
    <polygon class="st8" points="1524.45 342.45 1632.75 362.08 1618.42 369.24 1510.12 349.61 1524.45 342.45"/>
    <polygon class="st25" points="1660.09 423.09 1587.36 459.69 1587.36 384.89 1660.09 348.29 1660.09 423.09"/>
    <polygon class="st8" points="1618.55 394.9 1618.55 369.2 1632.69 362.08 1632.69 388.14 1618.55 394.9"/>
  </g>
  <g>
    <polygon class="st25" points="1721.77 615.59 1611.71 644.45 1611.71 501.7 1721.77 472.84 1721.77 615.59"/>
    <polygon class="st8" points="1721.77 552.54 1611.71 581.39 1611.71 559.27 1721.77 530.41 1721.77 552.54"/>
    <polygon class="st36" points="1614.84 419.03 1504.79 447.88 1611.71 501.7 1721.77 472.84 1614.84 419.03"/>
    <polygon class="st8" points="1658.27 440.89 1548.11 469.77 1569.58 480.48 1678.53 451.08 1658.27 440.89"/>
    <polygon class="st25" points="1504.79 590.63 1611.71 644.45 1611.71 501.7 1504.79 447.88 1504.79 590.63"/>
    <polygon class="st8" points="1504.79 527.58 1611.71 581.39 1611.71 560.99 1504.79 507.18 1504.79 527.58"/>
    <polygon class="st8" points="1569.58 622.05 1569.58 480.48 1548.5 469.88 1548.5 610.72 1569.58 622.05"/>
  </g>
  <g>
    <polygon class="st39" points="1403.1 498.32 1320.51 519.98 1496.86 612.17 1579.45 590.51 1403.1 498.32"/>
    <polygon class="st8" points="1521.1 603.1 1357.45 512.67 1380.28 506.99 1547.9 596.07 1521.1 603.1"/>
    <polygon class="st25" points="1579.45 681.82 1496.86 703.48 1496.86 612.17 1579.45 590.51 1579.45 681.82"/>
    <path class="st24" d="M1551.38,623.08c-6.8,1.72-18.58,4.72-24.28,6.09-5.7,1.37-5.81-11.71,0-13.16,5.8-1.45,17.1-4.15,24.28-6.09s6.79,11.45,0,13.17h0Z"/>
    <polygon class="st5" points="1320.51 603.1 1496.86 703.48 1496.86 612.17 1320.51 519.98 1320.51 603.1"/>
    <line class="st22" x1="1364.98" y1="508.74" x2="1534.9" y2="600.01"/>
    <polygon class="st8" points="1521.1 603.1 1521.1 615.01 1547.9 607.49 1547.9 596.07 1521.1 603.1"/>
    <polygon class="st12" points="1362.14 597.18 1329.92 580.56 1329.92 538.42 1362.14 555.04 1362.14 597.18"/>
  </g>
  <polygon class="st35" points="1048.1 365.09 1147.53 424.31 1177.26 421.56 1077.82 369.77 1048.1 365.09"/>
  <g>
    <ellipse class="st46" cx="1323.02" cy="64.34" rx="56.07" ry="56.03"/>
    <ellipse class="st51" cx="1323.02" cy="64.34" rx="45.76" ry="45.73"/>
    <g>
      <g>
        <path class="st59" d="M1314.47,29.99h0c-.66.16-1.33-.24-1.49-.9l-1.4-5.69c-.16-.66.24-1.33.9-1.49h0c.66-.16,1.33.24,1.49.9l1.4,5.69c.16.66-.24,1.33-.9,1.49Z"/>
        <path class="st59" d="M1333.56,106.78h0c-.66.16-1.33-.24-1.49-.9l-1.4-5.69c-.16-.66.24-1.33.9-1.49h0c.66-.16,1.33.24,1.49.9l1.4,5.69c.16.66-.24,1.33-.9,1.49Z"/>
      </g>
      <g>
        <path class="st59" d="M1357.4,55.8h0c-.16-.66.24-1.33.9-1.49l5.7-1.4c.66-.16,1.33.24,1.49.9h0c.16.66-.24,1.33-.9,1.49l-5.7,1.4c-.66.16-1.33-.24-1.49-.9Z"/>
        <path class="st59" d="M1280.55,74.88h0c-.16-.66.24-1.33.9-1.49l5.7-1.4c.66-.16,1.33.24,1.49.9h0c.16.66-.24,1.33-.9,1.49l-5.7,1.4c-.66.16-1.33-.24-1.49-.9Z"/>
      </g>
      <g>
        <path class="st59" d="M1342.1,32.67h0c-.58-.35-.77-1.11-.42-1.69l1.55-2.55c.35-.58,1.11-.77,1.7-.42h0c.58.35.77,1.11.42,1.69l-1.55,2.55c-.35.58-1.11.77-1.7.42Z"/>
        <path class="st59" d="M1301.09,100.73h0c-.58-.35-.77-1.11-.42-1.69l1.91-3.16c.35-.58,1.11-.77,1.7-.42h0c.58.35.77,1.11.42,1.69l-1.91,3.16c-.35.58-1.11.77-1.7.42Z"/>
      </g>
      <g>
        <path class="st59" d="M1354.73,83.44h0c.35-.58,1.11-.77,1.7-.42l2.56,1.54c.58.35.77,1.11.42,1.69h0c-.35.58-1.11.77-1.7.42l-2.56-1.54c-.58-.35-.77-1.11-.42-1.69Z"/>
        <path class="st59" d="M1286.61,42.47h0c.35-.58,1.11-.77,1.7-.42l3.16,1.91c.58.35.77,1.11.42,1.69h0c-.35.58-1.11.77-1.7.42l-3.16-1.91c-.58-.35-.77-1.11-.42-1.69Z"/>
      </g>
    </g>
    <g>
      <path class="st59" d="M1323.14,64.02h0c-.39.64-1.23.85-1.87.46l-20.22-12.27c-.64-.39-.85-1.23-.46-1.87h0c.39-.64,1.23-.85,1.87-.46l20.22,12.27c.64.39.85,1.23.46,1.87Z"/>
      <path class="st59" d="M1323.3,65.72h0c-.64-.39-.85-1.23-.46-1.87l10.26-16.88c.39-.64,1.23-.85,1.87-.46h0c.64.39.85,1.23.46,1.87l-10.26,16.88c-.39.64-1.23.85-1.87.46Z"/>
    </g>
    <path class="st46" d="M1327.82,63.16c.65,2.65-.97,5.32-3.62,5.98-2.65.65-5.33-.97-5.98-3.61-.65-2.65.97-5.32,3.62-5.98,2.65-.65,5.33.97,5.98,3.61Z"/>
  </g>
  <g>
    <path class="st51" d="M1378.06,147.11l110.05,23.23-14.41,68.25c-1.32,6.25-7.47,10.26-13.72,8.94l-87.39-18.45c-6.25-1.32-10.26-7.47-8.94-13.72l12.94-60.92,1.47-7.33h0Z"/>
    <g>
      <rect class="st43" x="1430.16" y="197.07" width="63.43" height="15.62" transform="translate(958.98 1592.73) rotate(-78.06)"/>
      <g>
        <rect class="st44" x="1392.95" y="151.16" width="63.43" height="91.87" transform="translate(937.56 1550.33) rotate(-78.08)"/>
        <rect class="st44" x="1421.83" y="127.77" width="15.6" height="91.87" transform="translate(964.39 1536.63) rotate(-78.08)"/>
        <rect class="st44" x="1415.25" y="158.86" width="15.6" height="91.87" transform="translate(928.75 1554.86) rotate(-78.08)"/>
        <rect class="st43" x="1400.48" y="190.79" width="63.43" height="15.62" transform="translate(941.59 1558.72) rotate(-78.06)"/>
        <rect class="st43" x="1370.72" y="184.52" width="63.43" height="15.62" transform="translate(924.12 1524.63) rotate(-78.06)"/>
      </g>
    </g>
    <g>
      <path class="st49" d="M1388.34,128.51l97.91,20.67c3.35.71,5.49,4,4.79,7.35l-2.92,13.82-110.05-23.23,2.92-13.82c.71-3.35,1.29-6,4.64-5.3l2.71.51h0Z"/>
      <g>
        <circle class="st52" cx="1475.64" cy="154.83" r="3.92"/>
        <path class="st55" d="M1475.5,155.46h0c-1.02-.22-1.68-1.22-1.46-2.24l1.87-8.83c.22-1.02,1.22-1.68,2.24-1.46h0c1.02.22,1.68,1.22,1.46,2.24l-1.87,8.83c-.22,1.02-1.22,1.68-2.24,1.46Z"/>
      </g>
      <g>
        <circle class="st52" cx="1395.3" cy="137.88" r="3.92"/>
        <path class="st55" d="M1395.16,138.51h0c-1.02-.22-1.68-1.22-1.46-2.24l1.87-8.83c.22-1.02,1.22-1.68,2.24-1.46h0c1.02.22,1.68,1.22,1.46,2.24l-1.87,8.83c-.22,1.02-1.22,1.68-2.24,1.46Z"/>
      </g>
      <g>
        <path class="st52" d="M1419.52,142.99c-.45,2.12-2.53,3.47-4.65,3.02s-3.47-2.53-3.03-4.64c.45-2.12,2.53-3.47,4.65-3.02s3.47,2.53,3.03,4.64Z"/>
        <path class="st55" d="M1415.55,142.81h0c-1.02-.22-1.68-1.22-1.46-2.24l1.87-8.83c.22-1.02,1.22-1.68,2.24-1.46h0c1.02.22,1.68,1.22,1.46,2.24l-1.87,8.83c-.22,1.02-1.22,1.68-2.24,1.46Z"/>
      </g>
      <g>
        <circle class="st48" cx="1455.87" cy="150.57" r="3.92" transform="translate(-.49 4.83) rotate(-.19)"/>
        <path class="st55" d="M1455.73,151.29h0c-1.02-.22-1.68-1.22-1.46-2.24l1.87-8.83c.22-1.02,1.22-1.68,2.24-1.46h0c1.02.22,1.68,1.22,1.46,2.24l-1.87,8.83c-.22,1.02-1.22,1.68-2.24,1.46Z"/>
      </g>
    </g>
    <path class="st41" d="M1450.43,210.77c-.51,2.43-2.9,3.99-5.34,3.47-2.43-.51-3.99-2.9-3.47-5.33.51-2.43,2.9-3.99,5.34-3.47,2.43.51,3.99,2.9,3.47,5.33Z"/>
    <path class="st58" d="M1441.2,175.94c-.51,2.43-2.9,3.99-5.34,3.47s-3.99-2.9-3.47-5.33c.51-2.43,2.9-3.99,5.34-3.47,2.43.51,3.99,2.9,3.47,5.33Z"/>
    <path class="st41" d="M1411.83,170.24c-.51,2.43-2.9,3.99-5.34,3.47-2.43-.51-3.99-2.9-3.47-5.33.51-2.43,2.9-3.99,5.34-3.47,2.43.51,3.99,2.9,3.47,5.33Z"/>
  </g>
  <g>
    <polygon class="st23" points="1253.51 484.68 1177.26 504.31 1177.26 421.56 1253.51 401.93 1253.51 484.68"/>
    <polygon class="st56" points="1152.67 350.14 1077.82 369.77 1177.26 421.56 1253.51 401.93 1152.67 350.14"/>
    <polygon class="st27" points="1152.67 350.14 1152.67 408.75 1177.26 421.56 1253.51 401.93 1152.67 350.14"/>
    <polygon class="st39" points="1152.67 350.14 1077.82 369.77 1056.93 340.5 1133.18 320.87 1152.67 350.14"/>
    <polygon class="st39" points="1152.67 350.14 1170.33 317.97 1269.76 369.77 1253.51 401.93 1152.67 350.14"/>
  </g>
  <path class="st53" d="M1135.22,360.21c4.3-3.58,9.87-6.14,16.08-7.01,14.85-2.09,27.72,6.21,28.75,18.55s-10.16,24.03-25.01,26.13c-3.16.45-6.24.42-9.13-.02-6.35,5.67-13.56,8.53-19.26,7.23-2.67-.36-5.64-1.28-8.55-2.75-7.35-3.72-11.5-9.54-9.27-13.02,1.4-2.18,4.99-2.91,9.29-2.23.72-4.38,2.47-9.15,5.29-13.83,3.26-5.43,7.44-9.91,11.82-13.04h0Z"/>
  <path class="st56" d="M1236.32,264.93c31-27.78,68.49-34.47,83.73-14.96s2.46,57.85-28.54,85.63c-6.61,5.92-13.51,10.87-20.43,14.83-9.32,22.7-24.87,41.03-41.02,46.06-23.29,7.26-39-15.87-35.1-51.66,1.6-14.65,6.24-29.14,12.75-41.66,5.88-13.16,15.64-26.62,28.6-38.24h.01Z"/>
  <path class="st50" d="M1131.01,340.13c2.38.91,4.83-5.71,6.32-8.02,8.68-13.47,19.56-19.31,27.48-14.3s7.3,19.99-1.37,33.46c-6.41,9.96-15.43,16.29-22.9,16.9-3.24.84-6.87,1.23-10.68,1.04-12.98-.64-19.02-5.91-21.63-14.13-2.28-10.18,6.44-21.19,22.78-14.95Z"/>
  <polygon class="st5" points="1077.82 445.09 1177.26 504.31 1177.26 421.56 1077.82 369.77 1077.82 445.09"/>
  <g>
    <path class="st53" d="M1175.68,308.22c26.73-3.87,53.22,18.69,59.16,50.38,5.94,31.69-10.92,60.52-37.65,64.39-8.7,1.26-17.37-.3-25.32-4.04-7.72,3.17-15.13,3.28-19.77-.12-2.34-1.39-4.76-3.48-6.91-6.12-5.43-6.66-7.1-14.31-3.74-17.08,1.21-1,2.91-1.22,4.84-.79-3.87-6.62-6.74-14.13-8.26-22.23-5.94-31.69,10.92-60.52,37.65-64.39h0Z"/>
    <path class="st40" d="M1213.52,391.3s-22.06-41.83-62.62,6.16c0,0-16.1-10.2-9.79,9.18"/>
  </g>
  <path class="st50" d="M1172.53,357.01c.53-2.78,1.32-5.63,2.38-8.49,6.16-16.65,19.08-27.3,28.85-23.77s12.7,19.89,6.53,36.55c-4.56,12.31-12.8,21.33-20.74,23.77-3.3,1.69-7.14,2.98-11.31,3.69-14.2,2.41-26.92-2.75-28.42-11.53-1.48-8.72,8.66-17.73,22.71-20.22h0Z"/>
  <g>
    <path class="st54" d="M1209.04,248.65c3.06,3.05,3.71,4.49,7.14,10.22,1.63,2.73,3.03,5.44,4.75,8.12,2.2,3.43,11.71,9.7,11.49,18.99-.37,15.85-15.46,25.09-27.16,32.85-10.42,6.91-22.14,11.9-33.71,13.25-15.99,1.86-26.22,0-34.77-9.99-1.6-1.87-4.07-2.76-6.39-3.58-12-4.25-22.82-11.37-24.53-21.01-1.2-6.78,2.31-14.69,8.17-19.28,3.97-3.1,5.36-6.77,7.25-11.43,2.02-4.97,4.68-15.91,12.03-20.23.08-.05.13-.1.17-.17.3-.62-1.55-1.99-2.61-2.92,0,0-2.22-1.96-3.82-4.97-1.9-3.58-1.75-8.86.9-12.42.47-.64,1.9-2.5,4.43-3.35,1.71-.57,3.26-.45,4.06-.3.88.17,1.69.54,2.39,1.1,1.38,1.11,2.31,2.67,3.07,4.25.99,2.05,1.82,4.18,2.51,6.35.34,1.06.64,2.13.9,3.21.11.45,1.85.65,5.09-.79,7.01-3.27,10.66-3.89,16.28-4.17,10.33-.53,17.35,1.89,25.99,4.68,1.55.5,3.09-.74,2.98-2.37-.16-2.31-.17-4.63,0-6.93.15-2.09.39-4.37,1.52-6.24.46-.76,1.1-1.39,1.86-1.85.91-.55,2.01-.74,3.06-.7,1.91.07,3.8.9,5.35,1.98,1.47,1.02,2.7,2.35,3.66,3.85,1.92,3,2.66,6.8,1.55,10.1-.88,2.63-2.74,4.9-4.84,7.06-.92.95-2.89,2.56-1.96,3.49l3.2,3.2h-.01Z"/>
    <path class="st47" d="M1181.37,273.84c-.55-.98-1.05-1.74-2.02-2.47-.25-.25-.82-.63-1.13-.83-.25-.16-.5-.32-.77-.45-.04-.02-.08-.03-.13-.05-.25-.13-.51-.24-.78-.33-.14-.05-.27-.09-.41-.12-.21-.05-.42-.08-.63-.11h-.13c-.13-.02-.25-.05-.38-.06-.35-.03-.7-.02-1.03.02-.25.03-.49.1-.72.19h-.03s-.06.03-.08.04c-.06.03-.12.04-.18.07-.01,0-.01.02-.02.02-.57.27-1.01.7-1.24,1.22-.32.74-.33,1.54-.32,2.35.02,1.14.09,2.29.51,3.45.45,1.24,1.41,2.41,2.78,3.09,1.34.67,2.99.87,4.3.49.74-.21,1.38-.56,1.88-1.05.51-.5.85-1.1,1.06-1.76.55-1.26-.53-3.71-.53-3.71h0Z"/>
    <path class="st62" d="M1162.15,303.7l-4.06,1.34c-.61.2-1.26-.13-1.47-.74l-1.2-3.62c-.49-1.48.31-3.07,1.79-3.56l.92-.3c1.48-.49,3.07.31,3.56,1.79l1.2,3.62c.2.61-.13,1.26-.74,1.47h0Z"/>
    <path class="st45" d="M1133.89,274.74c-.04-1.31.47-2.62,1.3-3.62.68-.82,1.55-1.46,2.52-1.88.27-.17.54-.32.84-.42.24-.08.49-.16.74-.2h.11c.24-.05.48-.07.72-.07.12,0,.25,0,.37.01.19.02.36.06.55.1.04,0,.07.03.11.04.11.02.22.03.33.06.3.08.58.22.85.37.2.12.38.27.55.44,0,0,.01,0,.02.01.02.02.04.05.06.07.04.05.09.09.13.13,0,0,0,.02.02.03.4.46.67,1.05.74,1.66.1.86-.08,1.67-.28,2.5-.28,1.16-.61,2.3-1.22,3.34-.66,1.11-1.72,1.98-3.01,2.21-1.26.23-2.67-.12-3.66-.94-.56-.46-1.01-1.04-1.31-1.7-.31-.68-.45-1.4-.47-2.14h-.01Z"/>
    <ellipse id="_왼반사광" class="st57" cx="1140.78" cy="272.23" rx="1.88" ry="1.8" transform="translate(-29.82 200.19) rotate(-9.9)"/>
    <ellipse class="st60" cx="1202.4" cy="233.87" rx="6.72" ry="4.35" transform="translate(741.81 1368.91) rotate(-78.92)"/>
    <ellipse class="st60" cx="1136.85" cy="236.97" rx="4.35" ry="6.72" transform="translate(3.16 488.63) rotate(-24.29)"/>
    <path class="st62" d="M1175.01,300.07c2.07,11.65,13.65,19.34,25.88,17.18,12.22-2.17,20.53-12.5,18.46-24.16-2.07-11.65-13.73-20.21-25.95-18.04-12.22,2.17-20.46,13.37-18.39,25.02h0Z"/>
    <path class="st62" d="M1110.32,295.82c1.56,8.8,10.1,14.65,19.06,13.06,8.97-1.59,14.97-10.01,13.4-18.81-1.56-8.8-10.75-14.53-19.71-12.94-8.97,1.59-14.31,9.89-12.75,18.69h0Z"/>
    <path id="_주둥이" class="st61" d="M1133.79,303.89c2.96,10.98,15.51,18.09,28.04,15.87s20.29-12.92,17.33-23.91c-2.96-10.98-15.51-18.09-28.04-15.87s-20.29,12.92-17.33,23.91Z"/>
    <path class="st56" d="M1140.93,302.13c-.01-.12.11-.3.23-.38.13-.08.27-.13.43-.14.37-.03.66.15.76.41.04.09.07.19.11.28.04.08.08.16.12.24-.02-.05-.05-.1-.07-.15.15.3.35.58.59.84.25.26.55.49.87.7.33.2.69.37,1.08.51.35.11.71.2,1.08.25.35.04.7.05,1.05.03.35-.03.7-.1,1.04-.19.39-.12.76-.27,1.11-.45.34-.19.65-.41.93-.65.26-.25.49-.52.68-.81.15-.25.26-.52.34-.79.02-.08.03-.16.04-.24,0-.04.03-.08.04-.12-.22-.26-.43-.53-.61-.81-.53-.82-.89-1.72-1.1-2.62-.11-.5-.18-1.01-.22-1.51-.03-.46-.06-.93,0-1.39.02-.21.05-.41.08-.62-4.2.02-7.86-1.88-8.69-4.77-.99-3.43,2.37-6.95,7.49-7.85,5.13-.91,10.08,1.14,11.07,4.56.99,3.43-2.37,6.95-7.49,7.85-.31.05-.61.1-.92.13,0,.02.01.03.01.05,0,.44.01.88.02,1.32,0,.22.02.45.04.67,0,.06,0,.11.02.17h0v.03c.01.11.03.22.04.33.06.44.16.88.29,1.31.06.21.14.41.22.62.04.11.09.21.13.32.01.02.08.16.04.08-.04-.08,0,.01.02.03.01.03.03.06.04.09.18.34.38.67.62.99.12.16.24.31.37.46.03.03.06.06.09.1,0,0,.03.03.05.05.06.06.12.12.18.18.29.28.61.55.96.79.08.06.16.11.24.16.04.02.08.05.12.07-.17-.12,0,0,.04.02.18.11.38.21.57.31.2.1.4.18.61.27.04.02.09.03.13.05.01,0,.03.01.05.02.1.03.2.06.3.09.22.06.44.12.66.16.1.02.2.04.31.06.05,0,.1.02.16.02h.02c.45.05.91.06,1.37.04h.15c.11-.01.23-.02.34-.04.23-.03.45-.07.67-.12.1-.02.2-.05.3-.07.02,0,.1-.03.12-.03s.03,0,.04-.01c.21-.07.41-.14.61-.22.09-.04.18-.08.27-.12.05-.02.1-.05.14-.07.02-.01.06-.03.08-.05.15-.09.3-.18.45-.28.08-.05.15-.11.22-.17.04-.03.08-.06.11-.1.02-.01.03-.03.05-.04-.01,0-.01.01-.02.02.13-.12.24-.25.34-.38.05-.06.09-.13.14-.19.02-.04.04-.08.07-.12.08-.14.14-.29.19-.44.01-.03.02-.06.03-.1,0-.01.01-.04.02-.06,0-.02,0-.04.01-.05,0-.04.01-.08.02-.12.02-.15.04-.31.04-.47v-.22h0s0-.07-.02-.1c-.03-.15-.06-.3-.12-.45-.02-.07-.05-.14-.08-.2,0-.01,0-.02-.01-.03-.01-.03-.03-.05-.04-.08-.07-.13-.16-.26-.26-.39-.04-.06-.09-.11-.14-.17h0s-.07-.07-.11-.1c-.12-.11-.25-.22-.4-.31,0,0-.01-.01-.02-.02-.03-.02-.06-.04-.09-.05-.08-.04-.17-.09-.25-.13-.34-.15-.46-.53-.23-.79.24-.26.68-.34,1.05-.19,1.68.72,2.48,2.26,2.29,3.69-.1.72-.41,1.44-.99,2.03-.63.64-1.47,1.16-2.43,1.48-.98.33-2.04.5-3.11.49-1.08,0-2.11-.21-3.07-.56-.9-.32-1.7-.77-2.39-1.31-.2.47-.49.92-.88,1.32-.68.68-1.57,1.27-2.62,1.61-.52.17-1.07.3-1.64.35-.65.05-1.25.04-1.89-.06-1.12-.16-2.14-.6-2.96-1.18-.46-.32-.85-.71-1.15-1.12-.33-.45-.52-.96-.57-1.48l-.02.03h0Z"/>
    <circle id="_오른반사광" class="st57" cx="1174.22" cy="272.97" r="2.01"/>
  </g>
  <g>
    <polygon class="st11" points="680.59 370.94 572.29 390.57 572.29 315.77 680.59 296.15 680.59 370.94"/>
    <polygon class="st11" points="607.86 259.55 499.57 279.17 572.29 315.77 680.59 296.15 607.86 259.55"/>
    <polygon class="st20" points="635.2 273.34 526.9 292.97 541.24 300.13 649.53 280.5 635.2 273.34"/>
    <polygon class="st11" points="499.57 353.97 572.29 390.57 572.29 315.77 499.57 279.17 499.57 353.97"/>
    <polygon class="st20" points="541.1 325.79 541.1 300.08 526.97 292.97 526.97 319.02 541.1 325.79"/>
  </g>
  <g>
    <rect class="st25" x="589.47" y="585.76" width="181.36" height="131.85"/>
    <polygon class="st36" points="755.32 626.57 611.58 626.57 589.47 585.76 770.84 585.76 755.32 626.57"/>
    <polygon class="st27" points="741.81 522.47 618.33 522.47 589.47 585.76 770.84 585.76 741.81 522.47"/>
    <polygon class="st27" points="741.81 522.47 618.33 522.47 605.79 498.37 752.42 498.37 741.81 522.47"/>
    <line class="st22" x1="739.88" y1="522.47" x2="739.88" y2="583.19"/>
  </g>
  <g>
    <polygon class="st25" points="608.49 288.65 529.25 309.43 529.25 221.83 608.49 201.05 608.49 288.65"/>
    <polygon class="st36" points="531.5 162.3 452.26 183.08 529.25 221.83 608.49 201.05 531.5 162.3"/>
    <polygon class="st5" points="452.26 270.68 529.25 309.43 529.25 221.83 452.26 183.08 452.26 270.68"/>
    <line class="st22" x1="494.93" y1="172.29" x2="568.87" y2="211.84"/>
  </g>
  <g>
    <g>
      <path class="st28" d="M397.4,384.91c-25.08-3.28-26.03-31.35-27.28-49.21-.19-2.72-.18-5.88,2.18-7.62,6.63-4.87,22.48-4.77,30.63-4.74,14.95.06,29.39-.93,44.22,1.77,11.56,2.11,7.3,14.5,7.69,22.26.53,10.09-3.87,17.11-7.56,26.48-2.04,5.17-3.88,7.57-9.96,8.55-12.93,2.1-26.79,4.22-39.93,2.5h0Z"/>
      <path class="st32" d="M392.93,330.49c17.39-1.27,47.11-.41,51.48,1.29,2.33.9,5.12,2.71,4.2,4.82-.4.93-1.44,1.5-2.46,1.91-7.37,2.94-19.67,1.32-28.04,2.19-6.84.71-35.67-.86-38.46-3.63-3.2-3.18,1.44-5.7,13.27-6.57h0Z"/>
      <g>
        <path class="st7" d="M423.85,295.59c-.06,3.61-.16,7.21-.25,10.81-.15,5.89,4.65,26.72-1.66,30.25-.88.49-1.97.51-3.01.52-3.24.03-6.48.05-9.72.08-2.07.02-4.48-.11-5.69-1.61-.77-.95-.83-2.2-.84-3.37-.15-18.51,2.81-37.28,3.6-55.83.86-20.28,2.55-40.52,4.24-60.75.98-11.73,1.87-23.47,2.92-35.2.96-10.66.64-21.09,5.06-31.31,1.45-.97,2.94,1.19,3.16,2.79,1.16,8.42.69,16.08,1.1,24.44.65,13.24.83,26.49.66,39.73-.21,16.67-2.85,33.69-.75,50.13,1.25,9.74,1.34,19.53,1.17,29.32h0Z"/>
        <path class="st34" d="M381.22,246.84c-3.66.85-6.83,2.86-9.9,4.84-6.06,3.91-12.42,8.22-14.91,14.51-3.18,8.03.99,17.06,7.28,23.47,4.26,4.34,10.52,8.14,16.82,6.8,3.51-.75,6.24-2.46,9.98-2.28,3.23.15,5.78,2.21,9.19,2.03,15.67-.84,17.32-18.47,12.66-28.63-2.76-6.03-7.93-11.51-.28-17.25-4.88,3.58-23.78-5.12-30.83-3.48h-.01Z"/>
        <path class="st34" d="M439.89,235.29c1.74,2.46,3.63,4.89,6.15,6.75,5.67,4.18,14.36,4.74,20.64,1.32s9.69-10.56,8.11-16.96c-2.18-8.81-11.89-14.1-19.5-20.06-2.02-1.58-3.98-3.3-6.42-4.32-4.54-1.89-10.17-.93-14.14,1.79-7.7,5.27-13.29,21.31-12.78,29.64,8.22-5.14,11.96-6.62,17.95,1.83h0Z"/>
        <path class="st34" d="M407.93,216.51c-2.16,5.28-21.46,7.36-25.08,11.66-8.94,10.62-6.28,26.92-24.16,31.67-9.59,2.55-17.93-1.48-20.98-9.54-1.57-4.16-.36-6.26-4.34-9.39-4.22-3.32-8.67-2.31-10.19-8.42-1.29-5.19.35-10.9,4.29-14.9,13.62-13.83,53.2-14.75,71-9.14,2.63.83,5.34,1.7,7.36,3.42,2.11,1.8,2.64,3.32,2.1,4.64h0Z"/>
        <path class="st34" d="M364.61,191.33c10.13-1.78,16.77-11.64,27.73-10.98,4.48.27,8.72,1.83,13.01,3.03,1.32.37,2.9.67,3.98-.11,1.18-.86,1.04-2.5.57-3.79-2.72-7.49-11.67-11.54-16.95-17.84-5.25-6.27-6.83-14.76-13.12-20.22-8.77-7.61-28.76-11.49-34.32,1.42-.99,2.29.17,5.07-.98,7.4-1.62,3.27-4.73,4.1-7.07,6.67-8.6,9.45-.77,21.09,7.8,28.51,5.09,4.41,12.4,7.12,19.36,5.9h-.01Z"/>
        <path class="st34" d="M458.28,136.05c5.41-.63,10.88,1.55,15.87,8.12,2.11,2.78.91,6.39,4.1,8.93,29.17,23.27-14,32.85-36.36,34.85-4.73.42-9.69,1.81-12.57,5.12-1.29,1.48-2.09,3.27-3.51,4.66s-3.86,2.28-5.69,1.32c1.07-9.13,4.95-18.08,6.83-27,2.5-11.84,16.67-34.28,31.33-36h0Z"/>
        <path class="st19" d="M422.65,195.7c.56-10.27,8.78-18.8,16.87-26.14,3.96-3.59,8.04-7.16,12.89-9.74,4.85-2.59,10.58-4.15,16.17-3.39"/>
        <path class="st34" d="M418.89,135.67c.66-14.44,2.56-30.01-5.11-42.34-3.14-5.05-14.21-15.01-21.87-12.96-7.25,1.93-4.42,10.34-14.52,10.89-20.51,1.12-18.41,14.26-11.31,28.26,3.16,6.24,8.52,11.64,14.78,15.57,11.22,7.05,29.41,10.64,32.51,24.49.59.2,1.18.41,1.77.61,3.81-2.77,4.1-7.81,3.77-12.19-.3-3.94-.21-8.08-.01-12.33h-.01Z"/>
        <path class="st34" d="M424.52,162.36c-3.68-10.31,4.45-17.73,11.99-23.87,2.33-1.9,4.82-3.81,7.82-4.51,3.91-.92,8.14.43,11.26,2.82,3.12,2.39,5.28,5.71,6.99,9.14,3.33,6.65,4.84,15.41-.65,20.65-3.34,3.19-8.88,4.12-13.19,2.22s-6.93-6.04-10.66-8.82-10.3-3.52-12.44.46"/>
        <path class="st34" d="M493.82,279.73c5.53-5.35,5.68-18.77,3.17-25.55-3.91-10.54-12.47-14.04-23.38-15-14.64-1.29-26.68-6.07-41.16-.46-4.52,1.75-8.78,4.05-12.63,6.8,10.19,5.63,9.46,16.52,8.31,25.9-.38,3.14-1.18,6.26-1.22,9.42-.15,11.98,11.45,22.61,24.71,24.64,14.52,2.22,15.75-15.02,26.99-19.43,5.17-2.03,11.37-2.61,15.2-6.31h.01Z"/>
        <path class="st19" d="M359.98,159.07c9.16-.69,17.31,4.75,24.45,9.91,6.75,4.88,14.09,9.99,22.76,10.52"/>
        <path class="st19" d="M392.36,104.21c8.55,8.31,14.48,18.74,16.95,29.8,1.6,7.18,6.22,17.68,4.44,25.41"/>
        <path class="st19" d="M353.04,229.79c.14-3.61,3.64-6.37,7.14-8.18,6.23-3.23,13.43-4.95,20.64-4.95,4.41,0,8.82.64,13.22.41,4.41-.23,9.01-1.48,11.83-4.51"/>
        <path class="st19" d="M384.44,277.75c-2.15-5.84,2.74-11.95,8.41-15.46,5.67-3.51,12.44-5.72,17.14-10.23"/>
        <path class="st19" d="M426.66,157.06c-.2-3.84,4.07-6.53,7.82-8.43,1.93-.98,3.93-1.98,6.14-2.17,4.58-.41,8.54,2.64,11.87,5.48"/>
        <path class="st19" d="M423.86,227.52c2.92-2.4,6.05-4.59,9.36-6.54,3.27-1.93,7.04-3.7,10.92-3.19,3.84.5,7.06,3.16,10.93,3.44"/>
        <path class="st19" d="M423.02,243.42c5.79,1.62,11.59,3.25,17.38,4.87,1.79.5,3.61,1.01,5.21,1.9,7.64,4.23,7.42,14.9,14.51,19.83"/>
      </g>
    </g>
    <path class="st19" d="M371.21,353.16c-3.4-.34-6.95.71-9.45,2.79-12.39,10.3,29.14,8.63,32.43,8.7,14.04.3,28.09.44,42.13.76,5.48.13,26.62.16,29.23-5.34,2.43-5.11-5.88-9.44-10.41-8.09"/>
    <line class="st19" x1="355.02" y1="469.83" x2="372.71" y2="365.19"/>
    <line class="st19" x1="472.31" y1="469.83" x2="454.62" y2="365.19"/>
    <line class="st19" x1="413.74" y1="481.26" x2="414.65" y2="366.52"/>
  </g>
  <polygon class="st36" points="1275.37 429.2 1200.57 448.82 1178.7 423.53 1253.5 403.91 1275.37 429.2"/>
</svg>