<?xml version="1.0" encoding="UTF-8"?>
<svg id="Layer_1" xmlns="http://www.w3.org/2000/svg" version="1.1" viewBox="0 0 2600 918">
  <!-- Generator: Adobe Illustrator 29.6.1, SVG Export Plug-In . SVG Version: 2.1.1 Build 9)  -->
  <defs>
    <style>
      .st0, .st1, .st2, .st3, .st4, .st5, .st6, .st7, .st8, .st9, .st10, .st11, .st12, .st13, .st14, .st15, .st16, .st17, .st18 {
        stroke: #4c241e;
        stroke-linecap: round;
        stroke-linejoin: round;
      }

      .st0, .st3, .st9, .st10 {
        fill: #ffe6d0;
      }

      .st0, .st12 {
        stroke-width: 2.71px;
      }

      .st1, .st2, .st5, .st9, .st17, .st18 {
        stroke-width: 3.24px;
      }

      .st1, .st4 {
        fill: #bf7249;
      }

      .st2, .st11, .st15 {
        fill: none;
      }

      .st3, .st4, .st15 {
        stroke-width: 2.37px;
      }

      .st5, .st13 {
        fill: #ffc550;
      }

      .st6, .st7 {
        fill: #ea6161;
      }

      .st6, .st8, .st10, .st11, .st14, .st16 {
        stroke-width: 3.13px;
      }

      .st7, .st13 {
        stroke-width: 2.72px;
      }

      .st8 {
        fill: #8f4f50;
      }

      .st12, .st17 {
        fill: #f2915c;
      }

      .st14 {
        fill: #e5b17f;
      }

      .st16 {
        fill: #a95c40;
      }

      .st18 {
        fill: #6890a9;
      }
    </style>
  </defs>
  <g>
    <path class="st8" d="M1979.9,153.55l-2.61,191.05c13.51.43,198.78.95,198.78.95l1.22-191.49-197.39-.51h0Z"/>
    <path class="st10" d="M2155.53,324.94l-.23-150.78-155.3.43s-.76,141.1-1.16,150.34h156.69Z"/>
    <path class="st11" d="M2154.21,324.64l21.1,19.74"/>
    <path class="st11" d="M1977.75,343.86l20.83-19.56"/>
    <path class="st11" d="M2157.53,173.66l19.65-19.42"/>
    <path class="st11" d="M1980.65,156.31l18.36,17.19"/>
    <path class="st16" d="M2144.45,319.31c-9.84-16.12-23.19-29.26-36.62-41.1-4.66-4.11-9.71-7.61-14.04-12.19-13.04-13.82-20.44-37.83-37.57-41.6-8.39,4.34-6.72,14.44-6.96,23.8-.41,15.91-2.82,31.75-6.94,47.12-2.29,8.51-5.03,17.89-1.09,25.8,11.41,2.18,93.41,3.09,112.38,3.09-2.33-1.32-6.82-3.59-9.15-4.91h-.01Z"/>
    <path class="st14" d="M2087.9,277.93c-8.77-9.06-14.84-20.68-21.75-35.09-4.67-9.76-11.19-7.77-12.82-18.86-6.43-.03-9.76,25.92-12.52,32.88-4.4,11.1-8.81,4.61-14.74,14.63-5.43,9.18-12.8,16.46-18.92,25-6.13,8.54-8.15,16.52-7.42,27.74l111.02-.7c-7.17-13.09-12.91-35.35-22.83-45.6h-.02Z"/>
    <path class="st6" d="M2115.68,236.25c.46-.24.93-.49,1.39-.77,21.08-12.82-3.87-42.43-20.21-22.67-10.88,13.15,2.94,31.59,18.82,23.46h0v-.02Z"/>
  </g>
  <g>
    <path class="st1" d="M258.79,275.42l-.74,155.92c19.97.48,270-1.25,270-1.25l-.37-153.96-268.88-.7h-.01Z"/>
    <path class="st9" d="M502.28,404.33l.6-103.04-216.87.42-1.59,102.53,217.85.09h.01Z"/>
    <path class="st2" d="M500.32,403.99l26.58,24.75"/>
    <path class="st2" d="M258.57,431.4c8.72-10.39,25.48-27.86,25.48-27.86"/>
    <path class="st2" d="M502.46,301.49l25.05-25.16"/>
    <path class="st2" d="M259.9,278.57l26.54,23.89"/>
    <path class="st17" d="M435.08,321.76l1.56,64.74c3.78.22,51.47-.34,51.47-.34l-.3-64.07-52.74-.32h.02Z"/>
    <path class="st18" d="M367.36,321.76l.55,64.74c3.78.22,51.47-.34,51.47-.34l.11-63.62-52.13-.77h0Z"/>
    <path class="st9" d="M456.03,332.21c-4.24,1.51-7.56,5.31-7.06,11.18,1.14,13.23,22.91,11.57,22.48-1.29-.3-9.15-8.94-12.19-15.42-9.87h0Z"/>
    <path class="st5" d="M436.59,366.43c2.48-4.9,7.88-8.96,12.32-5.85,4.43,3.11,6.93,8.31,9.81,12.97s9.94,12.25,15.24,12.94l-37.84.19.47-20.25h0Z"/>
    <path class="st5" d="M337.05,367.87c-4.33-.1-14.73-1.67-14.27-7.82.54-6.98,14.73-5.5,19.65-9.01,8.67-6.21,7.75-18.1,7.1-28.64l-45.44-.58c-.64,2.85,4.69,8.2,7.48,8.76,4.7.92,11.98-1.25,15.68,1.93,7.81,6.74-7.03,8.13-9.38,8.58-6.19,1.21-9.49,3.82-12.73,9.64-5.82,10.44-5.22,23.74-4.71,35.24l51.92-.71c2.18-10.98-7.76-17.23-15.29-17.4h-.01Z"/>
  </g>
  <g>
    <path class="st4" d="M1842.44,380.04l-.49,125.93c13.31.39,180-1.02,180-1.02l-.25-124.35-179.26-.56Z"/>
    <path class="st3" d="M2004.76,484.16l.41-83.22-144.59.34-1.06,82.81,145.23.07h.01Z"/>
    <path class="st15" d="M2003.46,483.88l17.72,20.01"/>
    <path class="st15" d="M1842.29,506.03c5.82-8.39,16.99-22.51,16.99-22.51"/>
    <path class="st15" d="M2004.89,401.09l16.69-20.32"/>
    <path class="st15" d="M1843.17,382.58l17.7,19.3"/>
    <path class="st7" d="M1881.74,416.96l-.14,51.65c3.32.17,45.32-.28,45.32-.28l-1.18-51.63-43.99.25h-.01,0Z"/>
    <path class="st12" d="M1942,416.33l1.37,52.25c3.32.17,45.28-.28,45.28-.28l-.26-51.71-46.4-.26h.01Z"/>
    <path class="st13" d="M1883.01,468.2c5.68-6.7,5.63-16.67,8.11-24.54,1.67-5.26,6.38-15.16,13.17-12.19,5.16,2.26,11.55,27.18,22.41,18.77l-.37,17.97h-43.32Z"/>
    <path class="st0" d="M1960.44,424.77c-3.73,1.22-6.66,4.29-6.21,9.01,1.01,10.68,20.15,9.34,19.79-1.05-.26-7.38-7.86-9.83-13.57-7.97h-.01Z"/>
    <path class="st13" d="M1943.32,452.42c2.19-3.96,6.94-7.24,10.85-4.73,3.9,2.51,6.1,6.72,8.65,10.48s8.75,9.9,13.42,10.45l-33.32.15.41-16.36h-.01Z"/>
  </g>
</svg>