<?xml version="1.0" encoding="UTF-8"?>
<svg id="Layer_1" xmlns="http://www.w3.org/2000/svg" version="1.1" viewBox="0 0 2600 870">
  <!-- Generator: Adobe Illustrator 29.6.1, SVG Export Plug-In . SVG Version: 2.1.1 Build 9)  -->
  <defs>
    <style>
      .st0 {
        fill: #ea6161;
      }

      .st0, .st1, .st2 {
        stroke-linecap: round;
        stroke-linejoin: round;
      }

      .st0, .st1, .st2, .st3, .st4 {
        stroke: #4c241e;
      }

      .st0, .st4 {
        stroke-width: 3px;
      }

      .st1 {
        stroke-width: 2.5px;
      }

      .st1, .st2, .st5 {
        fill: #ffcd7e;
      }

      .st2 {
        stroke-width: 2.76px;
      }

      .st6 {
        fill: #4c241e;
      }

      .st3 {
        fill: #383331;
        stroke-width: .87px;
      }

      .st3, .st4 {
        stroke-miterlimit: 10;
      }

      .st4 {
        fill: #ffcaba;
      }
    </style>
  </defs>
  <rect class="st3" x="1299.21" y=".29" width="1.57" height="110"/>
  <path class="st4" d="M1380.99,176.75c0,3.71-36.26,6.7-80.99,6.7s-81.01-3-81.01-6.7c0-3.1,25.3-5.7,59.7-6.47,6.79-.15,13.93-.23,21.31-.23s14.51.08,21.31.23c34.39.77,59.69,3.37,59.69,6.47h-.01Z"/>
  <g>
    <path class="st2" d="M1299.77,207.83c10.43.12,18.99-8.23,19.11-18.65.07-5.66-2.41-11.04-6.75-14.68-.8-.66-2.02-1.45-1.99-3.1,0-.05-.08-4.12-.08-4.12h-19.87s-.08,4.23-.08,4.28c0,1.45-1.13,2.08-1.95,2.73-4.4,3.52-6.98,8.82-7.05,14.45-.12,10.42,8.24,18.97,18.67,19.09h-.01Z"/>
    <path class="st1" d="M1299.77,207.83c10.43.12,18.99-8.23,19.11-18.65.07-5.66-2.41-11.04-6.75-14.68-.8-.66-2.02-1.45-1.99-3.1,0-.05-.08-4.12-.08-4.12h-19.87s-.08,4.23-.08,4.28c0,1.45-1.13,2.08-1.95,2.73-4.4,3.52-6.98,8.82-7.05,14.45-.12,10.42,8.24,18.97,18.67,19.09h-.01Z"/>
    <g>
      <path class="st5" d="M1304.07,171.4c-1.45,4.93-1.7,10.3-.73,15.38.16.82.53,1.81,1.27,1.83.66.02,1.09-.79,1.24-1.53.5-2.59-.84-5.23-2.57-7.02-.93-.97-2.06-1.82-3.32-1.88-1.27-.06-2.47.69-3.39,1.68-1.75,1.91-2.63,4.9-1.99,7.56.27,1.13,1.07,2.34,2.08,2.12.61-.13,1.05-.77,1.21-1.45.16-.68.08-1.4,0-2.09-.64-5.02-1.87-9.94-3.64-14.59"/>
      <path class="st6" d="M1302.98,171.1c-.78,2.69-1.22,5.47-1.33,8.26-.1,2.65-.04,5.61.71,8.17.28.97.87,1.97,1.94,2.16,1.16.2,2.03-.68,2.42-1.69.89-2.27.03-5.02-1.25-6.96s-3.24-3.97-5.67-3.98-4.43,2.01-5.46,4.04-1.54,4.84-.72,7.12c.35.96.97,1.95,1.97,2.32,1.1.42,2.23-.08,2.87-1.04.79-1.2.62-2.64.44-3.98-.22-1.64-.49-3.28-.83-4.9-.68-3.23-1.61-6.41-2.78-9.5-.51-1.34-2.68-.76-2.17.6,1.47,3.9,2.56,7.93,3.26,12.03.08.47.9,4.83-.03,4.66-.52-.09-.75-1.47-.8-1.83-.12-.87-.06-1.78.14-2.64.39-1.63,1.3-3.31,2.76-4.2,1.64-.99,3.1.09,4.22,1.32s2.05,2.87,2.14,4.58c.02.38.01.77-.06,1.14-.02.08-.2.5-.18.57,0,0,0,.37.18.16,0,0-.24-.66-.28-.8-.12-.5-.2-1.02-.27-1.53-.67-4.5-.31-9.12.95-13.48.4-1.39-1.77-1.99-2.17-.6h0Z"/>
    </g>
  </g>
  <path class="st0" d="M1278.46,170.28c6.79-.15,13.93-.23,21.31-.23s14.51.08,21.31.23c30.9.7,54.44,2.86,58.91,5.54-1.46-4.62-5.75-17.08-11.35-23.91-6.97-8.49-42.33-17.05-49.47-23.85-7.14-6.79-3.57-24.89-5.44-28.62-1.78-3.56-12.82-3.73-13.85-3.73s-11.99,0-13.77,3.55c-1.87,3.74,1.74,21.56-5.4,28.35s-42.48,15.83-49.45,24.32c-5.51,6.71-9.73,18.86-11.26,23.65,5.45-2.57,28.5-4.63,58.46-5.3h0Z"/>
</svg>