<?xml version="1.0" encoding="UTF-8"?>
<svg xmlns="http://www.w3.org/2000/svg" version="1.1" viewBox="0 0 2600 873.9">
  <!-- Generator: Adobe Illustrator 29.6.1, SVG Export Plug-In . SVG Version: 2.1.1 Build 9)  -->
  <defs>
    <style>
      .st0, .st1, .st2, .st3, .st4, .st5, .st6, .st7, .st8, .st9, .st10, .st11, .st12, .st13, .st14, .st15, .st16, .st17, .st18, .st19, .st20, .st21, .st22, .st23 {
        stroke: #4c241e;
      }

      .st0, .st1, .st2, .st3, .st4, .st5, .st6, .st7, .st8, .st10, .st11, .st12, .st13, .st14, .st15, .st16, .st17, .st18, .st19, .st20, .st22, .st23 {
        stroke-linecap: round;
        stroke-linejoin: round;
      }

      .st0, .st1, .st6, .st16 {
        fill: #ffe6d0;
      }

      .st0, .st3, .st4, .st5, .st13, .st15 {
        stroke-width: 3.24px;
      }

      .st1, .st18 {
        stroke-width: 2.71px;
      }

      .st2, .st10, .st11 {
        fill: #ea6161;
      }

      .st2, .st21 {
        stroke-width: 3px;
      }

      .st3, .st17, .st22 {
        fill: none;
      }

      .st4, .st19 {
        fill: #ffc550;
      }

      .st24 {
        opacity: .73;
      }

      .st5, .st18 {
        fill: #f2915c;
      }

      .st6, .st7, .st22 {
        stroke-width: 2.37px;
      }

      .st7, .st13 {
        fill: #bf7249;
      }

      .st8 {
        stroke-width: 2.5px;
      }

      .st8, .st14, .st25 {
        fill: #ffcd7e;
      }

      .st9 {
        fill: #383331;
        stroke-width: .87px;
      }

      .st9, .st21 {
        stroke-miterlimit: 10;
      }

      .st26 {
        fill: #997f7f;
      }

      .st10, .st12, .st16, .st17, .st20, .st23 {
        stroke-width: 3.13px;
      }

      .st11, .st19 {
        stroke-width: 2.72px;
      }

      .st12 {
        fill: #8f4f50;
      }

      .st14 {
        stroke-width: 2.76px;
      }

      .st27 {
        fill: #4c241e;
      }

      .st15 {
        fill: #6890a9;
      }

      .st20 {
        fill: #e5b17f;
      }

      .st21 {
        fill: #ffcaba;
      }

      .st23 {
        fill: #a95c40;
      }
    </style>
  </defs>
  <g id="Layer_1">
    <polygon class="st26" points=".23 0 .23 872.42 1298.93 131.33 2600.23 873.9 2600.23 0 .23 0"/>
  </g>
  <g id="Layer_2">
    <rect class="st9" x="1295.66" width="1.57" height="110"/>
    <path class="st21" d="M1377.44,176.46c0,3.71-36.26,6.7-80.99,6.7s-81.01-3-81.01-6.7c0-3.1,25.3-5.7,59.7-6.47,6.79-.15,13.93-.23,21.31-.23s14.51.08,21.31.23c34.39.77,59.69,3.37,59.69,6.47h-.01Z"/>
    <g>
      <path class="st14" d="M1296.22,207.54c10.43.12,18.99-8.23,19.11-18.65.07-5.66-2.41-11.04-6.75-14.68-.8-.66-2.02-1.45-1.99-3.1,0-.05-.08-4.12-.08-4.12h-19.87s-.08,4.23-.08,4.28c0,1.45-1.13,2.08-1.95,2.73-4.4,3.52-6.98,8.82-7.05,14.45-.12,10.42,8.24,18.97,18.67,19.09h-.01Z"/>
      <path class="st8" d="M1296.22,207.54c10.43.12,18.99-8.23,19.11-18.65.07-5.66-2.41-11.04-6.75-14.68-.8-.66-2.02-1.45-1.99-3.1,0-.05-.08-4.12-.08-4.12h-19.87s-.08,4.23-.08,4.28c0,1.45-1.13,2.08-1.95,2.73-4.4,3.52-6.98,8.82-7.05,14.45-.12,10.42,8.24,18.97,18.67,19.09h-.01Z"/>
      <g>
        <path class="st25" d="M1300.52,171.11c-1.45,4.93-1.7,10.3-.73,15.38.16.82.53,1.81,1.27,1.83.66.02,1.09-.79,1.24-1.53.5-2.59-.84-5.23-2.57-7.02-.93-.97-2.06-1.82-3.32-1.88-1.27-.06-2.47.69-3.39,1.68-1.75,1.91-2.63,4.9-1.99,7.56.27,1.13,1.07,2.34,2.08,2.12.61-.13,1.05-.77,1.21-1.45.16-.68.08-1.4,0-2.09-.64-5.02-1.87-9.94-3.64-14.59"/>
        <path class="st27" d="M1299.43,170.81c-.78,2.69-1.22,5.47-1.33,8.26-.1,2.65-.04,5.61.71,8.17.28.97.87,1.97,1.94,2.16,1.16.2,2.03-.68,2.42-1.69.89-2.27.03-5.02-1.25-6.96s-3.24-3.97-5.67-3.98-4.43,2.01-5.46,4.04-1.54,4.84-.72,7.12c.35.96.97,1.95,1.97,2.32,1.1.42,2.23-.08,2.87-1.04.79-1.2.62-2.64.44-3.98-.22-1.64-.49-3.28-.83-4.9-.68-3.23-1.61-6.41-2.78-9.5-.51-1.34-2.68-.76-2.17.6,1.47,3.9,2.56,7.93,3.26,12.03.08.47.9,4.83-.03,4.66-.52-.09-.75-1.47-.8-1.83-.12-.87-.06-1.78.14-2.64.39-1.63,1.3-3.31,2.76-4.2,1.64-.99,3.1.09,4.22,1.32s2.05,2.87,2.14,4.58c.02.38.01.77-.06,1.14-.02.08-.2.5-.18.57,0,0,0,.37.18.16,0,0-.24-.66-.28-.8-.12-.5-.2-1.02-.27-1.53-.67-4.5-.31-9.12.95-13.48.4-1.39-1.77-1.99-2.17-.6h0Z"/>
      </g>
    </g>
    <path class="st2" d="M1274.91,169.99c6.79-.15,13.93-.23,21.31-.23s14.51.08,21.31.23c30.9.7,54.44,2.86,58.91,5.54-1.46-4.62-5.75-17.08-11.35-23.91-6.97-8.49-42.33-17.05-49.47-23.85-7.14-6.79-3.57-24.89-5.44-28.62-1.78-3.56-12.82-3.73-13.85-3.73s-11.99,0-13.77,3.55c-1.87,3.74,1.74,21.56-5.4,28.35s-42.48,15.83-49.45,24.32c-5.51,6.71-9.73,18.86-11.26,23.65,5.45-2.57,28.5-4.63,58.46-5.3h0Z"/>
  </g>
  <g id="Layer_3">
    <g class="st24">
      <path class="st12" d="M2012.67,117.07l-2.34,171.26c12.11.39,178.19.85,178.19.85l1.09-171.65-176.94-.46h0Z"/>
      <path class="st16" d="M2170.11,270.7l-.21-135.16-139.21.39s-.68,126.48-1.04,134.76h140.46Z"/>
      <path class="st17" d="M2168.92,270.44l18.91,17.69"/>
      <path class="st17" d="M2010.74,287.66l18.67-17.53"/>
      <path class="st17" d="M2171.9,135.1l17.61-17.41"/>
      <path class="st17" d="M2013.34,119.54l16.46,15.41"/>
      <path class="st23" d="M2160.17,265.66c-8.82-14.45-20.79-26.23-32.83-36.84-4.18-3.68-8.7-6.82-12.59-10.93-11.69-12.39-18.32-33.91-33.68-37.29-7.52,3.89-6.02,12.94-6.24,21.33-.37,14.26-2.53,28.46-6.22,42.24-2.05,7.63-4.51,16.04-.98,23.13,10.23,1.95,83.73,2.77,100.74,2.77-2.09-1.18-6.11-3.22-8.2-4.4h0Z"/>
      <path class="st20" d="M2109.48,228.56c-7.86-8.12-13.3-18.54-19.5-31.45-4.19-8.75-10.03-6.97-11.49-16.91-5.76-.03-8.75,23.23-11.22,29.47-3.94,9.95-7.9,4.13-13.21,13.11-4.87,8.23-11.47,14.75-16.96,22.41-5.49,7.66-7.31,14.81-6.65,24.87l99.52-.63c-6.43-11.73-11.57-31.69-20.46-40.88h-.02,0Z"/>
      <path class="st10" d="M2134.38,191.2c.41-.22.83-.44,1.25-.69,18.9-11.49-3.47-38.03-18.12-20.32-9.75,11.79,2.64,28.32,16.87,21.03h0v-.02h0Z"/>
    </g>
    <g class="st24">
      <path class="st13" d="M469.87,226.31l-.66,139.77c17.9.43,242.03-1.12,242.03-1.12l-.33-138.01-241.02-.63h0Z"/>
      <path class="st0" d="M688.13,341.87l.54-92.37-194.4.38-1.43,91.91,195.28.08h0,0Z"/>
      <path class="st3" d="M686.37,341.56l23.83,22.19"/>
      <path class="st3" d="M469.67,366.14c7.82-9.31,22.84-24.97,22.84-24.97"/>
      <path class="st3" d="M688.29,249.68l22.45-22.55"/>
      <path class="st3" d="M470.86,229.14l23.79,21.42"/>
      <path class="st5" d="M627.89,267.85l1.4,58.03c3.39.2,46.14-.3,46.14-.3l-.27-57.43-47.28-.29h.02,0Z"/>
      <path class="st15" d="M567.19,267.85l.49,58.03c3.39.2,46.14-.3,46.14-.3l.1-57.03-46.73-.69h0Z"/>
      <path class="st0" d="M646.67,277.22c-3.8,1.35-6.78,4.76-6.33,10.02,1.02,11.86,20.54,10.37,20.15-1.16-.27-8.2-8.01-10.93-13.82-8.85h0v-.02Z"/>
      <path class="st4" d="M629.25,307.9c2.22-4.39,7.06-8.03,11.04-5.24,3.97,2.79,6.21,7.45,8.79,11.63s8.91,10.98,13.66,11.6l-33.92.17.42-18.15h0Z"/>
      <path class="st4" d="M540.02,309.19c-3.88-.09-13.2-1.5-12.79-7.01.48-6.26,13.2-4.93,17.61-8.08,7.77-5.57,6.95-16.22,6.36-25.67l-40.73-.52c-.57,2.55,4.2,7.35,6.71,7.85,4.21.82,10.74-1.12,14.06,1.73,7,6.04-6.3,7.29-8.41,7.69-5.55,1.08-8.51,3.42-11.41,8.64-5.22,9.36-4.68,21.28-4.22,31.59l46.54-.64c1.95-9.84-6.96-15.44-13.71-15.6h0,0Z"/>
    </g>
    <g class="st24">
      <path class="st7" d="M1889.45,320.1l-.44,112.88c11.93.35,161.35-.91,161.35-.91l-.22-111.47-160.69-.5Z"/>
      <path class="st6" d="M2034.96,413.43l.37-74.6-129.61.3-.95,74.23,130.18.06h0Z"/>
      <path class="st22" d="M2033.79,413.18l15.88,17.94"/>
      <path class="st22" d="M1889.32,433.03c5.22-7.52,15.23-20.18,15.23-20.18"/>
      <path class="st22" d="M2035.07,338.97l14.96-18.21"/>
      <path class="st22" d="M1890.11,322.37l15.87,17.3"/>
      <path class="st11" d="M1924.68,353.19l-.13,46.3c2.98.15,40.62-.25,40.62-.25l-1.06-46.28-39.43.22h0,0Z"/>
      <path class="st18" d="M1978.7,352.63l1.23,46.84c2.98.15,40.59-.25,40.59-.25l-.23-46.35-41.59-.23h0Z"/>
      <path class="st19" d="M1925.82,399.12c5.09-6.01,5.05-14.94,7.27-22,1.5-4.72,5.72-13.59,11.81-10.93,4.63,2.03,10.35,24.36,20.09,16.83l-.33,16.11h-38.83Z"/>
      <path class="st1" d="M1995.23,360.19c-3.34,1.09-5.97,3.85-5.57,8.08.91,9.57,18.06,8.37,17.74-.94-.23-6.62-7.05-8.81-12.16-7.14h0Z"/>
      <path class="st19" d="M1979.88,384.98c1.96-3.55,6.22-6.49,9.73-4.24,3.5,2.25,5.47,6.02,7.75,9.39s7.84,8.87,12.03,9.37l-29.87.13.37-14.67h0Z"/>
    </g>
  </g>
</svg>